0
SECTION
2
HEADER
9
$INSUNITS
70
4
9
$ACADVER
1
AC1014
9
$HANDSEED
5
FFFF
0
ENDSEC
0
SECTION
2
TABLES
0
TABLE
2
VPORT
5
8
100
AcDbSymbolTable
0
ENDTAB
0
TABLE
2
LTYPE
5
5
100
AcDbSymbolTable
0
LTYPE
5
14
100
AcDbSymbolTableRecord
100
AcDbLinetypeTableRecord
2
BYBLOCK
70
0
0
LTYPE
5
15
100
AcDbSymbolTableRecord
100
AcDbLinetypeTableRecord
2
BYLAYER
70
0
0
ENDTAB
0
TABLE
2
LAYER
5
2
100
AcDbSymbolTable
70
2
0
LAYER
5
50
100
AcDbSymbolTableRecord
100
AcDbLayerTableRecord
2
0
70
0
6
CONTINUOUS
0
ENDTAB
0
TABLE
2
STYLE
5
3
100
AcDbSymbolTable
70
1
0
STYLE
5
11
100
AcDbSymbolTableRecord
100
AcDbTextStyleTableRecord
2
STANDARD
70
0
0
ENDTAB
0
TABLE
2
VIEW
5
6
100
AcDbSymbolTable
70
0
0
ENDTAB
0
TABLE
2
UCS
5
7
100
AcDbSymbolTable
70
0
0
ENDTAB
0
TABLE
2
APPID
5
9
100
AcDbSymbolTable
70
2
0
APPID
5
12
100
AcDbSymbolTableRecord
100
AcDbRegAppTableRecord
2
ACAD
70
0
0
ENDTAB
0
TABLE
2
DIMSTYLE
5
A
100
AcDbSymbolTable
70
1
0
ENDTAB
0
TABLE
2
BLOCK_RECORD
5
1
100
AcDbSymbolTable
70
1
0
BLOCK_RECORD
5
1F
100
AcDbSymbolTableRecord
100
AcDbBlockTableRecord
2
*MODEL_SPACE
0
BLOCK_RECORD
5
1B
100
AcDbSymbolTableRecord
100
AcDbBlockTableRecord
2
*PAPER_SPACE
0
ENDTAB
0
ENDSEC
0
SECTION
2
BLOCKS
0
BLOCK
5
20
100
AcDbEntity
100
AcDbBlockBegin
2
*MODEL_SPACE
0
ENDBLK
5
21
100
AcDbEntity
100
AcDbBlockEnd
0
BLOCK
5
1C
100
AcDbEntity
100
AcDbBlockBegin
2
*PAPER_SPACE
0
ENDBLK
5
1D
100
AcDbEntity
100
AcDbBlockEnd
0
ENDSEC
0
SECTION
2
ENTITIES
0
LWPOLYLINE
5
100
100
AcDbEntity
8
0
100
AcDbPolyline
90
20
70
1
43
0.0
10
392.03565185076968
20
-676.21789034359313
42
0.99999999999999989
10
394.90000002134116
20
-673.35354221570367
10
394.90000000000015
20
-622.01789034359308
10
502.90000000000015
20
-622.01789034359319
10
502.9000000000002
20
-977.98210965640601
10
394.9000000000002
20
-977.98210965640601
10
394.9000000000002
20
-926.64645780563649
42
0.99999999999999989
10
392.03565185076974
20
-923.78210965640608
10
379.10000000000025
20
-923.78210965640596
42
-0.41421356237310542
10
377.10000000000025
20
-921.78210965640596
10
377.10000000000014
20
-890.18210965640606
42
-0.41421356237310542
10
379.10000000000025
20
-888.18210965640606
10
392.03565185076974
20
-888.18210965640606
42
0.99999999999999989
10
394.90000000000015
20
-885.31776150717542
10
394.90000000000015
20
-714.68223849282367
42
0.99999999999999989
10
392.0356518507698
20
-711.81789034359315
10
379.10000000000025
20
-711.81789034359304
42
-0.41421356237306384
10
377.10000000000025
20
-709.81789034359304
10
377.10000000000014
20
-678.21789034359313
42
-0.41421356237310542
10
379.10000000000025
20
-676.21789034359313
0
LWPOLYLINE
5
101
100
AcDbEntity
8
0
100
AcDbPolyline
90
13
70
1
43
0.0
10
-114.14225218095906
20
-960.95678465717083
42
0.54861878662674957
10
-110.7274355572217
20
-961.06111674118426
10
188.15258406002579
20
-808.77414040080203
42
0.373884679484838
10
189.94800821686573
20
-806.81477875541736
10
397.1236353071738
20
-294.03710779591893
10
468.02979352405288
20
-306.53977658793787
10
280.7979253503168
20
-882.78021490081289
10
-215.40145641337332
20
-1135.6064279328157
10
-292.22599636145185
20
-1122.0601887594539
10
-259.26907228593006
20
-178.29736350697263
10
-188.36291406905107
20
-190.80003229899148
10
-162.53038607399586
20
-930.54684690339809
42
0.54861878662669605
10
-160.78359922666596
20
-933.48293162075606
0
LWPOLYLINE
5
102
100
AcDbEntity
8
0
100
AcDbPolyline
90
8
70
1
43
0.0
10
-233.80576380586297
20
-1104.9141341102802
42
0.99999999999999989
10
-232.55399776504879
20
-1101.0615943740718
10
-254.83190345538145
20
-1057.3387426255715
42
0.99999999999999989
10
-258.68444319158982
20
-1056.0869765847574
10
-270.33106006930871
20
-1062.0212242844664
42
0.99999999999999989
10
-271.58282611012248
20
-1065.873764020675
10
-249.30492041978997
20
-1109.5966157691751
42
1.0000000105367119
10
-245.45238068358151
20
-1110.848381809989
0
LWPOLYLINE
5
103
100
AcDbEntity
8
0
100
AcDbPolyline
90
8
70
1
43
0.0
10
308.46579686746804
20
-563.33594065281193
42
0.99999999999999989
10
310.30482158381301
20
-566.94522988099425
10
356.9744047322601
20
-582.1090966609039
42
0.99999999999999989
10
360.58369396044247
20
-580.27007194455894
10
364.62294894285412
20
-567.83852338273709
42
0.99999999999999989
10
362.78392422650927
20
-564.22923415455489
10
316.11434107806195
20
-549.06536737464523
42
0.99999999999999989
10
312.50505184987969
20
-550.9043920909902
0
LWPOLYLINE
5
104
100
AcDbEntity
8
0
100
AcDbPolyline
90
8
70
1
43
0.0
10
113.73924717880345
20
-866.44257110595231
42
1.0000000105367119
10
112.48748116669312
20
-870.29511085148727
10
134.76538682832233
20
-914.017962590661
42
0.99999999999999989
10
138.61792656453079
20
-915.26972863147512
10
150.26454344224962
20
-909.3354809317658
42
0.99999998946328772
10
151.51630948306371
20
-905.48294119555749
10
129.23840379273076
20
-861.76008944705745
42
0.99999999999999989
10
125.38586405652239
20
-860.50832340624333
0
LWPOLYLINE
5
105
100
AcDbEntity
8
0
100
AcDbPolyline
90
8
70
1
43
0.0
10
223.62703516379236
20
-824.44280086254878
42
0.99999999999999989
10
225.46605988013732
20
-828.05209009073087
10
272.13564302858464
20
-843.21595687064087
42
0.99999998946328772
10
275.74493225676684
20
-841.37693215429579
10
279.78418723917849
20
-828.94538359247395
42
1.0000000129047839
10
277.94516252283347
20
-825.33609436429174
10
231.27557937438627
20
-810.17222758438174
42
0.99999998946328772
10
227.66629014620409
20
-812.01125230072671
0
LWPOLYLINE
5
106
100
AcDbEntity
8
0
100
AcDbPolyline
90
16
70
1
43
0.0
10
-328.50199999999995
20
-429.24865185076953
42
0.99999999999999989
10
-325.63765185076954
20
-432.11299999999994
10
-312.9663481492305
20
-432.11299999999994
42
0.99999999999999989
10
-310.10200000000003
20
-429.24865185076953
10
-310.10200000000003
20
-413.91300000000001
10
-292.30200000000002
20
-413.91300000000001
10
-292.30200000000002
20
-713.91300000000001
10
-310.10200000000003
20
-713.91300000000001
10
-310.10199999999992
20
-698.57734814923049
42
0.99999999999999989
10
-312.96634814923044
20
-695.71300000000008
10
-325.63765185076954
20
-695.71300000000008
42
0.99999999999999989
10
-328.50200000000001
20
-698.57734814923049
10
-328.50199999999995
20
-713.91300000000001
10
-346.30200000000002
20
-713.91300000000001
10
-346.30200000000002
20
-413.91300000000001
10
-328.50200000000001
20
-413.91300000000001
0
LWPOLYLINE
5
107
100
AcDbEntity
8
0
100
AcDbPolyline
90
8
70
1
43
0.0
10
27.466651850769729
20
-755.89700000000005
42
0.99999998946328772
10
30.331000000000184
20
-753.03265185076964
10
30.331000000000223
20
-740.76134814923057
42
0.99999999999999989
10
27.466651850769725
20
-737.89700000000016
10
15.195348149230659
20
-737.89700000000016
42
0.99999999999999989
10
12.331000000000181
20
-740.76134814923057
10
12.331000000000166
20
-753.03265185076964
42
0.99999999999999989
10
15.195348149230659
20
-755.89700000000005
0
LWPOLYLINE
5
108
100
AcDbEntity
8
0
100
AcDbPolyline
90
8
70
1
43
0.0
10
-110.33334814923026
20
-615.09700000000009
42
0.99999999999999989
10
-107.46899999999975
20
-612.23265185076968
10
-107.46899999999981
20
-599.56134814923064
42
0.99999999999999989
10
-110.33334814923026
20
-596.69700000000012
10
-141.00465185076936
20
-596.69700000000023
42
0.99999999999999989
10
-143.86899999999983
20
-599.56134814923064
10
-143.8689999999998
20
-612.23265185076957
42
0.99999999999999989
10
-141.00465185076936
20
-615.09700000000009
0
LWPOLYLINE
5
109
100
AcDbEntity
8
0
100
AcDbPolyline
90
8
70
1
43
0.0
10
-89.468999999999795
20
-740.56134814923053
42
0.99999999999999989
10
-92.333348149230318
20
-737.69700000000012
10
-105.00465185076935
20
-737.69700000000012
42
0.99999999999999989
10
-107.86899999999982
20
-740.56134814923053
10
-107.86899999999982
20
-753.23265185076957
42
0.99999999999999989
10
-105.00465185076936
20
-756.09699999999998
10
-92.333348149230261
20
-756.09699999999998
42
0.99999999999999989
10
-89.468999999999824
20
-753.23265185076957
0
LWPOLYLINE
5
110
100
AcDbEntity
8
0
100
AcDbPolyline
90
8
70
1
43
0.0
10
-105.00465185076936
20
-809.69700000000012
42
0.99999999999999989
10
-107.86899999999986
20
-812.56134814923053
10
-107.86899999999982
20
-825.23265185076968
42
0.99999999999999989
10
-105.00465185076931
20
-828.09700000000009
10
-92.333348149230346
20
-828.09700000000009
42
0.99999999999999989
10
-89.468999999999838
20
-825.23265185076968
10
-89.468999999999795
20
-812.56134814923053
42
0.99999998946328772
10
-92.333348149230275
20
-809.697
0
LWPOLYLINE
5
111
100
AcDbEntity
8
0
100
AcDbPolyline
90
8
70
1
43
0.0
10
30.331000000000241
20
-254.76134814923063
42
0.99999999999999989
10
27.466651850769761
20
-251.89700000000016
10
15.195348149230677
20
-251.89700000000016
42
0.99999998946328772
10
12.331000000000216
20
-254.76134814923063
10
12.33100000000022
20
-267.0326518507697
42
1.0000000105367119
10
15.195348149230695
20
-269.89700000000016
10
27.466651850769782
20
-269.89700000000016
42
0.99999999999999989
10
30.331000000000241
20
-267.0326518507697
0
LWPOLYLINE
5
112
100
AcDbEntity
8
0
100
AcDbPolyline
90
8
70
1
43
0.0
10
-107.4689999999998
20
-395.56134814923053
42
0.99999999999999989
10
-110.3333481492302
20
-392.69700000000012
10
-141.00465185076933
20
-392.69700000000012
42
0.99999999999999989
10
-143.8689999999998
20
-395.56134814923053
10
-143.86899999999977
20
-408.23265185076957
42
1.0000000105367119
10
-141.00465185076933
20
-411.09700000000009
10
-110.33334814923025
20
-411.09700000000004
42
0.99999999999999989
10
-107.4689999999998
20
-408.23265185076963
0
LWPOLYLINE
5
113
100
AcDbEntity
8
0
100
AcDbPolyline
90
8
70
1
43
0.0
10
-92.333348149230233
20
-270.09700000000015
42
0.99999999999999989
10
-89.468999999999824
20
-267.23265185076963
10
-89.468999999999795
20
-254.56134814923064
42
0.99999999999999989
10
-92.333348149230233
20
-251.69700000000017
10
-105.00465185076935
20
-251.69700000000017
42
0.99999999999999989
10
-107.86899999999977
20
-254.56134814923064
10
-107.86899999999977
20
-267.23265185076968
42
1.0000000105367119
10
-105.00465185076933
20
-270.09700000000015
0
LWPOLYLINE
5
114
100
AcDbEntity
8
0
100
AcDbPolyline
90
8
70
1
43
0.0
10
-107.8689999999998
20
-195.23265185076968
42
0.99999999999999989
10
-105.00465187211041
20
-198.09700002134122
10
-92.333348149230204
20
-198.09700000000018
42
0.99999999999999989
10
-89.468999999999795
20
-195.23265185076966
10
-89.468999999999767
20
-182.56134814923058
42
0.99999999999999989
10
-92.333348149230289
20
-179.69700000000017
10
-105.00465185076926
20
-179.69700000000017
42
1.0000000105367119
10
-107.8689999999998
20
-182.56134814923053
0
LWPOLYLINE
5
115
100
AcDbEntity
8
0
100
AcDbPolyline
90
116
70
1
43
0.0
10
-41.804651850769332
20
-640.89700000000016
42
0.99999999999999989
10
-44.668999999999777
20
-643.76134814923057
10
-44.668999999999826
20
-688.03265185076964
42
0.99999999999999989
10
-41.804651850769325
20
-690.89700000000016
10
-3.6689999999998713
20
-690.89700000000016
10
5.3310000000001354
20
-699.89700000000016
10
5.3310000000001221
20
-717.03265185076953
42
0.99999999999999989
10
8.1953481492306057
20
-719.89699999999993
10
48.155693993915847
20
-719.89700000000028
42
0.45324622678500648
10
51.195348149230696
20
-720.09700000000009
10
64.131000000000256
20
-720.09700000000009
42
-0.41421356237302348
10
66.131000000000242
20
-722.09699999999998
10
66.131000000000142
20
-753.69700000000012
42
-0.4142135623730781
10
64.131000000000228
20
-755.69700000000012
10
51.195348149230682
20
-755.69700000000012
42
0.99999999999999989
10
48.331000000000216
20
-758.56134814923053
10
48.331000000000202
20
-773.89700000000005
10
-50.804651850769325
20
-773.89700000000005
42
0.99999999999999989
10
-53.668999999999805
20
-776.76134814923057
10
-53.668999999999805
20
-791.89700000000016
10
-69.004651850769335
20
-791.89700000000016
42
0.99999999999999989
10
-71.868999999999815
20
-794.76134814923057
10
-71.868999999999559
20
-843.69699999999989
42
-0.4142135623730222
10
-73.868999999999801
20
-845.69700000000012
10
-123.46899999999982
20
-845.697
42
-0.41421356237305079
10
-125.46899999999982
20
-843.69699999999989
10
-125.46899999999981
20
-794.76134814923057
42
0.99999999999999989
10
-128.33334814923029
20
-791.89700000000016
10
-157.16899999999984
20
-791.89700000000016
10
-157.16899999999984
20
-737.89700000000016
10
-134.66899999999984
20
-737.89700000000016
10
-134.66899999999984
20
-746.89700000000005
10
-136.30465185076935
20
-746.89700000000016
42
0.99999999999999989
10
-139.16899999999984
20
-749.76134814923057
10
-139.16899999999984
20
-771.03265185076964
42
0.99999999999999989
10
-136.30465185076935
20
-773.89700000000005
10
-128.53334814923028
20
-773.89700000000005
42
0.99999999999999989
10
-125.66899999999981
20
-771.03265185076964
10
-125.66899999999981
20
-652.44717404782466
42
0.41421356237310841
10
-126.7651385812359
20
-649.80086141876404
10
-142.57286141876369
20
-633.99313858123628
42
0.41421356237309881
10
-145.21917404782431
20
-632.89700000000016
10
-161.66899999999984
20
-632.89700000000016
10
-161.66899999999984
20
-578.89700000000016
10
-145.21917404782437
20
-578.89700000000016
42
0.41421356237308021
10
-142.57286141876369
20
-577.80086141876404
10
-126.7651385812359
20
-561.99313858123628
42
0.41421356237307166
10
-125.66899999999978
20
-559.34682595217555
10
-125.66899999999978
20
-448.44717404782466
42
0.41421356237310319
10
-126.76513858123592
20
-445.80086141876399
10
-142.57286141876369
20
-429.99313858123622
42
0.41421356237309642
10
-145.21917404782434
20
-428.89700000000011
10
-161.66899999999984
20
-428.89700000000011
10
-161.66899999999981
20
-374.89700000000016
10
-145.21917404782431
20
-374.89700000000016
42
0.4142135623730917
10
-142.57286141876369
20
-373.80086141876404
10
-126.76513858123586
20
-357.99313858123628
42
0.4142135623731083
10
-125.66899999999978
20
-355.34682595217561
10
-125.66899999999978
20
-236.76134814923063
42
1.0000000105367119
10
-128.53334814923022
20
-233.89700000000016
10
-136.30465185076935
20
-233.89700000000016
42
0.99999998946328772
10
-139.16899999999978
20
-236.76134814923063
10
-139.16899999999978
20
-258.0326518507697
42
0.99999999999999989
10
-136.30465185076935
20
-260.89700000000016
10
-134.66899999999981
20
-260.89700000000016
10
-134.66899999999981
20
-269.89700000000016
10
-157.16899999999978
20
-269.89700000000016
10
-157.16899999999978
20
-215.89700000000016
10
-128.33334814923023
20
-215.89700000000016
42
0.99999999999999989
10
-125.46899999999978
20
-213.03265185076967
10
-125.46899999999981
20
-164.09700000000021
42
-0.41421356237309759
10
-123.46899999999977
20
-162.09700000000021
10
-73.868999999999758
20
-162.09700000000024
42
-0.41421356237309509
10
-71.868999999999758
20
-164.09700000000021
10
-71.868999999999772
20
-213.03265185076967
42
0.99999999999999989
10
-69.004651850769307
20
-215.89700000000016
10
-53.66899999999977
20
-215.89700000000016
10
-53.66899999999977
20
-231.03265185076967
42
0.99999999999999989
10
-50.804651850769304
20
-233.89700000000016
10
48.331000000000245
20
-233.89700000000016
10
48.331000000000259
20
-249.23265185076968
42
0.99999999999999989
10
51.195348149230696
20
-252.09700000000015
10
64.131000000000256
20
-252.09700000000015
42
-0.41421356237309509
10
66.131000000000242
20
-254.09700000000015
10
66.131000000000242
20
-285.69700000000017
42
-0.41421356237309243
10
64.13100000000027
20
-287.69700000000017
10
51.195348149230711
20
-287.69700000000017
42
0.453246226785051
10
48.155693993915854
20
-287.89700000000016
10
8.1953481492307372
20
-287.89700000000016
42
1.0000000105367119
10
5.3310000000002775
20
-290.76134814923068
10
5.3310000000002784
20
-307.89700000000011
10
-3.6689999999997358
20
-316.89700000000011
10
-41.804651850769318
20
-316.89700000000011
42
0.99999999999999989
10
-44.668999999999777
20
-319.76134814923057
10
-44.668999999999798
20
-364.0326518507697
42
0.99999999999999989
10
-41.804651850769304
20
-366.89700000000011
10
-3.6689999999997824
20
-366.89700000000011
10
5.3310000000002429
20
-375.89700000000005
10
5.3310000000002251
20
-415.89700000000016
10
-3.6689999999997713
20
-424.89700000000016
10
-41.804651850769297
20
-424.89700000000016
42
0.99999999999999989
10
-44.668999999999784
20
-427.76134814923057
10
-44.668999999999798
20
-472.03265185076964
42
0.99999999999999989
10
-41.804651850769304
20
-474.89700000000016
10
-3.668999999999818
20
-474.89700000000016
10
5.3310000000002074
20
-483.89700000000005
10
5.3310000000002074
20
-523.89700000000016
10
-3.668999999999798
20
-532.89700000000016
10
-41.804651850769304
20
-532.89700000000016
42
1.0000000105367119
10
-44.668999999999805
20
-535.76134814923057
10
-44.668999999999819
20
-580.03265185076975
42
0.99999999999999989
10
-41.804651850769304
20
-582.89700000000016
10
-3.6689999999998357
20
-582.89700000000016
10
5.3310000000001896
20
-591.89700000000005
10
5.3310000000001718
20
-631.89700000000028
10
-3.6689999999998424
20
-640.89700000000016
0
LWPOLYLINE
5
116
100
AcDbEntity
8
0
100
AcDbPolyline
90
26
70
1
43
0.0
10
55.762999999999991
20
-624.14365185076974
42
0.99999999999999989
10
58.627348149230414
20
-627.00800000000015
10
73.962999999999994
20
-627.00800000000027
10
73.962999999999994
20
-681.00800000000027
10
58.627348149230471
20
-681.00800000000027
42
0.99999999999999989
10
55.762999999999991
20
-683.87234814923067
10
55.762999999999899
20
-696.80800000000022
42
-0.41421356237307683
10
53.762999999999998
20
-698.80800000000022
10
40.162999999999997
20
-698.80800000000033
42
-0.4142135623730781
10
38.16299999999999
20
-696.80800000000022
10
38.162999999999975
20
-683.87234814923079
42
0.45324622678506582
10
37.962999999999994
20
-680.83269399391588
10
37.963000000000001
20
-665.67234814923063
42
0.99999999999999989
10
35.098651850769528
20
-662.80800000000011
10
22.162999999999997
20
-662.80799999999999
42
-0.41421356237302542
10
20.162999999999993
20
-660.80800000000011
10
20.163000000000228
20
-647.20800000000008
42
-0.41421356237307744
10
22.162999999999997
20
-645.2080000000002
10
35.098651850769514
20
-645.20800000000008
42
0.99999998946328772
10
37.962999999999994
20
-642.34365185076967
10
37.96299999999998
20
-627.18330600608465
42
0.45324622678506354
10
38.16299999999999
20
-624.14365185076974
10
38.163000000000039
20
-611.2080000000002
42
-0.41421356237310542
10
40.162999999999997
20
-609.20800000000008
10
53.762999999999998
20
-609.20800000000008
42
-0.41421356237310542
10
55.762999999999991
20
-611.2080000000002
0
LWPOLYLINE
5
117
100
AcDbEntity
8
0
100
AcDbPolyline
90
13
70
1
43
0.0
10
29.686216021059401
20
-24.468990030829858
42
0.54861878662670849
10
26.271399397322028
20
-24.364657946816539
10
-272.6086202199254
20
-176.65163428719865
42
0.37388467948480558
10
-274.4040443767654
20
-178.61099593258331
10
-481.57967146707358
20
-691.38866689208169
10
-552.4858296839526
20
-678.88599810006269
10
-365.25396151021653
20
-102.64555978718806
10
130.94542025347357
20
150.18065324481469
10
207.76996020155218
20
136.63441407145328
10
174.81303612603025
20
-807.12841118102801
10
103.90687790915125
20
-794.62574238900913
10
78.07434991409616
20
-54.878927784602809
42
0.5486187866266925
10
76.327563066766245
20
-51.942843067244652
0
LWPOLYLINE
5
118
100
AcDbEntity
8
0
100
AcDbPolyline
90
8
70
1
43
0.0
10
149.34972764596321
20
119.48835942227937
42
0.99999999999999989
10
148.09796160514898
20
115.63581968607103
10
170.37586729548178
20
71.912967937570627
42
0.99999999999999989
10
174.22840703169015
20
70.661201896756637
10
185.87502390940895
20
76.5954495964654
42
0.99999999999999989
10
187.12678995022284
20
80.447989332674027
10
164.8488842598903
20
124.17084108117434
42
0.99999999999999989
10
160.99634452368181
20
125.42260712198808
0
LWPOLYLINE
5
119
100
AcDbEntity
8
0
100
AcDbPolyline
90
8
70
1
43
0.0
10
-392.92183302736765
20
-422.0898340351888
42
0.99999999999999989
10
-394.76085774371279
20
-418.48054480700659
10
-441.43044089215977
20
-403.31667802709683
42
0.99999999999999989
10
-445.03973012034209
20
-405.15570274344162
10
-449.07898510275379
20
-417.58725130526352
42
0.99999999999999989
10
-447.23996038640882
20
-421.19654053344567
10
-400.57037723796157
20
-436.36040731335549
42
0.99999999999999989
10
-396.9610880097793
20
-434.52138259701042
0
LWPOLYLINE
5
120
100
AcDbEntity
8
0
100
AcDbPolyline
90
8
70
1
43
0.0
10
-198.19528333870312
20
-118.9832035820483
42
0.99999998946328772
10
-196.94351729788917
20
-115.1306638458399
10
-219.221422988222
20
-71.407812097339743
42
0.99999999999999989
10
-223.07396272443043
20
-70.156046056525753
10
-234.7205796021492
20
-76.090293756234985
42
0.99999999999999989
10
-235.97234564296338
20
-79.942833492443285
10
-213.69443995263049
20
-123.66568524094353
42
0.99999999999999989
10
-209.84190021642203
20
-124.91745128175751
0
LWPOLYLINE
5
121
100
AcDbEntity
8
0
100
AcDbPolyline
90
8
70
1
43
0.0
10
-308.08307132369202
20
-160.98297382545201
42
0.99999998946328772
10
-309.92209604003693
20
-157.37368459726977
10
-356.59167918848419
20
-142.20981781735998
42
0.99999999999999989
10
-360.20096841666651
20
-144.04884253370491
10
-364.2402233990781
20
-156.48039109552667
42
0.99999999999999989
10
-362.40119868273302
20
-160.08968032370885
10
-315.73161553428588
20
-175.25354710361879
42
0.99999999999999989
10
-312.12232630610373
20
-173.41452238727382
0
LWPOLYLINE
5
122
100
AcDbEntity
8
0
100
AcDbPolyline
90
26
70
1
43
0.0
10
55.762999999999991
20
-408.89765185076965
42
0.99999999999999989
10
58.627348149230414
20
-411.76200000000006
10
73.962999999999994
20
-411.76200000000017
10
73.962999999999994
20
-465.76200000000017
10
58.627348149230471
20
-465.76200000000017
42
0.99999999999999989
10
55.762999999999991
20
-468.62634814923058
10
55.763000000000027
20
-481.56200000000013
42
-0.41421356237309509
10
53.762999999999998
20
-483.56200000000013
10
40.162999999999997
20
-483.56200000000024
42
-0.41421356237310542
10
38.16299999999999
20
-481.56200000000013
10
38.163000000000011
20
-468.62634814923058
42
0.45324622678506116
10
37.962999999999994
20
-465.58669399391567
10
37.963000000000001
20
-450.42634814923053
42
0.99999999999999989
10
35.098651850769528
20
-447.56200000000013
10
22.162999999999997
20
-447.56200000000013
42
-0.41421356237307427
10
20.162999999999993
20
-445.56200000000013
10
20.162999999999968
20
-431.9620000000001
42
-0.41421356237307427
10
22.162999999999997
20
-429.9620000000001
10
35.098651850769514
20
-429.9620000000001
42
0.99999999999999989
10
37.962999999999994
20
-427.09765185076969
10
37.96299999999998
20
-411.93730600608455
42
0.45324622678506354
10
38.16299999999999
20
-408.89765185076965
10
38.163000000000039
20
-395.9620000000001
42
-0.41421356237310542
10
40.162999999999997
20
-393.9620000000001
10
53.762999999999998
20
-393.9620000000001
42
-0.41421356237310542
10
55.762999999999991
20
-395.96200000000016
0
LWPOLYLINE
5
123
100
AcDbEntity
8
0
100
AcDbPolyline
90
16
70
1
43
0.0
10
241.22900000000001
20
-266.43565185076966
42
0.99999999999999989
10
244.09334814923051
20
-269.30000000000013
10
256.76465185076955
20
-269.30000000000013
42
0.99999999999999989
10
259.62900000000002
20
-266.43565185076966
10
259.62900000000002
20
-251.10000000000014
10
277.42899999999997
20
-251.10000000000014
10
277.42900000000003
20
-551.10000000000014
10
259.62900000000002
20
-551.10000000000014
10
259.62900000000002
20
-535.76434814923073
42
0.99999999999999989
10
256.76465185076955
20
-532.90000000000009
10
244.09334814923054
20
-532.9000000000002
42
0.99999999999999989
10
241.22900000000004
20
-535.76434814923061
10
241.22900000000004
20
-551.10000000000014
10
223.42900000000009
20
-551.10000000000014
10
223.429
20
-251.10000000000014
10
241.22900000000001
20
-251.10000000000014
0
LWPOLYLINE
5
124
100
AcDbEntity
8
0
100
AcDbPolyline
90
88
70
1
43
0.0
10
419.34982595217548
20
263.00000000000011
42
0.41421356237311124
10
421.9961385812361
20
264.09613858123629
10
437.80386141876392
20
279.90386141876405
42
0.41421356237307205
10
438.89999999999998
20
282.55017404782461
10
438.89999999999998
20
396.44982595217556
42
0.41421356237309509
10
437.80386141876392
20
399.09613858123623
10
421.9961385812361
20
414.903861418764
42
0.41421356237309509
10
419.34982595217548
20
416.00000000000011
10
319.07530600608436
20
416.00000000000011
42
0.45324622678505533
10
316.03565185076951
20
416.20000000000005
10
303.09999999999997
20
416.20000000000005
42
-0.41421356237308465
10
301.10000000000002
20
418.19999999999999
10
301.09999999999997
20
449.80000000000007
42
-0.41421356237308982
10
303.09999999999997
20
451.80000000000007
10
316.03565185076951
20
451.80000000000007
42
0.99999999999999989
10
318.89999999999998
20
454.66434814923053
10
318.89999999999992
20
470.00000000000011
10
418.03565185076957
20
470.00000000000011
42
0.99999999999999989
10
420.89999999999998
20
472.86434814923052
10
420.89999999999998
20
488.00000000000011
10
436.23565185076956
20
488.00000000000011
42
0.99999999999999989
10
439.09999999999997
20
490.86434814923058
10
439.09999999999997
20
539.80000000000007
42
-0.41421356237308465
10
441.09999999999991
20
541.80000000000007
10
490.69999999999999
20
541.79999999999995
42
-0.41421356237309509
10
492.69999999999993
20
539.80000000000007
10
492.70000000000005
20
490.86434814923058
42
0.99999999999999989
10
495.56434814923045
20
488.00000000000011
10
501.89999999999998
20
488.00000000000011
10
501.89999999999998
20
470.00000000000011
10
495.76434814923039
20
470.00000000000006
42
0.99999999999999989
10
492.89999999999998
20
467.13565185076959
10
492.89999999999998
20
348.55017404782467
42
0.41421356237305867
10
493.9961385812361
20
345.90386141876411
10
509.80386141876386
20
330.09613858123629
42
0.41421356237312745
10
512.45017404782448
20
329.00000000000011
10
528.89999999999998
20
329.00000000000011
10
528.89999999999998
20
275.00000000000011
10
512.45017404782448
20
275.00000000000011
42
0.41421356237309781
10
509.80386141876397
20
273.90386141876405
10
493.9961385812361
20
258.09613858123623
42
0.41421356237308554
10
492.90000000000009
20
255.44982595217562
10
492.90000000000009
20
144.55017404782464
42
0.41421356237307977
10
493.9961385812361
20
141.90386141876405
10
509.80386141876397
20
126.09613858123622
42
0.41421356237308932
10
512.45017404782459
20
125.00000000000014
10
528.90000000000009
20
125.00000000000016
10
528.90000000000009
20
71.000000000000156
10
512.45017404782448
20
71.000000000000156
42
0.41421356237308526
10
509.80386141876397
20
69.903861418764023
10
493.99613858123615
20
54.096138581236261
42
0.41421356237309198
10
492.90000000000009
20
51.449825952175637
10
492.90000000000015
20
-67.135651850769335
42
0.99999999999999989
10
495.76434814923061
20
-69.999999999999829
10
501.90000000000009
20
-69.999999999999829
10
501.90000000000003
20
-87.999999999999829
10
495.56434814923051
20
-87.999999999999815
42
0.99999999999999989
10
492.7000000000001
20
-90.86434814923031
10
492.70000000000016
20
-139.79999999999976
42
-0.41421356237310542
10
490.70000000000005
20
-141.79999999999976
10
441.10000000000008
20
-141.79999999999973
42
-0.41421356237307427
10
439.10000000000014
20
-139.79999999999976
10
439.10000000000002
20
-90.864348149230324
42
0.99999999999999989
10
436.23565185076961
20
-87.999999999999829
10
420.90000000000009
20
-87.999999999999829
10
420.90000000000003
20
-72.864348149230324
42
0.99999999999999989
10
418.03565185076963
20
-69.999999999999844
10
318.90000000000009
20
-69.999999999999858
10
318.90000000000015
20
-54.664348149230321
42
0.99999999999999989
10
316.03565185076957
20
-51.799999999999855
10
303.10000000000008
20
-51.799999999999848
42
-0.4142135623730937
10
301.10000000000008
20
-49.799999999999862
10
301.10000000000008
20
-18.199999999999825
42
-0.41421356237308887
10
303.10000000000002
20
-16.199999999999836
10
316.03565185076963
20
-16.199999999999836
42
0.45324622678506116
10
319.07530600608447
20
-15.999999999999819
10
419.34982595217554
20
-15.999999999999808
42
0.41421356237304824
10
421.9961385812361
20
-14.90386141876375
10
437.80386141876409
20
0.90386141876410808
42
0.41421356237305096
10
438.90000000000009
20
3.5501740478246901
10
438.90000000000009
20
117.44982595217564
42
0.41421356237312645
10
437.80386141876386
20
120.09613858123627
10
421.9961385812361
20
135.90386141876402
42
0.41421356237309559
10
419.34982595217554
20
137.00000000000011
10
376.90000000000003
20
137.00000000000011
10
358.89999999999998
20
155.00000000000014
10
358.90000000000009
20
245.00000000000011
10
376.89999999999998
20
263.00000000000017
0
LWPOLYLINE
5
125
100
AcDbEntity
8
0
100
AcDbPolyline
90
8
70
1
43
0.0
10
336.90000000000009
20
-49.135651850769371
42
0.99999999999999989
10
339.7643481492305
20
-51.999999999999886
10
352.03565185076968
20
-51.999999999999858
42
0.99999999999999989
10
354.90000000000009
20
-49.135651850769371
10
354.90000000000009
20
-36.864348149230324
42
0.99999999999999989
10
352.03565185076963
20
-33.999999999999837
10
339.7643481492305
20
-33.999999999999829
42
0.99999999999999989
10
336.90000000000009
20
-36.864348149230324
0
LWPOLYLINE
5
126
100
AcDbEntity
8
0
100
AcDbPolyline
90
8
70
1
43
0.0
10
474.70000000000005
20
91.664348149230619
42
0.99999999999999989
10
477.56434814923034
20
88.800000000000097
10
508.2356518507695
20
88.800000000000153
42
0.99999999999999989
10
511.10000000000008
20
91.664348149230591
10
511.10000000000002
20
104.33565185076966
42
0.99999998946328772
10
508.23565185076967
20
107.20000000000013
10
477.56434814923045
20
107.20000000000014
42
0.99999999999999989
10
474.70000000000005
20
104.33565185076965
0
LWPOLYLINE
5
127
100
AcDbEntity
8
0
100
AcDbPolyline
90
8
70
1
43
0.0
10
459.56434814923051
20
-33.799999999999798
42
1.0000000105367119
10
456.700000021341
20
-36.66434817057133
10
456.7000000000001
20
-49.335651850769324
42
0.99999999999999989
10
459.56434814923057
20
-52.199999999999811
10
472.23565185076961
20
-52.199999999999832
42
0.99999999999999989
10
475.10000000000002
20
-49.335651850769331
10
475.10000000000002
20
-36.6643481492303
42
0.99999999999999989
10
472.23565185076961
20
-33.799999999999805
0
LWPOLYLINE
5
128
100
AcDbEntity
8
0
100
AcDbPolyline
90
8
70
1
43
0.0
10
475.10000000000002
20
-108.66434814923031
42
0.99999999999999989
10
472.23565187211074
20
-105.79999997865872
10
459.56434814923051
20
-105.79999999999978
42
0.99999999999999989
10
456.7000000000001
20
-108.66434814923032
10
456.7000000000001
20
-121.33565185076938
42
0.99999999999999989
10
459.56434814923057
20
-124.19999999999987
10
472.23565185076956
20
-124.19999999999987
42
0.99999999999999989
10
475.10000000000014
20
-121.33565185076947
0
LWPOLYLINE
5
129
100
AcDbEntity
8
0
100
AcDbPolyline
90
8
70
1
43
0.0
10
339.76434814923044
20
452
42
0.99999999999999989
10
336.90000000000003
20
449.13565185076959
10
336.90000000000003
20
436.86434814923052
42
0.99999999999999989
10
339.76434814923044
20
434.00000000000006
10
352.03565185076957
20
434.00000000000006
42
0.99999999999999989
10
354.90000000000003
20
436.86434814923064
10
354.89999999999998
20
449.13565185076953
42
1.0000000105367119
10
352.03565185076957
20
452
0
LWPOLYLINE
5
130
100
AcDbEntity
8
0
100
AcDbPolyline
90
8
70
1
43
0.0
10
477.56434814923045
20
311.20000000000016
42
0.99999999999999989
10
474.69999999999993
20
308.33565185076969
10
474.70000000000005
20
295.66434814923065
42
0.99999999999999989
10
477.56434814923045
20
292.80000000000018
10
508.23565185076961
20
292.80000000000018
42
0.99999999999999989
10
511.10000000000002
20
295.66434814923065
10
511.10000000000002
20
308.33565185076969
42
0.99999999999999989
10
508.23565185076961
20
311.20000000000016
0
LWPOLYLINE
5
131
100
AcDbEntity
8
0
100
AcDbPolyline
90
8
70
1
43
0.0
10
456.70000000000005
20
436.66434814923059
42
0.99999999999999989
10
459.56434814923045
20
433.7999999999999
10
472.23565185076956
20
433.80000000000007
42
0.99999999999999989
10
475.09999999999997
20
436.66434814923048
10
475.09999999999997
20
449.33565185076964
42
0.99999999999999989
10
472.2356518507695
20
452.20000000000016
10
459.56434814923045
20
452.20000000000005
42
0.99999999999999989
10
456.70000000000005
20
449.33565185076958
0
LWPOLYLINE
5
132
100
AcDbEntity
8
0
100
AcDbPolyline
90
8
70
1
43
0.0
10
472.23565185076956
20
505.80000000000013
42
0.99999999999999989
10
475.09999999999997
20
508.66434814923053
10
475.10000000000002
20
521.33565185076975
42
0.99999999999999989
10
472.2356518507695
20
524.20000000000005
10
459.56434814923051
20
524.20000000000005
42
0.99999999999999989
10
456.70000000000005
20
521.33565185076964
10
456.70000000000005
20
508.66434814923059
42
1.0000000105367119
10
459.56434814923045
20
505.80000000000013
0
LWPOLYLINE
5
133
100
AcDbEntity
8
0
100
AcDbPolyline
90
36
70
1
43
0.0
10
269.81397333860002
20
322.54426265527064
42
0.59304659887518785
10
273.22490225635028
20
321.54426265527081
10
285.36055410711987
20
321.54426265527087
42
-0.41421356237310542
10
287.36055410711981
20
319.54426265527081
10
287.36055410711981
20
307.54426265527081
42
-0.4142135623731002
10
285.36055410711987
20
305.54426265527081
10
273.22490225635028
20
305.54426265527081
42
0.99999998946328772
10
270.36055410711992
20
302.67991450604035
10
270.36055410711992
20
261.40861080450128
42
1.0000000105367119
10
273.22490225635045
20
258.54426265527093
10
285.36055410711992
20
258.5442626552707
42
-0.41421356237308982
10
287.36055410711992
20
256.54426265527081
10
287.36055410711992
20
244.54426265527078
42
-0.4142135623731002
10
285.36055410711992
20
242.54426265527076
10
273.22490225635033
20
242.54426265527087
42
0.99999999999999989
10
270.36055410711992
20
239.67991450604035
10
270.36055410711992
20
225.40861080450122
42
0.99999999999999989
10
273.22490225635045
20
222.54426265527081
10
285.36055410711992
20
222.54426265527073
42
-0.41421356237309509
10
287.36055410711992
20
220.54426265527073
10
287.36055410711998
20
208.54426265527078
42
-0.41421356237309509
10
285.36055410711992
20
206.54426265527076
10
273.22490225635045
20
206.54426265527076
42
0.99999998946328772
10
270.36055410711992
20
203.67991450604038
10
270.36055410711992
20
198.24426265527083
10
252.36055410711987
20
180.24426265527083
10
200.71694259270529
20
180.24426265527072
42
1.2663647605673753
10
197.36055410712009
20
178.17991450604035
10
197.36055410712009
20
165.24426265527075
42
-0.4142135623731002
10
195.36055410712004
20
163.24426265527075
10
183.36055410712004
20
163.24426265527077
42
-0.41421356237308982
10
181.36055410712007
20
165.24426265527069
10
181.36055410712007
20
178.17991450604038
42
1.266364760567307
10
178.00416562153484
20
180.2442626552708
10
162.36055410711992
20
180.24426265527072
10
162.36055410712001
20
322.5442626552707
0
LWPOLYLINE
5
134
100
AcDbEntity
8
0
100
AcDbPolyline
90
8
70
1
43
0.0
10
234.27998736322596
20
225.76772555940033
42
0.99999998946328772
10
237.82289687290631
20
223.80385874970656
10
251.54135447229834
20
227.73756316605997
42
1.0000000105367119
10
253.50522128199233
20
231.28047267574027
10
249.57151686563876
20
244.99893027513252
42
0.99999999999999989
10
246.02860735595851
20
246.96279708482643
10
232.31014975656637
20
243.02909266847277
42
0.99999999999999989
10
230.34628294687241
20
239.48618315879258
0
LWPOLYLINE
5
135
100
AcDbEntity
8
0
100
AcDbPolyline
90
29
70
1
43
0.0
10
39.332033324523771
20
333.62043593744517
42
1.2663647605673662
10
37.26768517529333
20
336.97682442303039
10
23.532033324523841
20
336.97682442303028
42
-0.41421356237307361
10
21.532033324523802
20
338.97682442303028
10
21.53203332452383
20
352.57682442303036
42
-0.41421356237309243
10
23.53203332452377
20
354.5768244230303
10
37.26768517529338
20
354.5768244230303
42
1.2663647605673143
10
39.33203332452382
20
357.93321290861547
10
39.332033324523778
20
372.7768244230304
10
136.6320333245238
20
372.77682442303018
10
136.63203332452392
20
264.7768244230304
10
121.29638147375434
20
264.7768244230304
42
0.99999999999999989
10
118.43203332452383
20
261.91247627379988
10
118.43203332452387
20
248.97682442303039
42
-0.41421356237310542
10
116.43203332452387
20
246.97682442303039
10
102.83203332452385
20
246.97682442303037
42
-0.41421356237311063
10
100.83203332452378
20
248.97682442303039
10
100.83203332452385
20
261.9124762738
42
0.99999999999999989
10
97.967685175293312
20
264.7768244230304
10
85.296381473754252
20
264.7768244230304
42
0.99999999999999989
10
82.432033324523815
20
261.91247627379994
10
82.432033324523815
20
248.97682442303039
42
-0.41421356237309509
10
80.432033324523786
20
246.97682442303037
10
66.83203332452382
20
246.97682442303037
42
-0.4142135623730937
10
64.832033324523792
20
248.97682442303039
10
64.83203332452382
20
261.91247627379988
42
0.99999999999999989
10
61.967685175293354
20
264.7768244230304
10
57.332033324523863
20
264.7768244230304
10
39.332033324523827
20
282.77682442303046
0
LWPOLYLINE
5
136
100
AcDbEntity
8
0
100
AcDbPolyline
90
8
70
1
43
0.0
10
101.56836386562873
20
301.83770953217976
42
0.99999999999999989
10
98.02545435594854
20
303.8015763418739
10
85.845015470057632
20
300.30889169482737
42
0.99999999999999989
10
83.88114866036382
20
296.7659821851471
10
87.373833307410166
20
284.58554329925619
42
0.99999999999999989
10
90.916742817090352
20
282.62167648956222
10
103.09718170298135
20
286.11436113660864
42
0.99999999999999989
10
105.06104851267517
20
289.65727064628885
0
LWPOLYLINE
5
137
100
AcDbEntity
8
0
100
AcDbPolyline
90
36
70
1
43
0.0
10
269.81397333860002
20
506.81726265527067
42
0.59304659887518785
10
273.22490225635028
20
505.81726265527084
10
285.36055410711987
20
505.81726265527089
42
-0.41421356237308465
10
287.36055410711981
20
503.81726265527084
10
287.36055410711975
20
491.81726265527072
42
-0.41421356237310542
10
285.36055410711987
20
489.81726265527078
10
273.22490225635028
20
489.81726265527078
42
0.99999998946328772
10
270.36055410711992
20
486.95291450604032
10
270.36055410711992
20
445.6816108045013
42
0.99999999999999989
10
273.22490225635045
20
442.81726265527089
10
285.36055410711992
20
442.81726265527078
42
-0.41421356237307427
10
287.36055410711992
20
440.81726265527084
10
287.36055410711992
20
428.81726265527078
42
-0.41421356237308982
10
285.36055410711992
20
426.81726265527072
10
273.22490225635033
20
426.81726265527084
42
0.99999999999999989
10
270.36055410711992
20
423.95291450604032
10
270.36055410711992
20
409.68161080450113
42
0.99999999999999989
10
273.22490225635045
20
406.81726265527084
10
285.36055410711992
20
406.81726265527072
42
-0.41421356237310542
10
287.36055410711992
20
404.81726265527072
10
287.36055410711998
20
392.81726265527078
42
-0.41421356237307427
10
285.36055410711992
20
390.81726265527072
10
273.22490225635045
20
390.81726265527084
42
0.99999999999999989
10
270.36055410711992
20
387.95291450604043
10
270.36055410711992
20
382.51726265527088
10
252.36055410711987
20
364.51726265527088
10
200.71694259270529
20
364.51726265527066
42
1.2663647605673181
10
197.36055410712009
20
362.45291450604032
10
197.36055410712004
20
349.51726265527071
42
-0.41421356237309509
10
195.36055410712004
20
347.51726265527066
10
183.36055410712004
20
347.51726265527066
42
-0.41421356237307944
10
181.36055410712007
20
349.51726265527066
10
181.36055410712007
20
362.45291450604037
42
1.2663647605672879
10
178.00416562153484
20
364.51726265527077
10
162.36055410711992
20
364.51726265527071
10
162.36055410712001
20
506.81726265527072
0
LWPOLYLINE
5
138
100
AcDbEntity
8
0
100
AcDbPolyline
90
8
70
1
43
0.0
10
234.27998736322596
20
410.04072555940036
42
0.99999999999999989
10
237.82289687290631
20
408.0768587497065
10
251.54135447229834
20
412.01056316606002
42
1.0000000105367119
10
253.50522128199233
20
415.5534726757403
10
249.57151686563876
20
429.27193027513249
42
0.99999999999999989
10
246.02860735595851
20
431.23579708482646
10
232.31014975656637
20
427.30209266847282
42
0.99999999999999989
10
230.34628294687241
20
423.75918315879261
0
LWPOLYLINE
5
139
100
AcDbEntity
8
0
100
AcDbPolyline
90
36
70
1
43
0.0
10
-82.042861418763934
20
309.86613858123604
42
0.41421356237308932
10
-83.139000000000038
20
307.21982595217543
10
-83.139000000000038
20
232.32017404782439
42
0.41421356237309309
10
-82.04286141876392
20
229.67386141876381
10
-66.235138581236143
20
213.86613858123604
42
0.41421356237308787
10
-63.588825952175512
20
212.7699999999999
10
-47.139000000000038
20
212.76999999999987
10
-47.13900000000001
20
140.76999999999987
10
-137.13900000000001
20
140.76999999999987
10
-154.04286141876389
20
157.67386141876381
42
0.41421356237308693
10
-156.68917404782448
20
158.76999999999987
10
-185.58882595217554
20
158.76999999999987
42
0.41421356237308787
10
-188.23513858123613
20
157.67386141876378
10
-205.13900000000001
20
140.76999999999987
10
-295.13900000000001
20
140.76999999999987
10
-295.13900000000001
20
212.76999999999987
10
-278.68917404782457
20
212.76999999999987
42
0.41421356237309509
10
-276.04286141876395
20
213.86613858123596
10
-260.23513858123613
20
229.67386141876375
42
0.41421356237309981
10
-259.13900000000001
20
232.32017404782439
10
-259.13900000000001
20
307.21982595217537
42
0.41421356237310258
10
-260.23513858123613
20
309.86613858123599
10
-276.04286141876395
20
325.67386141876375
42
0.41421356237311124
10
-278.68917404782451
20
326.76999999999992
10
-295.13900000000001
20
326.76999999999992
10
-295.13900000000001
20
398.76999999999998
10
-205.13900000000001
20
398.76999999999987
10
-188.23513858123613
20
381.8661385812361
42
0.41421356237310841
10
-185.58882595217554
20
380.76999999999992
10
-156.68917404782454
20
380.76999999999992
42
0.41421356237310114
10
-154.04286141876392
20
381.8661385812361
10
-137.13900000000001
20
398.76999999999998
10
-47.13900000000001
20
398.76999999999998
10
-47.139000000000038
20
326.76999999999992
10
-63.58882595217554
20
326.76999999999992
42
0.41421356237309115
10
-66.235138581236143
20
325.67386141876386
0
LWPOLYLINE
5
140
100
AcDbEntity
8
0
100
AcDbPolyline
90
8
70
1
43
0.0
10
-98.474651850769547
20
380.96999999999986
42
0.99999999999999989
10
-101.33900000000006
20
378.10565185076962
10
-101.33900000000003
20
365.43434814923035
42
0.99999999999999989
10
-98.474651850769547
20
362.56999999999994
10
-67.803348149230473
20
362.56999999999994
42
0.99999999999999989
10
-64.938999999999993
20
365.4343481492304
10
-64.939000000000021
20
378.10565185076939
42
0.99999999999999989
10
-67.803348149230487
20
380.96999999999991
0
LWPOLYLINE
5
141
100
AcDbEntity
8
0
100
AcDbPolyline
90
8
70
1
43
0.0
10
-277.339
20
365.4343481492304
42
0.99999999999999989
10
-274.47465185076948
20
362.56999999999982
10
-243.80334814923054
20
362.56999999999994
42
0.99999999999999989
10
-240.93900000000002
20
365.43434814923035
10
-240.93899999999996
20
378.10565185076945
42
0.99999999999999989
10
-243.80334814923046
20
380.96999999999991
10
-274.47465185076953
20
380.96999999999986
42
0.99999999999999989
10
-277.339
20
378.10565185076945
0
LWPOLYLINE
5
142
100
AcDbEntity
8
0
100
AcDbPolyline
90
8
70
1
43
0.0
10
-101.33899999999998
20
161.43434814923037
42
0.99999998946328772
10
-98.474651872110599
20
158.56999997865881
10
-67.803348149230459
20
158.56999999999988
42
0.99999998946328772
10
-64.938999999999993
20
161.43434814923035
10
-64.938999999999993
20
174.10565185076945
42
0.99999999999999989
10
-67.803348149230445
20
176.96999999999989
10
-98.474651850769547
20
176.96999999999989
42
0.99999999999999989
10
-101.339
20
174.10565185076939
0
LWPOLYLINE
5
143
100
AcDbEntity
8
0
100
AcDbPolyline
90
8
70
1
43
0.0
10
-274.47465185076959
20
176.96999999999991
42
0.99999999999999989
10
-277.33899999999994
20
174.10565185076931
10
-277.33900000000006
20
161.43434814923035
42
0.99999999999999989
10
-274.47465185076953
20
158.56999999999988
10
-243.80334814923049
20
158.56999999999988
42
0.99999999999999989
10
-240.93900000000002
20
161.43434814923037
10
-240.93900000000002
20
174.10565185076939
42
0.99999998946328772
10
-243.80334814923046
20
176.96999999999989
0
LWPOLYLINE
5
144
100
AcDbEntity
8
0
100
AcDbPolyline
90
4
70
1
43
0.0
10
-238.88900000000001
20
222.01999999999992
42
0.99999999999999989
10
-238.88900000000001
20
217.51999999999987
10
-103.38900000000001
20
217.51999999999987
42
0.99999999999999989
10
-103.38899999999998
20
222.01999999999992
0
LWPOLYLINE
5
145
100
AcDbEntity
8
0
100
AcDbPolyline
90
4
70
1
43
0.0
10
-238.88900000000001
20
322.01999999999992
42
0.99999999999999989
10
-238.88900000000007
20
317.51999999999981
10
-103.38900000000001
20
317.51999999999987
42
0.99999999999999989
10
-103.38899999999998
20
322.01999999999992
0
CIRCLE
5
146
100
AcDbEntity
8
0
100
AcDbCircle
10
-458.03617407461525
20
108.10982592538485
30
0
40
2.0253999999999999
210
0
220
-0
230
1
0
CIRCLE
5
147
100
AcDbEntity
8
0
100
AcDbCircle
10
-458.03617407461525
20
322.57417407461531
30
0
40
2.0253999999999999
210
0
220
-0
230
1
0
LWPOLYLINE
5
148
100
AcDbEntity
8
0
100
AcDbPolyline
90
46
70
1
43
0.0
10
-360.60400000000004
20
282.47765185076963
42
0.99999999999999989
10
-363.46834814923045
20
285.34200000000016
10
-456.42869399391566
20
285.3420000000001
42
0.49345925645282257
10
-459.64365415531483
20
285.3420000000001
10
-476.60399999999993
20
285.3420000000001
10
-476.60399999999993
20
285.54200000000009
10
-492.404
20
285.54200000000009
42
-0.41421356237307427
10
-494.404
20
287.54200000000003
10
-494.404
20
319.14200000000005
42
-0.41421356237305862
10
-492.404
20
321.14200000000011
10
-476.60399999999993
20
321.14200000000011
10
-476.60399999999993
20
339.3420000000001
10
-363.46834814923045
20
339.34200000000004
42
0.99999999999999989
10
-360.60400000000004
20
342.20634814923062
10
-360.60400000000004
20
394.66669399391577
42
0.45324622678506482
10
-360.404
20
397.70634814923062
10
-360.40400000000005
20
410.64200000000017
42
-0.41421356237309509
10
-358.404
20
412.64200000000017
10
-326.80399999999997
20
412.64200000000011
42
-0.41421356237307427
10
-324.80400000000003
20
410.64200000000017
10
-324.80400000000003
20
397.70634814923056
42
0.99999999999999989
10
-321.93965185076956
20
394.8420000000001
10
-306.60399999999998
20
394.84200000000016
10
-306.60399999999993
20
-18.157999999999923
10
-321.93965185076956
20
-18.157999999999909
42
0.99999999999999989
10
-324.80399999999997
20
-21.022348149230403
10
-324.80400000000003
20
-33.957999999999942
42
-0.41421356237306384
10
-326.80399999999992
20
-35.957999999999934
10
-358.40399999999994
20
-35.95799999999997
42
-0.41421356237307427
10
-360.404
20
-33.957999999999942
10
-360.40399999999988
20
-21.022348149230403
42
0.45324622678505649
10
-360.60400000000004
20
-17.982693993915539
10
-360.60400000000004
20
88.47765185076959
42
0.99999999999999989
10
-363.46834814923045
20
91.342000000000084
10
-476.60399999999993
20
91.34200000000007
10
-476.60399999999993
20
109.54200000000007
10
-492.404
20
109.54200000000014
42
-0.41421356237307427
10
-494.404
20
111.5420000000001
10
-494.40400000000011
20
143.14200000000008
42
-0.41421356237309759
10
-492.40399999999994
20
145.14200000000011
10
-476.60399999999993
20
145.14200000000011
10
-476.60399999999993
20
145.3420000000001
10
-459.64365415531483
20
145.34200000000004
42
0.49345925645281619
10
-456.42869399391554
20
145.3420000000001
10
-363.46834814923045
20
145.3420000000001
42
0.99999999999999989
10
-360.60400000000004
20
148.20634814923056
0
CIRCLE
5
149
100
AcDbEntity
8
0
100
AcDbCircle
10
-414.88682592538481
20
235.37017407461516
30
0
40
2.0253999999999999
210
0
220
-0
230
1
0
CIRCLE
5
150
100
AcDbEntity
8
0
100
AcDbCircle
10
-414.88682592538476
20
20.905825925384676
30
0
40
2.0253999999999999
210
0
220
-0
230
1
0
LWPOLYLINE
5
151
100
AcDbEntity
8
0
100
AcDbPolyline
90
46
70
1
43
0.0
10
-512.31899999999996
20
61.002348149230386
42
0.99999999999999989
10
-509.45465185076955
20
58.137999999999856
10
-416.49430600608434
20
58.137999999999899
42
0.49345925645280309
10
-413.27934584468517
20
58.13799999999992
10
-396.31900000000002
20
58.13799999999992
10
-396.31900000000002
20
57.937999999999938
10
-380.51899999999995
20
57.93799999999996
42
-0.41421356237307161
10
-378.51899999999995
20
55.937999999999946
10
-378.51899999999995
20
24.337999999999926
42
-0.41421356237307427
10
-380.51899999999995
20
22.337999999999919
10
-396.31899999999996
20
22.337999999999916
10
-396.31899999999996
20
4.1379999999999155
10
-509.45465185076955
20
4.1379999999999031
42
0.99999999999999989
10
-512.31899999999996
20
1.273651850769415
10
-512.31899999999996
20
-51.186693993915789
42
0.453246226785055
10
-512.51899999999989
20
-54.226348149230645
10
-512.51899999999989
20
-67.162000000000148
42
-0.41421356237309243
10
-514.51900000000001
20
-69.162000000000134
10
-546.11900000000003
20
-69.162000000000091
42
-0.41421356237307161
10
-548.11899999999991
20
-67.162000000000148
10
-548.11899999999991
20
-54.226348149230638
42
0.99999999999999989
10
-550.98334814923032
20
-51.36200000000013
10
-566.31899999999996
20
-51.362000000000165
10
-566.31899999999996
20
361.63799999999992
10
-550.98334814923055
20
361.63799999999992
42
0.99999999999999989
10
-548.11900000000003
20
364.50234814923033
10
-548.11900000000014
20
377.43799999999993
42
-0.41421356237309509
10
-546.11900000000003
20
379.43799999999999
10
-514.51900000000001
20
379.43799999999987
42
-0.41421356237307427
10
-512.51900000000001
20
377.43799999999993
10
-512.51900000000001
20
364.50234814923044
42
0.45324622678501714
10
-512.31900000000007
20
361.46269399391554
10
-512.31899999999996
20
255.00234814923039
42
0.99999999999999989
10
-509.45465185076955
20
252.13799999999989
10
-396.31900000000002
20
252.13799999999992
10
-396.31900000000002
20
233.93799999999993
10
-380.51899999999989
20
233.93799999999985
42
-0.41421356237305862
10
-378.51900000000001
20
231.93799999999993
10
-378.51900000000001
20
200.33799999999991
42
-0.41421356237308465
10
-380.51900000000001
20
198.33799999999994
10
-396.31900000000002
20
198.33799999999994
10
-396.31900000000002
20
198.13799999999992
10
-413.27934584468517
20
198.13799999999992
42
0.49345925645280747
10
-416.4943060060844
20
198.13799999999989
10
-509.45465185076955
20
198.13799999999989
42
0.99999999999999989
10
-512.31899999999996
20
195.27365185076943
0
LWPOLYLINE
5
152
100
AcDbEntity
8
0
100
AcDbPolyline
90
8
70
1
43
0.0
10
-99.290999999999997
20
454.38734814923043
42
0.99999999999999989
10
-96.426651850769488
20
451.52299999999991
10
-84.155348149230463
20
451.52300000000002
42
0.99999999999999989
10
-81.290999999999968
20
454.38734814923043
10
-81.290999999999954
20
466.65865185076962
42
0.99999999999999989
10
-84.155348149230463
20
469.52300000000002
10
-96.426651850769503
20
469.52300000000002
42
0.99999999999999989
10
-99.290999999999983
20
466.65865185076962
0
LWPOLYLINE
5
153
100
AcDbEntity
8
0
100
AcDbPolyline
90
8
70
1
43
0.0
10
106.40900000000002
20
466.85865185076955
42
0.99999999999999989
10
103.54465185076961
20
469.72300000000024
10
90.873348149230509
20
469.72300000000007
42
0.99999999999999989
10
88.009000000000015
20
466.85865185076955
10
88.009
20
454.1873481492305
42
0.99999999999999989
10
90.873348149230509
20
451.32300000000009
10
103.54465185076961
20
451.32299999999998
42
0.99999999999999989
10
106.40900000000002
20
454.18734814923056
0
LWPOLYLINE
5
154
100
AcDbEntity
8
0
100
AcDbPolyline
90
8
70
1
43
0.0
10
-14.955348149230481
20
451.32300000000009
42
0.99999999999999989
10
-12.090999999999951
20
454.18734814923033
10
-12.090999999999983
20
466.85865185076955
42
0.99999999999999989
10
-14.955348149230474
20
469.72300000000007
10
-27.626651850769473
20
469.72299999999996
42
0.99999999999999989
10
-30.490999999999957
20
466.85865185076955
10
-30.490999999999971
20
454.1873481492305
42
0.99999999999999989
10
-27.626651850769477
20
451.32299999999998
0
LWPOLYLINE
5
155
100
AcDbEntity
8
0
100
AcDbPolyline
90
52
70
1
43
0.0
10
54.409000000000006
20
430.65865185076962
42
0.99999999999999989
10
51.544651850769512
20
433.52300000000002
10
36.873348149230488
20
433.52300000000002
42
0.99999999999999989
10
34.009
20
430.65865185076962
10
34.008999999999929
20
417.72300000000001
42
-0.41421356237310542
10
32.008999999999972
20
415.72299999999996
10
0.40899999999997111
20
415.7229999999999
42
-0.41421356237310536
10
-1.5910000000000224
20
417.72300000000001
10
-1.5910000000000091
20
430.65865185076962
42
0.99999999999999989
10
-4.4553481492305025
20
433.52300000000002
10
-431.12665185076941
20
433.52300000000002
42
0.99999999999999989
10
-433.99099999999999
20
430.65865185076962
10
-433.99099999999987
20
417.72300000000001
42
-0.41421356237309509
10
-435.99099999999993
20
415.72299999999996
10
-467.59099999999995
20
415.72299999999996
42
-0.41421356237309509
10
-469.59100000000001
20
417.72300000000001
10
-469.59100000000007
20
430.65865185076962
42
0.99999999999999989
10
-472.45534814923047
20
433.52300000000002
10
-487.12665185076952
20
433.52300000000002
42
1.0000000105367119
10
-489.99099999999999
20
430.65865185076962
10
-489.99099999999999
20
417.72300000000001
42
-0.41421356237309509
10
-491.99099999999999
20
415.72299999999996
10
-503.59100000000001
20
415.72299999999996
42
-0.41421356237309509
10
-505.59100000000001
20
417.72300000000001
10
-505.59100000000001
20
430.65865185076962
42
0.99999999999999989
10
-508.45534814923047
20
433.52300000000002
10
-559.79100000000005
20
433.52300000000008
10
-559.79100000000005
20
487.52300000000002
10
-508.45534814923042
20
487.52300000000002
42
0.99999999999999989
10
-505.59100000000001
20
490.38734814923055
10
-505.59099999999995
20
494.32300000000004
42
-0.41421356237309509
10
-503.59100000000001
20
496.32299999999998
10
-491.99099999999999
20
496.32300000000009
42
-0.41421356237310542
10
-489.99099999999999
20
494.32299999999998
10
-489.99099999999999
20
490.38734814923043
42
0.99999999999999989
10
-487.12665185076952
20
487.52300000000002
10
51.544651850769505
20
487.52300000000002
42
0.99999999999999989
10
54.408999999999992
20
490.38734814923055
10
54.409000000000077
20
494.32300000000004
42
-0.41421356237307161
10
56.40900000000002
20
496.32299999999998
10
68.009000000000015
20
496.32300000000009
42
-0.41421356237308204
10
70.009000000000015
20
494.32299999999998
10
70.009
20
490.38734814923043
42
0.99999999999999989
10
72.873348149230495
20
487.52300000000002
10
124.20900000000003
20
487.52299999999997
10
124.20900000000003
20
433.52300000000002
10
72.873348149230509
20
433.52300000000002
42
0.99999999999999989
10
70.009000000000015
20
430.65865185076962
10
70.009
20
417.72300000000001
42
-0.41421356237309243
10
68.008999999999986
20
415.72299999999996
10
56.408999999999985
20
415.72299999999996
42
-0.41421356237309243
10
54.408999999999992
20
417.72300000000001
0
LWPOLYLINE
5
156
100
AcDbEntity
8
0
100
AcDbPolyline
90
8
70
1
43
0.0
10
-339.15534814923046
20
451.52300000000002
42
0.99999999999999989
10
-336.29100000000005
20
454.38734814923043
10
-336.29100000000005
20
466.65865185076962
42
0.99999999999999989
10
-339.15534814923046
20
469.52300000000002
10
-351.42665185076953
20
469.52300000000002
42
0.99999999999999989
10
-354.29100000000005
20
466.65865185076962
10
-354.291
20
454.38734814923043
42
0.99999999999999989
10
-351.42665185076953
20
451.52300000000002
0
LWPOLYLINE
5
157
100
AcDbEntity
8
0
100
AcDbPolyline
90
8
70
1
43
0.0
10
-539.12665185076958
20
469.72300000000013
42
0.99999999999999989
10
-541.99099999999999
20
466.85865185076955
10
-541.99099999999999
20
454.18734814923056
42
0.99999999999999989
10
-539.12665185076958
20
451.32300000000009
10
-526.45534814923053
20
451.32300000000009
42
0.99999999999999989
10
-523.59100000000001
20
454.1873481492305
10
-523.59100000000001
20
466.85865185076966
42
0.99999999999999989
10
-526.45534814923053
20
469.72300000000007
0
LWPOLYLINE
5
158
100
AcDbEntity
8
0
100
AcDbPolyline
90
8
70
1
43
0.0
10
-423.49099999999993
20
454.1873481492305
42
0.99999999999999989
10
-420.62665185076952
20
451.32300000000009
10
-407.95534814923042
20
451.32300000000009
42
0.99999999999999989
10
-405.09100000000001
20
454.1873481492305
10
-405.09100000000001
20
466.85865185076955
42
0.99999999999999989
10
-407.95534814923053
20
469.72300000000007
10
-420.62665185076946
20
469.72299999999996
42
0.99999999999999989
10
-423.49099999999999
20
466.85865185076955
0
LWPOLYLINE
5
159
100
AcDbEntity
8
0
100
AcDbPolyline
90
8
70
1
43
0.0
10
-99.345000000000013
20
556.27534814923035
42
0.99999999999999989
10
-96.48065187211057
20
553.41099997865888
10
-84.209348149230465
20
553.41099999999994
42
0.99999999999999989
10
-81.344999999999999
20
556.27534814923035
10
-81.34499999999997
20
568.54665185076954
42
0.99999999999999989
10
-84.209348149230465
20
571.41099999999994
10
-96.480651850769519
20
571.41099999999994
42
0.99999999999999989
10
-99.344999999999999
20
568.54665185076954
0
LWPOLYLINE
5
160
100
AcDbEntity
8
0
100
AcDbPolyline
90
8
70
1
43
0.0
10
106.355
20
568.74665185076947
42
0.99999999999999989
10
103.49065185076959
20
571.6110000000001
10
90.819348149230478
20
571.61099999999999
42
0.99999999999999989
10
87.955000000000013
20
568.74665185076947
10
87.954999999999984
20
556.07534814923042
42
0.99999999999999989
10
90.819348149230478
20
553.21100000000001
10
103.49065185076959
20
553.2109999999999
42
0.99999999999999989
10
106.355
20
556.07534814923054
0
LWPOLYLINE
5
161
100
AcDbEntity
8
0
100
AcDbPolyline
90
8
70
1
43
0.0
10
-15.009348149230497
20
553.21100000000001
42
1.0000000105367119
10
-12.145000021341023
20
556.07534817057149
10
-12.145
20
568.74665185076947
42
0.99999999999999989
10
-15.00934814923049
20
571.61099999999999
10
-27.68065185076949
20
571.61099999999988
42
0.99999999999999989
10
-30.544999999999973
20
568.74665185076947
10
-30.544999999999987
20
556.07534814923042
42
0.99999999999999989
10
-27.680651850769493
20
553.2109999999999
0
LWPOLYLINE
5
162
100
AcDbEntity
8
0
100
AcDbPolyline
90
52
70
1
43
0.0
10
54.35499999999999
20
532.54665185076954
42
0.99999999999999989
10
51.490651829428444
20
535.41099997865899
10
36.819348149230471
20
535.41099999999994
42
0.99999999999999989
10
33.954999999999984
20
532.54665185076954
10
33.954999999999913
20
519.61099999999999
42
-0.41421356237307427
10
31.954999999999956
20
517.61099999999999
10
0.35499999999995485
20
517.61099999999988
42
-0.41421356237307405
10
-1.6450000000000387
20
519.61099999999999
10
-1.6450000000000251
20
532.54665185076954
42
0.99999999999999989
10
-4.5093481492305187
20
535.41099999999994
10
-431.18065185076949
20
535.41099999999994
42
0.99999999999999989
10
-434.04499999999996
20
532.54665185076954
10
-434.04500000000007
20
519.61099999999999
42
-0.41421356237309509
10
-436.04500000000002
20
517.61099999999999
10
-467.64499999999998
20
517.61099999999988
42
-0.41421356237309509
10
-469.64499999999998
20
519.61099999999999
10
-469.64499999999998
20
532.54665185076954
42
0.99999999999999989
10
-472.5093481492305
20
535.41099999999994
10
-487.18065185076944
20
535.41099999999994
42
0.99999999999999989
10
-490.04500000000002
20
532.54665185076954
10
-490.04500000000002
20
519.61099999999999
42
-0.41421356237309509
10
-492.04499999999996
20
517.61099999999999
10
-503.64499999999998
20
517.61099999999988
42
-0.41421356237309509
10
-505.64500000000004
20
519.61099999999999
10
-505.6450000000001
20
532.54665185076954
42
0.99999999999999989
10
-508.5093481492305
20
535.41099999999994
10
-559.84500000000003
20
535.41100000000006
10
-559.84500000000003
20
589.41099999999994
10
-508.5093481492305
20
589.41099999999994
42
0.99999999999999989
10
-505.64500000000004
20
592.27534814923047
10
-505.64500000000004
20
596.21100000000001
42
-0.41421356237309509
10
-503.6450000000001
20
598.2109999999999
10
-492.04500000000002
20
598.21100000000001
42
-0.41421356237310542
10
-490.04500000000002
20
596.2109999999999
10
-490.04499999999996
20
592.27534814923035
42
0.99999999999999989
10
-487.18065185076955
20
589.41099999999994
10
51.490651850769488
20
589.41099999999994
42
0.99999999999999989
10
54.354999999999976
20
592.27534814923047
10
54.355000000000061
20
596.21100000000001
42
-0.41421356237309243
10
56.355000000000004
20
598.2109999999999
10
67.955000000000013
20
598.21100000000001
42
-0.41421356237310281
10
69.954999999999998
20
596.2109999999999
10
69.954999999999984
20
592.27534814923035
42
0.99999999999999989
10
72.819348149230478
20
589.41099999999994
10
124.15500000000002
20
589.41099999999994
10
124.15500000000002
20
535.41099999999994
10
72.819348149230493
20
535.41099999999994
42
0.99999999999999989
10
69.954999999999998
20
532.54665185076954
10
69.954999999999913
20
519.61099999999999
42
-0.41421356237307161
10
67.95499999999997
20
517.61099999999999
10
56.354999999999968
20
517.61099999999988
42
-0.41421356237307161
10
54.354999999999976
20
519.61099999999999
0
LWPOLYLINE
5
163
100
AcDbEntity
8
0
100
AcDbPolyline
90
8
70
1
43
0.0
10
-339.20934814923044
20
553.41099999999994
42
0.99999999999999989
10
-336.34500000000003
20
556.27534814923035
10
-336.34500000000003
20
568.54665185076954
42
0.99999999999999989
10
-339.20934814923055
20
571.41099999999994
10
-351.4806518507695
20
571.41099999999994
42
1.0000000105367119
10
-354.34500000000003
20
568.54665185076954
10
-354.34500000000003
20
556.27534814923035
42
0.99999999999999989
10
-351.48065185076962
20
553.41099999999994
0
LWPOLYLINE
5
164
100
AcDbEntity
8
0
100
AcDbPolyline
90
8
70
1
43
0.0
10
-539.18065185076966
20
571.6110000000001
42
0.99999999999999989
10
-542.04500000000019
20
568.74665185076935
10
-542.04500000000007
20
556.07534814923054
42
0.99999999999999989
10
-539.18065185076955
20
553.21100000000001
10
-526.5093481492305
20
553.21100000000001
42
0.99999999999999989
10
-523.6450000000001
20
556.07534814923042
10
-523.6450000000001
20
568.74665185076958
42
0.99999999999999989
10
-526.5093481492305
20
571.61099999999999
0
LWPOLYLINE
5
165
100
AcDbEntity
8
0
100
AcDbPolyline
90
8
70
1
43
0.0
10
-423.54500000000002
20
556.07534814923042
42
0.99999999999999989
10
-420.68065185076961
20
553.21100000000001
10
-408.0093481492305
20
553.21100000000001
42
0.99999999999999989
10
-405.14500000000004
20
556.07534814923042
10
-405.1450000000001
20
568.74665185076947
42
0.99999999999999989
10
-408.0093481492305
20
571.61099999999999
10
-420.68065185076955
20
571.61099999999988
42
1.0000000105367119
10
-423.54500000000002
20
568.74665185076947
0
LWPOLYLINE
5
166
100
AcDbEntity
8
0
100
AcDbPolyline
90
4
70
1
43
0.0
10
-515.59954025869717
20
825.69263128854561
10
-497.24436173391643
20
824.40911217165365
10
-498.52788085080829
20
806.05393364687302
10
-516.88305937558903
20
807.33745276376499
0
LWPOLYLINE
5
167
100
AcDbEntity
8
0
100
AcDbPolyline
90
4
70
1
43
0.0
10
-259.28192206135799
20
1144.558
10
-240.88192206135778
20
1144.558
10
-240.88192206135778
20
1108.1579999999999
10
-259.28192206135799
20
1108.1579999999999
0
LWPOLYLINE
5
168
100
AcDbEntity
8
0
100
AcDbPolyline
90
4
70
1
43
0.0
10
-533.82607793864213
20
676.55799999999999
10
-515.42607793864204
20
676.55799999999999
10
-515.42607793864215
20
640.15800000000002
10
-533.82607793864213
20
640.15800000000002
0
LWPOLYLINE
5
169
100
AcDbEntity
8
0
100
AcDbPolyline
90
4
70
1
43
0.0
10
-533.82607793864213
20
1144.558
10
-515.42607793864204
20
1144.558
10
-515.42607793864215
20
1108.1579999999999
10
-533.82607793864213
20
1108.1579999999999
0
LWPOLYLINE
5
170
100
AcDbEntity
8
0
100
AcDbPolyline
90
4
70
1
43
0.0
10
-477.57303613807323
20
1105.722174344924
10
-478.85655525496509
20
1087.3669958201433
10
-497.21173377974588
20
1088.6505149370353
10
-495.92821466285386
20
1107.005693461816
0
LWPOLYLINE
5
171
100
AcDbEntity
8
0
100
AcDbPolyline
90
4
70
1
43
0.0
10
-259.28192206135833
20
676.55799999999999
10
-240.8819220613583
20
676.55799999999999
10
-240.8819220613583
20
640.15800000000002
10
-259.28192206135839
20
640.15800000000002
0
LWPOLYLINE
5
172
100
AcDbEntity
8
0
100
AcDbPolyline
90
8
70
1
43
0.0
10
-127.79392206135796
20
774.15800000000002
10
-87.081922061357915
20
774.15800000000002
10
-87.081922061357929
20
1162.3580000000002
10
-551.62607793864208
20
1162.3579999999999
10
-551.6260779386422
20
622.35799999999995
10
-87.081922061357986
20
622.35799999999995
10
-87.081922061357929
20
686.55799999999999
10
-127.79392206135796
20
686.55799999999999
0
LWPOLYLINE
5
173
100
AcDbEntity
8
0
100
AcDbPolyline
90
4
70
1
43
0.0
10
-497.6260779386422
20
1028.8579999999999
10
-497.6260779386422
20
1079.8580000000002
10
-443.6260779386422
20
1079.8579999999999
42
-0.99999999999999989
10
-443.6260779386422
20
1028.8579999999999
0
LWPOLYLINE
5
174
100
AcDbEntity
8
0
100
AcDbPolyline
90
8
70
1
43
0.0
10
-46.832651850769828
20
675.27599999999995
42
0.99999999999999989
10
-49.697000000000166
20
672.41165185076954
10
-49.697000000000138
20
641.74034814923039
42
0.99999999999999989
10
-46.832651850769921
20
638.87599999999998
10
-34.161348149230761
20
638.87599999999998
42
0.99999999999999989
10
-31.297000000000281
20
641.7403481492305
10
-31.297000000000295
20
672.41165185076943
42
0.99999999999999989
10
-34.161348149230776
20
675.27599999999995
0
LWPOLYLINE
5
175
100
AcDbEntity
8
0
100
AcDbPolyline
90
8
70
1
43
0.0
10
-34.161348149230449
20
1106.876
42
0.99999998946328772
10
-31.296999999999993
20
1109.7403481492304
10
-31.29699999999993
20
1140.4116518507694
42
0.99999999999999989
10
-34.161348149230534
20
1143.2759999999998
10
-46.832651850769651
20
1143.2759999999998
42
0.99999999999999989
10
-49.697000000000202
20
1140.4116518507694
10
-49.697000000000074
20
1109.7403481492304
42
0.99999999999999989
10
-46.832651850769679
20
1106.876
0
CIRCLE
5
176
100
AcDbEntity
8
0
100
AcDbCircle
10
14.544999999999675
20
1042.6759999999999
30
0
40
1.5000000000000391
210
0
220
-0
230
1
0
CIRCLE
5
177
100
AcDbEntity
8
0
100
AcDbCircle
10
29.657999999999731
20
837.07600000000002
30
0
40
1.4999999999999858
210
0
220
-0
230
1
0
CIRCLE
5
178
100
AcDbEntity
8
0
100
AcDbCircle
10
14.544999999999675
20
739.47599999999989
30
0
40
1.5000000000000036
210
0
220
-0
230
1
0
CIRCLE
5
179
100
AcDbEntity
8
0
100
AcDbCircle
10
29.657999999999731
20
729.07600000000002
30
0
40
1.4999999999999858
210
0
220
-0
230
1
0
CIRCLE
5
180
100
AcDbEntity
8
0
100
AcDbCircle
10
14.544999999999675
20
955.476
30
0
40
1.5000000000000036
210
0
220
-0
230
1
0
CIRCLE
5
181
100
AcDbEntity
8
0
100
AcDbCircle
10
14.544999999999675
20
1063.4760000000001
30
0
40
1.4999999999999858
210
0
220
-0
230
1
0
CIRCLE
5
182
100
AcDbEntity
8
0
100
AcDbCircle
10
29.657999999999731
20
945.07600000000002
30
0
40
1.4999999999999858
210
0
220
-0
230
1
0
CIRCLE
5
183
100
AcDbEntity
8
0
100
AcDbCircle
10
14.544999999999675
20
847.47599999999989
30
0
40
1.5000000000000036
210
0
220
-0
230
1
0
CIRCLE
5
184
100
AcDbEntity
8
0
100
AcDbCircle
10
14.544999999999675
20
718.67599999999993
30
0
40
1.5000000000000213
210
0
220
-0
230
1
0
CIRCLE
5
185
100
AcDbEntity
8
0
100
AcDbCircle
10
14.544999999999675
20
826.67599999999993
30
0
40
1.5000000000000302
210
0
220
-0
230
1
0
CIRCLE
5
186
100
AcDbEntity
8
0
100
AcDbCircle
10
14.544999999999675
20
934.67600000000004
30
0
40
1.5000000000000302
210
0
220
-0
230
1
0
CIRCLE
5
187
100
AcDbEntity
8
0
100
AcDbCircle
10
29.657999999999589
20
1053.076
30
0
40
1.4999999999999858
210
0
220
-0
230
1
0
CIRCLE
5
188
100
AcDbEntity
8
0
100
AcDbCircle
10
-13.497000000000128
20
837.07600000000002
30
0
40
24.000000000000004
210
0
220
-0
230
1
0
CIRCLE
5
189
100
AcDbEntity
8
0
100
AcDbCircle
10
-13.497000000000128
20
1053.076
30
0
40
24.000000000000004
210
0
220
-0
230
1
0
CIRCLE
5
190
100
AcDbEntity
8
0
100
AcDbCircle
10
-13.497000000000128
20
945.07600000000002
30
0
40
24.000000000000004
210
0
220
-0
230
1
0
LWPOLYLINE
5
191
100
AcDbEntity
8
0
100
AcDbPolyline
90
4
70
1
43
0.0
10
40.502999999999787
20
621.07600000000002
10
40.502999999999751
20
1161.076
10
-67.497000000000156
20
1161.076
10
-67.497000000000014
20
621.07599999999991
0
LWPOLYLINE
5
192
100
AcDbEntity
8
0
100
AcDbPolyline
90
20
70
1
43
0.0
10
167.6254836899497
20
614.49999999999977
42
0.99999999999999989
10
164.76113554071915
20
611.63565185076936
10
164.76113554071924
20
598.69999999999982
42
-0.41421356237311063
10
162.76113554071924
20
596.6999999999997
10
149.16113554071924
20
596.6999999999997
42
-0.41421356237310542
10
147.16113554071927
20
598.69999999999982
10
147.16113554071921
20
611.63565185076925
42
0.99999999999999989
10
144.29678739148875
20
614.49999999999977
10
128.96113554071923
20
614.49999999999977
10
128.96113554071923
20
665.49999999999977
10
144.29678739148875
20
665.49999999999977
42
0.99999999999999989
10
147.16113554071921
20
668.36434814923018
10
147.16113554071933
20
681.29999999999984
42
-0.41421356237307683
10
149.16113554071924
20
683.29999999999984
10
162.76113554071929
20
683.29999999999984
42
-0.41421356237307944
10
164.76113554071927
20
681.29999999999984
10
164.76113554071927
20
668.36434814923018
42
0.99999999999999989
10
167.62548368994968
20
665.49999999999977
10
251.03886445928111
20
665.49999999999977
10
251.03886445928111
20
614.49999999999977
0
CIRCLE
5
193
100
AcDbEntity
8
0
100
AcDbCircle
10
434.25000000000011
20
584
30
0
40
1.4999999999999858
210
0
220
-0
230
1
0
CIRCLE
5
194
100
AcDbEntity
8
0
100
AcDbCircle
10
449.75
20
584
30
0
40
1.4999999999999858
210
0
220
-0
230
1
0
LWPOLYLINE
5
195
100
AcDbEntity
8
0
100
AcDbPolyline
90
4
70
1
43
0.0
10
307.80000000000001
20
574.20000000000005
10
326.20000000000005
20
574.20000000000005
10
326.19999999999999
20
537.79999999999995
10
307.79999999999984
20
537.79999999999995
0
LWPOLYLINE
5
196
100
AcDbEntity
8
0
100
AcDbPolyline
90
4
70
1
43
0.0
10
326.20000000000005
20
1005.8
10
307.7999999999999
20
1005.8
10
307.80000000000001
20
1042.2
10
326.20000000000005
20
1042.2
0
CIRCLE
5
197
100
AcDbEntity
8
0
100
AcDbCircle
10
442
20
628
30
0
40
32.59999999999998
210
0
220
-0
230
1
0
LWPOLYLINE
5
198
100
AcDbEntity
8
0
100
AcDbPolyline
90
10
70
1
43
0.0
10
494.00000000000011
20
574
42
0.41421356237307427
10
496.00000000000017
20
576.00000000000011
10
496.00000000000011
20
680.00000000000011
42
0.41421356237306384
10
494.00000000000011
20
682.00000000000023
10
385.99999999999994
20
682
10
386
20
1060
10
290.00000000000006
20
1060
10
290.00000000000006
20
520
10
386
20
520.00000000000011
10
386
20
574
0
LWPOLYLINE
5
199
100
AcDbEntity
8
0
100
AcDbPolyline
90
23
70
1
43
0.0
10
413.1810000000001
20
712.99765185076967
42
0.99999999999999989
10
410.31665185076969
20
715.86200000000008
10
394.98100000000011
20
715.86200000000019
10
394.98100000000011
20
778.86200000000019
10
430.98100000000017
20
778.86200000000008
10
465.88486141876399
20
743.9581385812362
42
0.41421356237305867
10
468.53117404782461
20
742.86200000000008
10
568.98100000000011
20
742.86200000000019
10
568.98100000000011
20
715.86200000000019
10
553.64534814923059
20
715.86200000000008
42
0.99999999999999989
10
550.78100000000018
20
712.99765185076978
10
550.78100000000018
20
700.06200000000035
42
-0.4142135623731471
10
548.78100000000006
20
698.06200000000013
10
535.18100000000015
20
698.06200000000013
42
-0.41421356237307427
10
533.18100000000004
20
700.06200000000013
10
533.18100000000004
20
712.99765185076967
42
0.99999999999999989
10
530.31665185076963
20
715.86200000000019
10
433.64534814923053
20
715.86200000000008
42
0.99999999999999989
10
430.78100000000012
20
712.99765185076967
10
430.78099999999995
20
700.06200000000013
42
-0.41421356237308465
10
428.78100000000012
20
698.06200000000013
10
415.1810000000001
20
698.06200000000013
42
-0.41421356237307427
10
413.18100000000015
20
700.06200000000013
0
LWPOLYLINE
5
200
100
AcDbEntity
8
0
100
AcDbPolyline
90
23
70
1
43
0.0
10
413.1810000000001
20
815.24865185076965
42
0.99999999999999989
10
410.31665185076969
20
818.11300000000006
10
394.98100000000011
20
818.11300000000017
10
394.98100000000011
20
881.11300000000017
10
430.98100000000017
20
881.11300000000006
10
465.88486141876399
20
846.20913858123618
42
0.41421356237305867
10
468.53117404782461
20
845.11300000000006
10
568.98100000000011
20
845.11300000000017
10
568.98100000000011
20
818.11300000000017
10
553.64534814923059
20
818.11300000000006
42
0.99999999999999989
10
550.78100000000018
20
815.24865185076976
10
550.78100000000018
20
802.31300000000033
42
-0.4142135623731471
10
548.78100000000006
20
800.3130000000001
10
535.18100000000015
20
800.3130000000001
42
-0.41421356237307427
10
533.18100000000004
20
802.3130000000001
10
533.18100000000004
20
815.24865185076965
42
0.99999999999999989
10
530.31665185076963
20
818.11300000000017
10
433.64534814923053
20
818.11300000000006
42
0.99999999999999989
10
430.78100000000012
20
815.24865185076965
10
430.78099999999995
20
802.3130000000001
42
-0.41421356237308465
10
428.78100000000012
20
800.3130000000001
10
415.1810000000001
20
800.3130000000001
42
-0.41421356237307427
10
413.18100000000015
20
802.3130000000001
0
LWPOLYLINE
5
201
100
AcDbEntity
8
0
100
AcDbPolyline
90
23
70
1
43
0.0
10
413.1810000000001
20
917.49965185076962
42
0.99999999999999989
10
410.31665185076969
20
920.36400000000003
10
394.98100000000011
20
920.36400000000015
10
394.98100000000011
20
983.36400000000015
10
430.98100000000017
20
983.36400000000003
10
465.88486141876399
20
948.46013858123615
42
0.41421356237305867
10
468.53117404782461
20
947.36400000000003
10
568.98100000000011
20
947.36400000000015
10
568.98100000000011
20
920.36400000000015
10
553.64534814923059
20
920.36400000000003
42
0.99999999999999989
10
550.78100000000018
20
917.49965185076974
10
550.78100000000018
20
904.56400000000031
42
-0.4142135623731471
10
548.78100000000006
20
902.56400000000008
10
535.18100000000015
20
902.56400000000008
42
-0.41421356237307427
10
533.18100000000004
20
904.56400000000008
10
533.18100000000004
20
917.49965185076962
42
0.99999999999999989
10
530.31665185076963
20
920.36400000000015
10
433.64534814923053
20
920.36400000000003
42
0.99999999999999989
10
430.78100000000012
20
917.49965185076962
10
430.78099999999995
20
904.56400000000008
42
-0.41421356237308465
10
428.78100000000012
20
902.56400000000008
10
415.1810000000001
20
902.56400000000008
42
-0.41421356237307427
10
413.18100000000015
20
904.56400000000008
0
LWPOLYLINE
5
202
100
AcDbEntity
8
0
100
AcDbPolyline
90
23
70
1
43
0.0
10
413.1810000000001
20
1019.7506518507696
42
0.99999999999999989
10
410.31665185076969
20
1022.615
10
394.98100000000011
20
1022.6150000000001
10
394.98100000000011
20
1085.615
10
430.98100000000017
20
1085.615
10
465.88486141876399
20
1050.7111385812361
42
0.41421356237305867
10
468.53117404782461
20
1049.615
10
568.98100000000011
20
1049.6150000000002
10
568.98100000000011
20
1022.6150000000001
10
553.64534814923059
20
1022.615
42
0.99999999999999989
10
550.78100000000018
20
1019.7506518507697
10
550.78100000000018
20
1006.8150000000003
42
-0.4142135623731471
10
548.78100000000006
20
1004.8150000000001
10
535.18100000000015
20
1004.8150000000001
42
-0.41421356237307427
10
533.18100000000004
20
1006.8150000000001
10
533.18100000000004
20
1019.7506518507696
42
0.99999999999999989
10
530.31665185076963
20
1022.6150000000001
10
433.64534814923053
20
1022.615
42
0.99999999999999989
10
430.78100000000012
20
1019.7506518507696
10
430.78099999999995
20
1006.8150000000001
42
-0.41421356237308465
10
428.78100000000012
20
1004.8150000000001
10
415.1810000000001
20
1004.8150000000001
42
-0.41421356237307427
10
413.18100000000015
20
1006.8150000000001
0
LWPOLYLINE
5
203
100
AcDbEntity
8
0
100
AcDbPolyline
90
4
70
1
43
0.0
10
196.49878205479666
20
763.96115796200763
10
155.60141674466036
20
1054.9610328022836
42
-1.000011042223593
10
164.51384319288849
20
1056.2134923006506
10
205.41121226142252
20
765.21359071311679
42
-1.0000140433758007
0
LWPOLYLINE
5
204
100
AcDbEntity
8
0
100
AcDbPolyline
90
8
70
1
43
0.0
10
156.38949999454371
20
809.82698539445551
42
0.99999999999999989
10
153.95166769875954
20
806.59187267035577
10
158.22028814539061
20
776.21905998804664
42
0.99999998946328772
10
161.45540086949026
20
773.78122769226241
10
174.0033883144514
20
775.54473232161229
42
0.99999999999999989
10
176.44122061023555
20
778.77984504571191
10
172.17260016360444
20
809.15265772802115
42
0.99999999999999989
10
168.93748743950476
20
811.59049002380539
0
LWPOLYLINE
5
205
100
AcDbEntity
8
0
100
AcDbPolyline
90
8
70
1
43
0.0
10
161.96385057235528
20
1138.9696518507699
42
0.99999999999999989
10
159.09950242312479
20
1141.8340000000003
10
146.4281987215856
20
1141.8340000000005
42
0.99999999999999989
10
143.56385057235508
20
1138.9696518507699
10
143.56385057235511
20
1126.2983481492306
42
0.99999999999999989
10
146.42819872158557
20
1123.4340000000002
10
159.0995024231247
20
1123.4340000000002
42
0.99999999999999989
10
161.96385057235517
20
1126.2983481492308
0
LWPOLYLINE
5
206
100
AcDbEntity
8
0
100
AcDbPolyline
90
8
70
1
43
0.0
10
128.72057045104705
20
986.12045808926064
42
0.99999999999999989
10
131.95568317514665
20
983.68262579347629
10
144.50367062010773
20
985.44613042282617
42
0.99999999999999989
10
146.94150291589202
20
988.68124314692591
10
142.67288246926088
20
1019.0540558292353
42
0.99999999999999989
10
139.43776974516126
20
1021.4918881250194
10
126.88978230020014
20
1019.7283834956695
42
0.99999999999999989
10
124.45195000441602
20
1016.4932707715698
0
LWPOLYLINE
5
207
100
AcDbEntity
8
0
100
AcDbPolyline
90
8
70
1
43
0.0
10
161.96385057235528
20
745.96965185076954
42
0.99999999999999989
10
159.09950242312479
20
748.83399999999995
10
146.4281987215856
20
748.83400000000006
42
0.99999999999999989
10
143.56385057235508
20
745.96965185076954
10
143.56385057235511
20
733.29834814923038
42
0.99999999999999989
10
146.42819872158557
20
730.43399999999997
10
159.0995024231247
20
730.43399999999997
42
0.99999999999999989
10
161.96385057235517
20
733.29834814923049
0
LWPOLYLINE
5
208
100
AcDbEntity
8
0
100
AcDbPolyline
90
8
70
1
43
0.0
10
80.563850572355136
20
1126.2983481492306
42
0.99999999999999989
10
83.428198721585602
20
1123.4340000000002
10
96.099502423124676
20
1123.4340000000002
42
1.0000000105367119
10
98.963850572355128
20
1126.2983481492308
10
98.96385057235517
20
1138.9696518507699
42
0.99999999999999989
10
96.099502423124733
20
1141.8340000000003
10
83.428198721585602
20
1141.8340000000003
42
0.99999999999999989
10
80.563850572355165
20
1138.9696518507699
0
LWPOLYLINE
5
209
100
AcDbEntity
8
0
100
AcDbPolyline
90
8
70
1
43
0.0
10
80.563850572355136
20
1057.2983481492308
42
0.99999999999999989
10
83.428198721585602
20
1054.4340000000004
10
96.099502423124676
20
1054.4340000000004
42
0.99999999999999989
10
98.963850572355128
20
1057.2983481492308
10
98.96385057235517
20
1069.9696518507699
42
0.99999999999999989
10
96.099502423124733
20
1072.8340000000003
10
83.428198721585602
20
1072.8340000000003
42
0.99999999999999989
10
80.563850572355165
20
1069.9696518507699
0
LWPOLYLINE
5
210
100
AcDbEntity
8
0
100
AcDbPolyline
90
8
70
1
43
0.0
10
80.563850572355136
20
733.29834814923038
42
0.99999999999999989
10
83.428198721585602
20
730.43399999999997
10
96.099502423124676
20
730.43399999999997
42
1.0000000105367119
10
98.963850572355128
20
733.29834814923049
10
98.96385057235517
20
745.96965185076954
42
0.99999999999999989
10
96.099502423124733
20
748.83399999999995
10
83.428198721585602
20
748.83399999999995
42
0.99999999999999989
10
80.563850572355165
20
745.96965185076954
0
LWPOLYLINE
5
211
100
AcDbEntity
8
0
100
AcDbPolyline
90
32
70
1
43
0.0
10
103.64642431630615
20
1033.7696518507698
42
0.99999999999999989
10
100.78207616707564
20
1036.6340000000002
10
71.763850572355054
20
1036.6340000000002
10
62.763850572355153
20
1045.6340000000002
10
62.76385057235531
20
1150.6340000000002
10
71.763850572355182
20
1159.6340000000005
10
266.84614942764415
20
1159.6340000000002
10
266.84614942764438
20
1060.0873117576982
10
224.71049757687479
20
1060.0873117576982
42
0.99999999999999989
10
221.84614942764449
20
1057.2229636084676
10
221.84614942764438
20
974.95165990692863
42
0.99999999999999989
10
224.71049757687481
20
972.08731175769822
10
266.84614942764438
20
972.08731175769822
10
266.84614942764455
20
954.08731175769833
10
224.71049757687499
20
954.08731175769833
42
0.99999999999999989
10
221.84614942764469
20
951.22296360846758
10
221.84614942764455
20
868.95165990692874
42
0.99999998946328772
10
224.71049757687501
20
866.08731175769822
10
266.84614942764455
20
866.08731175769822
10
266.84614942764478
20
848.08731175769822
10
224.71049757687513
20
848.08731175769833
42
0.99999999999999989
10
221.84614942764483
20
845.22296360846769
10
221.84614942764469
20
762.95165990692863
42
0.99999999999999989
10
224.71049757687518
20
760.08731175769822
10
266.84614942764472
20
760.08731175769822
10
266.84614942764483
20
712.63399999999956
10
71.763850572355054
20
712.63400000000001
10
62.763850572355118
20
721.63400000000001
10
62.763850572355139
20
757.6339999999999
10
71.763850572355196
20
766.63400000000001
10
100.7820761670757
20
766.63400000000001
42
0.99999999999999989
10
103.64642431630615
20
769.49834814923042
0
ENDSEC
0
SECTION
2
OBJECTS
0
DICTIONARY
5
C
100
AcDbDictionary
3
ACAD_GROUP
350
D
3
ACAD_MLINESTYLE
350
17
0
DICTIONARY
5
D
100
AcDbDictionary
0
DICTIONARY
5
1A
330
C
100
AcDbDictionary
0
DICTIONARY
5
17
100
AcDbDictionary
0
ENDSEC
0
EOF
