<svg width="398" height="100" viewBox="0 0 398 100" fill="none" xmlns="http://www.w3.org/2000/svg">
<path d="M49.6531 0L92.6542 25V75L49.6531 100L6.65234 75V25L49.6531 0Z" fill="#F15A24"/>
<path d="M66.522 49.575L74.9269 44.8497V36.29L49.9512 50.3109V58.8707L57.8382 54.4359L66.522 49.575Z" fill="white"/>
<path d="M71.8933 36.2531L74.1213 34.9787L66.5023 30.6455L49.4142 40.3707C49.255 40.4687 49.0561 40.4687 48.8771 40.3707L31.789 30.6455L24.1699 34.959L49.1556 49.1939L71.8933 36.2531Z" fill="white"/>
<path d="M23.3643 36.29V63.7094L25.8738 62.2978L30.9725 59.436V49.9997C30.9725 49.7097 31.2115 49.4777 31.5102 49.4777C31.6098 49.4777 31.6895 49.497 31.7691 49.5357L40.4529 54.4085L48.34 58.8172V50.2704L24.141 36.7154L23.3643 36.29Z" fill="white"/>
<path d="M26.6912 63.1837L24.1699 64.5157L31.8338 68.5479L39.4776 64.5157L36.6962 63.056L31.8338 60.4834L26.6912 63.1837Z" fill="white"/>
<path d="M40.2832 55.1077L33.0322 50.8066V59.4088L40.2832 63.7099V55.1077Z" fill="white"/>
<path d="M66.4678 58.8712L69.985 57.0102L74.1217 54.8389L66.4678 50.8066L58.814 54.8389L66.4678 58.8712Z" fill="white"/>
<path d="M67.6763 59.9466V68.5487L74.9273 64.2477V55.6455L67.6763 59.9466Z" fill="white"/>
<path d="M58.0083 64.2477L66.065 68.5487V59.9466L58.0083 55.6455V64.2477Z" fill="white"/>
<path d="M125.725 43.1188H127.4V27.8188H125.725V25.625H133.629C134.56 25.625 135.379 25.7563 136.087 26.0188C136.813 26.2813 137.418 26.6375 137.902 27.0875C138.405 27.5375 138.777 28.0812 139.019 28.7187C139.28 29.3375 139.41 30.0125 139.41 30.7438V31.0813C139.41 31.625 139.326 32.1219 139.159 32.5719C138.991 33.0219 138.759 33.425 138.461 33.7813C138.163 34.1375 137.809 34.4469 137.399 34.7094C137.008 34.9531 136.58 35.1406 136.115 35.2719V35.6094C137.045 35.8719 137.828 36.3781 138.461 37.1281C139.094 37.8594 139.41 38.7594 139.41 39.8281V40.1656C139.41 40.8969 139.28 41.5813 139.019 42.2188C138.777 42.8375 138.405 43.3812 137.902 43.85C137.418 44.3 136.813 44.6562 136.087 44.9187C135.379 45.1812 134.56 45.3125 133.629 45.3125H125.725V43.1188ZM129.746 43.1188H133.461C134.56 43.1188 135.453 42.8469 136.142 42.3031C136.831 41.7406 137.176 40.9719 137.176 39.9969V39.8281C137.176 38.8156 136.85 38.0187 136.198 37.4375C135.547 36.8375 134.662 36.5375 133.545 36.5375H129.746V43.1188ZM129.746 34.3438H133.545C134.662 34.3438 135.547 34.0531 136.198 33.4719C136.85 32.8906 137.176 32.0938 137.176 31.0813V30.9125C137.176 29.9563 136.831 29.2063 136.142 28.6625C135.453 28.1 134.56 27.8188 133.461 27.8188H129.746V34.3438ZM153.551 31.3625H155.73V45.3125H153.551V42.7812H153.216C152.769 43.6812 152.183 44.3937 151.457 44.9187C150.73 45.4437 149.809 45.7063 148.691 45.7063C147.928 45.7063 147.22 45.575 146.569 45.3125C145.936 45.0688 145.386 44.6938 144.921 44.1875C144.474 43.6813 144.12 43.0531 143.86 42.3031C143.618 41.5531 143.497 40.6812 143.497 39.6875V31.3625H145.675V39.4062C145.675 40.8687 145.973 41.9375 146.569 42.6125C147.165 43.2875 148.077 43.625 149.306 43.625C150.628 43.625 151.661 43.175 152.406 42.275C153.17 41.3562 153.551 40.1375 153.551 38.6187V31.3625ZM159.984 31.3625H165.011V33.2188H165.346C165.7 32.45 166.203 31.8875 166.854 31.5313C167.506 31.1563 168.251 30.9688 169.089 30.9688C170.485 30.9688 171.612 31.4281 172.468 32.3469C173.325 33.2656 173.781 34.6062 173.837 36.3687L171.547 36.7063C171.547 35.4125 171.239 34.4844 170.625 33.9219C170.01 33.3406 169.256 33.05 168.363 33.05C167.785 33.05 167.283 33.1625 166.854 33.3875C166.445 33.6125 166.1 33.9219 165.821 34.3156C165.542 34.7094 165.337 35.1688 165.207 35.6938C165.076 36.2188 165.011 36.7812 165.011 37.3813V43.2875H168.53V45.3125H159.648V43.2875H162.832V33.3875H159.984V31.3625ZM179.459 39.0125C179.515 40.4 179.943 41.5156 180.744 42.3594C181.545 43.2031 182.662 43.625 184.096 43.625C184.747 43.625 185.315 43.55 185.799 43.4C186.283 43.25 186.693 43.0437 187.028 42.7812C187.382 42.5187 187.661 42.2188 187.866 41.8813C188.09 41.525 188.266 41.15 188.397 40.7563L190.464 41.3188C190.073 42.6125 189.346 43.6719 188.285 44.4969C187.242 45.3031 185.827 45.7063 184.04 45.7063C183.053 45.7063 182.141 45.5375 181.303 45.2C180.483 44.8438 179.776 44.3469 179.18 43.7094C178.584 43.0719 178.119 42.3125 177.783 41.4313C177.448 40.55 177.281 39.575 177.281 38.5062V37.8313C177.281 36.8563 177.448 35.9469 177.783 35.1031C178.137 34.2594 178.621 33.5375 179.236 32.9375C179.85 32.3188 180.567 31.8406 181.386 31.5031C182.224 31.1469 183.127 30.9688 184.096 30.9688C185.231 30.9688 186.209 31.1844 187.028 31.6156C187.866 32.0281 188.546 32.5438 189.067 33.1625C189.607 33.7813 189.998 34.4563 190.24 35.1875C190.501 35.9188 190.631 36.5938 190.631 37.2125V39.0125H179.459ZM184.096 33.05C183.481 33.05 182.904 33.1531 182.364 33.3594C181.843 33.5469 181.377 33.8188 180.967 34.175C180.576 34.5312 180.251 34.9531 179.99 35.4406C179.748 35.9094 179.59 36.425 179.515 36.9875H188.453C188.415 36.3875 188.266 35.8438 188.006 35.3563C187.764 34.8688 187.438 34.4563 187.028 34.1188C186.637 33.7813 186.181 33.5188 185.66 33.3313C185.157 33.1438 184.636 33.05 184.096 33.05ZM205.024 42.95H204.688C204.242 43.8875 203.618 44.5812 202.817 45.0312C202.035 45.4813 201.207 45.7063 200.331 45.7063C199.419 45.7063 198.572 45.5563 197.79 45.2563C197.008 44.9375 196.319 44.4781 195.723 43.8781C195.146 43.2594 194.69 42.5094 194.354 41.6281C194.019 40.7469 193.852 39.725 193.852 38.5625V38.1125C193.852 36.9688 194.019 35.9563 194.354 35.075C194.69 34.1938 195.146 33.4531 195.723 32.8531C196.319 32.2344 197.008 31.7656 197.79 31.4469C198.572 31.1281 199.4 30.9688 200.276 30.9688C201.225 30.9688 202.082 31.1844 202.845 31.6156C203.627 32.0281 204.242 32.675 204.688 33.5563H205.024V31.3625H207.202V42.4438C207.202 43.0063 207.453 43.2875 207.956 43.2875H208.654V45.3125H207.174C206.541 45.3125 206.02 45.1063 205.61 44.6938C205.219 44.2812 205.024 43.7563 205.024 43.1188V42.95ZM200.555 43.625C201.207 43.625 201.802 43.5031 202.342 43.2594C202.901 43.0156 203.376 42.6688 203.767 42.2188C204.158 41.7688 204.465 41.2344 204.688 40.6156C204.912 39.9781 205.024 39.275 205.024 38.5062V38.1687C205.024 37.4187 204.912 36.7344 204.688 36.1156C204.465 35.4781 204.148 34.9344 203.739 34.4844C203.348 34.0344 202.873 33.6875 202.314 33.4437C201.774 33.1812 201.188 33.05 200.555 33.05C199.903 33.05 199.307 33.1719 198.767 33.4156C198.227 33.6594 197.753 34.0063 197.343 34.4563C196.952 34.8875 196.645 35.4219 196.421 36.0594C196.198 36.6781 196.086 37.3625 196.086 38.1125V38.5625C196.086 40.1563 196.496 41.4031 197.315 42.3031C198.153 43.1844 199.233 43.625 200.555 43.625ZM221.958 31.3625H224.136V45.3125H221.958V42.7812H221.622C221.176 43.6812 220.589 44.3937 219.863 44.9187C219.137 45.4437 218.215 45.7063 217.098 45.7063C216.334 45.7063 215.627 45.575 214.975 45.3125C214.342 45.0688 213.793 44.6938 213.327 44.1875C212.88 43.6813 212.527 43.0531 212.266 42.3031C212.024 41.5531 211.903 40.6812 211.903 39.6875V31.3625H214.081V39.4062C214.081 40.8687 214.379 41.9375 214.975 42.6125C215.571 43.2875 216.483 43.625 217.712 43.625C219.034 43.625 220.068 43.175 220.812 42.275C221.576 41.3562 221.958 40.1375 221.958 38.6187V31.3625ZM124.747 56.875H131.227L132.344 71.6688V74.5375H133.014V71.6688L134.131 56.875H140.611V76.5625H137.26V63.4L137.595 58.9H136.924L135.472 76.5625H129.942L128.434 58.9H127.763L128.099 63.4V76.5625H124.747V56.875ZM156.987 69.7563C156.987 70.9188 156.791 71.95 156.4 72.85C156.009 73.7313 155.478 74.4813 154.808 75.1C154.138 75.7 153.365 76.1594 152.49 76.4781C151.633 76.7969 150.73 76.9562 149.781 76.9562C148.831 76.9562 147.919 76.7969 147.044 76.4781C146.187 76.1594 145.424 75.7 144.753 75.1C144.083 74.4813 143.552 73.7313 143.161 72.85C142.77 71.95 142.575 70.9188 142.575 69.7563V69.4188C142.575 68.275 142.77 67.2625 143.161 66.3813C143.552 65.4813 144.083 64.7219 144.753 64.1031C145.424 63.4844 146.187 63.0156 147.044 62.6969C147.919 62.3781 148.831 62.2188 149.781 62.2188C150.73 62.2188 151.633 62.3781 152.49 62.6969C153.365 63.0156 154.138 63.4844 154.808 64.1031C155.478 64.7219 156.009 65.4813 156.4 66.3813C156.791 67.2625 156.987 68.275 156.987 69.4188V69.7563ZM149.781 73.5812C150.283 73.5812 150.758 73.4969 151.205 73.3281C151.652 73.1594 152.043 72.9156 152.378 72.5969C152.713 72.2781 152.974 71.8937 153.16 71.4437C153.365 70.975 153.467 70.45 153.467 69.8688V69.3062C153.467 68.725 153.365 68.2094 153.16 67.7594C152.974 67.2906 152.713 66.8969 152.378 66.5781C152.043 66.2594 151.652 66.0156 151.205 65.8469C150.758 65.6781 150.283 65.5938 149.781 65.5938C149.278 65.5938 148.803 65.6781 148.356 65.8469C147.909 66.0156 147.518 66.2594 147.183 66.5781C146.848 66.8969 146.578 67.2906 146.373 67.7594C146.187 68.2094 146.094 68.725 146.094 69.3062V69.8688C146.094 70.45 146.187 70.975 146.373 71.4437C146.578 71.8937 146.848 72.2781 147.183 72.5969C147.518 72.9156 147.909 73.1594 148.356 73.3281C148.803 73.4969 149.278 73.5812 149.781 73.5812ZM163.615 70.7406C163.633 71.1531 163.726 71.5375 163.894 71.8938C164.08 72.2313 164.322 72.5313 164.62 72.7938C164.937 73.0375 165.29 73.2344 165.681 73.3844C166.091 73.5156 166.519 73.5812 166.966 73.5812C167.841 73.5812 168.512 73.4313 168.977 73.1313C169.443 72.8125 169.778 72.4375 169.983 72.0062L172.999 73.6938C172.831 74.05 172.599 74.425 172.301 74.8187C172.003 75.1937 171.612 75.5406 171.128 75.8594C170.662 76.1781 170.085 76.4406 169.396 76.6469C168.726 76.8531 167.934 76.9562 167.022 76.9562C165.979 76.9562 165.03 76.7875 164.173 76.45C163.317 76.1125 162.572 75.625 161.939 74.9875C161.324 74.35 160.84 73.5719 160.486 72.6531C160.151 71.7344 159.984 70.6938 159.984 69.5312V69.3625C159.984 68.2937 160.161 67.3188 160.514 66.4375C160.887 65.5563 161.389 64.8063 162.023 64.1875C162.656 63.5688 163.391 63.0906 164.229 62.7531C165.085 62.3969 165.998 62.2188 166.966 62.2188C168.158 62.2188 169.182 62.4344 170.038 62.8656C170.895 63.2781 171.602 63.8125 172.161 64.4687C172.72 65.1062 173.129 65.8187 173.39 66.6062C173.651 67.375 173.781 68.125 173.781 68.8563V70.7406H163.615ZM166.938 65.425C166.044 65.425 165.318 65.6594 164.76 66.1281C164.201 66.5781 163.838 67.1031 163.67 67.7031H170.206C170.094 67.0469 169.74 66.5031 169.145 66.0719C168.567 65.6406 167.832 65.425 166.938 65.425ZM177.867 73.1875H182.559V65.9875H178.202V62.6125H186.079V73.1875H190.101V76.5625H177.867V73.1875ZM186.944 58.4781C186.944 58.8531 186.87 59.2094 186.721 59.5469C186.591 59.8656 186.404 60.1469 186.162 60.3906C185.92 60.6156 185.632 60.8031 185.297 60.9531C184.98 61.0844 184.645 61.15 184.291 61.15C183.919 61.15 183.574 61.0844 183.258 60.9531C182.941 60.8031 182.662 60.6156 182.42 60.3906C182.178 60.1469 181.982 59.8656 181.833 59.5469C181.703 59.2094 181.638 58.8531 181.638 58.4781C181.638 58.1031 181.703 57.7562 181.833 57.4375C181.982 57.1 182.178 56.8188 182.42 56.5938C182.662 56.35 182.941 56.1625 183.258 56.0313C183.574 55.8813 183.919 55.8062 184.291 55.8062C184.645 55.8062 184.98 55.8813 185.297 56.0313C185.632 56.1625 185.92 56.35 186.162 56.5938C186.404 56.8188 186.591 57.1 186.721 57.4375C186.87 57.7562 186.944 58.1031 186.944 58.4781ZM194.634 73.1875H199.493V60.25H194.801V56.875H203.013V73.1875H207.537V76.5625H194.634V73.1875ZM212.07 73.1875H216.763V65.9875H212.406V62.6125H220.282V73.1875H224.304V76.5625H212.07V73.1875ZM221.148 58.4781C221.148 58.8531 221.073 59.2094 220.924 59.5469C220.794 59.8656 220.608 60.1469 220.366 60.3906C220.124 60.6156 219.835 60.8031 219.5 60.9531C219.183 61.0844 218.848 61.15 218.494 61.15C218.122 61.15 217.777 61.0844 217.461 60.9531C217.144 60.8031 216.865 60.6156 216.623 60.3906C216.381 60.1469 216.185 59.8656 216.036 59.5469C215.906 59.2094 215.841 58.8531 215.841 58.4781C215.841 58.1031 215.906 57.7562 216.036 57.4375C216.185 57.1 216.381 56.8188 216.623 56.5938C216.865 56.35 217.144 56.1625 217.461 56.0313C217.777 55.8813 218.122 55.8062 218.494 55.8062C218.848 55.8062 219.183 55.8813 219.5 56.0313C219.835 56.1625 220.124 56.35 220.366 56.5938C220.608 56.8188 220.794 57.1 220.924 57.4375C221.073 57.7562 221.148 58.1031 221.148 58.4781ZM230.261 62.6125H239.143V79.3187C239.143 80.2937 238.882 81.0156 238.361 81.4844C237.84 81.9531 237.16 82.1875 236.322 82.1875H229.759V78.8125H234.786C235.345 78.8125 235.624 78.5031 235.624 77.8844V65.9875H230.261V62.6125ZM239.981 58.4781C239.981 58.8531 239.906 59.2094 239.757 59.5469C239.627 59.8656 239.441 60.1469 239.199 60.3906C238.957 60.6156 238.668 60.8031 238.333 60.9531C238.016 61.0844 237.681 61.15 237.328 61.15C236.955 61.15 236.611 61.0844 236.294 60.9531C235.978 60.8031 235.698 60.6156 235.456 60.3906C235.214 60.1469 235.019 59.8656 234.87 59.5469C234.739 59.2094 234.674 58.8531 234.674 58.4781C234.674 58.1031 234.739 57.7562 234.87 57.4375C235.019 57.1 235.214 56.8188 235.456 56.5938C235.698 56.35 235.978 56.1625 236.294 56.0313C236.611 55.8813 236.955 55.8062 237.328 55.8062C237.681 55.8062 238.016 55.8813 238.333 56.0313C238.668 56.1625 238.957 56.35 239.199 56.5938C239.441 56.8188 239.627 57.1 239.757 57.4375C239.906 57.7562 239.981 58.1031 239.981 58.4781ZM250.659 67.7313H251.329L255.016 62.6125H258.87V62.7812L254.401 69.1656V69.6719L259.317 76.3937V76.5625H255.295L251.329 71.1063H250.659V76.5625H247.139V56.875H250.659V67.7313ZM266.224 70.7406C266.243 71.1531 266.336 71.5375 266.503 71.8938C266.69 72.2313 266.932 72.5313 267.23 72.7938C267.546 73.0375 267.9 73.2344 268.291 73.3844C268.701 73.5156 269.129 73.5812 269.576 73.5812C270.451 73.5812 271.121 73.4313 271.587 73.1313C272.052 72.8125 272.387 72.4375 272.592 72.0062L275.608 73.6938C275.441 74.05 275.208 74.425 274.91 74.8187C274.612 75.1937 274.221 75.5406 273.737 75.8594C273.272 76.1781 272.694 76.4406 272.006 76.6469C271.335 76.8531 270.544 76.9562 269.631 76.9562C268.589 76.9562 267.639 76.7875 266.783 76.45C265.926 76.1125 265.181 75.625 264.548 74.9875C263.934 74.35 263.45 73.5719 263.096 72.6531C262.761 71.7344 262.593 70.6938 262.593 69.5312V69.3625C262.593 68.2937 262.77 67.3188 263.124 66.4375C263.496 65.5563 263.999 64.8063 264.632 64.1875C265.265 63.5688 266.001 63.0906 266.839 62.7531C267.695 62.3969 268.607 62.2188 269.576 62.2188C270.767 62.2188 271.791 62.4344 272.648 62.8656C273.504 63.2781 274.212 63.8125 274.771 64.4687C275.329 65.1062 275.739 65.8187 275.999 66.6062C276.26 67.375 276.391 68.125 276.391 68.8563V70.7406H266.224ZM269.548 65.425C268.654 65.425 267.928 65.6594 267.369 66.1281C266.811 66.5781 266.447 67.1031 266.28 67.7031H272.815C272.704 67.0469 272.35 66.5031 271.754 66.0719C271.177 65.6406 270.441 65.425 269.548 65.425ZM296.433 56.875H303.527C305.948 56.875 307.745 57.4469 308.918 58.5906C310.091 59.7156 310.677 61.4687 310.677 63.85V69.5875C310.677 71.9688 310.091 73.7312 308.918 74.875C307.745 76 305.948 76.5625 303.527 76.5625H296.433V72.9906H298.277V60.4188H296.433V56.875ZM303.527 73.0187C304.812 73.0187 305.706 72.7187 306.209 72.1187C306.73 71.5 306.991 70.5438 306.991 69.25V63.85C306.991 62.725 306.73 61.8719 306.209 61.2906C305.706 60.7094 304.812 60.4188 303.527 60.4188H301.963V73.0187H303.527ZM314.68 73.1875H319.372V65.9875H315.015V62.6125H322.891V73.1875H326.913V76.5625H314.68V73.1875ZM323.757 58.4781C323.757 58.8531 323.683 59.2094 323.534 59.5469C323.403 59.8656 323.217 60.1469 322.975 60.3906C322.733 60.6156 322.444 60.8031 322.109 60.9531C321.793 61.0844 321.458 61.15 321.104 61.15C320.731 61.15 320.387 61.0844 320.07 60.9531C319.754 60.8031 319.475 60.6156 319.233 60.3906C318.99 60.1469 318.795 59.8656 318.646 59.5469C318.516 59.2094 318.45 58.8531 318.45 58.4781C318.45 58.1031 318.516 57.7562 318.646 57.4375C318.795 57.1 318.99 56.8188 319.233 56.5938C319.475 56.35 319.754 56.1625 320.07 56.0313C320.387 55.8813 320.731 55.8062 321.104 55.8062C321.458 55.8062 321.793 55.8813 322.109 56.0313C322.444 56.1625 322.733 56.35 322.975 56.5938C323.217 56.8188 323.403 57.1 323.534 57.4375C323.683 57.7562 323.757 58.1031 323.757 58.4781ZM335.049 76.5625H331.53V62.6125H335.049V64.6937H335.552C335.869 63.9062 336.381 63.2969 337.088 62.8656C337.796 62.4344 338.624 62.2188 339.574 62.2188C340.244 62.2188 340.868 62.3312 341.445 62.5562C342.041 62.7625 342.562 63.0906 343.009 63.5406C343.456 63.9906 343.801 64.5625 344.043 65.2563C344.303 65.95 344.434 66.775 344.434 67.7313V76.5625H340.915V68.6312C340.915 67.6375 340.673 66.8594 340.188 66.2969C339.723 65.7156 339.043 65.425 338.15 65.425C337.107 65.425 336.325 65.7812 335.803 66.4938C335.301 67.1875 335.049 68.125 335.049 69.3062V76.5625ZM358.519 74.5375H358.016C357.867 74.8562 357.681 75.1656 357.458 75.4656C357.253 75.7469 356.973 76 356.62 76.225C356.285 76.45 355.875 76.6281 355.391 76.7594C354.925 76.8906 354.357 76.9562 353.687 76.9562C352.831 76.9562 352.03 76.8063 351.285 76.5063C350.559 76.1875 349.917 75.7281 349.358 75.1281C348.818 74.5094 348.39 73.7594 348.073 72.8781C347.775 71.9969 347.626 70.9844 347.626 69.8406V69.3344C347.626 68.2094 347.785 67.2063 348.101 66.325C348.436 65.4438 348.883 64.7031 349.442 64.1031C350.019 63.4844 350.68 63.0156 351.425 62.6969C352.188 62.3781 352.989 62.2188 353.827 62.2188C354.944 62.2188 355.828 62.4344 356.48 62.8656C357.132 63.2781 357.644 63.8688 358.016 64.6375H358.519V62.6125H362.038V79.9937C362.038 80.6312 361.833 81.1562 361.424 81.5688C361.033 81.9813 360.521 82.1875 359.887 82.1875H350.559V78.8125H357.765C358.268 78.8125 358.519 78.5312 358.519 77.9688V74.5375ZM354.832 73.5812C355.931 73.5812 356.815 73.2344 357.486 72.5406C358.174 71.8281 358.519 70.9 358.519 69.7563V69.4188C358.519 68.275 358.174 67.3563 357.486 66.6625C356.815 65.95 355.931 65.5938 354.832 65.5938C353.734 65.5938 352.84 65.9406 352.151 66.6344C351.481 67.3094 351.145 68.2375 351.145 69.4188V69.7563C351.145 70.9375 351.481 71.875 352.151 72.5688C352.84 73.2438 353.734 73.5812 354.832 73.5812ZM368.834 70.7406C368.852 71.1531 368.945 71.5375 369.113 71.8938C369.299 72.2313 369.541 72.5313 369.839 72.7938C370.156 73.0375 370.509 73.2344 370.9 73.3844C371.31 73.5156 371.738 73.5812 372.185 73.5812C373.06 73.5812 373.731 73.4313 374.196 73.1313C374.662 72.8125 374.997 72.4375 375.202 72.0062L378.218 73.6938C378.05 74.05 377.818 74.425 377.52 74.8187C377.222 75.1937 376.831 75.5406 376.347 75.8594C375.881 76.1781 375.304 76.4406 374.615 76.6469C373.945 76.8531 373.153 76.9562 372.241 76.9562C371.198 76.9562 370.249 76.7875 369.392 76.45C368.536 76.1125 367.791 75.625 367.158 74.9875C366.543 74.35 366.059 73.5719 365.705 72.6531C365.37 71.7344 365.203 70.6938 365.203 69.5312V69.3625C365.203 68.2937 365.38 67.3188 365.733 66.4375C366.106 65.5563 366.609 64.8063 367.242 64.1875C367.875 63.5688 368.61 63.0906 369.448 62.7531C370.305 62.3969 371.217 62.2188 372.185 62.2188C373.377 62.2188 374.401 62.4344 375.257 62.8656C376.114 63.2781 376.822 63.8125 377.38 64.4687C377.939 65.1062 378.348 65.8187 378.609 66.6062C378.87 67.375 379 68.125 379 68.8563V70.7406H368.834ZM372.157 65.425C371.263 65.425 370.537 65.6594 369.979 66.1281C369.42 66.5781 369.057 67.1031 368.889 67.7031H375.425C375.313 67.0469 374.96 66.5031 374.364 66.0719C373.786 65.6406 373.051 65.425 372.157 65.425ZM386.354 76.5625H382.835V62.6125H386.354V64.6937H386.857C387.173 63.9062 387.685 63.2969 388.393 62.8656C389.101 62.4344 389.929 62.2188 390.879 62.2188C391.549 62.2188 392.173 62.3312 392.75 62.5562C393.346 62.7625 393.867 63.0906 394.314 63.5406C394.761 63.9906 395.105 64.5625 395.348 65.2563C395.608 65.95 395.738 66.775 395.738 67.7313V76.5625H392.219V68.6312C392.219 67.6375 391.977 66.8594 391.493 66.2969C391.028 65.7156 390.348 65.425 389.454 65.425C388.412 65.425 387.63 65.7812 387.108 66.4938C386.605 67.1875 386.354 68.125 386.354 69.3062V76.5625Z" fill="black"/>
</svg>
