<svg width="295" height="90" viewBox="0 0 295 90" fill="none" xmlns="http://www.w3.org/2000/svg">
<path fill-rule="evenodd" clip-rule="evenodd" d="M43.5105 90L40.6463 89.8225C32.6691 89.3271 22.5237 86.4101 14.3076 79.3337C5.96164 72.1455 0 60.9989 0 44.8377C0 24.729 8.19748 13.2001 17.9064 6.89059C27.3054 0.782598 37.4462 0 40.954 0H41.1755L41.396 0.0197048C47.4426 0.56011 52.135 2.50169 54.9182 6.68677C56.8776 9.6332 57.5161 13.2136 57.7009 16.8355C59.0029 17.316 60.6485 17.9237 62.4324 18.5834C66.6211 20.1322 71.5845 21.9719 74.6494 23.1223L72.8617 31.558L39.5801 31.1794L40.3614 28.0633C39.4386 28.5001 38.3957 28.7462 37.2915 28.7462C35.4877 28.7462 33.8472 28.0895 32.6268 27.0171C32.839 28.3171 33.2745 29.6415 34.1224 31.0709C35.8192 33.9311 39.4711 37.692 47.6288 42.1515L48.8455 42.8166L49.4664 44.0027C53.1899 51.1157 56.7718 68.9046 44.9689 87.6802L43.5105 90ZM53.1071 19.8411C53.1071 10.6236 51.4422 5.31179 40.954 4.37441C34.9607 4.37441 4.66143 7.18654 4.66143 44.8377C4.66143 74.9587 26.6923 84.5722 40.954 85.4571C51.8751 68.0847 48.3902 51.8681 45.2825 45.9314C28.1351 36.5576 27.6357 28.9024 27.8021 23.2781C27.9686 17.6539 31.7977 14.998 38.1239 14.998C42.1547 14.998 44.6577 19.6557 45.6499 22.499C45.9035 23.2257 46.0584 23.8339 46.1149 24.2156L45.449 26.8714L69.0389 27.1397L69.1981 25.7948C66.5612 24.8138 63.5064 23.6823 60.7715 22.671C56.56 21.1136 53.1071 19.8411 53.1071 19.8411Z" fill="white"/>
<path fill-rule="evenodd" clip-rule="evenodd" d="M30.0145 28.3879C30.3166 29.6935 30.8316 31.0653 31.6917 32.5152C33.7622 36.0053 37.9297 40.103 46.3697 44.7168L46.7608 44.9306L46.9603 45.3119C50.2659 51.6267 53.782 68.3487 42.5775 86.1724L42.1087 86.9177L41.1881 86.8605C33.7852 86.4012 24.3673 83.6826 16.7794 77.1472C9.14974 70.5759 3.49609 60.2524 3.49609 44.8381C3.49609 25.6001 11.271 15.0301 20.0402 9.33137C28.7097 3.69736 38.126 2.96875 41.287 2.96875H41.3582L41.429 2.97508C46.9311 3.46683 50.5011 5.15103 52.5677 8.2587C54.4139 11.0348 54.8796 14.7138 54.9329 18.9399C55.192 19.052 55.5035 19.1865 55.8597 19.3398L55.9107 19.3617L68.2835 24.5222C69.2443 24.9037 70.1554 25.2578 70.9774 25.5663L70.421 28.2779H43.8902L44.9197 24.1719C44.7286 23.2833 44.0824 21.3717 42.9632 19.6303C41.6939 17.6555 40.1547 16.4044 38.4568 16.4044C35.4907 16.4044 33.3423 17.0299 31.9386 18.1148C30.5767 19.1672 29.7069 20.8144 29.6328 23.3176C29.6155 23.9062 29.6059 24.508 29.6223 25.1246C29.7716 25.8977 29.9168 26.9947 30.0145 28.3879Z" fill="black"/>
<path d="M39.6224 22.3406C39.6224 23.5485 38.5788 24.5277 37.2916 24.5277C36.0044 24.5277 34.9609 23.5485 34.9609 22.3406C34.9609 21.1326 36.0044 20.1533 37.2916 20.1533C38.5788 20.1533 39.6224 21.1326 39.6224 22.3406Z" fill="black"/>
<path fill-rule="evenodd" clip-rule="evenodd" d="M47.7178 25.4652L48.0004 24.316L52.0287 20.8193L63.1677 25.4652H47.7178Z" fill="#FF4E00"/>
<path fill-rule="evenodd" clip-rule="evenodd" d="M27.768 51.2285C29.2003 45.0337 29.8411 39.6738 30.0516 35.376C32.6341 38.9755 37.0457 42.8223 44.4597 46.9252C47.2344 52.6075 50.2144 67.2442 40.9225 83.2123C38.0386 80.2158 34.3338 75.5682 31.5125 70.2324C28.3025 64.162 26.3408 57.4012 27.768 51.2285Z" fill="white"/>
<path d="M110.999 39.1224C100.178 39.1763 95.1125 33.5239 95.5154 27.0103H102.308C102.192 31.6936 105.531 33.8469 110.539 33.8469C115.489 33.8469 117.389 31.3168 117.389 28.7329C117.389 24.6417 112.093 24.1572 107.833 23.1344C101.156 21.5194 96.494 18.8278 96.494 12.6372C96.494 6.93102 102.135 2.40915 110.481 2.46298C119.461 2.51681 124.814 8.43831 124.699 14.6828H118.194C118.079 11.2914 115.489 7.84616 110.078 7.84616C105.531 7.84616 103.113 9.67644 103.171 12.5834C103.229 16.8899 110.596 17.5897 114.511 18.6125C118.482 19.6353 124.296 21.8424 124.296 28.7867C124.296 34.5467 119.346 39.0686 110.999 39.1224ZM143.833 33.4701C144.582 33.4701 145.272 33.4163 146.021 33.3624V38.6379C144.869 38.7994 143.718 38.8533 142.567 38.8533C136.005 38.8533 131.918 36.1617 131.918 30.0787V17.4282H127.601V13.9291C133.185 11.6682 133.53 6.01588 133.53 5.69289H139.804C139.977 9.35345 138.826 10.9684 137.502 12.0989H145.675V17.4282H138.423V29.4327C138.423 32.5549 139.862 33.4701 143.833 33.4701ZM172.705 12.0989V38.6918H167.006L166.431 34.7082C164.935 37.5613 161.826 39.3377 158.314 39.3377C152.673 39.3377 148.644 35.8925 148.644 29.3789V12.0989H155.206V28.4637C155.206 32.232 157.566 33.6316 159.926 33.6316C162.747 33.6316 166.144 31.586 166.144 27.4409V12.0989H172.705ZM198.677 1.11719H205.297V38.6918H199.426L199.023 34.5467C198.217 37.023 194.821 39.3377 190.907 39.3377C181.467 39.3377 177.322 31.6936 177.322 25.3415C177.322 18.5049 181.582 11.4529 190.964 11.4529C195.281 11.4529 198.159 13.7138 198.677 15.7056V1.11719ZM191.54 17.1591C186.417 17.1591 184.114 21.6271 184.114 25.3415C184.114 29.1097 185.726 33.5777 191.54 33.5777C196.317 33.5777 198.85 30.2402 198.85 26.149V24.1034C198.85 19.6353 195.569 17.1591 191.54 17.1591ZM218.186 1.11719V7.95382H210.53V1.11719H218.186ZM217.668 12.0989V38.6918H211.048V12.0989H217.668ZM236.914 39.3916C228.222 39.3916 222.293 32.9856 222.293 25.3415C222.293 17.6435 228.337 11.2914 236.856 11.2914C245.548 11.2914 251.477 17.6435 251.477 25.3415C251.477 32.9856 245.548 39.3916 236.914 39.3916ZM236.914 33.7392C242.267 33.7392 244.685 29.5404 244.685 25.4492C244.685 21.2503 242.094 16.8899 236.914 16.8899C231.676 16.8899 229.086 21.2503 229.086 25.4492C229.086 29.5942 231.503 33.7392 236.914 33.7392ZM121.36 50.8376V56.7052H103.632V66.2335H120.036V71.9934H103.632V86.6357H96.6666V50.8376H121.36ZM133.472 87.174C128.177 87.174 123.629 84.1056 123.629 78.9377C123.629 73.3931 128.925 70.6477 134.336 70.6477C136.868 70.6477 139.286 71.2398 141.013 72.3703V69.3557C141.013 65.6951 138.71 64.4032 135.717 64.4032C132.494 64.4032 130.594 66.3411 130.594 69.0327H124.493C124.148 64.5647 127.256 59.3968 136.063 59.3968C142.567 59.3968 147.402 62.6806 147.402 69.9478V80.4989C147.402 81.2525 147.863 82.2753 149.82 82.2215V86.7972L148.323 86.9587C144.467 87.174 141.128 85.0207 141.301 82.4906C139.862 85.9897 136.523 87.174 133.472 87.174ZM134.278 82.06C136.581 82.1138 140.955 81.091 140.955 76.9998C139.516 75.9232 137.214 75.331 134.796 75.331C132.206 75.331 129.731 76.5691 129.731 78.8301C129.731 81.3063 132.206 82.0062 134.278 82.06ZM159.88 49.0611V86.6357H153.261V49.0611H159.88ZM172.277 49.0611V71.2398L182.292 60.0428H190.063L180.105 71.509L191.329 86.6357H183.559L175.845 75.8155L172.277 79.7991V86.6357H165.657V49.0611H172.277ZM200.074 49.0611V86.6357H193.455V49.0611H200.074ZM214.196 87.174C208.901 87.174 204.353 84.1056 204.353 78.9377C204.353 73.3931 209.649 70.6477 215.06 70.6477C217.592 70.6477 220.011 71.2398 221.738 72.3703V69.3557C221.738 65.6951 219.434 64.4032 216.441 64.4032C213.218 64.4032 211.318 66.3411 211.318 69.0327H205.217C204.871 64.5647 207.98 59.3968 216.786 59.3968C223.291 59.3968 228.127 62.6806 228.127 69.9478V80.4989C228.127 81.2525 228.587 82.2753 230.544 82.2215V86.7972L229.048 86.9587C225.191 87.174 221.853 85.0207 222.025 82.4906C220.586 85.9897 217.247 87.174 214.196 87.174ZM215.002 82.06C217.305 82.1138 221.679 81.091 221.679 76.9998C220.24 75.9232 217.938 75.331 215.52 75.331C212.93 75.331 210.455 76.5691 210.455 78.8301C210.455 81.3063 212.93 82.0062 215.002 82.06ZM233.986 86.6357V60.0428H239.742L240.26 64.78C241.353 61.2809 245.095 59.3968 248.836 59.3968C255.341 59.3968 258.737 63.2727 258.737 69.7863V86.6357H252.117V70.54C252.117 66.7718 250.045 65.2106 247.34 65.2106C244.289 65.2106 240.605 67.0948 240.605 71.4551V86.6357H233.986ZM284.404 49.0611H291.024V86.6357H285.153L284.75 82.4906C283.944 84.9669 280.548 87.2817 276.634 87.2817C267.194 87.2817 263.049 79.6376 263.049 73.2854C263.049 66.4488 267.309 59.3968 276.691 59.3968C281.008 59.3968 283.886 61.6577 284.404 63.6495V49.0611ZM277.267 65.103C272.144 65.103 269.842 69.571 269.842 73.2854C269.842 77.0536 271.453 81.5217 277.267 81.5217C282.044 81.5217 284.577 78.1841 284.577 74.0929V72.0473C284.577 67.5792 281.296 65.103 277.267 65.103Z" fill="black"/>
</svg>
