<svg width="202" height="200" viewBox="0 0 202 200" fill="none" xmlns="http://www.w3.org/2000/svg">
<path d="M1 115.406L73.973 88.3785L165.865 113.013V5.13525H178.297V116.346L201 122.433V163.514L129.649 194.865L1 155.946V115.406Z" fill="#272727"/>
<path d="M1 115.406L73.973 88.3785L165.865 113.013M1 115.406V155.946L129.649 194.865M1 115.406L129.649 150M201 122.433V163.514L129.649 194.865M201 122.433L129.649 150M201 122.433L178.297 116.346M129.649 194.865V150M165.865 113.013V5.13525H178.297V116.346M165.865 113.013L178.297 116.346M111.811 163.514V175.406M96.1351 159.189V171.081M82.0811 153.243V166.757M11.2703 131.081L29.1081 136.487V153.243L11.2703 148.379V131.081Z" stroke="white" stroke-width="2"/>
</svg>
