<svg width="202" height="200" viewBox="0 0 202 200" fill="none" xmlns="http://www.w3.org/2000/svg">
<rect x="21" y="64" width="160" height="48" fill="#272727" stroke="white" stroke-width="2"/>
<rect x="21" y="112" width="160" height="48" fill="#272727" stroke="white" stroke-width="2"/>
<rect x="1" y="160" width="200" height="24" fill="#272727" stroke="white" stroke-width="2"/>
<rect x="21" y="16" width="160" height="48" fill="#272727" stroke="white" stroke-width="2"/>
<rect x="37" y="28" width="104" height="24" fill="#272727" stroke="white" stroke-width="2"/>
<rect x="37" y="40" width="104" height="12" fill="#272727" stroke="white" stroke-width="2"/>
<rect x="156" y="28" width="8" height="24" fill="#272727" stroke="white" stroke-width="2"/>
<rect x="156" y="40" width="8" height="12" fill="#272727" stroke="white" stroke-width="2"/>
<rect x="37" y="76" width="104" height="24" fill="#272727" stroke="white" stroke-width="2"/>
<rect x="37" y="88" width="104" height="12" fill="#272727" stroke="white" stroke-width="2"/>
<rect x="156" y="76" width="8" height="24" fill="#272727" stroke="white" stroke-width="2"/>
<rect x="156" y="88" width="8" height="12" fill="#272727" stroke="white" stroke-width="2"/>
<rect x="37" y="124" width="104" height="24" fill="#272727" stroke="white" stroke-width="2"/>
<rect x="37" y="136" width="104" height="12" fill="#272727" stroke="white" stroke-width="2"/>
<rect x="156" y="124" width="8" height="24" fill="#272727" stroke="white" stroke-width="2"/>
<rect x="156" y="136" width="8" height="12" fill="#272727" stroke="white" stroke-width="2"/>
</svg>
