<svg width="200" height="202" viewBox="0 0 200 202" fill="none" xmlns="http://www.w3.org/2000/svg">
<rect x="20" y="169" width="160" height="16" fill="#272727" stroke="white" stroke-width="2"/>
<rect x="20" y="169" width="64" height="16" fill="#272727" stroke="white" stroke-width="2"/>
<rect x="12" y="185" width="48" height="16" fill="#272727" stroke="white" stroke-width="2"/>
<rect x="20" y="1" width="48" height="32" fill="#272727" stroke="white" stroke-width="2"/>
<rect x="132" y="1" width="48" height="32" fill="#272727" stroke="white" stroke-width="2"/>
<rect x="140" y="185" width="48" height="16" fill="#272727" stroke="white" stroke-width="2"/>
<rect x="116" y="169" width="64" height="16" fill="#272727" stroke="white" stroke-width="2"/>
<rect x="12" y="185" width="176" height="16" fill="#272727" stroke="white" stroke-width="2"/>
<rect x="20" y="1" width="160" height="32" fill="#272727" stroke="white" stroke-width="2"/>
<rect x="28" y="33" width="144" height="8" fill="#272727" stroke="white" stroke-width="2"/>
<rect x="28" y="161" width="32" height="8" fill="#272727" stroke="white" stroke-width="2"/>
<rect x="148" y="41" width="16" height="120" fill="#272727" stroke="white" stroke-width="2"/>
<rect x="36" y="41" width="16" height="120" fill="#272727" stroke="white" stroke-width="2"/>
<rect x="36" y="129" width="16" height="32" fill="#272727" stroke="white" stroke-width="2"/>
<rect x="36" y="41" width="16" height="32" fill="#272727" stroke="white" stroke-width="2"/>
<rect x="148" y="129" width="16" height="32" fill="#272727" stroke="white" stroke-width="2"/>
<rect x="148" y="41" width="16" height="32" fill="#272727" stroke="white" stroke-width="2"/>
<rect x="140" y="161" width="32" height="8" fill="#272727" stroke="white" stroke-width="2"/>
</svg>
