<svg width="226" height="50" viewBox="0 0 226 50" fill="none" xmlns="http://www.w3.org/2000/svg">
    <path d="M54.5645 36V11.3906H64.5488C67.4316 11.3906 69.582 12.0469 71 13.3594C72.4297 14.6719 73.1445 16.6582 73.1445 19.3184V19.3887C73.1445 22.0254 72.4297 24 71 25.3125C69.582 26.6133 67.4316 27.2637 64.5488 27.2637H60.9629V36H54.5645ZM63.9688 22.3066C64.9766 22.3066 65.7266 22.0664 66.2188 21.5859C66.7109 21.1055 66.957 20.373 66.957 19.3887V19.3184C66.957 17.3262 65.9609 16.3301 63.9688 16.3301H60.9629V22.3066H63.9688ZM79.1562 36.4922C78.1016 36.4922 77.1875 36.293 76.4141 35.8945C75.6406 35.4844 75.0488 34.9102 74.6387 34.1719C74.2402 33.4219 74.041 32.543 74.041 31.5352V31.4648C74.041 30.0938 74.3809 28.9863 75.0605 28.1426C75.7402 27.2988 76.5723 26.6719 77.5566 26.2617C78.5527 25.8516 79.7188 25.5117 81.0547 25.2422L84.2539 24.5918V23.3789C84.2539 22.6875 84.1191 22.1777 83.8496 21.8496C83.5918 21.5215 83.1758 21.3574 82.6016 21.3574C82.0039 21.3574 81.5527 21.5625 81.248 21.9727C80.9551 22.3711 80.8086 22.998 80.8086 23.8535C80.8086 24.0996 80.8145 24.2871 80.8262 24.416L74.5508 24.082C74.5391 23.9648 74.5332 23.7891 74.5332 23.5547C74.5332 22.2188 74.8555 21.0645 75.5 20.0918C76.1445 19.1191 77.0762 18.3691 78.2949 17.8418C79.5254 17.3145 81.002 17.0508 82.7246 17.0508C85.2676 17.0508 87.207 17.584 88.543 18.6504C89.8789 19.7051 90.5469 21.2695 90.5469 23.3438V31.0254C90.5469 31.4004 90.5879 31.6758 90.6699 31.8516C90.752 32.0273 90.8984 32.1445 91.1094 32.2031C91.3203 32.2617 91.6543 32.2969 92.1113 32.3086L91.4082 36.1934C91.1738 36.2871 90.8867 36.3574 90.5469 36.4043C90.2188 36.4629 89.8965 36.4922 89.5801 36.4922C88.1387 36.4922 87.0898 36.2344 86.4336 35.7188C85.7773 35.1914 85.4492 34.3184 85.4492 33.0996C85.4492 32.6309 85.4785 32.209 85.5371 31.834L85.168 31.7637C84.7812 33.3691 84.1016 34.5586 83.1289 35.332C82.168 36.1055 80.8438 36.4922 79.1562 36.4922ZM81.7754 31.8691C82.5137 31.8691 83.1113 31.5469 83.5684 30.9023C84.0254 30.2578 84.2539 29.4258 84.2539 28.4062V27.9141L82.8477 28.2832C82.0742 28.4824 81.4707 28.7578 81.0371 29.1094C80.6152 29.4609 80.4043 29.9297 80.4043 30.5156V30.5859C80.4043 31.4414 80.8613 31.8691 81.7754 31.8691ZM101.41 36.4922C98.4922 36.4922 96.3125 35.6895 94.8711 34.084C93.4414 32.4668 92.7266 30.0293 92.7266 26.7715V26.7012C92.7266 23.4668 93.4473 21.0527 94.8887 19.459C96.3301 17.8535 98.5039 17.0508 101.41 17.0508C104.164 17.0508 106.238 17.6777 107.633 18.9316C109.039 20.1855 109.789 22.0781 109.883 24.6094L103.572 25.084C103.525 23.8184 103.326 22.8867 102.975 22.2891C102.623 21.6797 102.102 21.375 101.41 21.375C100.66 21.375 100.104 21.7031 99.7402 22.3594C99.3887 23.0156 99.2129 24.041 99.2129 25.4355V28.0547C99.2129 29.4492 99.3945 30.4863 99.7578 31.166C100.121 31.834 100.684 32.168 101.445 32.168C102.148 32.168 102.682 31.8574 103.045 31.2363C103.408 30.6035 103.602 29.6426 103.625 28.3535L110.094 28.8809C109.883 31.4355 109.057 33.3457 107.615 34.6113C106.174 35.8652 104.105 36.4922 101.41 36.4922ZM112.221 36V11.3906H118.531V16.9805C118.531 18.4219 118.467 19.6934 118.338 20.7949C118.221 21.8965 118.016 23.0859 117.723 24.3633L118.057 24.5215L122.258 17.543H128.832L124.42 24.1875L129.131 36H122.785L120.096 28.125L118.531 30.2871V36H112.221ZM135.09 28.2656V28.6348C135.09 29.8301 135.307 30.7266 135.74 31.3242C136.186 31.9102 136.836 32.2031 137.691 32.2031C138.418 32.2031 138.98 31.9922 139.379 31.5703C139.777 31.1484 140.018 30.457 140.1 29.4961L146.059 30.0586C145.766 32.1445 144.893 33.7383 143.439 34.8398C141.986 35.9414 140.035 36.4922 137.586 36.4922C134.75 36.4922 132.588 35.6836 131.1 34.0664C129.611 32.4492 128.867 30.123 128.867 27.0879V26.5605C128.867 23.4902 129.623 21.1406 131.135 19.5117C132.658 17.8711 134.855 17.0508 137.727 17.0508C140.457 17.0508 142.555 17.8242 144.02 19.3711C145.484 20.918 146.217 23.1152 146.217 25.9629C146.217 26.666 146.164 27.4336 146.059 28.2656H135.09ZM137.604 21.3574C136.045 21.3574 135.213 22.4648 135.107 24.6797H139.889V24.5039C139.889 23.4375 139.695 22.6465 139.309 22.1309C138.934 21.6152 138.365 21.3574 137.604 21.3574ZM155.164 36.4746C153.254 36.4746 151.824 35.9941 150.875 35.0332C149.938 34.0723 149.469 32.6074 149.469 30.6387V22.043H147.201V17.543H149.469V13.834L155.779 12.0938V17.543H159.664V22.043H155.779V29.8301C155.779 30.4395 155.914 30.8906 156.184 31.1836C156.465 31.4648 156.887 31.6055 157.449 31.6055C158.141 31.6055 158.926 31.4707 159.805 31.2012L159.453 35.6484C158.832 35.9062 158.146 36.1055 157.396 36.2461C156.658 36.3984 155.914 36.4746 155.164 36.4746Z" fill="black"/>
    <path d="M167.564 36H166.814V36.75H167.564V36ZM167.564 11.3906V10.6406H166.814V11.3906H167.564ZM184.281 13.1484L183.806 13.7285L183.808 13.7304L184.281 13.1484ZM185.143 22.1836L185.702 22.6827L185.705 22.6794L185.143 22.1836ZM181.416 23.959L181.319 23.2153L180.666 23.3005V23.959H181.416ZM181.416 24.3105H180.666V24.8763L181.21 25.0317L181.416 24.3105ZM183.367 25.1719L182.934 25.7843L182.944 25.7912L183.367 25.1719ZM184.492 26.4902L183.819 26.8199L183.823 26.8286L183.827 26.8372L184.492 26.4902ZM185.23 28.7051L185.963 28.5434L185.962 28.5404L185.23 28.7051ZM185.828 31.4121L186.561 31.2508L186.56 31.2504L185.828 31.4121ZM186.672 34.1895L185.998 34.5194L186.001 34.5249L186.672 34.1895ZM187.727 35.5078L188.469 35.6139L188.532 35.1743L188.177 34.9078L187.727 35.5078ZM187.656 36V36.75H188.307L188.399 36.1061L187.656 36ZM180.695 36L180.1 36.4563L180.325 36.75H180.695V36ZM180.027 34.5586L179.303 34.7536L179.307 34.7665L180.027 34.5586ZM179.447 31.7461L180.186 31.6161L180.185 31.6135L179.447 31.7461ZM179.043 29.4961L178.305 29.6283L178.305 29.6287L179.043 29.4961ZM178.516 27.668L177.831 27.9742L177.836 27.9852L177.841 27.9961L178.516 27.668ZM177.637 26.7012L177.278 27.3596L177.285 27.3638L177.293 27.3679L177.637 26.7012ZM173.963 26.3848V25.6348H173.213V26.3848H173.963ZM173.963 36V36.75H174.713V36H173.963ZM179.43 17.1211L178.914 17.6656L178.922 17.6728L179.43 17.1211ZM173.963 16.4883V15.7383H173.213V16.4883H173.963ZM173.963 21.5859H173.213V22.3359H173.963V21.5859ZM168.314 36V11.3906H166.814V36H168.314ZM167.564 12.1406H178.006V10.6406H167.564V12.1406ZM178.006 12.1406C180.668 12.1406 182.562 12.7091 183.806 13.7285L184.757 12.5684C183.141 11.244 180.851 10.6406 178.006 10.6406V12.1406ZM183.808 13.7304C185.04 14.732 185.693 16.1912 185.693 18.2285H187.193C187.193 15.8361 186.405 13.9086 184.754 12.5665L183.808 13.7304ZM185.693 18.2285V18.2988H187.193V18.2285H185.693ZM185.693 18.2988C185.693 19.7644 185.301 20.8693 184.58 21.6878L185.705 22.6794C186.719 21.5291 187.193 20.0442 187.193 18.2988H185.693ZM184.583 21.6845C183.863 22.4914 182.804 23.0216 181.319 23.2153L181.513 24.7027C183.262 24.4745 184.687 23.8211 185.702 22.6827L184.583 21.6845ZM180.666 23.959V24.3105H182.166V23.959H180.666ZM181.21 25.0317C181.982 25.2523 182.546 25.5098 182.934 25.7842L183.8 24.5596C183.227 24.1543 182.49 23.8375 181.622 23.5894L181.21 25.0317ZM182.944 25.7912C183.312 26.0421 183.603 26.3792 183.819 26.8199L185.166 26.1606C184.842 25.4997 184.384 24.9579 183.79 24.5525L182.944 25.7912ZM183.827 26.8372C184.066 27.2953 184.295 27.9635 184.499 28.8697L185.962 28.5404C185.744 27.5717 185.481 26.7633 185.157 26.1433L183.827 26.8372ZM184.498 28.8668L185.096 31.5738L186.56 31.2504L185.963 28.5434L184.498 28.8668ZM185.096 31.5734C185.379 32.8617 185.676 33.8606 185.998 34.5194L187.345 33.8596C187.106 33.3698 186.839 32.5172 186.561 31.2508L185.096 31.5734ZM186.001 34.5249C186.324 35.1716 186.745 35.7093 187.277 36.1078L188.177 34.9078C187.864 34.6735 187.582 34.3323 187.343 33.854L186.001 34.5249ZM186.984 35.4017L186.914 35.8939L188.399 36.1061L188.469 35.6139L186.984 35.4017ZM187.656 35.25H180.695V36.75H187.656V35.25ZM181.291 35.5437C181.097 35.291 180.908 34.9058 180.748 34.3507L179.307 34.7665C179.498 35.4301 179.755 36.0058 180.1 36.4563L181.291 35.5437ZM180.752 34.3636C180.597 33.7879 180.408 32.8774 180.186 31.6161L178.709 31.876C178.932 33.146 179.13 34.1106 179.303 34.7536L180.752 34.3636ZM180.185 31.6135L179.781 29.3635L178.305 29.6287L178.709 31.8787L180.185 31.6135ZM179.781 29.3639C179.635 28.5489 179.444 27.8627 179.19 27.3399L177.841 27.9961C178.009 28.3404 178.169 28.873 178.305 29.6283L179.781 29.3639ZM179.2 27.3617C178.94 26.781 178.537 26.3211 177.98 26.0344L177.293 27.3679C177.51 27.4797 177.692 27.6644 177.831 27.9742L179.2 27.3617ZM177.996 26.0427C177.458 25.7494 176.797 25.6348 176.072 25.6348V27.1348C176.66 27.1348 177.042 27.2311 177.278 27.3596L177.996 26.0427ZM176.072 25.6348H173.963V27.1348H176.072V25.6348ZM173.213 26.3848V36H174.713V26.3848H173.213ZM173.963 35.25H167.564V36.75H173.963V35.25ZM177.408 22.3359C178.413 22.3359 179.307 22.1022 179.945 21.4976L178.914 20.4087C178.661 20.6478 178.208 20.8359 177.408 20.8359V22.3359ZM179.945 21.4976C180.592 20.8855 180.848 20.0152 180.848 19.0371H179.348C179.348 19.7699 179.158 20.177 178.914 20.4087L179.945 21.4976ZM180.848 19.0371V19.0195H179.348V19.0371H180.848ZM180.848 19.0195C180.848 18.0432 180.592 17.1722 179.938 16.5694L178.922 17.6728C179.158 17.8903 179.348 18.285 179.348 19.0195H180.848ZM179.945 16.5766C179.307 15.972 178.413 15.7383 177.408 15.7383V17.2383C178.208 17.2383 178.661 17.4264 178.914 17.6656L179.945 16.5766ZM177.408 15.7383H173.963V17.2383H177.408V15.7383ZM173.213 16.4883V21.5859H174.713V16.4883H173.213ZM173.963 22.3359H177.408V20.8359H173.963V22.3359ZM205.691 17.543H206.441V16.793H205.691V17.543ZM205.691 36V36.75H206.441V36H205.691ZM199.521 36L198.772 35.9875L198.759 36.75H199.521V36ZM200.471 31.7988L201.169 32.0728L201.419 31.4346L200.806 31.128L200.471 31.7988ZM200.119 31.623L200.455 30.9522L199.761 30.6055L199.438 31.31L200.119 31.623ZM188.887 17.543V16.793H188.137V17.543H188.887ZM195.197 17.543H195.947V16.793H195.197V17.543ZM198.695 30.6562L198.036 30.299L198.032 30.3062L198.695 30.6562ZM199.381 17.543V16.793H198.631V17.543H199.381ZM204.941 17.543V36H206.441V17.543H204.941ZM205.691 35.25H199.521V36.75H205.691V35.25ZM200.271 36.0125C200.282 35.3511 200.348 34.7572 200.465 34.2276L199 33.9053C198.859 34.5475 198.784 35.2427 198.772 35.9875L200.271 36.0125ZM200.465 34.2276C200.582 33.6968 200.812 32.9824 201.169 32.0728L199.773 31.5249C199.403 32.4668 199.141 33.2641 199 33.9053L200.465 34.2276ZM200.806 31.128L200.455 30.9522L199.784 32.2939L200.135 32.4696L200.806 31.128ZM199.438 31.31C198.747 32.8146 197.932 33.8686 197.023 34.533L197.907 35.7443C199.083 34.8853 200.039 33.5956 200.801 31.9361L199.438 31.31ZM197.023 34.533C196.119 35.1925 195.053 35.5312 193.791 35.5312V37.0312C195.341 37.0312 196.724 36.6083 197.907 35.7443L197.023 34.533ZM193.791 35.5312C192.254 35.5312 191.254 35.1448 190.637 34.5105L189.562 35.5559C190.562 36.5856 192.023 37.0312 193.791 37.0312V35.5312ZM190.637 34.5105C190.016 33.8711 189.637 32.8346 189.637 31.2539H188.137C188.137 33.0483 188.566 34.5312 189.562 35.5559L190.637 34.5105ZM189.637 31.2539V17.543H188.137V31.2539H189.637ZM188.887 18.293H195.197V16.793H188.887V18.293ZM194.447 17.543V29.8125H195.947V17.543H194.447ZM194.447 29.8125C194.447 30.5917 194.595 31.314 195.013 31.854C195.46 32.4302 196.113 32.6719 196.832 32.6719V31.1719C196.461 31.1719 196.297 31.062 196.199 30.9351C196.072 30.7719 195.947 30.4395 195.947 29.8125H194.447ZM196.832 32.6719C197.967 32.6719 198.814 32.0377 199.359 31.0063L198.032 30.3062C197.686 30.9623 197.29 31.1719 196.832 31.1719V32.6719ZM199.355 31.0135C199.895 30.0158 200.131 28.7088 200.131 27.1582H198.631C198.631 28.5842 198.41 29.6092 198.036 30.299L199.355 31.0135ZM200.131 27.1582V17.543H198.631V27.1582H200.131ZM199.381 18.293H205.691V16.793H199.381V18.293ZM208.346 36H207.596V36.75H208.346V36ZM208.346 17.543V16.793H207.596V17.543H208.346ZM214.516 17.543L215.266 17.5555L215.278 16.793H214.516V17.543ZM213.566 21.7441L212.868 21.4702L212.618 22.1084L213.231 22.415L213.566 21.7441ZM213.918 21.9199L213.583 22.5907L214.276 22.9375L214.6 22.2329L213.918 21.9199ZM225.15 36V36.75H225.9V36H225.15ZM218.84 36H218.09V36.75H218.84V36ZM215.324 22.8867L214.665 22.5295L214.661 22.5366L215.324 22.8867ZM214.656 36V36.75H215.406V36H214.656ZM209.096 36V17.543H207.596V36H209.096ZM208.346 18.293H214.516V16.793H208.346V18.293ZM213.766 17.5305C213.755 18.1919 213.689 18.7858 213.572 19.3154L215.037 19.6377C215.178 18.9954 215.253 18.3003 215.266 17.5555L213.766 17.5305ZM213.572 19.3154C213.455 19.8462 213.225 20.5606 212.868 21.4702L214.265 22.0181C214.634 21.0761 214.896 20.2788 215.037 19.6377L213.572 19.3154ZM213.231 22.415L213.583 22.5907L214.253 21.2491L213.902 21.0733L213.231 22.415ZM214.6 22.2329C215.291 20.7284 216.105 19.6744 217.015 19.01L216.13 17.7986C214.954 18.6576 213.999 19.9474 213.236 21.6069L214.6 22.2329ZM217.015 19.01C217.918 18.3505 218.984 18.0117 220.246 18.0117V16.5117C218.696 16.5117 217.313 16.9347 216.13 17.7986L217.015 19.01ZM220.246 18.0117C221.783 18.0117 222.783 18.3981 223.4 19.0325L224.475 17.9871C223.475 16.9573 222.014 16.5117 220.246 16.5117V18.0117ZM223.4 19.0325C224.021 19.6719 224.4 20.7084 224.4 22.2891H225.9C225.9 20.4947 225.471 19.0117 224.475 17.9871L223.4 19.0325ZM224.4 22.2891V36H225.9V22.2891H224.4ZM225.15 35.25H218.84V36.75H225.15V35.25ZM219.59 36V23.7305H218.09V36H219.59ZM219.59 23.7305C219.59 22.9513 219.442 22.229 219.024 21.689C218.577 21.1128 217.924 20.8711 217.205 20.8711V22.3711C217.576 22.3711 217.74 22.481 217.838 22.6079C217.965 22.771 218.09 23.1034 218.09 23.7305H219.59ZM217.205 20.8711C216.072 20.8711 215.221 21.5027 214.665 22.5295L215.984 23.2439C216.342 22.5832 216.745 22.3711 217.205 22.3711V20.8711ZM214.661 22.5366C214.135 23.5322 213.906 24.8363 213.906 26.3848H215.406C215.406 24.9567 215.622 23.9287 215.988 23.2368L214.661 22.5366ZM213.906 26.3848V36H215.406V26.3848H213.906ZM214.656 35.25H208.346V36.75H214.656V35.25Z" fill="black"/>
    <path d="M5.34375 15.9453L22.5 17.9844L39.5859 15.9453L40.4297 15.8047L40.7812 16.5781L44.1562 24.4531L44.6484 25.7188L43.3828 26L29.3203 29.375L28.5469 29.5156L28.125 28.9531L22.5 21.0078L16.8047 28.9531L16.3828 29.5859L15.6094 29.375L1.54688 26L0.28125 25.7188L0.84375 24.4531L4.21875 16.5781L4.5 15.8047L5.34375 15.9453ZM3.375 24.1016L15.3984 26.9844L20.4609 19.9531L5.90625 18.2656L3.375 24.1016ZM38.25 29.3047L40.5 28.7422V41.75L22.5 46.25L4.5 41.75V28.7422L6.75 29.3047V39.9922L21.375 43.6484V28.25H23.625V43.6484L38.25 39.9922V29.3047ZM39.0234 18.2656L24.4688 19.9531L29.5312 26.9844L41.5547 24.1016L39.0234 18.2656Z" fill="black"/>
    <path fill-rule="evenodd" clip-rule="evenodd" d="M40.829 16.0185C39.614 7.27135 32.0724 0.5 23 0.5C13.8629 0.5 6.37461 7.27181 5.16948 16.0194L7.40112 16.2744C7.50653 15.51 7.6671 14.755 7.88281 14H14.2812C14.138 15.0031 14.0596 16.0062 14.024 17.0313L16.266 17.2875C16.297 16.173 16.376 15.0865 16.5312 14H29.3984C29.5505 15.0644 29.666 16.1288 29.7187 17.2196L31.9559 16.9777C31.8987 15.9712 31.7892 14.9856 31.6484 14H38.0469C38.2616 14.7514 38.4398 15.5028 38.5631 16.2634L40.829 16.0185ZM27.2891 6.82812C27.9922 8.23438 28.625 9.85156 28.9766 11.75H16.9531C17.3047 9.85156 17.9375 8.23438 18.6406 6.82812C20.1172 3.80469 21.8047 2.75 23 2.75C24.125 2.75 25.8125 3.80469 27.2891 6.82812ZM31.2969 11.75C30.6641 8.44531 29.4688 5.5625 27.9922 3.59375C32.0703 5 35.375 7.95312 37.2031 11.75H31.2969ZM8.72656 11.75C10.5547 7.95312 13.8594 5 17.9375 3.59375C16.4609 5.5625 15.2656 8.44531 14.6328 11.75H8.72656Z" fill="black"/>
    </svg>
    