<svg width="255" height="515" viewBox="0 0 255 515" fill="none" xmlns="http://www.w3.org/2000/svg">
<circle cx="119.5" cy="457.5" r="55.5" fill="#FF781F" stroke="black" stroke-width="4"/>
<path d="M176.281 455.704C161.906 476.907 79.2499 475.829 64.5155 455.704" stroke="black" stroke-width="4" stroke-dasharray="8 8"/>
<path d="M81.266 1.06852L222.441 6.92396L222.436 12.0454L220.98 14.9488L228.955 40.0926L229.683 38.5761L237.107 36.2129L242.846 36.2179L253.34 289.241L245.914 293.286L240.481 293.281L228.904 97.9687L225.807 96.1315L192.46 165.662L175.861 335.496L166.059 343.59L161.163 341.98L173.525 158.996L170.635 156.547L163.683 259.887L161.233 261.337L106.069 254.071L107.509 269.775L97.9403 273.818L92.6615 272.591L90.7663 252.056L24.2778 243.299L18.25 311.51L6.30641 318.914L2.02274 317.229L14.1142 139.442L24.8874 119.959L25.6189 108.706L23.9355 108.569L21.5663 105.203L33.3048 84.7279L69.0457 22.3845L81.266 1.06852Z" fill="#FAEBD0"/>
<path d="M21.5663 105.203L121.954 113.24L120.391 116.449M21.5663 105.203L23.9355 108.569L25.6189 108.706M21.5663 105.203L33.3048 84.7279M110.379 137.003L140.908 139.552M110.379 137.003L116.487 152.602L145.639 154.92M110.379 137.003L120.391 116.449M140.908 139.552L152.483 116.477M140.908 139.552L145.639 154.92M152.483 116.477L167.633 117.408M152.483 116.477L152.557 120.07M167.633 117.408L167.63 121.306M167.633 117.408L178.208 96.0902M222.441 6.92396L81.266 1.06852L69.0457 22.3845M222.441 6.92396L222.436 12.0454L220.98 14.9488M222.441 6.92396L211.563 28.8526M145.639 154.92L153.07 144.989L152.557 120.07M120.391 116.449L25.6189 108.706M152.557 120.07L167.63 121.306M167.63 121.306L173.838 108.928M25.6189 108.706L24.8874 119.959M161.233 261.337L171.231 115.194L173.838 108.928M161.233 261.337L163.683 259.887L170.635 156.547M161.233 261.337L106.069 254.071M173.838 108.928L177.02 102.586M173.838 108.928L170.635 156.547M22.8479 215.583L22.834 231.635L79.8351 239.099L88.4844 236.278L88.4994 219.003L78.7791 221.517M22.8479 215.583L32.7221 212.075L32.7181 216.63M22.8479 215.583L32.7181 216.63M22.8479 215.583L78.7791 221.517M78.7791 221.517L52.3055 218.708M32.7181 216.63L52.3055 218.708M40.0634 217.409C40.2151 218.97 38.39 205.812 46.6536 206.507C54.9172 207.202 52.3055 218.708 52.3055 218.708M178.208 96.0902L33.3048 84.7279M178.208 96.0902L211.563 28.8526M33.3048 84.7279L69.0457 22.3845M69.0457 22.3845L211.563 28.8526M24.8874 119.959L14.1142 139.442L2.02274 317.229L6.30641 318.914M24.8874 119.959L24.2564 129.666M6.30641 318.914L18.25 311.51L24.2778 243.299M6.30641 318.914L18.3993 139.445L24.2564 129.666M24.2778 243.299L16.9327 242.331L24.2564 129.666M24.2778 243.299L90.7663 252.056M90.7663 252.056L92.6615 272.591L97.9403 273.818M90.7663 252.056L96.2751 252.782M97.9403 273.818L96.2751 252.782M97.9403 273.818L107.509 269.775L106.069 254.071M96.2751 252.782L106.069 254.071M242.846 36.2179L237.107 36.2129L229.683 38.5761L228.955 40.0926M242.846 36.2179L253.34 289.241L245.914 293.286M242.846 36.2179L234.198 38.58L179.385 154.949L166.059 343.59M245.914 293.286L232.002 99.8059L228.904 97.9687M245.914 293.286L240.481 293.281L228.904 97.9687M166.059 343.59L175.861 335.496L192.46 165.662L225.807 96.1315L228.904 97.9687M166.059 343.59L161.163 341.98L173.525 158.996M177.02 102.586L186.201 129.119M177.02 102.586L200.629 55.5204M186.201 129.119L173.799 154.945L173.525 158.996M186.201 129.119L218.785 61.2691M173.525 158.996L170.635 156.547M220.98 14.9488L228.955 40.0926M220.98 14.9488L200.629 55.5204M228.955 40.0926L218.785 61.2691M218.785 61.2691L217.195 55.5348L200.629 55.5204" stroke="black" stroke-width="2"/>
<path d="M130.237 123.567C132.029 123.055 133.757 123.113 135.087 123.573C136.42 124.033 137.266 124.856 137.546 125.834C137.826 126.813 137.542 127.958 136.655 129.054C135.769 130.147 134.333 131.11 132.542 131.623C130.75 132.136 129.022 132.077 127.693 131.617C126.36 131.157 125.514 130.334 125.234 129.356C124.954 128.377 125.237 127.232 126.125 126.136C127.01 125.043 128.445 124.08 130.237 123.567Z" fill="#FF781F" stroke="black" stroke-width="2"/>
<path d="M101.489 9.44907C103.281 8.93647 105.009 8.99478 106.338 9.45439C107.671 9.91525 108.517 10.7374 108.797 11.7159C109.077 12.6944 108.794 13.8397 107.906 14.9357C107.021 16.029 105.585 16.9923 103.793 17.5049C102.001 18.0174 100.274 17.9589 98.9443 17.4993C97.6112 17.0384 96.7652 16.2163 96.4853 15.2378C96.2054 14.2592 96.4886 13.1141 97.3764 12.018C98.2618 10.9248 99.6967 9.96169 101.489 9.44907Z" fill="#F5F5F5" stroke="black" stroke-width="2"/>
<path d="M157.287 12.5521C159.079 12.0395 160.807 12.0978 162.137 12.5574C163.47 13.0183 164.316 13.8405 164.596 14.8189C164.876 15.7974 164.592 16.9427 163.705 18.0387C162.819 19.132 161.384 20.0953 159.592 20.6079C157.8 21.1204 156.072 21.0619 154.743 20.6023C153.41 20.1415 152.564 19.3193 152.284 18.3408C152.004 17.3622 152.287 16.2171 153.175 15.121C154.06 14.0278 155.495 13.0647 157.287 12.5521Z" fill="#F5F5F5" stroke="black" stroke-width="2"/>
<path d="M129.363 10.8285C131.155 10.3159 132.883 10.3742 134.212 10.8338C135.545 11.2946 136.391 12.1168 136.671 13.0953C136.951 14.0738 136.668 15.219 135.78 16.3151C134.895 17.4084 133.459 18.3717 131.667 18.8843C129.875 19.3968 128.148 19.3383 126.818 18.8787C125.485 18.4178 124.639 17.5957 124.359 16.6171C124.079 15.6386 124.363 14.4935 125.25 13.3973C126.136 12.3041 127.571 11.3411 129.363 10.8285Z" fill="#F5F5F5" stroke="black" stroke-width="2"/>
<path d="M32.8742 211.807L22.786 215.328L32.8703 216.345L32.8742 211.807Z" fill="#FAEBD0" stroke="black" stroke-width="2"/>
<path d="M69.3453 22.0692L33.4887 84.5661L178.201 96.1216L211.54 28.916L69.3453 22.0692Z" fill="black" stroke="black" stroke-width="2"/>
<path d="M88.4894 236.228L79.7464 239.078L22.7718 231.464L22.7856 215.496L78.7531 221.596L88.5046 218.747L88.4894 236.228Z" fill="#FF781F" stroke="black" stroke-width="2"/>
</svg>
