<svg width="732" height="939" viewBox="0 0 732 939" fill="none" xmlns="http://www.w3.org/2000/svg">
<path d="M230.927 20.5738L640.434 37.5587L640.421 52.4144L636.197 60.8364L659.328 133.771L661.441 129.372L682.977 122.517L699.624 122.532L730.062 856.478L708.522 868.211L692.763 868.197L659.183 301.653L650.198 296.324L553.469 498.012L505.319 990.65L476.888 1014.13L462.686 1009.46L498.543 478.674L490.161 471.572L469.996 771.33L462.889 775.537L302.872 754.461L307.05 800.014L279.294 811.741L263.982 808.18L258.485 748.615L65.6208 723.213L48.136 921.074L13.4911 942.552L1.06542 937.663L36.1391 421.954L67.3891 365.441L69.5109 332.8L64.6281 332.401L57.7557 322.639L91.8055 263.245L195.48 82.4051L230.927 20.5738Z" fill="#FAEBD0"/>
<path d="M57.7557 322.639L348.951 345.951L344.417 355.26M57.7557 322.639L64.6281 332.401L69.5109 332.8M57.7557 322.639L91.8055 263.245M315.375 414.879L403.932 422.273M315.375 414.879L333.093 460.127L417.655 466.852M315.375 414.879L344.417 355.26M403.932 422.273L437.506 355.34M403.932 422.273L417.655 466.852M437.506 355.34L481.452 358.039M437.506 355.34L437.721 365.762M481.452 358.039L481.443 369.347M481.452 358.039L512.127 296.204M640.434 37.5587L230.927 20.5738L195.48 82.4051M640.434 37.5587L640.421 52.4144L636.197 60.8364M640.434 37.5587L608.88 101.167M417.655 466.852L439.21 438.046L437.721 365.762M344.417 355.26L69.5109 332.8M437.721 365.762L481.443 369.347M481.443 369.347L499.453 333.443M69.5109 332.8L67.3891 365.441M462.889 775.537L491.89 351.618L499.453 333.443M462.889 775.537L469.996 771.33L490.161 471.572M462.889 775.537L302.872 754.461M499.453 333.443L508.68 315.048M499.453 333.443L490.161 471.572M61.4732 642.817L61.4328 689.38L226.776 711.031L251.865 702.849L251.909 652.738L223.713 660.031M61.4732 642.817L90.1153 632.642L90.1038 645.855M61.4732 642.817L90.1038 645.855M61.4732 642.817L223.713 660.031M223.713 660.031L146.921 651.883M90.1038 645.855L146.921 651.883M111.41 648.115C111.85 652.642 106.556 614.475 130.527 616.491C154.497 618.508 146.921 651.883 146.921 651.883M512.127 296.204L91.8055 263.245M512.127 296.204L608.88 101.167M91.8055 263.245L195.48 82.4051M195.48 82.4051L608.88 101.167M67.3891 365.441L36.1391 421.954L1.06542 937.663L13.4911 942.552M67.3891 365.441L65.5587 393.598M13.4911 942.552L48.136 921.074L65.6208 723.213M13.4911 942.552L48.569 421.965L65.5587 393.598M65.6208 723.213L44.3148 720.407L65.5587 393.598M65.6208 723.213L258.485 748.615M258.485 748.615L263.982 808.18L279.294 811.741M258.485 748.615L274.464 750.72M279.294 811.741L274.464 750.72M279.294 811.741L307.05 800.014L302.872 754.461M274.464 750.72L302.872 754.461M699.624 122.532L682.977 122.517L661.441 129.372L659.328 133.771M699.624 122.532L730.062 856.478L708.522 868.211M699.624 122.532L674.537 129.384L515.54 466.937L476.888 1014.13M708.522 868.211L668.168 306.982L659.183 301.653M708.522 868.211L692.763 868.197L659.183 301.653M476.888 1014.13L505.319 990.65L553.469 498.012L650.198 296.324L659.183 301.653M476.888 1014.13L462.686 1009.46L498.543 478.674M508.68 315.048L535.313 392.01M508.68 315.048L577.163 178.523M535.313 392.01L499.337 466.923L498.543 478.674M535.313 392.01L629.829 195.198M498.543 478.674L490.161 471.572M636.197 60.8364L659.328 133.771M636.197 60.8364L577.163 178.523M659.328 133.771L629.829 195.198M629.829 195.198L625.218 178.564L577.163 178.523" stroke="black" stroke-width="2"/>
<path d="M372.456 374.079C377.983 372.498 383.396 372.65 387.664 374.126C391.936 375.602 394.975 378.362 396.004 381.959C397.033 385.557 395.914 389.507 393.069 393.019C390.226 396.529 385.713 399.52 380.186 401.102C374.658 402.683 369.246 402.53 364.977 401.055C360.705 399.578 357.666 396.818 356.637 393.22C355.609 389.623 356.728 385.674 359.572 382.161C362.415 378.652 366.928 375.66 372.456 374.079Z" fill="#FF781F" stroke="black" stroke-width="2"/>
<path d="M289.065 43.056C294.592 41.4749 300.005 41.6273 304.273 43.1026C308.545 44.5793 311.584 47.3393 312.613 50.9364C313.642 54.5337 312.523 58.4836 309.678 61.9962C306.835 65.5056 302.322 68.4975 296.795 70.0786C291.267 71.6597 285.854 71.5074 281.586 70.032C277.314 68.5553 274.275 65.7946 273.246 62.1972C272.217 58.6 273.336 54.6508 276.181 51.1384C279.024 47.6288 283.537 44.6372 289.065 43.056Z" fill="#F5F5F5" stroke="black" stroke-width="2"/>
<path d="M450.92 52.057C456.447 50.4759 461.86 50.6282 466.129 52.1036C470.401 53.5802 473.439 56.3402 474.468 59.9374C475.497 63.5347 474.378 67.4846 471.533 70.9972C468.691 74.5066 464.177 77.4985 458.65 79.0796C453.123 80.6606 447.71 80.5084 443.441 79.033C439.169 77.5562 436.131 74.7955 435.102 71.1982C434.073 67.601 435.192 63.6518 438.037 60.1394C440.879 56.6298 445.393 53.6381 450.92 52.057Z" fill="#F5F5F5" stroke="black" stroke-width="2"/>
<path d="M369.919 47.057C375.446 45.4759 380.859 45.6282 385.128 47.1036C389.4 48.5802 392.438 51.3402 393.467 54.9374C394.496 58.5347 393.377 62.4846 390.532 65.9972C387.69 69.5066 383.176 72.4985 377.649 74.0796C372.122 75.6606 366.709 75.5084 362.44 74.033C358.168 72.5562 355.13 69.7955 354.101 66.1982C353.072 62.601 354.191 58.6518 357.036 55.1394C359.878 51.6298 364.392 48.6381 369.919 47.057Z" fill="#F5F5F5" stroke="black" stroke-width="2"/>
<path d="M90.5564 631.864L61.2934 642.078L90.545 645.028L90.5564 631.864Z" fill="#FAEBD0" stroke="black" stroke-width="2"/>
<path d="M196.349 81.4905L92.3392 262.776L512.107 296.295L608.815 101.351L196.349 81.4905Z" fill="black" stroke="black" stroke-width="2"/>
<path d="M251.88 702.702L226.519 710.968L61.2523 688.884L61.2925 642.565L223.638 660.259L251.924 651.994L251.88 702.702Z" fill="#FF781F" stroke="black" stroke-width="2"/>
<path d="M185.184 640.52H190.816C190.859 640.52 190.88 640.52 190.88 640.52C190.88 640.52 190.88 640.541 190.88 640.584V646.216C190.88 646.259 190.88 646.28 190.88 646.28C190.88 646.28 190.859 646.28 190.816 646.28H185.184C185.141 646.28 185.12 646.28 185.12 646.28C185.12 646.28 185.12 646.259 185.12 646.216V640.584C185.12 640.541 185.12 640.52 185.12 640.52C185.12 640.52 185.141 640.52 185.184 640.52ZM178.784 646.92H184.416C184.459 646.92 184.48 646.92 184.48 646.92C184.48 646.92 184.48 646.941 184.48 646.984V652.616C184.48 652.659 184.48 652.68 184.48 652.68C184.48 652.68 184.459 652.68 184.416 652.68H178.784C178.741 652.68 178.72 652.68 178.72 652.68C178.72 652.68 178.72 652.659 178.72 652.616V646.984C178.72 646.941 178.72 646.92 178.72 646.92C178.72 646.92 178.741 646.92 178.784 646.92ZM185.184 646.92H190.816C190.859 646.92 190.88 646.92 190.88 646.92C190.88 646.92 190.88 646.941 190.88 646.984V652.616C190.88 652.659 190.88 652.68 190.88 652.68C190.88 652.68 190.859 652.68 190.816 652.68H185.184C185.141 652.68 185.12 652.68 185.12 652.68C185.12 652.68 185.12 652.659 185.12 652.616V646.984C185.12 646.941 185.12 646.92 185.12 646.92C185.12 646.92 185.141 646.92 185.184 646.92ZM172.384 653.32H178.016C178.059 653.32 178.08 653.32 178.08 653.32C178.08 653.32 178.08 653.341 178.08 653.384V659.016C178.08 659.059 178.08 659.08 178.08 659.08C178.08 659.08 178.059 659.08 178.016 659.08H172.384C172.341 659.08 172.32 659.08 172.32 659.08C172.32 659.08 172.32 659.059 172.32 659.016V653.384C172.32 653.341 172.32 653.32 172.32 653.32C172.32 653.32 172.341 653.32 172.384 653.32ZM185.184 653.32H190.816C190.859 653.32 190.88 653.32 190.88 653.32C190.88 653.32 190.88 653.341 190.88 653.384V659.016C190.88 659.059 190.88 659.08 190.88 659.08C190.88 659.08 190.859 659.08 190.816 659.08H185.184C185.141 659.08 185.12 659.08 185.12 659.08C185.12 659.08 185.12 659.059 185.12 659.016V653.384C185.12 653.341 185.12 653.32 185.12 653.32C185.12 653.32 185.141 653.32 185.184 653.32ZM185.184 659.72H190.816C190.859 659.72 190.88 659.72 190.88 659.72C190.88 659.72 190.88 659.741 190.88 659.784V665.416C190.88 665.459 190.88 665.48 190.88 665.48C190.88 665.48 190.859 665.48 190.816 665.48H185.184C185.141 665.48 185.12 665.48 185.12 665.48C185.12 665.48 185.12 665.459 185.12 665.416V659.784C185.12 659.741 185.12 659.72 185.12 659.72C185.12 659.72 185.141 659.72 185.184 659.72ZM185.184 666.12H190.816C190.859 666.12 190.88 666.12 190.88 666.12C190.88 666.12 190.88 666.141 190.88 666.184V671.816C190.88 671.859 190.88 671.88 190.88 671.88C190.88 671.88 190.859 671.88 190.816 671.88H185.184C185.141 671.88 185.12 671.88 185.12 671.88C185.12 671.88 185.12 671.859 185.12 671.816V666.184C185.12 666.141 185.12 666.12 185.12 666.12C185.12 666.12 185.141 666.12 185.184 666.12ZM185.184 672.52H190.816C190.859 672.52 190.88 672.52 190.88 672.52C190.88 672.52 190.88 672.541 190.88 672.584V678.216C190.88 678.259 190.88 678.28 190.88 678.28C190.88 678.28 190.859 678.28 190.816 678.28H185.184C185.141 678.28 185.12 678.28 185.12 678.28C185.12 678.28 185.12 678.259 185.12 678.216V672.584C185.12 672.541 185.12 672.52 185.12 672.52C185.12 672.52 185.141 672.52 185.184 672.52ZM172.384 678.92H178.016C178.059 678.92 178.08 678.92 178.08 678.92C178.08 678.92 178.08 678.941 178.08 678.984V684.616C178.08 684.659 178.08 684.68 178.08 684.68C178.08 684.68 178.059 684.68 178.016 684.68H172.384C172.341 684.68 172.32 684.68 172.32 684.68C172.32 684.68 172.32 684.659 172.32 684.616V678.984C172.32 678.941 172.32 678.92 172.32 678.92C172.32 678.92 172.341 678.92 172.384 678.92ZM178.784 678.92H184.416C184.459 678.92 184.48 678.92 184.48 678.92C184.48 678.92 184.48 678.941 184.48 678.984V684.616C184.48 684.659 184.48 684.68 184.48 684.68C184.48 684.68 184.459 684.68 184.416 684.68H178.784C178.741 684.68 178.72 684.68 178.72 684.68C178.72 684.68 178.72 684.659 178.72 684.616V678.984C178.72 678.941 178.72 678.92 178.72 678.92C178.72 678.92 178.741 678.92 178.784 678.92ZM185.184 678.92H190.816C190.859 678.92 190.88 678.92 190.88 678.92C190.88 678.92 190.88 678.941 190.88 678.984V684.616C190.88 684.659 190.88 684.68 190.88 684.68C190.88 684.68 190.859 684.68 190.816 684.68H185.184C185.141 684.68 185.12 684.68 185.12 684.68C185.12 684.68 185.12 684.659 185.12 684.616V678.984C185.12 678.941 185.12 678.92 185.12 678.92C185.12 678.92 185.141 678.92 185.184 678.92ZM191.584 678.92H197.216C197.259 678.92 197.28 678.92 197.28 678.92C197.28 678.92 197.28 678.941 197.28 678.984V684.616C197.28 684.659 197.28 684.68 197.28 684.68C197.28 684.68 197.259 684.68 197.216 684.68H191.584C191.541 684.68 191.52 684.68 191.52 684.68C191.52 684.68 191.52 684.659 191.52 684.616V678.984C191.52 678.941 191.52 678.92 191.52 678.92C191.52 678.92 191.541 678.92 191.584 678.92ZM197.984 678.92H203.616C203.659 678.92 203.68 678.92 203.68 678.92C203.68 678.92 203.68 678.941 203.68 678.984V684.616C203.68 684.659 203.68 684.68 203.68 684.68C203.68 684.68 203.659 684.68 203.616 684.68H197.984C197.941 684.68 197.92 684.68 197.92 684.68C197.92 684.68 197.92 684.659 197.92 684.616V678.984C197.92 678.941 197.92 678.92 197.92 678.92C197.92 678.92 197.941 678.92 197.984 678.92Z" fill="black"/>
<path d="M268.784 386.52H274.416C274.459 386.52 274.48 386.52 274.48 386.52C274.48 386.52 274.48 386.541 274.48 386.584V392.216C274.48 392.259 274.48 392.28 274.48 392.28C274.48 392.28 274.459 392.28 274.416 392.28H268.784C268.741 392.28 268.72 392.28 268.72 392.28C268.72 392.28 268.72 392.259 268.72 392.216V386.584C268.72 386.541 268.72 386.52 268.72 386.52C268.72 386.52 268.741 386.52 268.784 386.52ZM275.184 386.52H280.816C280.859 386.52 280.88 386.52 280.88 386.52C280.88 386.52 280.88 386.541 280.88 386.584V392.216C280.88 392.259 280.88 392.28 280.88 392.28C280.88 392.28 280.859 392.28 280.816 392.28H275.184C275.141 392.28 275.12 392.28 275.12 392.28C275.12 392.28 275.12 392.259 275.12 392.216V386.584C275.12 386.541 275.12 386.52 275.12 386.52C275.12 386.52 275.141 386.52 275.184 386.52ZM281.584 386.52H287.216C287.259 386.52 287.28 386.52 287.28 386.52C287.28 386.52 287.28 386.541 287.28 386.584V392.216C287.28 392.259 287.28 392.28 287.28 392.28C287.28 392.28 287.259 392.28 287.216 392.28H281.584C281.541 392.28 281.52 392.28 281.52 392.28C281.52 392.28 281.52 392.259 281.52 392.216V386.584C281.52 386.541 281.52 386.52 281.52 386.52C281.52 386.52 281.541 386.52 281.584 386.52ZM262.384 392.92H268.016C268.059 392.92 268.08 392.92 268.08 392.92C268.08 392.92 268.08 392.941 268.08 392.984V398.616C268.08 398.659 268.08 398.68 268.08 398.68C268.08 398.68 268.059 398.68 268.016 398.68H262.384C262.341 398.68 262.32 398.68 262.32 398.68C262.32 398.68 262.32 398.659 262.32 398.616V392.984C262.32 392.941 262.32 392.92 262.32 392.92C262.32 392.92 262.341 392.92 262.384 392.92ZM287.984 392.92H293.616C293.659 392.92 293.68 392.92 293.68 392.92C293.68 392.92 293.68 392.941 293.68 392.984V398.616C293.68 398.659 293.68 398.68 293.68 398.68C293.68 398.68 293.659 398.68 293.616 398.68H287.984C287.941 398.68 287.92 398.68 287.92 398.68C287.92 398.68 287.92 398.659 287.92 398.616V392.984C287.92 392.941 287.92 392.92 287.92 392.92C287.92 392.92 287.941 392.92 287.984 392.92ZM287.984 399.32H293.616C293.659 399.32 293.68 399.32 293.68 399.32C293.68 399.32 293.68 399.341 293.68 399.384V405.016C293.68 405.059 293.68 405.08 293.68 405.08C293.68 405.08 293.659 405.08 293.616 405.08H287.984C287.941 405.08 287.92 405.08 287.92 405.08C287.92 405.08 287.92 405.059 287.92 405.016V399.384C287.92 399.341 287.92 399.32 287.92 399.32C287.92 399.32 287.941 399.32 287.984 399.32ZM275.184 405.72H280.816C280.859 405.72 280.88 405.72 280.88 405.72C280.88 405.72 280.88 405.741 280.88 405.784V411.416C280.88 411.459 280.88 411.48 280.88 411.48C280.88 411.48 280.859 411.48 280.816 411.48H275.184C275.141 411.48 275.12 411.48 275.12 411.48C275.12 411.48 275.12 411.459 275.12 411.416V405.784C275.12 405.741 275.12 405.72 275.12 405.72C275.12 405.72 275.141 405.72 275.184 405.72ZM281.584 405.72H287.216C287.259 405.72 287.28 405.72 287.28 405.72C287.28 405.72 287.28 405.741 287.28 405.784V411.416C287.28 411.459 287.28 411.48 287.28 411.48C287.28 411.48 287.259 411.48 287.216 411.48H281.584C281.541 411.48 281.52 411.48 281.52 411.48C281.52 411.48 281.52 411.459 281.52 411.416V405.784C281.52 405.741 281.52 405.72 281.52 405.72C281.52 405.72 281.541 405.72 281.584 405.72ZM268.784 412.12H274.416C274.459 412.12 274.48 412.12 274.48 412.12C274.48 412.12 274.48 412.141 274.48 412.184V417.816C274.48 417.859 274.48 417.88 274.48 417.88C274.48 417.88 274.459 417.88 274.416 417.88H268.784C268.741 417.88 268.72 417.88 268.72 417.88C268.72 417.88 268.72 417.859 268.72 417.816V412.184C268.72 412.141 268.72 412.12 268.72 412.12C268.72 412.12 268.741 412.12 268.784 412.12ZM262.384 418.52H268.016C268.059 418.52 268.08 418.52 268.08 418.52C268.08 418.52 268.08 418.541 268.08 418.584V424.216C268.08 424.259 268.08 424.28 268.08 424.28C268.08 424.28 268.059 424.28 268.016 424.28H262.384C262.341 424.28 262.32 424.28 262.32 424.28C262.32 424.28 262.32 424.259 262.32 424.216V418.584C262.32 418.541 262.32 418.52 262.32 418.52C262.32 418.52 262.341 418.52 262.384 418.52ZM262.384 424.92H268.016C268.059 424.92 268.08 424.92 268.08 424.92C268.08 424.92 268.08 424.941 268.08 424.984V430.616C268.08 430.659 268.08 430.68 268.08 430.68C268.08 430.68 268.059 430.68 268.016 430.68H262.384C262.341 430.68 262.32 430.68 262.32 430.68C262.32 430.68 262.32 430.659 262.32 430.616V424.984C262.32 424.941 262.32 424.92 262.32 424.92C262.32 424.92 262.341 424.92 262.384 424.92ZM268.784 424.92H274.416C274.459 424.92 274.48 424.92 274.48 424.92C274.48 424.92 274.48 424.941 274.48 424.984V430.616C274.48 430.659 274.48 430.68 274.48 430.68C274.48 430.68 274.459 430.68 274.416 430.68H268.784C268.741 430.68 268.72 430.68 268.72 430.68C268.72 430.68 268.72 430.659 268.72 430.616V424.984C268.72 424.941 268.72 424.92 268.72 424.92C268.72 424.92 268.741 424.92 268.784 424.92ZM275.184 424.92H280.816C280.859 424.92 280.88 424.92 280.88 424.92C280.88 424.92 280.88 424.941 280.88 424.984V430.616C280.88 430.659 280.88 430.68 280.88 430.68C280.88 430.68 280.859 430.68 280.816 430.68H275.184C275.141 430.68 275.12 430.68 275.12 430.68C275.12 430.68 275.12 430.659 275.12 430.616V424.984C275.12 424.941 275.12 424.92 275.12 424.92C275.12 424.92 275.141 424.92 275.184 424.92ZM281.584 424.92H287.216C287.259 424.92 287.28 424.92 287.28 424.92C287.28 424.92 287.28 424.941 287.28 424.984V430.616C287.28 430.659 287.28 430.68 287.28 430.68C287.28 430.68 287.259 430.68 287.216 430.68H281.584C281.541 430.68 281.52 430.68 281.52 430.68C281.52 430.68 281.52 430.659 281.52 430.616V424.984C281.52 424.941 281.52 424.92 281.52 424.92C281.52 424.92 281.541 424.92 281.584 424.92ZM287.984 424.92H293.616C293.659 424.92 293.68 424.92 293.68 424.92C293.68 424.92 293.68 424.941 293.68 424.984V430.616C293.68 430.659 293.68 430.68 293.68 430.68C293.68 430.68 293.659 430.68 293.616 430.68H287.984C287.941 430.68 287.92 430.68 287.92 430.68C287.92 430.68 287.92 430.659 287.92 430.616V424.984C287.92 424.941 287.92 424.92 287.92 424.92C287.92 424.92 287.941 424.92 287.984 424.92Z" fill="black"/>
<path d="M67.384 194.52H73.016C73.0587 194.52 73.08 194.52 73.08 194.52C73.08 194.52 73.08 194.541 73.08 194.584V200.216C73.08 200.259 73.08 200.28 73.08 200.28C73.08 200.28 73.0587 200.28 73.016 200.28H67.384C67.3413 200.28 67.32 200.28 67.32 200.28C67.32 200.28 67.32 200.259 67.32 200.216V194.584C67.32 194.541 67.32 194.52 67.32 194.52C67.32 194.52 67.3413 194.52 67.384 194.52ZM73.784 194.52H79.416C79.4587 194.52 79.48 194.52 79.48 194.52C79.48 194.52 79.48 194.541 79.48 194.584V200.216C79.48 200.259 79.48 200.28 79.48 200.28C79.48 200.28 79.4587 200.28 79.416 200.28H73.784C73.7413 200.28 73.72 200.28 73.72 200.28C73.72 200.28 73.72 200.259 73.72 200.216V194.584C73.72 194.541 73.72 194.52 73.72 194.52C73.72 194.52 73.7413 194.52 73.784 194.52ZM80.184 194.52H85.816C85.8587 194.52 85.88 194.52 85.88 194.52C85.88 194.52 85.88 194.541 85.88 194.584V200.216C85.88 200.259 85.88 200.28 85.88 200.28C85.88 200.28 85.8587 200.28 85.816 200.28H80.184C80.1413 200.28 80.12 200.28 80.12 200.28C80.12 200.28 80.12 200.259 80.12 200.216V194.584C80.12 194.541 80.12 194.52 80.12 194.52C80.12 194.52 80.1413 194.52 80.184 194.52ZM86.584 194.52H92.216C92.2587 194.52 92.28 194.52 92.28 194.52C92.28 194.52 92.28 194.541 92.28 194.584V200.216C92.28 200.259 92.28 200.28 92.28 200.28C92.28 200.28 92.2587 200.28 92.216 200.28H86.584C86.5413 200.28 86.52 200.28 86.52 200.28C86.52 200.28 86.52 200.259 86.52 200.216V194.584C86.52 194.541 86.52 194.52 86.52 194.52C86.52 194.52 86.5413 194.52 86.584 194.52ZM92.984 194.52H98.616C98.6587 194.52 98.68 194.52 98.68 194.52C98.68 194.52 98.68 194.541 98.68 194.584V200.216C98.68 200.259 98.68 200.28 98.68 200.28C98.68 200.28 98.6587 200.28 98.616 200.28H92.984C92.9413 200.28 92.92 200.28 92.92 200.28C92.92 200.28 92.92 200.259 92.92 200.216V194.584C92.92 194.541 92.92 194.52 92.92 194.52C92.92 194.52 92.9413 194.52 92.984 194.52ZM92.984 200.92H98.616C98.6587 200.92 98.68 200.92 98.68 200.92C98.68 200.92 98.68 200.941 98.68 200.984V206.616C98.68 206.659 98.68 206.68 98.68 206.68C98.68 206.68 98.6587 206.68 98.616 206.68H92.984C92.9413 206.68 92.92 206.68 92.92 206.68C92.92 206.68 92.92 206.659 92.92 206.616V200.984C92.92 200.941 92.92 200.92 92.92 200.92C92.92 200.92 92.9413 200.92 92.984 200.92ZM86.584 207.32H92.216C92.2587 207.32 92.28 207.32 92.28 207.32C92.28 207.32 92.28 207.341 92.28 207.384V213.016C92.28 213.059 92.28 213.08 92.28 213.08C92.28 213.08 92.2587 213.08 92.216 213.08H86.584C86.5413 213.08 86.52 213.08 86.52 213.08C86.52 213.08 86.52 213.059 86.52 213.016V207.384C86.52 207.341 86.52 207.32 86.52 207.32C86.52 207.32 86.5413 207.32 86.584 207.32ZM80.184 213.72H85.816C85.8587 213.72 85.88 213.72 85.88 213.72C85.88 213.72 85.88 213.741 85.88 213.784V219.416C85.88 219.459 85.88 219.48 85.88 219.48C85.88 219.48 85.8587 219.48 85.816 219.48H80.184C80.1413 219.48 80.12 219.48 80.12 219.48C80.12 219.48 80.12 219.459 80.12 219.416V213.784C80.12 213.741 80.12 213.72 80.12 213.72C80.12 213.72 80.1413 213.72 80.184 213.72ZM86.584 213.72H92.216C92.2587 213.72 92.28 213.72 92.28 213.72C92.28 213.72 92.28 213.741 92.28 213.784V219.416C92.28 219.459 92.28 219.48 92.28 219.48C92.28 219.48 92.2587 219.48 92.216 219.48H86.584C86.5413 219.48 86.52 219.48 86.52 219.48C86.52 219.48 86.52 219.459 86.52 219.416V213.784C86.52 213.741 86.52 213.72 86.52 213.72C86.52 213.72 86.5413 213.72 86.584 213.72ZM92.984 220.12H98.616C98.6587 220.12 98.68 220.12 98.68 220.12C98.68 220.12 98.68 220.141 98.68 220.184V225.816C98.68 225.859 98.68 225.88 98.68 225.88C98.68 225.88 98.6587 225.88 98.616 225.88H92.984C92.9413 225.88 92.92 225.88 92.92 225.88C92.92 225.88 92.92 225.859 92.92 225.816V220.184C92.92 220.141 92.92 220.12 92.92 220.12C92.92 220.12 92.9413 220.12 92.984 220.12ZM67.384 226.52H73.016C73.0587 226.52 73.08 226.52 73.08 226.52C73.08 226.52 73.08 226.541 73.08 226.584V232.216C73.08 232.259 73.08 232.28 73.08 232.28C73.08 232.28 73.0587 232.28 73.016 232.28H67.384C67.3413 232.28 67.32 232.28 67.32 232.28C67.32 232.28 67.32 232.259 67.32 232.216V226.584C67.32 226.541 67.32 226.52 67.32 226.52C67.32 226.52 67.3413 226.52 67.384 226.52ZM92.984 226.52H98.616C98.6587 226.52 98.68 226.52 98.68 226.52C98.68 226.52 98.68 226.541 98.68 226.584V232.216C98.68 232.259 98.68 232.28 98.68 232.28C98.68 232.28 98.6587 232.28 98.616 232.28H92.984C92.9413 232.28 92.92 232.28 92.92 232.28C92.92 232.28 92.92 232.259 92.92 232.216V226.584C92.92 226.541 92.92 226.52 92.92 226.52C92.92 226.52 92.9413 226.52 92.984 226.52ZM73.784 232.92H79.416C79.4587 232.92 79.48 232.92 79.48 232.92C79.48 232.92 79.48 232.941 79.48 232.984V238.616C79.48 238.659 79.48 238.68 79.48 238.68C79.48 238.68 79.4587 238.68 79.416 238.68H73.784C73.7413 238.68 73.72 238.68 73.72 238.68C73.72 238.68 73.72 238.659 73.72 238.616V232.984C73.72 232.941 73.72 232.92 73.72 232.92C73.72 232.92 73.7413 232.92 73.784 232.92ZM80.184 232.92H85.816C85.8587 232.92 85.88 232.92 85.88 232.92C85.88 232.92 85.88 232.941 85.88 232.984V238.616C85.88 238.659 85.88 238.68 85.88 238.68C85.88 238.68 85.8587 238.68 85.816 238.68H80.184C80.1413 238.68 80.12 238.68 80.12 238.68C80.12 238.68 80.12 238.659 80.12 238.616V232.984C80.12 232.941 80.12 232.92 80.12 232.92C80.12 232.92 80.1413 232.92 80.184 232.92ZM86.584 232.92H92.216C92.2587 232.92 92.28 232.92 92.28 232.92C92.28 232.92 92.28 232.941 92.28 232.984V238.616C92.28 238.659 92.28 238.68 92.28 238.68C92.28 238.68 92.2587 238.68 92.216 238.68H86.584C86.5413 238.68 86.52 238.68 86.52 238.68C86.52 238.68 86.52 238.659 86.52 238.616V232.984C86.52 232.941 86.52 232.92 86.52 232.92C86.52 232.92 86.5413 232.92 86.584 232.92Z" fill="black"/>
<path d="M522.584 16.52H528.216C528.259 16.52 528.28 16.52 528.28 16.52C528.28 16.52 528.28 16.5413 528.28 16.584V22.216C528.28 22.2587 528.28 22.28 528.28 22.28C528.28 22.28 528.259 22.28 528.216 22.28H522.584C522.541 22.28 522.52 22.28 522.52 22.28C522.52 22.28 522.52 22.2587 522.52 22.216V16.584C522.52 16.5413 522.52 16.52 522.52 16.52C522.52 16.52 522.541 16.52 522.584 16.52ZM516.184 22.92H521.816C521.859 22.92 521.88 22.92 521.88 22.92C521.88 22.92 521.88 22.9413 521.88 22.984V28.616C521.88 28.6587 521.88 28.68 521.88 28.68C521.88 28.68 521.859 28.68 521.816 28.68H516.184C516.141 28.68 516.12 28.68 516.12 28.68C516.12 28.68 516.12 28.6587 516.12 28.616V22.984C516.12 22.9413 516.12 22.92 516.12 22.92C516.12 22.92 516.141 22.92 516.184 22.92ZM522.584 22.92H528.216C528.259 22.92 528.28 22.92 528.28 22.92C528.28 22.92 528.28 22.9413 528.28 22.984V28.616C528.28 28.6587 528.28 28.68 528.28 28.68C528.28 28.68 528.259 28.68 528.216 28.68H522.584C522.541 28.68 522.52 28.68 522.52 28.68C522.52 28.68 522.52 28.6587 522.52 28.616V22.984C522.52 22.9413 522.52 22.92 522.52 22.92C522.52 22.92 522.541 22.92 522.584 22.92ZM509.784 29.32H515.416C515.459 29.32 515.48 29.32 515.48 29.32C515.48 29.32 515.48 29.3413 515.48 29.384V35.016C515.48 35.0587 515.48 35.08 515.48 35.08C515.48 35.08 515.459 35.08 515.416 35.08H509.784C509.741 35.08 509.72 35.08 509.72 35.08C509.72 35.08 509.72 35.0587 509.72 35.016V29.384C509.72 29.3413 509.72 29.32 509.72 29.32C509.72 29.32 509.741 29.32 509.784 29.32ZM522.584 29.32H528.216C528.259 29.32 528.28 29.32 528.28 29.32C528.28 29.32 528.28 29.3413 528.28 29.384V35.016C528.28 35.0587 528.28 35.08 528.28 35.08C528.28 35.08 528.259 35.08 528.216 35.08H522.584C522.541 35.08 522.52 35.08 522.52 35.08C522.52 35.08 522.52 35.0587 522.52 35.016V29.384C522.52 29.3413 522.52 29.32 522.52 29.32C522.52 29.32 522.541 29.32 522.584 29.32ZM503.384 35.72H509.016C509.059 35.72 509.08 35.72 509.08 35.72C509.08 35.72 509.08 35.7413 509.08 35.784V41.416C509.08 41.4587 509.08 41.48 509.08 41.48C509.08 41.48 509.059 41.48 509.016 41.48H503.384C503.341 41.48 503.32 41.48 503.32 41.48C503.32 41.48 503.32 41.4587 503.32 41.416V35.784C503.32 35.7413 503.32 35.72 503.32 35.72C503.32 35.72 503.341 35.72 503.384 35.72ZM522.584 35.72H528.216C528.259 35.72 528.28 35.72 528.28 35.72C528.28 35.72 528.28 35.7413 528.28 35.784V41.416C528.28 41.4587 528.28 41.48 528.28 41.48C528.28 41.48 528.259 41.48 528.216 41.48H522.584C522.541 41.48 522.52 41.48 522.52 41.48C522.52 41.48 522.52 41.4587 522.52 41.416V35.784C522.52 35.7413 522.52 35.72 522.52 35.72C522.52 35.72 522.541 35.72 522.584 35.72ZM503.384 42.12H509.016C509.059 42.12 509.08 42.12 509.08 42.12C509.08 42.12 509.08 42.1413 509.08 42.184V47.816C509.08 47.8587 509.08 47.88 509.08 47.88C509.08 47.88 509.059 47.88 509.016 47.88H503.384C503.341 47.88 503.32 47.88 503.32 47.88C503.32 47.88 503.32 47.8587 503.32 47.816V42.184C503.32 42.1413 503.32 42.12 503.32 42.12C503.32 42.12 503.341 42.12 503.384 42.12ZM509.784 42.12H515.416C515.459 42.12 515.48 42.12 515.48 42.12C515.48 42.12 515.48 42.1413 515.48 42.184V47.816C515.48 47.8587 515.48 47.88 515.48 47.88C515.48 47.88 515.459 47.88 515.416 47.88H509.784C509.741 47.88 509.72 47.88 509.72 47.88C509.72 47.88 509.72 47.8587 509.72 47.816V42.184C509.72 42.1413 509.72 42.12 509.72 42.12C509.72 42.12 509.741 42.12 509.784 42.12ZM516.184 42.12H521.816C521.859 42.12 521.88 42.12 521.88 42.12C521.88 42.12 521.88 42.1413 521.88 42.184V47.816C521.88 47.8587 521.88 47.88 521.88 47.88C521.88 47.88 521.859 47.88 521.816 47.88H516.184C516.141 47.88 516.12 47.88 516.12 47.88C516.12 47.88 516.12 47.8587 516.12 47.816V42.184C516.12 42.1413 516.12 42.12 516.12 42.12C516.12 42.12 516.141 42.12 516.184 42.12ZM522.584 42.12H528.216C528.259 42.12 528.28 42.12 528.28 42.12C528.28 42.12 528.28 42.1413 528.28 42.184V47.816C528.28 47.8587 528.28 47.88 528.28 47.88C528.28 47.88 528.259 47.88 528.216 47.88H522.584C522.541 47.88 522.52 47.88 522.52 47.88C522.52 47.88 522.52 47.8587 522.52 47.816V42.184C522.52 42.1413 522.52 42.12 522.52 42.12C522.52 42.12 522.541 42.12 522.584 42.12ZM528.984 42.12H534.616C534.659 42.12 534.68 42.12 534.68 42.12C534.68 42.12 534.68 42.1413 534.68 42.184V47.816C534.68 47.8587 534.68 47.88 534.68 47.88C534.68 47.88 534.659 47.88 534.616 47.88H528.984C528.941 47.88 528.92 47.88 528.92 47.88C528.92 47.88 528.92 47.8587 528.92 47.816V42.184C528.92 42.1413 528.92 42.12 528.92 42.12C528.92 42.12 528.941 42.12 528.984 42.12ZM522.584 48.52H528.216C528.259 48.52 528.28 48.52 528.28 48.52C528.28 48.52 528.28 48.5413 528.28 48.584V54.216C528.28 54.2587 528.28 54.28 528.28 54.28C528.28 54.28 528.259 54.28 528.216 54.28H522.584C522.541 54.28 522.52 54.28 522.52 54.28C522.52 54.28 522.52 54.2587 522.52 54.216V48.584C522.52 48.5413 522.52 48.52 522.52 48.52C522.52 48.52 522.541 48.52 522.584 48.52ZM522.584 54.92H528.216C528.259 54.92 528.28 54.92 528.28 54.92C528.28 54.92 528.28 54.9413 528.28 54.984V60.616C528.28 60.6587 528.28 60.68 528.28 60.68C528.28 60.68 528.259 60.68 528.216 60.68H522.584C522.541 60.68 522.52 60.68 522.52 60.68C522.52 60.68 522.52 60.6587 522.52 60.616V54.984C522.52 54.9413 522.52 54.92 522.52 54.92C522.52 54.92 522.541 54.92 522.584 54.92Z" fill="black"/>
</svg>
