<svg width="610" height="907" viewBox="0 0 610 907" fill="none" xmlns="http://www.w3.org/2000/svg">
<path d="M29.3347 266.886V7.85744L45.6054 2L259.727 201.804L681.463 210.265L691.226 221.979L563.664 491.422L538.281 473.199L626.143 257.775H259.727L67.0827 557.155L42.0258 834.407L16.3182 878.013L2 870.854L11.1116 551.949L224.732 239.552L59.9236 78.1467L54.717 266.886H42.0258H29.3347Z" fill="#FAEBD0"/>
<path d="M77.4959 887.775L79.4484 829.852L84.8026 805.12L99.7381 736.133L105.481 705.544L175.12 719.283L201.153 572.775L201.804 569.521L203.756 559.759L428.942 635.905L470.595 579.283L492.012 578.385L494.025 575.378L508.108 594.903L540.5 639.81L551.298 654.779L549.08 658.684L559.759 669.097L546.742 694.48L536.511 680.812L505.089 736.133H497.279L492.773 745.244L467.992 795.358L452.372 777.785L467.992 741.339L423.736 682.765L371.019 710.75L358.002 691.226L423.736 644.366L212.173 573.018L185.533 721.377L229.789 730.275L224.858 759.562L212.257 834.407L208.312 857.837L205.058 857.024L195.296 898.188L193.343 905.348L186.835 904.046L188.696 896.747L156.571 889.728L154.944 898.188L89.2108 881.267L91.8141 871.505L83.3533 869.552L81.4009 889.077L77.4959 887.775Z" fill="#FAEBD0"/>
<path d="M11.1116 551.949L224.732 239.552M11.1116 551.949L35.843 562.362M11.1116 551.949L2 870.854L16.3182 878.013M29.3347 7.85744L244.758 210.265L224.732 239.552M29.3347 7.85744V266.886H42.0258M29.3347 7.85744L45.6054 2L259.727 201.804L681.463 210.265L691.226 221.979M59.9236 78.1467L54.717 266.886H42.0258M59.9236 78.1467L45.6054 65.1302L42.0258 266.886M59.9236 78.1467L224.732 239.552M691.226 221.979L563.664 491.422L538.281 473.199L626.143 257.775H259.727L67.0827 557.155L42.0258 834.407L16.3182 878.013M691.226 221.979L264.934 215.471L35.843 562.362M16.3182 878.013L35.843 562.362M79.4484 829.852L169.262 850.027L164.707 874.759L190.089 879.314L195.296 854.583L199.201 855.559M79.4484 829.852L77.4959 887.775L81.4009 889.077L83.3533 869.552L91.8141 871.505M79.4484 829.852L84.8026 805.12M91.8141 871.505L93.1157 862.393L98.9732 864.345L96.3699 876.06L150.389 890.379L153.643 879.314L158.198 881.267L156.571 889.728M91.8141 871.505L89.2108 881.267L154.944 898.188L156.571 889.728M156.571 889.728L195.296 898.188M195.296 898.188L205.058 857.024M195.296 898.188L193.343 905.348L186.835 904.046L199.201 855.559M205.058 857.024L208.312 857.837L212.257 834.407M205.058 857.024L199.201 855.559M185.533 721.377L229.789 730.275L224.858 759.562M185.533 721.377L212.217 572.775L423.736 644.366M185.533 721.377L175.12 719.283M175.12 719.283L105.481 705.544L99.7381 736.133M175.12 719.283L201.153 572.775L201.804 569.521M175.12 719.283L203.756 559.759M203.756 559.759L428.942 635.905M203.756 559.759L201.804 569.521M428.942 635.905L423.736 644.366M428.942 635.905L470.595 579.283L492.012 578.385M423.736 644.366L201.804 569.521M423.736 644.366L358.002 691.226L371.019 710.75L423.736 682.765L467.992 741.339L452.372 777.785L467.992 795.358L492.773 745.244M423.736 644.366L419.042 653.754M442.61 652.176L445.213 654.779H418.529L419.042 653.754M442.61 652.176L456.655 671.05M442.61 652.176L492.012 578.385M505.089 736.133L492.012 718.56M505.089 736.133H497.279L492.773 745.244M505.089 736.133L536.511 680.812M492.012 718.56L540.5 639.81M492.012 718.56L456.655 671.05M540.5 639.81L551.298 654.779L549.08 658.684M540.5 639.81L508.108 594.903M456.655 671.05L508.108 594.903M508.108 594.903L494.025 575.378L492.012 578.385M492.773 745.244L419.042 653.754M536.511 680.812L546.742 694.48L559.759 669.097L549.08 658.684M536.511 680.812L549.08 658.684M224.858 759.562L99.7381 736.133M224.858 759.562L212.257 834.407M99.7381 736.133L84.8026 805.12M84.8026 805.12L212.257 834.407" stroke="black" stroke-width="2"/>
<path d="M185.5 721.5L175 719L203.5 559L428.5 636L422.5 644L212 573L185.5 721.5Z" fill="#D9D9D9" stroke="black"/>
<circle cx="128.26" cy="725.719" r="5.50827" fill="#FF781F" stroke="black" stroke-width="2"/>
<circle cx="177.724" cy="736.133" r="5.50827" stroke="black" stroke-width="2"/>
<circle cx="177.724" cy="736.133" r="5.50827" fill="#FF781F" stroke="black" stroke-width="2"/>
<circle cx="180.326" cy="863.695" r="5.50827" fill="#FF781F" stroke="black" stroke-width="2"/>
<path d="M463.437 639.509C464.279 639.509 465.144 639.995 465.839 640.988C466.532 641.978 466.992 643.4 466.992 645.017C466.992 646.634 466.532 648.056 465.839 649.046C465.144 650.039 464.279 650.525 463.437 650.525C462.594 650.525 461.729 650.039 461.034 649.046C460.341 648.056 459.881 646.634 459.881 645.017C459.881 643.4 460.341 641.978 461.034 640.988C461.729 639.995 462.594 639.509 463.437 639.509Z" stroke="black" stroke-width="2"/>
<path d="M463.437 639.509C464.279 639.509 465.144 639.995 465.839 640.988C466.532 641.978 466.992 643.4 466.992 645.017C466.992 646.634 466.532 648.056 465.839 649.046C465.144 650.039 464.279 650.525 463.437 650.525C462.594 650.525 461.729 650.039 461.034 649.046C460.341 648.056 459.881 646.634 459.881 645.017C459.881 643.4 460.341 641.978 461.034 640.988C461.729 639.995 462.594 639.509 463.437 639.509Z" fill="#FF781F" stroke="black" stroke-width="2"/>
<path d="M548.044 669.447C548.886 669.447 549.751 669.933 550.446 670.926C551.139 671.916 551.6 673.338 551.6 674.955C551.6 676.572 551.139 677.994 550.446 678.984C549.751 679.977 548.886 680.463 548.044 680.463C547.202 680.463 546.337 679.977 545.642 678.984C544.948 677.994 544.488 676.572 544.488 674.955C544.488 673.338 544.949 671.916 545.642 670.926C546.337 669.933 547.202 669.447 548.044 669.447Z" fill="#FF781F" stroke="black" stroke-width="2"/>
<path d="M484.263 606.967C485.105 606.967 485.97 607.454 486.665 608.447C487.358 609.437 487.818 610.858 487.818 612.475C487.818 614.092 487.358 615.514 486.665 616.504C485.97 617.498 485.105 617.984 484.263 617.984C483.421 617.984 482.556 617.498 481.86 616.504C481.167 615.514 480.707 614.092 480.707 612.475C480.707 610.858 481.167 609.437 481.86 608.447C482.556 607.453 483.421 606.967 484.263 606.967Z" fill="#FF781F" stroke="black" stroke-width="2"/>
<path d="M475.151 622.587C475.994 622.587 476.858 623.073 477.554 624.066C478.247 625.056 478.707 626.478 478.707 628.095C478.707 629.712 478.247 631.134 477.554 632.124C476.858 633.117 475.993 633.604 475.151 633.604C474.309 633.603 473.444 633.117 472.749 632.124C472.056 631.134 471.596 629.712 471.596 628.095C471.596 626.478 472.056 625.056 472.749 624.066C473.444 623.073 474.309 622.587 475.151 622.587Z" fill="#FF781F" stroke="black" stroke-width="2"/>
<circle cx="152.991" cy="730.926" r="5.50827" fill="#FF781F" stroke="black" stroke-width="2"/>
<path d="M99.5 735.5L85.5 806.5L212.5 834.5L225 759.5L99.5 735.5Z" fill="black"/>
<path d="M508 595L457 671L492.5 718L540.5 640L508 595Z" fill="black"/>
</svg>
