<svg width="435" height="97" viewBox="0 0 435 97" fill="none" xmlns="http://www.w3.org/2000/svg">
<path d="M105.025 69.8399V22.0977H124.242C129.791 22.0977 133.93 23.3709 136.659 25.9171C139.411 28.4634 140.787 32.3168 140.787 37.4776V37.614C140.787 42.7292 139.411 46.5599 136.659 49.1061C133.93 51.6297 129.791 52.8915 124.242 52.8915H117.34V69.8399H105.025ZM123.126 43.2747C125.066 43.2747 126.509 42.8087 127.457 41.8765C128.404 40.9446 128.877 39.5235 128.877 37.614V37.4776C128.877 33.6127 126.96 31.6803 123.126 31.6803H117.34V43.2747H123.126ZM152.358 70.7948C150.328 70.7948 148.569 70.4083 147.08 69.6352C145.591 68.8396 144.452 67.7257 143.663 66.2934C142.896 64.8384 142.513 63.1333 142.513 61.1782V61.0416C142.513 58.3819 143.167 56.2333 144.475 54.5965C145.783 52.9596 147.385 51.7434 149.279 50.9476C151.197 50.152 153.441 49.4926 156.012 48.9698L162.17 47.708V45.355C162.17 44.0136 161.911 43.0246 161.392 42.3881C160.896 41.7516 160.095 41.4333 158.99 41.4333C157.839 41.4333 156.971 41.8311 156.384 42.6269C155.821 43.3998 155.539 44.616 155.539 46.2757C155.539 46.7531 155.55 47.1169 155.573 47.3669L143.494 46.719C143.471 46.4916 143.46 46.1507 143.46 45.696C143.46 43.1044 144.08 40.865 145.321 38.978C146.561 37.0909 148.355 35.6359 150.7 34.613C153.069 33.59 155.911 33.0784 159.227 33.0784C164.121 33.0784 167.854 34.1129 170.426 36.1817C172.997 38.2278 174.283 41.2627 174.283 45.2869V60.1892C174.283 60.9167 174.362 61.4509 174.52 61.792C174.678 62.1329 174.959 62.3602 175.366 62.4739C175.771 62.5876 176.414 62.6559 177.294 62.6786L175.941 70.2151C175.489 70.3969 174.937 70.5332 174.283 70.6242C173.651 70.7379 173.031 70.7948 172.422 70.7948C169.648 70.7948 167.629 70.2946 166.366 69.2944C165.102 68.2712 164.471 66.5776 164.471 64.2131C164.471 63.3038 164.527 62.4854 164.64 61.7579L163.93 61.6215C163.185 64.7359 161.877 67.0436 160.005 68.544C158.155 70.0446 155.606 70.7948 152.358 70.7948ZM157.4 61.8259C158.821 61.8259 159.971 61.2009 160.851 59.9504C161.73 58.7 162.17 57.0859 162.17 55.1079V54.1532L159.464 54.8693C157.975 55.2557 156.813 55.79 155.979 56.4721C155.166 57.154 154.761 58.0635 154.761 59.2002V59.3365C154.761 60.9962 155.64 61.8259 157.4 61.8259ZM195.192 70.7948C189.576 70.7948 185.38 69.2375 182.606 66.1229C179.854 62.9855 178.478 58.2567 178.478 51.9366V51.8002C178.478 45.5255 179.865 40.8421 182.64 37.7504C185.414 34.6357 189.598 33.0784 195.192 33.0784C200.493 33.0784 204.485 34.2946 207.17 36.7272C209.876 39.1598 211.32 42.8314 211.501 47.7421L199.353 48.6629C199.263 46.2076 198.88 44.4001 198.204 43.2407C197.527 42.0585 196.524 41.4674 195.192 41.4674C193.748 41.4674 192.678 42.1039 191.978 43.3771C191.301 44.6502 190.963 46.6394 190.963 49.3448V54.426C190.963 57.1313 191.312 59.1433 192.012 60.4619C192.711 61.7579 193.794 62.4058 195.259 62.4058C196.612 62.4058 197.64 61.8032 198.339 60.5983C199.038 59.3707 199.411 57.5065 199.455 55.0057L211.907 56.0288C211.501 60.9848 209.911 64.6906 207.135 67.1458C204.362 69.5784 200.379 70.7948 195.192 70.7948ZM216.001 69.8399V22.0977H228.146V32.9421C228.146 35.7384 228.023 38.2051 227.775 40.342C227.549 42.4791 227.155 44.7865 226.591 47.2647L227.234 47.5716L235.32 34.0333H247.973L239.481 46.9236L248.549 69.8399H236.334L231.158 54.5624L228.146 58.7569V69.8399H216.001ZM260.018 54.8352V55.5514C260.018 57.8703 260.436 59.6095 261.27 60.7688C262.128 61.9057 263.379 62.4739 265.025 62.4739C266.424 62.4739 267.506 62.0648 268.274 61.2463C269.04 60.4278 269.504 59.0865 269.662 57.2223L281.131 58.3136C280.567 62.3602 278.887 65.4522 276.088 67.5891C273.292 69.7262 269.536 70.7948 264.823 70.7948C259.364 70.7948 255.203 69.2261 252.339 66.0887C249.473 62.9513 248.041 58.4385 248.041 52.5504V51.5273C248.041 45.5709 249.496 41.0127 252.406 37.8526C255.337 34.6698 259.566 33.0784 265.094 33.0784C270.349 33.0784 274.387 34.5788 277.207 37.5798C280.025 40.5808 281.435 44.8434 281.435 50.3679C281.435 51.7319 281.333 53.2211 281.131 54.8352H260.018ZM264.857 41.4333C261.857 41.4333 260.255 43.5816 260.051 47.8785H269.255V47.5375C269.255 45.4686 268.882 43.9341 268.139 42.9338C267.417 41.9334 266.322 41.4333 264.857 41.4333ZM298.656 70.7606C294.98 70.7606 292.228 69.8284 290.401 67.9643C288.598 66.1002 287.695 63.2583 287.695 59.439V42.7633H283.329V34.0333H287.695V26.8379L299.84 23.4619V34.0333H307.318V42.7633H299.84V57.8703C299.84 59.0525 300.1 59.9277 300.62 60.4961C301.161 61.0416 301.973 61.3146 303.055 61.3146C304.387 61.3146 305.897 61.0531 307.589 60.5302L306.912 69.1578C305.717 69.6579 304.396 70.0446 302.953 70.3173C301.532 70.6128 300.1 70.7606 298.656 70.7606Z" fill="black"/>
<path d="M322.524 69.8398H321.08V71.2948H322.524V69.8398ZM322.524 22.0976V20.6426H321.08V22.0976H322.524ZM354.7 25.5077L353.786 26.6331L353.79 26.6368L354.7 25.5077ZM356.359 43.036L357.435 44.0043L357.441 43.9979L356.359 43.036ZM349.186 46.4803L348.999 45.0375L347.742 45.2028V46.4803H349.186ZM349.186 47.1622H347.742V48.2598L348.789 48.5613L349.186 47.1622ZM352.941 48.8333L352.108 50.0214L352.127 50.0347L352.941 48.8333ZM355.106 51.3908L353.811 52.0304L353.819 52.0473L353.826 52.064L355.106 51.3908ZM356.527 55.6877L357.938 55.374L357.936 55.3682L356.527 55.6877ZM357.678 60.9393L359.089 60.6264L359.087 60.6256L357.678 60.9393ZM359.302 66.3274L358.005 66.9675L358.011 66.9781L359.302 66.3274ZM361.333 68.885L362.761 69.0908L362.882 68.238L362.199 67.7209L361.333 68.885ZM361.196 69.8398V71.2948H362.449L362.626 70.0457L361.196 69.8398ZM347.798 69.8398L346.653 70.725L347.086 71.2948H347.798V69.8398ZM346.512 67.0435L345.119 67.4218L345.126 67.4468L346.512 67.0435ZM345.396 61.5872L346.818 61.3351L346.816 61.33L345.396 61.5872ZM343.604 53.6757L342.285 54.2698L342.295 54.2911L342.305 54.3122L343.604 53.6757ZM341.912 51.8001L341.221 53.0774L341.234 53.0856L341.25 53.0935L341.912 51.8001ZM334.84 51.1863V49.7313H333.397V51.1863H334.84ZM334.84 69.8398V71.2948H336.284V69.8398H334.84ZM345.363 33.2147L344.37 34.2711L344.385 34.285L345.363 33.2147ZM334.84 31.9871V30.5321H333.397V31.9871H334.84ZM334.84 41.8765H333.397V43.3315H334.84V41.8765ZM323.967 69.8398V22.0976H321.08V69.8398H323.967ZM322.524 23.5526H342.622V20.6426H322.524V23.5526ZM342.622 23.5526C347.746 23.5526 351.392 24.6555 353.786 26.6331L355.616 24.3825C352.506 21.8132 348.098 20.6426 342.622 20.6426V23.5526ZM353.79 26.6368C356.161 28.5799 357.418 31.4107 357.418 35.3631H360.305C360.305 30.7218 358.788 26.9825 355.611 24.3788L353.79 26.6368ZM357.418 35.3631V35.4995H360.305V35.3631H357.418ZM357.418 35.4995C357.418 38.3428 356.663 40.4863 355.276 42.0741L357.441 43.9979C359.393 41.7663 360.305 38.8856 360.305 35.4995H357.418ZM355.281 42.0677C353.896 43.6331 351.857 44.6617 348.999 45.0375L349.372 47.9231C352.739 47.4803 355.482 46.2127 357.435 44.0043L355.281 42.0677ZM347.742 46.4803V47.1622H350.629V46.4803H347.742ZM348.789 48.5613C350.275 48.9893 351.361 49.489 352.108 50.0214L353.774 47.6454C352.671 46.8592 351.253 46.2446 349.582 45.7633L348.789 48.5613ZM352.127 50.0347C352.835 50.5215 353.395 51.1755 353.811 52.0304L356.404 50.7514C355.78 49.4692 354.898 48.4181 353.755 47.6317L352.127 50.0347ZM353.826 52.064C354.286 52.9527 354.727 54.249 355.12 56.007L357.936 55.3682C357.516 53.4889 357.01 51.9206 356.386 50.7178L353.826 52.064ZM355.118 56.0014L356.269 61.253L359.087 60.6256L357.938 55.374L355.118 56.0014ZM356.269 61.253C356.814 63.7523 357.385 65.6894 358.005 66.9675L360.598 65.6874C360.138 64.7372 359.624 63.0832 359.089 60.6264L356.269 61.253ZM358.011 66.9781C358.633 68.2327 359.443 69.2759 360.467 70.049L362.199 67.7209C361.597 67.2664 361.054 66.6045 360.594 65.6766L358.011 66.9781ZM359.903 68.6791L359.768 69.634L362.626 70.0457L362.761 69.0908L359.903 68.6791ZM361.196 68.3848H347.798V71.2948H361.196V68.3848ZM348.945 68.9546C348.572 68.4644 348.208 67.7171 347.9 66.6402L345.126 67.4468C345.494 68.7342 345.989 69.8511 346.653 70.725L348.945 68.9546ZM347.908 66.6652C347.609 65.5483 347.246 63.782 346.818 61.3351L343.975 61.8393C344.405 64.3031 344.786 66.1744 345.119 67.4218L347.908 66.6652ZM346.816 61.33L346.039 56.965L343.198 57.4787L343.975 61.8445L346.816 61.33ZM346.039 56.965C345.758 55.3839 345.39 54.0535 344.901 53.0392L342.305 54.3122C342.628 54.9802 342.936 56.0134 343.198 57.4787L346.039 56.965ZM344.92 53.0815C344.42 51.955 343.644 51.0628 342.572 50.5066L341.25 53.0935C341.668 53.3104 342.018 53.6688 342.285 54.2698L344.92 53.0815ZM342.603 50.5227C341.567 49.9537 340.295 49.7313 338.9 49.7313V52.6413C340.031 52.6413 340.767 52.8282 341.221 53.0774L342.603 50.5227ZM338.9 49.7313H334.84V52.6413H338.9V49.7313ZM333.397 51.1863V69.8398H336.284V51.1863H333.397ZM334.84 68.3848H322.524V71.2948H334.84V68.3848ZM341.471 43.3315C343.406 43.3315 345.126 42.8781 346.354 41.7052L344.37 39.5927C343.883 40.0565 343.011 40.4215 341.471 40.4215V43.3315ZM346.354 41.7052C347.6 40.5177 348.092 38.8293 348.092 36.9318H345.205C345.205 38.3534 344.84 39.1432 344.37 39.5927L346.354 41.7052ZM348.092 36.9318V36.8976H345.205V36.9318H348.092ZM348.092 36.8976C348.092 35.0036 347.6 33.3139 346.341 32.1445L344.385 34.285C344.84 34.707 345.205 35.4727 345.205 36.8976H348.092ZM346.354 32.1584C345.126 30.9855 343.406 30.5321 341.471 30.5321V33.4421C343.011 33.4421 343.883 33.807 344.37 34.2711L346.354 32.1584ZM341.471 30.5321H334.84V33.4421H341.471V30.5321ZM333.397 31.9871V41.8765H336.284V31.9871H333.397ZM334.84 43.3315H341.471V40.4215H334.84V43.3315ZM395.91 34.0332H397.353V32.5782H395.91V34.0332ZM395.91 69.8398V71.2948H397.353V69.8398H395.91ZM384.034 69.8398L382.592 69.8156L382.567 71.2948H384.034V69.8398ZM385.862 61.6895L387.206 62.2211L387.687 60.9829L386.507 60.3881L385.862 61.6895ZM385.185 61.3484L385.832 60.0471L384.496 59.3745L383.874 60.7412L385.185 61.3484ZM363.566 34.0332V32.5782H362.122V34.0332H363.566ZM375.711 34.0332H377.155V32.5782H375.711V34.0332ZM382.444 59.4728L381.176 58.7799L381.168 58.7938L382.444 59.4728ZM383.764 34.0332V32.5782H382.321V34.0332H383.764ZM394.466 34.0332V69.8398H397.353V34.0332H394.466ZM395.91 68.3848H384.034V71.2948H395.91V68.3848ZM385.477 69.8641C385.499 68.581 385.626 67.4288 385.851 66.4014L383.031 65.7761C382.76 67.022 382.615 68.3707 382.592 69.8156L385.477 69.8641ZM385.851 66.4014C386.076 65.3716 386.519 63.9857 387.206 62.2211L384.519 61.1581C383.807 62.9854 383.302 64.5322 383.031 65.7761L385.851 66.4014ZM386.507 60.3881L385.832 60.0471L384.54 62.65L385.216 62.9908L386.507 60.3881ZM383.874 60.7412C382.544 63.6601 380.975 65.7049 379.226 66.9938L380.927 69.3438C383.191 67.6773 385.031 65.1753 386.498 61.9559L383.874 60.7412ZM379.226 66.9938C377.486 68.2733 375.434 68.9303 373.005 68.9303V71.8403C375.988 71.8403 378.65 71.0199 380.927 69.3438L379.226 66.9938ZM373.005 68.9303C370.046 68.9303 368.122 68.1807 366.934 66.9502L364.865 68.9783C366.79 70.9759 369.602 71.8403 373.005 71.8403V68.9303ZM366.934 66.9502C365.739 65.7098 365.009 63.6989 365.009 60.6324H362.122C362.122 64.1135 362.948 66.9903 364.865 68.9783L366.934 66.9502ZM365.009 60.6324V34.0332H362.122V60.6324H365.009ZM363.566 35.4882H375.711V32.5782H363.566V35.4882ZM374.268 34.0332V57.8361H377.155V34.0332H374.268ZM374.268 57.8361C374.268 59.3477 374.552 60.749 375.357 61.7966C376.217 62.9144 377.474 63.3833 378.858 63.3833V60.4733C378.144 60.4733 377.828 60.2601 377.64 60.0139C377.395 59.6973 377.155 59.0524 377.155 57.8361H374.268ZM378.858 63.3833C381.043 63.3833 382.673 62.153 383.722 60.152L381.168 58.7938C380.502 60.0667 379.74 60.4733 378.858 60.4733V63.3833ZM383.714 60.166C384.754 58.2305 385.208 55.6949 385.208 52.6867H382.321C382.321 55.4532 381.895 57.4417 381.176 58.7799L383.714 60.166ZM385.208 52.6867V34.0332H382.321V52.6867H385.208ZM383.764 35.4882H395.91V32.5782H383.764V35.4882ZM401.02 69.8398H399.576V71.2948H401.02V69.8398ZM401.02 34.0332V32.5782H399.576V34.0332H401.02ZM412.896 34.0332L414.339 34.0575L414.363 32.5782H412.896V34.0332ZM411.067 42.1834L409.724 41.652L409.243 42.8901L410.423 43.4849L411.067 42.1834ZM411.745 42.5244L411.1 43.8258L412.434 44.4986L413.058 43.1316L411.745 42.5244ZM433.364 69.8398V71.2948H434.808V69.8398H433.364ZM421.219 69.8398H419.775V71.2948H421.219V69.8398ZM414.451 44.4L413.183 43.707L413.175 43.7208L414.451 44.4ZM413.165 69.8398V71.2948H414.609V69.8398H413.165ZM402.464 69.8398V34.0332H399.576V69.8398H402.464ZM401.02 35.4882H412.896V32.5782H401.02V35.4882ZM411.452 34.009C411.431 35.2921 411.304 36.4443 411.079 37.4717L413.899 38.097C414.17 36.8509 414.314 35.5024 414.339 34.0575L411.452 34.009ZM411.079 37.4717C410.854 38.5014 410.411 39.8874 409.724 41.652L412.413 42.7149C413.123 40.8875 413.627 39.3407 413.899 38.097L411.079 37.4717ZM410.423 43.4849L411.1 43.8258L412.39 41.2231L411.714 40.882L410.423 43.4849ZM413.058 43.1316C414.388 40.2129 415.954 38.1682 417.706 36.8792L416.002 34.5291C413.739 36.1956 411.901 38.6978 410.432 41.9172L413.058 43.1316ZM417.706 36.8792C419.444 35.5998 421.496 34.9425 423.925 34.9425V32.0325C420.941 32.0325 418.279 32.8531 416.002 34.5291L417.706 36.8792ZM423.925 34.9425C426.883 34.9425 428.808 35.6921 429.996 36.9229L432.065 34.8948C430.14 32.897 427.328 32.0325 423.925 32.0325V34.9425ZM429.996 36.9229C431.191 38.1633 431.92 40.1741 431.92 43.2407H434.808C434.808 39.7595 433.982 36.8825 432.065 34.8948L429.996 36.9229ZM431.92 43.2407V69.8398H434.808V43.2407H431.92ZM433.364 68.3848H421.219V71.2948H433.364V68.3848ZM422.662 69.8398V46.037H419.775V69.8398H422.662ZM422.662 46.037C422.662 44.5253 422.377 43.1241 421.573 42.0765C420.712 40.9586 419.456 40.4897 418.072 40.4897V43.3997C418.786 43.3997 419.101 43.613 419.29 43.8591C419.534 44.1756 419.775 44.8204 419.775 46.037H422.662ZM418.072 40.4897C415.891 40.4897 414.253 41.7151 413.183 43.707L415.721 45.093C416.411 43.8112 417.186 43.3997 418.072 43.3997V40.4897ZM413.175 43.7208C412.163 45.6523 411.722 48.1822 411.722 51.1863H414.609C414.609 48.4158 415.025 46.4215 415.729 45.0792L413.175 43.7208ZM411.722 51.1863V69.8398H414.609V51.1863H411.722ZM413.165 68.3848H401.02V71.2948H413.165V68.3848Z" fill="black"/>
<path d="M10.2855 30.9339L43.3074 34.8898L76.194 30.9339L77.8181 30.6611L78.4947 32.1615L84.9908 47.439L85.9382 49.8945L83.5022 50.44L56.435 56.9875L54.9464 57.2603L54.1343 56.169L43.3074 40.7551L32.3452 56.169L31.5332 57.3967L30.0446 56.9875L2.97732 50.44L0.54126 49.8945L1.62395 47.439L8.12008 32.1615L8.66142 30.6611L10.2855 30.9339ZM6.49604 46.7571L29.6384 52.3498L39.3826 38.709L11.3681 35.4353L6.49604 46.7571ZM73.6227 56.8511L77.9535 55.7599V80.995L43.3074 89.725L8.66142 80.995V55.7599L12.9922 56.8511V77.5849L41.1421 84.6779V54.805H45.4728V84.6779L73.6227 77.5849V56.8511ZM75.1113 35.4353L47.0969 38.709L56.8409 52.3498L79.9835 46.7571L75.1113 35.4353Z" fill="black"/>
<path fill-rule="evenodd" clip-rule="evenodd" d="M78.5869 31.0761C76.2483 14.1066 61.7324 0.970215 44.27 0.970215C26.6831 0.970215 12.2698 14.1075 9.9502 31.0778L14.2456 31.5726C14.4485 30.0896 14.7576 28.6249 15.1728 27.1602H27.4882C27.2126 29.1062 27.0617 31.0522 26.9932 33.0409L31.3085 33.538C31.3682 31.3758 31.5203 29.268 31.819 27.1602H56.5855C56.8783 29.2251 57.1006 31.2901 57.202 33.4062L61.5081 32.937C61.398 30.9843 61.1873 29.0723 60.9163 27.1602H73.232C73.6452 28.6179 73.9882 30.0756 74.2255 31.5512L78.5869 31.0761ZM52.5256 13.2468C53.8789 15.9749 55.0969 19.1122 55.7736 22.7952H32.6311C33.3078 19.1122 34.5258 15.9749 35.8791 13.2468C38.7213 7.38131 41.9693 5.33521 44.27 5.33521C46.4354 5.33521 49.6834 7.38131 52.5256 13.2468ZM60.2397 22.7952C59.0217 16.3841 56.721 10.7915 53.8789 6.97209C61.7283 9.70021 68.0891 15.4293 71.6078 22.7952H60.2397ZM16.7968 22.7952C20.3156 15.4293 26.6764 9.70021 34.5258 6.97209C31.6837 10.7915 29.383 16.3841 28.165 22.7952H16.7968Z" fill="black"/>
</svg>
