<svg width="60" height="102" viewBox="0 0 60 102" fill="none" xmlns="http://www.w3.org/2000/svg">
<path d="M39 73H31V65H23V49H27V41H41V25H25V41H17V48H9V41H1V17H7V9H19V1H35V9H47V17H59V41H54V49H47V57H39V73Z" fill="#272727"/>
<path d="M39 77H31V81H23V97H31V101H39V97H47V81H39V77Z" fill="#272727"/>
<path d="M39 73H31V65H23V49H27V41H41V25H25V41H17V48H9V41H1V17H7V9H19V1H35V9H47V17H59V41H54V49H47V57H39V73Z" stroke="white" stroke-width="2"/>
<path d="M39 77H31V81H23V97H31V101H39V97H47V81H39V77Z" stroke="white" stroke-width="2"/>
</svg>
