<svg width="169" height="110" viewBox="0 0 169 110" fill="none" xmlns="http://www.w3.org/2000/svg">
<path d="M111.455 45.1084H114.612V56.9078H119.866V59.434H111.456L111.455 45.1084Z" fill="#0D64AB"/>
<path d="M126.292 45.1084H129.817L135.07 59.434H131.638L130.717 56.5844H125.12L124.151 59.434H120.903L126.292 45.1084ZM129.886 54.0556L128.688 50.3743C128.411 49.5231 128.135 48.6966 127.973 48.0304H127.928C127.742 48.6746 127.467 49.549 127.19 50.3743L125.946 54.0556H129.886Z" fill="#0D64AB"/>
<path d="M137.146 45.1084H142.605C145.714 45.1084 147.396 46.5817 147.396 48.7651C147.396 50.536 146.314 51.6173 145.138 51.9381V51.9834C146.681 52.3301 147.833 53.4114 147.833 55.2728C147.833 57.8921 145.851 59.4327 142.741 59.4327H137.146V45.1084ZM142.19 50.9512C143.618 50.9512 144.216 50.307 144.216 49.2024C144.216 48.2128 143.593 47.5699 142.211 47.5699H140.298V50.9499L142.19 50.9512ZM142.257 56.975C143.663 56.975 144.424 56.3296 144.424 55.0645C144.424 53.7775 143.709 53.11 142.282 53.11H140.3V56.975H142.257Z" fill="#0D64AB"/>
<path d="M150 58.8116V56.0758C151.037 56.5583 152.372 57.0408 153.755 57.0408C155.344 57.0408 156.151 56.4923 156.151 55.433C156.151 54.1912 155.068 54.0554 152.903 53.1098C151.427 52.4449 150.022 51.4101 150.022 49.0172C150.022 46.2361 152.118 44.9258 155.021 44.9258C156.565 44.9258 157.878 45.2918 158.615 45.57V48.2372C157.878 47.8905 156.565 47.4766 155.25 47.4766C153.822 47.4766 153.155 48.0069 153.155 48.9266C153.155 49.8916 153.961 50.1904 155.412 50.7427C157.277 51.6857 159.442 52.0996 159.442 55.3178C159.442 58.0989 157.254 59.6175 154.329 59.6175C152.534 59.6175 151.106 59.2967 150 58.8116Z" fill="#0D64AB"/>
<path d="M92.4257 59.434C88.0812 45.3568 79.3846 28.2928 74.3662 18.6445C79.0385 18.977 82.7272 19.4931 86.732 20.5628C86.7787 30.105 91.6973 46.4446 92.4257 59.434Z" fill="#27B4B3"/>
<path d="M9.93047 67.2052V61.4245C11.9031 62.3687 14.3475 63.3065 17.0083 63.3065C19.8415 63.3065 21.0845 62.3661 21.0845 60.823C21.0845 58.7689 19.2402 58.7262 15.1212 56.9269C12.4189 55.7718 9.8877 53.7177 9.8877 49.2642C9.8877 43.869 13.9638 41.3867 19.5408 41.3867C22.5011 41.3867 24.904 42.0283 26.4048 42.5845V48.2358C25.0323 47.5943 22.5425 46.7794 20.0554 46.7794C17.6097 46.7794 16.4951 47.5943 16.4951 49.0068C16.4951 50.5486 17.9532 51.1061 20.4416 52.0038C24.5178 53.4603 28.0794 55.0449 28.0794 60.5242C28.0794 65.9608 23.7881 68.7444 18.2124 68.7444C14.7337 68.7483 12.0729 68.1494 9.93047 67.2052Z" fill="#0D64AB"/>
<path d="M74.6653 59.4059V47.4513C63.2366 40.0149 50.9304 32.2448 41.3018 25.3271C37.4253 28.8468 34.6063 34.8293 33.353 41.7508H40.0434V59.4215C41.9628 59.4189 44.1817 59.4163 46.6054 59.4137V41.7508H56.3453C66.1696 41.7508 69.7714 48.1744 69.7714 55.0675C69.7714 56.5136 69.5834 57.9986 69.2024 59.4033C71.0402 59.4033 72.8677 59.4033 74.6653 59.4059Z" fill="#0D64AB"/>
<path d="M85.5253 59.4163C83.9454 59.4137 82.2955 59.4111 80.5846 59.4085V68.4255H74.6668V59.4059C72.8665 59.4033 71.0417 59.4033 69.2038 59.4033C67.8754 64.2747 64.0429 68.4255 56.2172 68.4255H46.6068V59.4163C44.1832 59.4188 41.9643 59.4214 40.0448 59.424V68.4255H33.3545C34.8761 78.4826 38.8602 85.3369 48.3811 88.4827C60.7729 79.6713 76.2234 72.9476 87.9904 63.3679L85.5253 59.4163Z" fill="#E75625"/>
<path d="M87.9877 63.3682C76.2245 72.9479 60.7702 79.6716 48.3784 88.4829C51.6925 89.6911 55.2761 90.4465 59.3471 90.9613C68.4883 82.7449 80.0363 74.9697 88.6707 64.4676L87.9877 63.3682Z" fill="#E47D36"/>
<path d="M91.6986 68.4252H91.14L88.6723 64.4658C80.0378 74.9652 68.4898 82.7444 59.3486 90.9569C70.246 92.24 80.7312 92.1159 89.3462 89.1382C88.5271 82.3253 90.5529 75.9716 91.6986 68.4252Z" fill="#642B80"/>
<path d="M95.3339 68.4258H91.6984C90.5514 75.9721 88.527 82.3258 89.3448 89.1426C94.008 87.4831 96.9488 85.4134 99.5967 81.7049C97.0175 76.6344 96.3241 72.6698 95.3339 68.4258Z" fill="#34A9CC"/>
<path d="M98.3059 67.3623V68.423H95.334C96.3268 72.667 97.0176 76.6342 99.5968 81.7021C101.015 79.7114 102.216 77.1542 103.078 74.5077C100.858 71.5714 99.567 69.4138 98.3059 67.3623Z" fill="white"/>
<path d="M105.743 49.3643C102.55 50.8751 100.773 53.585 98.3057 55.9133V67.3609C99.5667 69.4124 100.858 71.5699 103.078 74.5023C105.508 66.9042 106.111 58.6103 105.743 49.3643Z" fill="#0E8F46"/>
<path d="M105.49 45.6074C102.343 47.8788 100.606 51.2549 98.3057 54.2882V55.9141C100.773 53.5832 102.55 50.8746 105.743 49.3651C105.683 47.9888 105.614 46.9384 105.49 45.6074Z" fill="white"/>
<path d="M104.55 39.2627C101.685 42.4667 100.107 46.5865 98.3057 50.5356V54.2855C100.606 51.2522 102.343 47.8762 105.49 45.6061C105.282 43.389 104.979 41.2676 104.55 39.2627Z" fill="#E75625"/>
<path d="M98.3057 50.5363C100.109 46.5872 101.685 42.4674 104.55 39.2634C104.467 38.8598 104.494 38.9982 104.406 38.6011C103.305 33.8397 101.685 30.2619 98.8902 27.2402C96.9409 31.3808 96.1386 36.4888 95.501 41.7508H98.3057V50.0112V50.5363Z" fill="#1F3560"/>
<path d="M95.5012 41.7502C96.1389 36.4895 96.9412 31.3802 98.8905 27.2396C97.7305 25.9824 96.4124 24.8971 94.9064 23.958C93.355 28.8384 93.2655 35.1947 93.2681 41.7502H95.5012Z" fill="#54B172"/>
<path d="M92.7846 41.7508C92.6018 34.9431 92.4878 28.3539 93.881 23.3519C93.5648 23.1773 93.6737 23.2329 93.3522 23.0635C92.0458 28.1198 92.2687 34.8241 92.5448 41.7495L92.7846 41.7508Z" fill="#1F3560"/>
<path d="M92.3825 41.7511H92.5445C92.2658 34.8256 92.0429 28.1214 93.3493 23.065C92.7039 22.7274 91.8083 22.3122 91.1019 22.0225C89.7955 29.6684 91.8537 41.297 92.3825 51.9064V41.7511Z" fill="#54B172"/>
<path d="M92.3825 55.2809V51.9062C91.8537 41.2981 89.7955 29.6695 91.102 22.0222C89.6944 21.444 88.3219 20.99 86.7329 20.5645C86.7783 30.1054 91.6969 46.445 92.4266 59.4331C92.3423 58.2366 92.3825 56.3946 92.3825 55.2809Z" fill="#0D64AB"/>
<path d="M92.4255 59.4341C88.081 45.3569 79.3844 28.2929 74.366 18.6446C71.1077 18.4144 68.2732 18.3484 65.02 18.4351C73.2423 27.932 84.198 43.5576 91.281 57.186C91.7243 58.0035 92.1287 58.7951 92.4255 59.4341Z" fill="#E47D36"/>
<path d="M65.0202 18.4365C64.5575 18.452 63.9419 18.4714 63.4805 18.4921C69.0069 24.5328 75.6039 32.9536 81.6073 41.7507H81.7421L83.5268 44.6055L83.5294 44.6068L89.3216 53.8761C89.3267 53.8838 89.3319 53.8916 89.3371 53.8994L90.0655 55.0661C90.4699 55.7297 90.8911 56.4657 91.2812 57.1849C84.1982 43.5591 73.2425 27.9322 65.0202 18.4365Z" fill="#642B80"/>
<path d="M81.6113 41.7508C75.604 32.9523 69.007 24.5316 63.4844 18.4922C62.5655 18.5323 62.1093 18.5582 61.2085 18.6241C67.1951 24.7178 74.2327 33.0571 80.6599 41.7521L81.6113 41.7508Z" fill="#34A9CC"/>
<path d="M80.6569 41.751C74.2297 33.056 67.192 24.7168 61.2055 18.623C59.3975 18.7524 57.7955 18.9257 56.1016 19.1857C62.9863 25.3661 70.9273 33.4208 78.2644 41.751H80.6569Z" fill="#0E8F46"/>
<path d="M74.6655 41.7508H78.2621C70.9289 33.4206 62.9879 25.3659 56.1018 19.1855C53.1455 19.6396 50.7983 20.1971 48.3345 21.1258C56.3805 27.4989 65.8094 35.1358 74.6642 42.8438L74.6655 41.7508Z" fill="white"/>
<path d="M74.6654 42.844C65.8106 35.136 56.3817 27.4991 48.3357 21.126C46.5782 21.7883 44.984 22.5902 43.5454 23.5604C52.7475 30.4095 64.0998 38.2663 74.6667 45.929L74.6654 42.844Z" fill="#E75625"/>
<path d="M74.6655 45.9282C64.0999 38.2655 52.7463 30.4087 43.5442 23.5596C43.2565 23.7536 43.3524 23.6889 43.0737 23.8881C52.3692 30.7618 63.9198 38.6134 74.6655 46.2412V45.9282Z" fill="#1F3560"/>
<path d="M93.2681 41.7504C93.2655 35.1949 93.3537 28.8399 94.9064 23.9582C94.6083 23.7694 94.1948 23.5262 93.8812 23.3516C92.4892 28.3523 92.6032 34.9427 92.7847 41.7504H93.2681Z" fill="white"/>
<path d="M85.5252 59.4159L82.8164 55.0658C82.0919 53.9263 81.252 52.5344 80.6779 51.3923C80.6066 51.2487 80.521 51.0922 80.4575 50.9551C80.4627 51.0508 80.4627 51.1556 80.4705 51.2539C80.5158 52.3922 80.5871 53.7077 80.5871 54.8498V59.4056C82.2954 59.4107 83.9452 59.4133 85.5252 59.4159Z" fill="#0D64AB"/>
<path d="M74.6652 46.2418C63.9195 38.6153 52.3689 30.7624 43.0709 23.8887C42.5071 24.2922 41.802 24.8679 41.3018 25.3283C50.9303 32.246 63.2365 40.0149 74.6652 47.4525V46.2418Z" fill="#54B172"/>
<path d="M62.092 59.4053C59.08 59.4053 56.1184 59.4079 53.3008 59.4104V62.9417H55.5741C59.299 62.943 61.2003 61.5577 62.092 59.4053Z" fill="#E75625"/>
<path d="M55.832 47.1455H53.3008V59.4106C56.1184 59.408 59.08 59.4054 62.092 59.4054C62.5962 58.1856 62.7828 56.6916 62.7828 55.067C62.7828 50.528 61.4492 47.1455 55.832 47.1455Z" fill="#0D64AB"/>
<path d="M74.6655 45.929V42.844V41.751H78.2621H80.6573H81.6086H81.7447L83.5216 44.5967L89.3241 53.8776C89.3267 53.8841 89.3345 53.8918 89.3371 53.8996L90.0654 55.0664C90.4698 55.7299 90.8911 56.4659 91.2812 57.1851C91.7244 58.0039 92.1288 58.7942 92.4256 59.4332C92.3426 58.2329 92.3854 56.3935 92.3854 55.2811V51.9063V41.751H92.5448H92.7859H93.2693H95.5051H98.3072V50.0113V50.5365V54.2864V55.9136V67.3612V68.4218H95.3353H91.6998H91.1399L88.6722 64.4624L87.9891 63.3629L85.5266 59.4113L82.8178 55.0612C82.0933 53.9216 81.2561 52.5298 80.6819 51.3876C80.608 51.244 80.5251 51.0875 80.4616 50.9504C80.4642 51.0461 80.4667 51.1509 80.4745 51.2492C80.5173 52.3875 80.5886 53.703 80.5886 54.8452V59.4009V68.418H74.6707V59.3983V47.445V46.2343V45.9264H74.6655V45.929Z" fill="white"/>
<path d="M40.0434 41.752H33.353V68.4254H40.0434V41.752Z" fill="white"/>
<path d="M56.3482 41.751H46.6069V59.4164V68.4257H56.2173C64.0404 68.4257 67.8729 64.2748 69.2027 59.4035C69.5876 57.9987 69.7716 56.5138 69.7716 55.0676C69.7716 48.1745 66.1698 41.751 56.3482 41.751ZM62.0924 59.4061C61.2007 61.5585 59.3007 62.9425 55.5745 62.9425H53.3011V59.4113V47.1462H55.8324C61.4496 47.1462 62.7832 50.5287 62.7832 55.0676C62.7832 56.6936 62.5953 58.1863 62.0924 59.4061Z" fill="white"/>
</svg>
