<svg width="513" height="128" viewBox="0 0 513 128" fill="none" xmlns="http://www.w3.org/2000/svg">
<path d="M64 0L119.426 32V96L64 128L8.57438 96V32L64 0Z" fill="#F15A24"/>
<path d="M88.7516 63.1879L101 56.2638V43.721L64.603 64.2663V76.8092L76.0968 70.3107V70.3107L88.7516 63.1879V63.1879Z" fill="white"/>
<path d="M96.6503 44.0027L99.8972 42.1839L88.794 36L63.8916 49.8789C63.6596 50.0188 63.3697 50.0188 63.1088 49.8789L38.2064 36L27.1032 42.1559L63.5147 62.4706L96.6503 44.0027Z" fill="white"/>
<path d="M26 43.721V83.4268L29.6571 81.3827L37.0875 77.2385V63.5739C37.0875 63.1539 37.4358 62.8179 37.8711 62.8179C38.0162 62.8179 38.1323 62.8459 38.2484 62.9019L50.9032 69.9582V69.9582L62.397 76.3425V63.9659L27.132 44.337L26 43.721Z" fill="white"/>
<path d="M30.7364 83.0775L27.1032 85.0813L38.147 91.1474L49.162 85.0813L45.1539 82.8854L38.147 79.0151L30.7364 83.0775Z" fill="white"/>
<path d="M50.265 70.9263L39.2356 64.6763V77.1763L50.265 83.4263V70.9263Z" fill="white"/>
<path d="M88.8674 76.8086L93.9357 74.0089L99.8968 70.7425L88.8674 64.6763L77.8379 70.7425L88.8674 76.8086Z" fill="white"/>
<path d="M89.9704 78.6473V91.1472L101 84.8973V72.3973L89.9704 78.6473Z" fill="white"/>
<path d="M76.7354 84.8973L87.7648 91.1472V78.6473L76.7354 72.3973V84.8973Z" fill="white"/>
<path d="M162.052 55.192H164.212V35.608H162.052V32.8H172.24C173.44 32.8 174.496 32.968 175.408 33.304C176.344 33.64 177.124 34.096 177.748 34.672C178.396 35.248 178.876 35.944 179.188 36.76C179.524 37.552 179.692 38.416 179.692 39.352V39.784C179.692 40.48 179.584 41.116 179.368 41.692C179.152 42.268 178.852 42.784 178.468 43.24C178.084 43.696 177.628 44.092 177.1 44.428C176.596 44.74 176.044 44.98 175.444 45.148V45.58C176.644 45.916 177.652 46.564 178.468 47.524C179.284 48.46 179.692 49.612 179.692 50.98V51.412C179.692 52.348 179.524 53.224 179.188 54.04C178.876 54.832 178.396 55.528 177.748 56.128C177.124 56.704 176.344 57.16 175.408 57.496C174.496 57.832 173.44 58 172.24 58H162.052V55.192ZM167.236 55.192H172.024C173.44 55.192 174.592 54.844 175.48 54.148C176.368 53.428 176.812 52.444 176.812 51.196V50.98C176.812 49.684 176.392 48.664 175.552 47.92C174.712 47.152 173.572 46.768 172.132 46.768H167.236V55.192ZM167.236 43.96H172.132C173.572 43.96 174.712 43.588 175.552 42.844C176.392 42.1 176.812 41.08 176.812 39.784V39.568C176.812 38.344 176.368 37.384 175.48 36.688C174.592 35.968 173.44 35.608 172.024 35.608H167.236V43.96ZM197.919 40.144H200.727V58H197.919V54.76H197.487C196.911 55.912 196.155 56.824 195.219 57.496C194.283 58.168 193.095 58.504 191.655 58.504C190.671 58.504 189.759 58.336 188.919 58C188.103 57.688 187.395 57.208 186.795 56.56C186.219 55.912 185.763 55.108 185.427 54.148C185.115 53.188 184.959 52.072 184.959 50.8V40.144H187.767V50.44C187.767 52.312 188.151 53.68 188.919 54.544C189.687 55.408 190.863 55.84 192.447 55.84C194.151 55.84 195.483 55.264 196.443 54.112C197.427 52.936 197.919 51.376 197.919 49.432V40.144ZM206.21 40.144H212.69V42.52H213.122C213.578 41.536 214.226 40.816 215.066 40.36C215.906 39.88 216.866 39.64 217.946 39.64C219.746 39.64 221.198 40.228 222.302 41.404C223.406 42.58 223.994 44.296 224.066 46.552L221.114 46.984C221.114 45.328 220.718 44.14 219.926 43.42C219.134 42.676 218.162 42.304 217.01 42.304C216.266 42.304 215.618 42.448 215.066 42.736C214.538 43.024 214.094 43.42 213.734 43.924C213.374 44.428 213.11 45.016 212.942 45.688C212.774 46.36 212.69 47.08 212.69 47.848V55.408H217.226V58H205.778V55.408H209.882V42.736H206.21V40.144ZM231.313 49.936C231.385 51.712 231.937 53.14 232.969 54.22C234.001 55.3 235.441 55.84 237.289 55.84C238.129 55.84 238.861 55.744 239.485 55.552C240.109 55.36 240.637 55.096 241.069 54.76C241.525 54.424 241.885 54.04 242.149 53.608C242.437 53.152 242.665 52.672 242.833 52.168L245.497 52.888C244.993 54.544 244.057 55.9 242.689 56.956C241.345 57.988 239.521 58.504 237.217 58.504C235.945 58.504 234.769 58.288 233.689 57.856C232.633 57.4 231.721 56.764 230.953 55.948C230.185 55.132 229.585 54.16 229.153 53.032C228.721 51.904 228.505 50.656 228.505 49.288V48.424C228.505 47.176 228.721 46.012 229.153 44.932C229.609 43.852 230.233 42.928 231.025 42.16C231.817 41.368 232.741 40.756 233.797 40.324C234.877 39.868 236.041 39.64 237.289 39.64C238.753 39.64 240.013 39.916 241.069 40.468C242.149 40.996 243.025 41.656 243.697 42.448C244.393 43.24 244.897 44.104 245.209 45.04C245.545 45.976 245.713 46.84 245.713 47.632V49.936H231.313ZM237.289 42.304C236.497 42.304 235.753 42.436 235.057 42.7C234.385 42.94 233.785 43.288 233.257 43.744C232.753 44.2 232.333 44.74 231.997 45.364C231.685 45.964 231.481 46.624 231.385 47.344H242.905C242.857 46.576 242.665 45.88 242.329 45.256C242.017 44.632 241.597 44.104 241.069 43.672C240.565 43.24 239.977 42.904 239.305 42.664C238.657 42.424 237.985 42.304 237.289 42.304ZM264.264 54.976H263.832C263.256 56.176 262.452 57.064 261.42 57.64C260.412 58.216 259.344 58.504 258.216 58.504C257.04 58.504 255.948 58.312 254.94 57.928C253.932 57.52 253.044 56.932 252.276 56.164C251.532 55.372 250.944 54.412 250.512 53.284C250.08 52.156 249.864 50.848 249.864 49.36V48.784C249.864 47.32 250.08 46.024 250.512 44.896C250.944 43.768 251.532 42.82 252.276 42.052C253.044 41.26 253.932 40.66 254.94 40.252C255.948 39.844 257.016 39.64 258.144 39.64C259.368 39.64 260.472 39.916 261.456 40.468C262.464 40.996 263.256 41.824 263.832 42.952H264.264V40.144H267.072V54.328C267.072 55.048 267.396 55.408 268.044 55.408H268.944V58H267.036C266.22 58 265.548 57.736 265.02 57.208C264.516 56.68 264.264 56.008 264.264 55.192V54.976ZM258.504 55.84C259.344 55.84 260.112 55.684 260.808 55.372C261.528 55.06 262.14 54.616 262.644 54.04C263.148 53.464 263.544 52.78 263.832 51.988C264.12 51.172 264.264 50.272 264.264 49.288V48.856C264.264 47.896 264.12 47.02 263.832 46.228C263.544 45.412 263.136 44.716 262.608 44.14C262.104 43.564 261.492 43.12 260.772 42.808C260.076 42.472 259.32 42.304 258.504 42.304C257.664 42.304 256.896 42.46 256.2 42.772C255.504 43.084 254.892 43.528 254.364 44.104C253.86 44.656 253.464 45.34 253.176 46.156C252.888 46.948 252.744 47.824 252.744 48.784V49.36C252.744 51.4 253.272 52.996 254.328 54.148C255.408 55.276 256.8 55.84 258.504 55.84ZM286.091 40.144H288.899V58H286.091V54.76H285.659C285.083 55.912 284.327 56.824 283.391 57.496C282.455 58.168 281.267 58.504 279.827 58.504C278.843 58.504 277.931 58.336 277.091 58C276.275 57.688 275.567 57.208 274.967 56.56C274.391 55.912 273.935 55.108 273.599 54.148C273.287 53.188 273.131 52.072 273.131 50.8V40.144H275.939V50.44C275.939 52.312 276.323 53.68 277.091 54.544C277.859 55.408 279.035 55.84 280.619 55.84C282.323 55.84 283.655 55.264 284.615 54.112C285.599 52.936 286.091 51.376 286.091 49.432V40.144ZM160.792 72.8H169.144L170.584 91.736V95.408H171.448V91.736L172.888 72.8H181.24V98H176.92V81.152L177.352 75.392H176.488L174.616 98H167.488L165.544 75.392H164.68L165.112 81.152V98H160.792V72.8ZM202.347 89.288C202.347 90.776 202.095 92.096 201.591 93.248C201.087 94.376 200.403 95.336 199.539 96.128C198.675 96.896 197.679 97.484 196.551 97.892C195.447 98.3 194.283 98.504 193.059 98.504C191.835 98.504 190.659 98.3 189.531 97.892C188.427 97.484 187.443 96.896 186.579 96.128C185.715 95.336 185.031 94.376 184.527 93.248C184.023 92.096 183.771 90.776 183.771 89.288V88.856C183.771 87.392 184.023 86.096 184.527 84.968C185.031 83.816 185.715 82.844 186.579 82.052C187.443 81.26 188.427 80.66 189.531 80.252C190.659 79.844 191.835 79.64 193.059 79.64C194.283 79.64 195.447 79.844 196.551 80.252C197.679 80.66 198.675 81.26 199.539 82.052C200.403 82.844 201.087 83.816 201.591 84.968C202.095 86.096 202.347 87.392 202.347 88.856V89.288ZM193.059 94.184C193.707 94.184 194.319 94.076 194.895 93.86C195.471 93.644 195.975 93.332 196.407 92.924C196.839 92.516 197.175 92.024 197.415 91.448C197.679 90.848 197.811 90.176 197.811 89.432V88.712C197.811 87.968 197.679 87.308 197.415 86.732C197.175 86.132 196.839 85.628 196.407 85.22C195.975 84.812 195.471 84.5 194.895 84.284C194.319 84.068 193.707 83.96 193.059 83.96C192.411 83.96 191.799 84.068 191.223 84.284C190.647 84.5 190.143 84.812 189.711 85.22C189.279 85.628 188.931 86.132 188.667 86.732C188.427 87.308 188.307 87.968 188.307 88.712V89.432C188.307 90.176 188.427 90.848 188.667 91.448C188.931 92.024 189.279 92.516 189.711 92.924C190.143 93.332 190.647 93.644 191.223 93.86C191.799 94.076 192.411 94.184 193.059 94.184ZM210.89 90.548C210.914 91.076 211.034 91.568 211.25 92.024C211.49 92.456 211.802 92.84 212.186 93.176C212.594 93.488 213.05 93.74 213.554 93.932C214.082 94.1 214.634 94.184 215.21 94.184C216.338 94.184 217.202 93.992 217.802 93.608C218.402 93.2 218.834 92.72 219.098 92.168L222.986 94.328C222.77 94.784 222.47 95.264 222.086 95.768C221.702 96.248 221.198 96.692 220.574 97.1C219.974 97.508 219.23 97.844 218.342 98.108C217.478 98.372 216.458 98.504 215.282 98.504C213.938 98.504 212.714 98.288 211.61 97.856C210.506 97.424 209.546 96.8 208.73 95.984C207.938 95.168 207.314 94.172 206.858 92.996C206.426 91.82 206.21 90.488 206.21 89V88.784C206.21 87.416 206.438 86.168 206.894 85.04C207.374 83.912 208.022 82.952 208.838 82.16C209.654 81.368 210.602 80.756 211.682 80.324C212.786 79.868 213.962 79.64 215.21 79.64C216.746 79.64 218.066 79.916 219.17 80.468C220.274 80.996 221.186 81.68 221.906 82.52C222.626 83.336 223.154 84.248 223.49 85.256C223.826 86.24 223.994 87.2 223.994 88.136V90.548H210.89ZM215.174 83.744C214.022 83.744 213.086 84.044 212.366 84.644C211.646 85.22 211.178 85.892 210.962 86.66H219.386C219.242 85.82 218.786 85.124 218.018 84.572C217.274 84.02 216.326 83.744 215.174 83.744ZM229.261 93.68H235.309V84.464H229.693V80.144H239.845V93.68H245.029V98H229.261V93.68ZM240.961 74.852C240.961 75.332 240.865 75.788 240.673 76.22C240.505 76.628 240.265 76.988 239.953 77.3C239.641 77.588 239.269 77.828 238.837 78.02C238.429 78.188 237.997 78.272 237.541 78.272C237.061 78.272 236.617 78.188 236.209 78.02C235.801 77.828 235.441 77.588 235.129 77.3C234.817 76.988 234.565 76.628 234.373 76.22C234.205 75.788 234.121 75.332 234.121 74.852C234.121 74.372 234.205 73.928 234.373 73.52C234.565 73.088 234.817 72.728 235.129 72.44C235.441 72.128 235.801 71.888 236.209 71.72C236.617 71.528 237.061 71.432 237.541 71.432C237.997 71.432 238.429 71.528 238.837 71.72C239.269 71.888 239.641 72.128 239.953 72.44C240.265 72.728 240.505 73.088 240.673 73.52C240.865 73.928 240.961 74.372 240.961 74.852ZM250.872 93.68H257.136V77.12H251.088V72.8H261.672V93.68H267.504V98H250.872V93.68ZM273.347 93.68H279.395V84.464H273.779V80.144H283.931V93.68H289.115V98H273.347V93.68ZM285.047 74.852C285.047 75.332 284.951 75.788 284.759 76.22C284.591 76.628 284.351 76.988 284.039 77.3C283.727 77.588 283.355 77.828 282.923 78.02C282.515 78.188 282.083 78.272 281.627 78.272C281.147 78.272 280.703 78.188 280.295 78.02C279.887 77.828 279.527 77.588 279.215 77.3C278.903 76.988 278.651 76.628 278.459 76.22C278.291 75.788 278.207 75.332 278.207 74.852C278.207 74.372 278.291 73.928 278.459 73.52C278.651 73.088 278.903 72.728 279.215 72.44C279.527 72.128 279.887 71.888 280.295 71.72C280.703 71.528 281.147 71.432 281.627 71.432C282.083 71.432 282.515 71.528 282.923 71.72C283.355 71.888 283.727 72.128 284.039 72.44C284.351 72.728 284.591 73.088 284.759 73.52C284.951 73.928 285.047 74.372 285.047 74.852ZM296.794 80.144H308.242V101.528C308.242 102.776 307.906 103.7 307.234 104.3C306.562 104.9 305.686 105.2 304.606 105.2H296.146V100.88H302.626C303.346 100.88 303.706 100.484 303.706 99.692V84.464H296.794V80.144ZM309.322 74.852C309.322 75.332 309.226 75.788 309.034 76.22C308.866 76.628 308.626 76.988 308.314 77.3C308.002 77.588 307.63 77.828 307.198 78.02C306.79 78.188 306.358 78.272 305.902 78.272C305.422 78.272 304.978 78.188 304.57 78.02C304.162 77.828 303.802 77.588 303.49 77.3C303.178 76.988 302.926 76.628 302.734 76.22C302.566 75.788 302.482 75.332 302.482 74.852C302.482 74.372 302.566 73.928 302.734 73.52C302.926 73.088 303.178 72.728 303.49 72.44C303.802 72.128 304.162 71.888 304.57 71.72C304.978 71.528 305.422 71.432 305.902 71.432C306.358 71.432 306.79 71.528 307.198 71.72C307.63 71.888 308.002 72.128 308.314 72.44C308.626 72.728 308.866 73.088 309.034 73.52C309.226 73.928 309.322 74.372 309.322 74.852ZM323.085 86.696H323.949L328.701 80.144H333.669V80.36L327.909 88.532V89.18L334.245 97.784V98H329.061L323.949 91.016H323.085V98H318.549V72.8H323.085V86.696ZM343.148 90.548C343.172 91.076 343.292 91.568 343.508 92.024C343.748 92.456 344.06 92.84 344.444 93.176C344.852 93.488 345.308 93.74 345.812 93.932C346.34 94.1 346.892 94.184 347.468 94.184C348.596 94.184 349.46 93.992 350.06 93.608C350.66 93.2 351.092 92.72 351.356 92.168L355.244 94.328C355.028 94.784 354.728 95.264 354.344 95.768C353.96 96.248 353.456 96.692 352.832 97.1C352.232 97.508 351.488 97.844 350.6 98.108C349.736 98.372 348.716 98.504 347.54 98.504C346.196 98.504 344.972 98.288 343.868 97.856C342.764 97.424 341.804 96.8 340.988 95.984C340.196 95.168 339.572 94.172 339.116 92.996C338.684 91.82 338.468 90.488 338.468 89V88.784C338.468 87.416 338.696 86.168 339.152 85.04C339.632 83.912 340.28 82.952 341.096 82.16C341.912 81.368 342.86 80.756 343.94 80.324C345.044 79.868 346.22 79.64 347.468 79.64C349.004 79.64 350.324 79.916 351.428 80.468C352.532 80.996 353.444 81.68 354.164 82.52C354.884 83.336 355.412 84.248 355.748 85.256C356.084 86.24 356.252 87.2 356.252 88.136V90.548H343.148ZM347.432 83.744C346.28 83.744 345.344 84.044 344.624 84.644C343.904 85.22 343.436 85.892 343.22 86.66H351.644C351.5 85.82 351.044 85.124 350.276 84.572C349.532 84.02 348.584 83.744 347.432 83.744ZM382.086 72.8H391.23C394.35 72.8 396.666 73.532 398.178 74.996C399.69 76.436 400.446 78.68 400.446 81.728V89.072C400.446 92.12 399.69 94.376 398.178 95.84C396.666 97.28 394.35 98 391.23 98H382.086V93.428H384.462V77.336H382.086V72.8ZM391.23 93.464C392.886 93.464 394.038 93.08 394.686 92.312C395.358 91.52 395.694 90.296 395.694 88.64V81.728C395.694 80.288 395.358 79.196 394.686 78.452C394.038 77.708 392.886 77.336 391.23 77.336H389.214V93.464H391.23ZM405.605 93.68H411.653V84.464H406.037V80.144H416.189V93.68H421.373V98H405.605V93.68ZM417.305 74.852C417.305 75.332 417.209 75.788 417.017 76.22C416.849 76.628 416.609 76.988 416.297 77.3C415.985 77.588 415.613 77.828 415.181 78.02C414.773 78.188 414.341 78.272 413.885 78.272C413.405 78.272 412.961 78.188 412.553 78.02C412.145 77.828 411.785 77.588 411.473 77.3C411.161 76.988 410.909 76.628 410.717 76.22C410.549 75.788 410.465 75.332 410.465 74.852C410.465 74.372 410.549 73.928 410.717 73.52C410.909 73.088 411.161 72.728 411.473 72.44C411.785 72.128 412.145 71.888 412.553 71.72C412.961 71.528 413.405 71.432 413.885 71.432C414.341 71.432 414.773 71.528 415.181 71.72C415.613 71.888 415.985 72.128 416.297 72.44C416.609 72.728 416.849 73.088 417.017 73.52C417.209 73.928 417.305 74.372 417.305 74.852ZM431.86 98H427.324V80.144H431.86V82.808H432.508C432.916 81.8 433.576 81.02 434.488 80.468C435.4 79.916 436.468 79.64 437.692 79.64C438.556 79.64 439.36 79.784 440.104 80.072C440.872 80.336 441.544 80.756 442.12 81.332C442.696 81.908 443.14 82.64 443.452 83.528C443.788 84.416 443.956 85.472 443.956 86.696V98H439.42V87.848C439.42 86.576 439.108 85.58 438.484 84.86C437.884 84.116 437.008 83.744 435.856 83.744C434.512 83.744 433.504 84.2 432.832 85.112C432.184 86 431.86 87.2 431.86 88.712V98ZM462.111 95.408H461.463C461.271 95.816 461.031 96.212 460.743 96.596C460.479 96.956 460.119 97.28 459.663 97.568C459.231 97.856 458.703 98.084 458.079 98.252C457.479 98.42 456.747 98.504 455.883 98.504C454.779 98.504 453.747 98.312 452.787 97.928C451.851 97.52 451.023 96.932 450.303 96.164C449.607 95.372 449.055 94.412 448.647 93.284C448.263 92.156 448.071 90.86 448.071 89.396V88.748C448.071 87.308 448.275 86.024 448.683 84.896C449.115 83.768 449.691 82.82 450.411 82.052C451.155 81.26 452.007 80.66 452.967 80.252C453.951 79.844 454.983 79.64 456.063 79.64C457.503 79.64 458.643 79.916 459.483 80.468C460.323 80.996 460.983 81.752 461.463 82.736H462.111V80.144H466.647V102.392C466.647 103.208 466.383 103.88 465.855 104.408C465.351 104.936 464.691 105.2 463.875 105.2H451.851V100.88H461.139C461.787 100.88 462.111 100.52 462.111 99.8V95.408ZM457.359 94.184C458.775 94.184 459.915 93.74 460.779 92.852C461.667 91.94 462.111 90.752 462.111 89.288V88.856C462.111 87.392 461.667 86.216 460.779 85.328C459.915 84.416 458.775 83.96 457.359 83.96C455.943 83.96 454.791 84.404 453.903 85.292C453.039 86.156 452.607 87.344 452.607 88.856V89.288C452.607 90.8 453.039 92 453.903 92.888C454.791 93.752 455.943 94.184 457.359 94.184ZM475.406 90.548C475.43 91.076 475.55 91.568 475.766 92.024C476.006 92.456 476.318 92.84 476.702 93.176C477.11 93.488 477.566 93.74 478.07 93.932C478.598 94.1 479.15 94.184 479.726 94.184C480.854 94.184 481.718 93.992 482.318 93.608C482.918 93.2 483.35 92.72 483.614 92.168L487.502 94.328C487.286 94.784 486.986 95.264 486.602 95.768C486.218 96.248 485.714 96.692 485.09 97.1C484.49 97.508 483.746 97.844 482.858 98.108C481.994 98.372 480.974 98.504 479.798 98.504C478.454 98.504 477.23 98.288 476.126 97.856C475.022 97.424 474.062 96.8 473.246 95.984C472.454 95.168 471.83 94.172 471.374 92.996C470.942 91.82 470.726 90.488 470.726 89V88.784C470.726 87.416 470.954 86.168 471.41 85.04C471.89 83.912 472.538 82.952 473.354 82.16C474.17 81.368 475.118 80.756 476.198 80.324C477.302 79.868 478.478 79.64 479.726 79.64C481.262 79.64 482.582 79.916 483.686 80.468C484.79 80.996 485.702 81.68 486.422 82.52C487.142 83.336 487.67 84.248 488.006 85.256C488.342 86.24 488.51 87.2 488.51 88.136V90.548H475.406ZM479.69 83.744C478.538 83.744 477.602 84.044 476.882 84.644C476.162 85.22 475.694 85.892 475.478 86.66H483.902C483.758 85.82 483.302 85.124 482.534 84.572C481.79 84.02 480.842 83.744 479.69 83.744ZM497.989 98H493.453V80.144H497.989V82.808H498.637C499.045 81.8 499.705 81.02 500.617 80.468C501.529 79.916 502.597 79.64 503.821 79.64C504.685 79.64 505.489 79.784 506.233 80.072C507.001 80.336 507.673 80.756 508.249 81.332C508.825 81.908 509.269 82.64 509.581 83.528C509.917 84.416 510.085 85.472 510.085 86.696V98H505.549V87.848C505.549 86.576 505.237 85.58 504.613 84.86C504.013 84.116 503.137 83.744 501.985 83.744C500.641 83.744 499.633 84.2 498.961 85.112C498.313 86 497.989 87.2 497.989 88.712V98Z" fill="black"/>
</svg>
