<svg width="75" height="57" viewBox="0 0 75 57" fill="none" xmlns="http://www.w3.org/2000/svg">
<path d="M8.64499 26.153C6.72599 25.458 5.60099 25.028 5.60099 23.836C5.60099 22.744 6.46099 22.114 8.34799 22.114C10.267 22.114 12.188 22.744 13.247 23.24V18.87C12.088 18.441 10.235 17.944 7.95099 17.944C3.64799 17.944 0.502991 19.863 0.502991 24.034C0.502991 27.476 2.45599 29.065 4.54099 29.958C7.71899 31.348 9.14199 31.381 9.14199 32.97C9.14199 34.162 8.18199 34.889 5.99699 34.889C3.94399 34.889 2.05799 34.162 0.534991 33.434V37.903C2.18999 38.632 4.24299 39.094 6.92399 39.094C11.227 39.094 14.538 36.943 14.538 32.739C14.537 28.503 11.79 27.279 8.64499 26.153Z" fill="black"/>
<path d="M74.461 24.111C74.414 23.049 74.361 22.236 74.266 21.207C74.107 19.492 73.872 17.853 73.542 16.303C73.476 15.992 73.499 16.097 73.429 15.79C72.581 12.11 71.33 9.34301 69.174 7.00701C68.28 6.03501 67.261 5.19701 66.099 4.46901C65.869 4.32301 65.551 4.13601 65.308 4.00101C65.065 3.86501 65.149 3.90901 64.9 3.77801C64.402 3.51701 63.71 3.19501 63.166 2.97201C62.08 2.52401 61.021 2.17401 59.795 1.84501C56.705 1.01801 53.858 0.618009 50.254 0.362009C47.74 0.183009 45.551 0.133009 43.042 0.200009C42.684 0.211009 42.211 0.226008 41.855 0.242008C41.146 0.273008 40.796 0.293009 40.099 0.344009C38.704 0.445009 37.468 0.578009 36.161 0.779009C33.879 1.13001 32.069 1.56201 30.167 2.27901C28.811 2.79101 27.581 3.41101 26.471 4.16101C26.249 4.31101 26.323 4.26101 26.107 4.41501C25.673 4.72601 25.128 5.17101 24.741 5.52801C21.749 8.24801 19.574 12.874 18.608 18.225H23.769V31.885V38.845H18.608C19.782 46.62 22.857 51.919 30.201 54.35C32.758 55.285 35.524 55.868 38.664 56.266C47.072 57.259 55.163 57.162 61.808 54.861C65.407 53.577 67.675 51.978 69.719 49.111C70.812 47.571 71.741 45.595 72.405 43.546C74.28 37.671 74.744 31.258 74.461 24.111ZM28.833 38.847V31.882V18.226H36.348C43.927 18.226 46.707 23.192 46.707 28.521C46.707 29.638 46.563 30.787 46.267 31.873C45.243 35.638 42.286 38.848 36.248 38.848L28.833 38.847ZM68.722 38.847H66.43H63.626H63.194L61.289 35.786L60.761 34.936L58.862 31.881L56.772 28.519C56.214 27.639 55.566 26.561 55.123 25.68C55.067 25.568 55.001 25.447 54.953 25.342C54.956 25.416 54.957 25.497 54.963 25.573C54.997 26.453 55.051 27.471 55.051 28.354V31.876V38.847H50.484V31.873V22.633V21.698V19.071V18.226H53.26H55.108H55.843H55.856H55.946L57.323 20.433L61.794 27.6C61.798 27.605 61.801 27.611 61.805 27.617L62.367 28.52C62.678 29.033 63.003 29.602 63.304 30.159L63.305 30.16C63.647 30.79 63.96 31.404 64.188 31.897C64.124 30.969 64.156 29.547 64.156 28.686V26.078V18.227H64.28H64.466H64.839H66.562H68.725V24.613V25.019V27.92V29.176V38.027V38.847H68.722Z" fill="black"/>
<path d="M40.781 31.873C41.171 30.93 41.314 29.776 41.314 28.52C41.314 25.012 40.286 22.396 35.95 22.396H33.997V31.876V34.609H35.752C38.626 34.61 40.094 33.538 40.781 31.873Z" fill="black"/>
</svg>
