0
SECTION
2
HEADER
9
$INSUNITS
70
4
9
$ACADVER
1
AC1014
9
$HANDSEED
5
FFFF
0
ENDSEC
0
SECTION
2
TABLES
0
TABLE
2
VPORT
5
8
100
AcDbSymbolTable
0
ENDTAB
0
TABLE
2
LTYPE
5
5
100
AcDbSymbolTable
0
LTYPE
5
14
100
AcDbSymbolTableRecord
100
AcDbLinetypeTableRecord
2
BYBLOCK
70
0
0
LTYPE
5
15
100
AcDbSymbolTableRecord
100
AcDbLinetypeTableRecord
2
BYLAYER
70
0
0
ENDTAB
0
TABLE
2
LAYER
5
2
100
AcDbSymbolTable
70
2
0
LAYER
5
50
100
AcDbSymbolTableRecord
100
AcDbLayerTableRecord
2
0
70
0
6
CONTINUOUS
0
ENDTAB
0
TABLE
2
STYLE
5
3
100
AcDbSymbolTable
70
1
0
STYLE
5
11
100
AcDbSymbolTableRecord
100
AcDbTextStyleTableRecord
2
STANDARD
70
0
0
ENDTAB
0
TABLE
2
VIEW
5
6
100
AcDbSymbolTable
70
0
0
ENDTAB
0
TABLE
2
UCS
5
7
100
AcDbSymbolTable
70
0
0
ENDTAB
0
TABLE
2
APPID
5
9
100
AcDbSymbolTable
70
2
0
APPID
5
12
100
AcDbSymbolTableRecord
100
AcDbRegAppTableRecord
2
ACAD
70
0
0
ENDTAB
0
TABLE
2
DIMSTYLE
5
A
100
AcDbSymbolTable
70
1
0
ENDTAB
0
TABLE
2
BLOCK_RECORD
5
1
100
AcDbSymbolTable
70
1
0
BLOCK_RECORD
5
1F
100
AcDbSymbolTableRecord
100
AcDbBlockTableRecord
2
*MODEL_SPACE
0
BLOCK_RECORD
5
1B
100
AcDbSymbolTableRecord
100
AcDbBlockTableRecord
2
*PAPER_SPACE
0
ENDTAB
0
ENDSEC
0
SECTION
2
BLOCKS
0
BLOCK
5
20
100
AcDbEntity
100
AcDbBlockBegin
2
*MODEL_SPACE
0
ENDBLK
5
21
100
AcDbEntity
100
AcDbBlockEnd
0
BLOCK
5
1C
100
AcDbEntity
100
AcDbBlockBegin
2
*PAPER_SPACE
0
ENDBLK
5
1D
100
AcDbEntity
100
AcDbBlockEnd
0
ENDSEC
0
SECTION
2
ENTITIES
0
LWPOLYLINE
5
100
100
AcDbEntity
8
0
100
AcDbPolyline
90
8
70
1
43
0.0
10
762
20
1513.8643481492306
42
0.99999999999999989
10
764.86434814923041
20
1511.0000000000002
10
849.13565185076948
20
1511.0000000000002
42
0.99999999999999989
10
852
20
1513.8643481492306
10
851.99999999999989
20
1562.1356518507696
42
0.99999999999999989
10
849.13565185076948
20
1565
10
764.86434814923041
20
1565
42
0.99999999999999989
10
762
20
1562.1356518507696
0
LWPOLYLINE
5
101
100
AcDbEntity
8
0
100
AcDbPolyline
90
32
70
1
43
0.0
10
1066.8643481492304
20
1530.2
42
0.99999999999999989
10
1064
20
1527.3356518507696
10
1064
20
1352.6643481492306
42
0.99999999999999989
10
1066.8643481492304
20
1349.8000000000002
10
1099.8
20
1349.8000000000002
10
1099.8
20
1314.2000000000003
10
1066.8643481492306
20
1314.2000000000003
42
0.99999999999999989
10
1064
20
1311.3356518507699
10
1064
20
1242.0000000000002
10
135.99999999999989
20
1242.0000000000002
10
135.99999999999994
20
1311.3356518507699
42
0.99999999999999989
10
133.13565185076939
20
1314.2000000000003
10
100.19999999999996
20
1314.2000000000003
10
100.19999999999996
20
1349.8000000000002
10
133.13565185076945
20
1349.8000000000002
42
0.99999999999999989
10
135.99999999999994
20
1352.6643481492306
10
135.99999999999997
20
1527.3356518507696
42
0.99999999999999989
10
133.13565185076948
20
1530.2
10
100.19999999999996
20
1530.2
10
100.19999999999996
20
1565.8000000000002
10
133.13565185076948
20
1565.8000000000002
42
0.99999999999999989
10
135.99999999999994
20
1568.6643481492306
10
135.99999999999989
20
1638
10
251.00000000000009
20
1638
10
251
20
1584
42
0.99999999999999989
10
301
20
1584
10
300.99999999999994
20
1638
10
1064
20
1638
10
1064
20
1568.6643481492306
42
0.99999999999999989
10
1066.8643481492304
20
1565.8000000000002
10
1099.8
20
1565.8000000000002
10
1099.8
20
1530.2
0
LWPOLYLINE
5
102
100
AcDbEntity
8
0
100
AcDbPolyline
90
8
70
1
43
0.0
10
578.58403335816229
20
1542.1140127850904
42
0.99999999999999989
10
580.74260857726972
20
1538.6862535077407
10
593.09902220003528
20
1535.8789452097847
42
0.99999999999999989
10
596.5267814773847
20
1538.0375204288919
10
599.33408977534077
20
1550.3939340516577
42
0.99999999999999989
10
597.17551455623345
20
1553.8216933290073
10
584.81910093346801
20
1556.6290016269631
42
0.99999999999999989
10
581.39134165611836
20
1554.4704264078559
0
LWPOLYLINE
5
103
100
AcDbEntity
8
0
100
AcDbPolyline
90
8
70
1
43
0.0
10
765.78149031758937
20
1392.7705210078627
42
0.99999999999999989
10
769.01660304168911
20
1390.3326887120786
10
781.56459048665033
20
1392.0961933414285
42
0.99999999999999989
10
784.00242278243445
20
1395.3313060655282
10
782.23891815308457
20
1407.8792935104889
42
0.99999999999999989
10
779.00380542898483
20
1410.3171258062732
10
766.45581798402372
20
1408.5536211769236
42
0.99999999999999989
10
764.01798568823949
20
1405.3185084528241
0
LWPOLYLINE
5
104
100
AcDbEntity
8
0
100
AcDbPolyline
90
8
70
1
43
0.0
10
367.58590708426379
20
1336.8077813654452
42
0.99999998946328772
10
370.8210198083633
20
1334.3699490696611
10
383.36900725332447
20
1336.1334536990107
42
0.99999999999999989
10
385.80683954910876
20
1339.3685664231107
10
384.04333491975882
20
1351.9165538680722
42
0.99999999999999989
10
380.80822219565914
20
1354.3543861638564
10
368.26023475069809
20
1352.5908815345063
42
0.99999999999999989
10
365.82240245491386
20
1349.3557688104065
0
LWPOLYLINE
5
105
100
AcDbEntity
8
0
100
AcDbPolyline
90
8
70
1
43
0.0
10
813.7493143690856
20
1488.6857717980138
42
0.99999998946328772
10
815.90788958819246
20
1485.2580125206641
10
828.26430321095813
20
1482.4507042227083
42
0.99999999999999989
10
831.69206248830756
20
1484.6092794418155
10
834.49937078626351
20
1496.9656930645808
42
0.99999999999999989
10
832.34079556715631
20
1500.3934523419302
10
819.98438194439075
20
1503.2007606398863
42
0.99999999999999989
10
816.5566226670411
20
1501.0421854207789
0
CIRCLE
5
106
100
AcDbEntity
8
0
100
AcDbCircle
10
968
20
1580.0000000000002
30
0
40
1.4999999999999858
210
0
220
0
230
1
0
CIRCLE
5
107
100
AcDbEntity
8
0
100
AcDbCircle
10
888
20
1580.0000000000002
30
0
40
1.4999999999999858
210
0
220
0
230
1
0
CIRCLE
5
108
100
AcDbEntity
8
0
100
AcDbCircle
10
887.99999999999977
20
1420.0000000000002
30
0
40
1.5000000000000213
210
0
220
0
230
1
0
CIRCLE
5
109
100
AcDbEntity
8
0
100
AcDbCircle
10
924
20
1296.0000000000002
30
0
40
25
210
0
220
0
230
1
0
LWPOLYLINE
5
110
100
AcDbEntity
8
0
100
AcDbPolyline
90
28
70
1
43
0.0
10
1030.6643481492304
20
1668
42
0.99999999999999989
10
1027.8
20
1665.1356518507696
10
1027.8
20
1650.2
10
992.20000000000005
20
1650.1999999999998
10
992.20000000000005
20
1665.1356518507696
42
0.99999999999999989
10
989.33565185076964
20
1668
10
210.66434814923045
20
1668
42
0.99999999999999989
10
207.80000000000001
20
1665.1356518507696
10
207.80000000000001
20
1650.2
10
172.20000000000005
20
1650.1999999999998
10
172.20000000000005
20
1665.1356518507696
42
0.99999999999999989
10
169.33565185076964
20
1668
10
118.00000000000004
20
1667.9999999999998
10
118.00000000000004
20
1732
10
187.33565185076966
20
1732
42
0.99999999999999989
10
190.2000000000001
20
1734.8643481492304
10
190.2000000000001
20
1749.8
10
225.80000000000007
20
1749.8000000000002
10
225.80000000000007
20
1734.8643481492304
42
0.99999999999999989
10
228.66434814923039
20
1732
10
971.33565185076941
20
1732
42
0.99999999999999989
10
974.19999999999982
20
1734.8643481492304
10
974.19999999999982
20
1749.8
10
1009.8
20
1749.8000000000002
10
1009.8
20
1734.8643481492304
42
0.99999999999999989
10
1012.6643481492304
20
1732
10
1082
20
1732.0000000000002
10
1082
20
1668
0
LWPOLYLINE
5
111
100
AcDbEntity
8
0
100
AcDbPolyline
90
28
70
1
43
0.0
10
1030.6643481492304
20
1793
42
0.99999999999999989
10
1027.8
20
1790.1356518507696
10
1027.8
20
1775.2
10
992.20000000000005
20
1775.1999999999998
10
992.20000000000005
20
1790.1356518507696
42
0.99999999999999989
10
989.33565185076964
20
1793
10
210.66434814923045
20
1793
42
0.99999999999999989
10
207.80000000000001
20
1790.1356518507696
10
207.80000000000001
20
1775.2
10
172.20000000000005
20
1775.1999999999998
10
172.20000000000005
20
1790.1356518507696
42
0.99999999999999989
10
169.33565185076964
20
1793
10
118.00000000000004
20
1792.9999999999998
10
118.00000000000004
20
1857
10
187.33565185076966
20
1857
42
0.99999999999999989
10
190.2000000000001
20
1859.8643481492304
10
190.2000000000001
20
1874.8
10
225.80000000000007
20
1874.8000000000002
10
225.80000000000007
20
1859.8643481492304
42
0.99999999999999989
10
228.66434814923039
20
1857
10
971.33565185076941
20
1857
42
0.99999999999999989
10
974.19999999999982
20
1859.8643481492304
10
974.19999999999982
20
1874.8
10
1009.8
20
1874.8000000000002
10
1009.8
20
1859.8643481492304
42
0.99999999999999989
10
1012.6643481492304
20
1857
10
1082
20
1857.0000000000002
10
1082
20
1793
0
LWPOLYLINE
5
112
100
AcDbEntity
8
0
100
AcDbPolyline
90
28
70
1
43
0.0
10
1079.3356518507696
20
1928.8
42
0.99999999999999989
10
1082.2
20
1931.6643481492304
10
1082.2
20
1945
10
1100
20
1945
10
1100
20
1895
10
1082.2
20
1895
10
1082.2
20
1908.3356518507696
42
0.99999999999999989
10
1079.3356518507696
20
1911.2
10
1066.6643481492304
20
1911.2
42
0.99999999999999989
10
1063.8
20
1908.3356518507696
10
1063.8
20
1895
10
136.19999999999999
20
1895
10
136.20000000000002
20
1908.3356518507696
42
0.99999999999999989
10
133.33565185076958
20
1911.2
10
120.66434814923039
20
1911.2
42
0.99999999999999989
10
117.79999999999994
20
1908.3356518507696
10
117.79999999999994
20
1895
10
100
20
1895
10
100
20
1945
10
117.79999999999994
20
1945
10
117.7999999999999
20
1931.6643481492304
42
0.99999999999999989
10
120.66434814923035
20
1928.8
10
133.33565185076952
20
1928.8
42
0.99999999999999989
10
136.19999999999999
20
1931.6643481492304
10
136.1999999999999
20
1945
10
1063.8
20
1945
10
1063.8
20
1931.6643481492304
42
0.99999999999999989
10
1066.6643481492304
20
1928.8
0
LWPOLYLINE
5
113
100
AcDbEntity
8
0
100
AcDbPolyline
90
28
70
1
43
0.0
10
513.77334814923051
20
1975
42
0.99999999999999989
10
510.90899999999999
20
1972.1356518507696
10
510.90900000000005
20
1957.2
10
493.30899999999997
20
1957.2
10
493.30899999999991
20
1972.1356518507696
42
0.99999999999999989
10
490.44465185076945
20
1975
10
111.66434814923049
20
1975
42
0.99999999999999989
10
108.80000000000003
20
1972.1356518507696
10
108.80000000000003
20
1957.2
10
91.199999999999974
20
1957.2
10
91.199999999999989
20
1972.1356518507696
42
0.99999999999999989
10
88.335651850769523
20
1975
10
72.999999999999972
20
1975
10
72.999999999999972
20
2025
10
88.335651850769509
20
2025
42
0.99999999999999989
10
91.199999999999974
20
2027.8643481492304
10
91.199999999999974
20
2042.8
10
108.80000000000003
20
2042.8
10
108.80000000000001
20
2027.8643481492304
42
0.99999999999999989
10
111.66434814923043
20
2025
10
490.44465185076945
20
2025
42
0.99999999999999989
10
493.30899999999997
20
2027.8643481492304
10
493.30899999999997
20
2042.8
10
510.90899999999999
20
2042.8
10
510.90900000000005
20
2027.8643481492304
42
0.99999999999999989
10
513.77334814923051
20
2025
10
727
20
2025
10
727
20
1975
0
LWPOLYLINE
5
114
100
AcDbEntity
8
0
100
AcDbPolyline
90
28
70
1
43
0.0
10
166.95884814923045
20
2075
42
0.99999999999999989
10
164.09449999999995
20
2072.1356518507696
10
164.09449999999995
20
2057.1999999999998
10
146.49449999999996
20
2057.1999999999998
10
146.49449999999996
20
2072.1356518507696
42
0.99999999999999989
10
143.63015185076947
20
2075
10
110.29449999999997
20
2075
10
110.29449999999997
20
2125
10
143.63015185076944
20
2125
42
0.99999999999999989
10
146.49449999999996
20
2127.8643481492304
10
146.49449999999996
20
2142.8000000000002
10
164.09449999999995
20
2142.8000000000002
10
164.09449999999995
20
2127.8643481492304
42
0.99999999999999989
10
166.95884814923045
20
2125
10
384.78815185076951
20
2125
42
0.99999999999999989
10
387.65249999999992
20
2127.8643481492304
10
387.65249999999992
20
2142.8000000000002
10
405.25249999999994
20
2142.8000000000002
10
405.2525
20
2127.8643481492304
42
0.99999999999999989
10
408.11684814923046
20
2125
10
689.70550000000003
20
2125
10
689.70550000000003
20
2075
10
408.11684814923041
20
2075
42
0.99999999999999989
10
405.25249999999994
20
2072.1356518507696
10
405.25249999999994
20
2057.1999999999998
10
387.65249999999992
20
2057.1999999999998
10
387.65249999999992
20
2072.1356518507696
42
0.99999999999999989
10
384.78815185076945
20
2075
0
LWPOLYLINE
5
115
100
AcDbEntity
8
0
100
AcDbPolyline
90
8
70
1
43
0.0
10
568.66434814923059
20
2261.1999999999998
42
0.99999999999999989
10
565.80000000000007
20
2258.3356518507699
10
565.80000000000018
20
2245.6643481492306
42
0.99999999999999989
10
568.6643481492307
20
2242.8000000000002
10
599.33565185076964
20
2242.8000000000002
42
0.99999999999999989
10
602.20000000000016
20
2245.6643481492306
10
602.20000000000005
20
2258.3356518507699
42
0.99999999999999989
10
599.33565185076964
20
2261.1999999999998
0
LWPOLYLINE
5
116
100
AcDbEntity
8
0
100
AcDbPolyline
90
8
70
1
43
0.0
10
131.33565185076964
20
2242.8000000000002
42
0.99999999999999989
10
134.20000000000005
20
2245.6643481492306
10
134.20000000000005
20
2258.3356518507699
42
0.99999999999999989
10
131.33565185076961
20
2261.1999999999998
10
100.66434814923055
20
2261.1999999999998
42
0.99999999999999989
10
97.80000000000004
20
2258.3356518507699
10
97.799999999999997
20
2245.6643481492306
42
0.99999999999999989
10
100.66434814923053
20
2242.7999999999997
0
CIRCLE
5
117
100
AcDbEntity
8
0
100
AcDbCircle
10
187.99999999999997
20
2225
30
0
40
24.000000000000004
210
0
220
-0
230
1
0
CIRCLE
5
118
100
AcDbEntity
8
0
100
AcDbCircle
10
296
20
2225
30
0
40
24.000000000000004
210
0
220
-0
230
1
0
LWPOLYLINE
5
119
100
AcDbEntity
8
0
100
AcDbPolyline
90
4
70
1
43
0.0
10
80
20
2171
10
620
20
2171
10
620
20
2279
10
80
20
2279
0
LWPOLYLINE
5
120
100
AcDbEntity
8
0
100
AcDbPolyline
90
8
70
1
43
0.0
10
1128.6643481492306
20
2261.1999999999998
42
0.99999999999999989
10
1125.8000000000002
20
2258.3356518507699
10
1125.8
20
2245.6643481492306
42
0.99999999999999989
10
1128.6643481492306
20
2242.8000000000002
10
1159.3356518507694
20
2242.8000000000002
42
0.99999998946328772
10
1162.2
20
2245.6643481492306
10
1162.2
20
2258.3356518507699
42
0.99999999999999989
10
1159.3356518507696
20
2261.1999999999998
0
LWPOLYLINE
5
121
100
AcDbEntity
8
0
100
AcDbPolyline
90
8
70
1
43
0.0
10
691.33565185076964
20
2242.8000000000002
42
0.99999998946328772
10
694.200000021341
20
2245.6643481278893
10
694.20000000000005
20
2258.3356518507699
42
0.99999999999999989
10
691.33565185076941
20
2261.1999999999998
10
660.66434814923036
20
2261.1999999999998
42
0.99999999999999989
10
657.79999999999995
20
2258.3356518507699
10
657.79999999999984
20
2245.6643481492306
42
0.99999999999999989
10
660.66434814923059
20
2242.7999999999997
0
CIRCLE
5
122
100
AcDbEntity
8
0
100
AcDbCircle
10
748
20
2225
30
0
40
24.000000000000004
210
0
220
-0
230
1
0
CIRCLE
5
123
100
AcDbEntity
8
0
100
AcDbCircle
10
856
20
2225
30
0
40
24.000000000000004
210
0
220
-0
230
1
0
LWPOLYLINE
5
124
100
AcDbEntity
8
0
100
AcDbPolyline
90
4
70
1
43
0.0
10
640
20
2171
10
1180
20
2171
10
1180
20
2279
10
640
20
2279
0
LWPOLYLINE
5
125
100
AcDbEntity
8
0
100
AcDbPolyline
90
8
70
1
43
0.0
10
1688.6643481492308
20
2261.1999999999998
42
0.99999999999999989
10
1685.8000000000004
20
2258.3356518507699
10
1685.8000000000004
20
2245.6643481492306
42
0.99999999999999989
10
1688.6643481492308
20
2242.8000000000002
10
1719.3356518507699
20
2242.8000000000002
42
0.99999999999999989
10
1722.2000000000003
20
2245.6643481492306
10
1722.2000000000003
20
2258.3356518507699
42
0.99999999999999989
10
1719.3356518507699
20
2261.1999999999998
0
LWPOLYLINE
5
126
100
AcDbEntity
8
0
100
AcDbPolyline
90
8
70
1
43
0.0
10
1251.3356518507699
20
2242.8000000000002
42
0.99999998946328772
10
1254.2000000213411
20
2245.6643481278893
10
1254.2000000000003
20
2258.3356518507699
42
0.99999999999999989
10
1251.3356518507699
20
2261.1999999999998
10
1220.6643481492306
20
2261.1999999999998
42
0.99999999999999989
10
1217.8000000000002
20
2258.3356518507699
10
1217.8000000000002
20
2245.6643481492306
42
0.99999998946328772
10
1220.6643481492306
20
2242.7999999999997
0
CIRCLE
5
127
100
AcDbEntity
8
0
100
AcDbCircle
10
1308
20
2225
30
0
40
24.000000000000004
210
0
220
-0
230
1
0
CIRCLE
5
128
100
AcDbEntity
8
0
100
AcDbCircle
10
1416.0000000000002
20
2225
30
0
40
24.000000000000004
210
0
220
-0
230
1
0
LWPOLYLINE
5
129
100
AcDbEntity
8
0
100
AcDbPolyline
90
4
70
1
43
0.0
10
1200.0000000000002
20
2171
10
1740
20
2171
10
1740
20
2279
10
1200
20
2279
0
LWPOLYLINE
5
130
100
AcDbEntity
8
0
100
AcDbPolyline
90
8
70
1
43
0.0
10
1589.5411000000026
20
2006.0369014102384
42
0.99999999999999989
10
1593.5919000000026
20
2006.0369014102384
10
1602.5518647738352
20
2014.9968661840705
42
0.99999999999999989
10
1602.5518647738354
20
2019.0476661840703
10
1593.5919000000031
20
2028.0076309579033
42
0.99999999999999989
10
1589.5411000000031
20
2028.0076309579031
10
1580.5811352261705
20
2019.0476661840707
42
0.99999999999999989
10
1580.5811352261703
20
2014.9968661840712
0
LWPOLYLINE
5
131
100
AcDbEntity
8
0
100
AcDbPolyline
90
8
70
1
43
0.0
10
1219.4188647738358
20
2014.9968661840749
42
0.99999999999999989
10
1219.4188647738356
20
2019.0476661840748
10
1210.4589000000033
20
2028.0076309579072
42
0.99999999999999989
10
1206.4081000000031
20
2028.0076309579072
10
1197.4481352261707
20
2019.0476661840751
42
0.99999999999999989
10
1197.4481352261707
20
2014.9968661840753
10
1206.4081000000031
20
2006.0369014102423
42
0.99999999999999989
10
1210.458900000003
20
2006.0369014102425
0
LWPOLYLINE
5
132
100
AcDbEntity
8
0
100
AcDbPolyline
90
8
70
1
43
0.0
10
1593.5918999999988
20
1293.9630985897579
42
0.99999999999999989
10
1589.5410999999988
20
1293.9630985897579
10
1580.5811352261662
20
1285.0031338159256
42
0.99999999999999989
10
1580.5811352261662
20
1280.9523338159256
10
1589.5410999999988
20
1271.9923690420931
42
0.99999999999999989
10
1593.5918999999988
20
1271.9923690420931
10
1602.5518647738313
20
1280.9523338159256
42
0.99999999999999989
10
1602.5518647738313
20
1285.0031338159256
0
LWPOLYLINE
5
133
100
AcDbEntity
8
0
100
AcDbPolyline
90
40
70
1
43
0.0
10
1210.1760572875241
20
1322.9040572875242
42
0.99999999999999989
10
1210.1760572875241
20
1318.8532572875242
10
1246.0515807591232
20
1282.9777338159256
10
1208.4334999999987
20
1245.3596530568016
10
1172.5579765283999
20
1281.2351765284004
42
0.99999999999999989
10
1168.5071765283999
20
1281.2351765284004
10
1157.5218117545676
20
1270.2498117545676
10
1132.0659676318517
20
1295.7056558772833
10
1132.0659676318558
20
2004.294344122718
10
1157.5218117545719
20
2029.7501882454335
10
1168.5071765284042
20
2018.7648234716007
42
0.99999999999999989
10
1172.5579765284042
20
2018.7648234716007
10
1208.4335000000035
20
2054.6403469431989
10
1246.0515807591275
20
2017.0222661840744
10
1210.176057287528
20
1981.146742712476
42
0.99999999999999989
10
1210.176057287528
20
1977.095942712476
10
1258.2490496641974
20
1929.022950335805
42
0.41421356237293855
10
1260.8953622932579
20
1927.9268117545691
10
1539.104637706746
20
1927.9268117545662
42
0.41421356237311729
10
1541.7509503358065
20
1929.0229503358023
10
1589.823942712477
20
1977.0959427124717
42
0.99999999999999989
10
1589.8239427124772
20
1981.1467427124717
10
1553.9484192408784
20
2017.0222661840712
10
1591.5665000000033
20
2054.6403469431948
10
1627.4420234716017
20
2018.7648234715953
42
0.99999999999999989
10
1631.4928234716022
20
2018.7648234715957
10
1642.4781882454342
20
2029.7501882454278
10
1667.9340323681499
20
2004.2943441227117
10
1667.9340323681458
20
1295.7056558772831
10
1642.4781882454299
20
1270.2498117545674
10
1631.4928234715976
20
1281.2351765284002
42
0.99999999999999989
10
1627.4420234715976
20
1281.2351765284002
10
1591.5664999999988
20
1245.3596530568011
10
1553.948419240874
20
1282.9777338159256
10
1589.8239427124734
20
1318.8532572875242
42
0.99999999999999989
10
1589.8239427124734
20
1322.9040572875247
10
1541.7509503358033
20
1370.9770496641943
42
0.41421356237314877
10
1539.1046377067428
20
1372.0731882454306
10
1260.8953622932547
20
1372.0731882454309
42
0.41421356237309825
10
1258.249049664194
20
1370.9770496641943
0
LWPOLYLINE
5
134
100
AcDbEntity
8
0
100
AcDbPolyline
90
8
70
1
43
0.0
10
1219.4188647738313
20
1280.9523338159256
42
0.99999999999999989
10
1219.4188647738313
20
1285.0031338159256
10
1210.4588999999989
20
1293.9630985897579
42
0.99999999999999989
10
1206.408099999999
20
1293.9630985897579
10
1197.4481352261664
20
1285.0031338159256
42
0.99999999999999989
10
1197.4481352261664
20
1280.9523338159256
10
1206.408099999999
20
1271.9923690420931
42
0.99999999999999989
10
1210.4588999999989
20
1271.9923690420931
0
LWPOLYLINE
5
135
100
AcDbEntity
8
0
100
AcDbPolyline
90
20
70
1
43
0.0
10
1196.7146952022404
20
1388.7506526183281
42
0.66817863791941856
10
1200.3852362619268
20
1389.4807686300746
10
1236.9776558772828
20
1426.0731882454306
10
1563.0223441227149
20
1426.0731882454306
10
1599.6147637380709
20
1389.4807686300742
42
0.66817863791939947
10
1603.2853047977571
20
1388.7506526183279
10
1611.8548378771768
20
1392.3002694430284
42
0.66817863791917431
10
1613.9340323681461
20
1395.4120038999149
10
1613.9340323681424
20
1904.587996100071
42
0.66817863792146537
10
1611.8548378771798
20
1907.6997305569673
10
1603.2853047977601
20
1911.249347381668
42
0.66817863791941778
10
1599.6147637380741
20
1910.5192313699217
10
1563.0223441227176
20
1873.9268117545657
10
1236.9776558772851
20
1873.9268117545694
10
1200.3852362619295
20
1910.519231369926
42
0.66817863791916421
10
1196.7146952022435
20
1911.2493473816726
10
1188.1451621228236
20
1907.6997305569721
42
0.66817863791979715
10
1186.0659676318555
20
1904.5879961000842
10
1186.0659676318517
20
1395.4120038999149
42
0.66817863791926624
10
1188.1451621228207
20
1392.3002694430284
0
LWPOLYLINE
5
136
100
AcDbEntity
8
0
100
AcDbPolyline
90
20
70
1
43
0.0
10
2035.0073497249227
20
1364.8416009471953
42
0.99999999999999989
10
2031.772237000823
20
1362.4037686514112
10
2029.6935960178914
20
1347.613469537753
10
1994.4400527706916
20
1352.5680319319313
10
1996.5186937536232
20
1367.3583310455892
42
0.99999999999999989
10
1994.0808614578391
20
1370.5934437696892
10
1856.7590973514398
20
1389.892759120007
42
0.99999999999999989
10
1853.5239846273403
20
1387.4549268242229
10
1851.4453436444089
20
1372.6646277105649
10
1816.1918003972087
20
1377.6191901047432
10
1818.27044138014
20
1392.4094892184009
42
0.99999999999999989
10
1815.8326090843559
20
1395.6446019425007
10
1800.6462027432012
20
1397.7789121658161
10
1800.6462027432017
20
2155.1495915547798
10
1854.120678455246
20
2147.6342441029365
10
1944.1251775865217
20
1507.218956105904
42
0.75355405010271548
10
1946.878565746209
20
1504.4655679462167
10
2015.8924134628105
20
1494.7663041821015
10
2061.8515417230119
20
1433.776481018213
10
2051.8310784538871
20
1362.47718006882
0
LWPOLYLINE
5
137
100
AcDbEntity
8
0
100
AcDbPolyline
90
8
70
1
43
0.0
10
1985.5510904335079
20
1425.9189827962666
42
0.99999999999999989
10
1988.7862031576078
20
1428.3568150920507
10
1990.6053770273415
20
1441.3009097645088
42
0.99999999999999989
10
1988.1675447315574
20
1444.5360224886081
10
1939.5737995844033
20
1451.3654279929042
42
0.99999999999999989
10
1936.3386868603036
20
1448.9275956971205
10
1934.5195129905701
20
1435.9835010246625
42
0.99999999999999989
10
1936.9573452863538
20
1432.748388300563
0
LWPOLYLINE
5
138
100
AcDbEntity
8
0
100
AcDbPolyline
90
8
70
1
43
0.0
10
1886.6809524273528
20
1697.3669482840228
42
0.99999999999999989
10
1884.2431201315694
20
1700.6020610081225
10
1835.6493749844151
20
1707.4314665124189
42
0.99999999999999989
10
1832.4142622603154
20
1704.9936342166343
10
1830.5950883905812
20
1692.0495395441767
42
0.99999999999999989
10
1833.0329206863657
20
1688.8144268200772
10
1881.6266658335198
20
1681.9850213157813
42
0.99999999999999989
10
1884.8617785576196
20
1684.4228536115652
0
LWPOLYLINE
5
139
100
AcDbEntity
8
0
100
AcDbPolyline
90
20
70
1
43
0.0
10
1789.992650275077
20
2335.1583990528047
42
0.99999999999999989
10
1793.2277629991768
20
2337.5962313485888
10
1795.3064039821083
20
2352.3865304622468
10
1830.5599472293081
20
2347.4319680680687
10
1828.4813062463772
20
2332.6416689544108
42
0.99999999999999989
10
1830.9191385421609
20
2329.4065562303108
10
1968.2409026485602
20
2310.1072408799932
42
0.99999999999999989
10
1971.4760153726595
20
2312.5450731757774
10
1973.5546563555911
20
2327.3353722894353
10
2008.8081996027909
20
2322.3808098952568
10
2006.7295586198593
20
2307.5905107815988
42
0.99999999999999989
10
2009.1673909156439
20
2304.3553980574993
10
2024.3537972567983
20
2302.2210878341839
10
2024.3537972567983
20
1544.85040844522
10
1970.8793215447536
20
1552.3657558970638
10
1880.8748224134783
20
2192.781043894096
42
0.75355405010271548
10
1878.121434253791
20
2195.5344320537833
10
1809.107586537189
20
2205.2336958178985
10
1763.1484582769876
20
2266.223518981787
10
1773.1689215461124
20
2337.52281993118
0
LWPOLYLINE
5
140
100
AcDbEntity
8
0
100
AcDbPolyline
90
8
70
1
43
0.0
10
1839.4489095664917
20
2274.0810172037336
42
0.99999999999999989
10
1836.213796842392
20
2271.643184907949
10
1834.394622972658
20
2258.6990902354914
42
0.99999999999999989
10
1836.8324552684421
20
2255.4639775113919
10
1885.4262004155964
20
2248.6345720070958
42
0.99999999999999989
10
1888.6613131396962
20
2251.0724043028799
10
1890.4804870094299
20
2264.0164989753375
42
0.99999999999999989
10
1888.0426547136458
20
2267.251611699437
0
LWPOLYLINE
5
141
100
AcDbEntity
8
0
100
AcDbPolyline
90
8
70
1
43
0.0
10
1938.3190475726469
20
2002.6330517159772
42
0.99999999999999989
10
1940.7568798684304
20
1999.3979389918775
10
1989.3506250155849
20
1992.5685334875811
42
0.99999999999999989
10
1992.5857377396844
20
1995.0063657833655
10
1994.4049116094186
20
2007.9504604558228
42
0.99999999999999989
10
1991.9670793136338
20
2011.1855731799228
10
1943.3733341664799
20
2018.0149786842187
42
0.99999999999999989
10
1940.1382214423804
20
2015.5771463884348
0
LWPOLYLINE
5
142
100
AcDbEntity
8
0
100
AcDbPolyline
90
20
70
1
43
0.0
10
2335.0073497249227
20
1364.8416009471953
42
0.99999999999999989
10
2331.7722370008228
20
1362.4037686514112
10
2329.6935960178912
20
1347.613469537753
10
2294.4400527706916
20
1352.5680319319313
10
2296.5186937536232
20
1367.3583310455892
42
0.99999999999999989
10
2294.0808614578391
20
1370.5934437696892
10
2156.7590973514398
20
1389.892759120007
42
0.99999999999999989
10
2153.5239846273403
20
1387.4549268242229
10
2151.4453436444087
20
1372.6646277105649
10
2116.1918003972087
20
1377.6191901047432
10
2118.2704413801403
20
1392.4094892184009
42
0.99999999999999989
10
2115.8326090843557
20
1395.6446019425007
10
2100.6462027432012
20
1397.7789121658161
10
2100.6462027432017
20
2155.1495915547798
10
2154.120678455246
20
2147.6342441029365
10
2244.1251775865217
20
1507.218956105904
42
0.75355405010271548
10
2246.878565746209
20
1504.4655679462167
10
2315.8924134628105
20
1494.7663041821015
10
2361.8515417230119
20
1433.776481018213
10
2351.8310784538871
20
1362.47718006882
0
LWPOLYLINE
5
143
100
AcDbEntity
8
0
100
AcDbPolyline
90
8
70
1
43
0.0
10
2285.5510904335079
20
1425.9189827962666
42
0.99999999999999989
10
2288.7862031576078
20
1428.3568150920507
10
2290.6053770273415
20
1441.3009097645088
42
0.99999999999999989
10
2288.1675447315574
20
1444.5360224886081
10
2239.5737995844033
20
1451.3654279929042
42
0.99999999999999989
10
2236.3386868603034
20
1448.9275956971205
10
2234.5195129905701
20
1435.9835010246625
42
0.99999999999999989
10
2236.9573452863538
20
1432.748388300563
0
LWPOLYLINE
5
144
100
AcDbEntity
8
0
100
AcDbPolyline
90
8
70
1
43
0.0
10
2186.6809524273531
20
1697.3669482840228
42
0.99999999999999989
10
2184.2431201315694
20
1700.6020610081225
10
2135.6493749844149
20
1707.4314665124189
42
0.99999999999999989
10
2132.4142622603154
20
1704.9936342166343
10
2130.5950883905812
20
1692.0495395441767
42
0.99999999999999989
10
2133.0329206863657
20
1688.8144268200772
10
2181.6266658335198
20
1681.9850213157813
42
0.99999999999999989
10
2184.8617785576193
20
1684.4228536115652
0
LWPOLYLINE
5
145
100
AcDbEntity
8
0
100
AcDbPolyline
90
20
70
1
43
0.0
10
2089.9926502750768
20
2335.1583990528047
42
0.99999999999999989
10
2093.2277629991768
20
2337.5962313485888
10
2095.3064039821083
20
2352.3865304622468
10
2130.5599472293084
20
2347.4319680680687
10
2128.4813062463772
20
2332.6416689544108
42
0.99999999999999989
10
2130.9191385421609
20
2329.4065562303108
10
2268.2409026485602
20
2310.1072408799932
42
0.99999999999999989
10
2271.4760153726597
20
2312.5450731757774
10
2273.5546563555913
20
2327.3353722894353
10
2308.8081996027909
20
2322.3808098952568
10
2306.7295586198593
20
2307.5905107815988
42
0.99999999999999989
10
2309.1673909156439
20
2304.3553980574993
10
2324.3537972567983
20
2302.2210878341839
10
2324.3537972567983
20
1544.85040844522
10
2270.8793215447536
20
1552.3657558970638
10
2180.8748224134783
20
2192.781043894096
42
0.75355405010271548
10
2178.121434253791
20
2195.5344320537833
10
2109.107586537189
20
2205.2336958178985
10
2063.1484582769876
20
2266.223518981787
10
2073.1689215461124
20
2337.52281993118
0
LWPOLYLINE
5
146
100
AcDbEntity
8
0
100
AcDbPolyline
90
8
70
1
43
0.0
10
2139.4489095664917
20
2274.0810172037336
42
0.99999999999999989
10
2136.2137968423922
20
2271.643184907949
10
2134.394622972658
20
2258.6990902354914
42
0.99999999999999989
10
2136.8324552684421
20
2255.4639775113919
10
2185.4262004155962
20
2248.6345720070958
42
0.99999999999999989
10
2188.6613131396962
20
2251.0724043028799
10
2190.4804870094299
20
2264.0164989753375
42
0.99999999999999989
10
2188.0426547136458
20
2267.251611699437
0
LWPOLYLINE
5
147
100
AcDbEntity
8
0
100
AcDbPolyline
90
8
70
1
43
0.0
10
2238.3190475726469
20
2002.6330517159772
42
0.99999999999999989
10
2240.7568798684306
20
1999.3979389918775
10
2289.3506250155851
20
1992.5685334875811
42
0.99999999999999989
10
2292.5857377396842
20
1995.0063657833655
10
2294.4049116094184
20
2007.9504604558228
42
0.99999999999999989
10
2291.9670793136338
20
2011.1855731799228
10
2243.3733341664802
20
2018.0149786842187
42
0.99999999999999989
10
2240.1382214423807
20
2015.5771463884348
0
ENDSEC
0
SECTION
2
OBJECTS
0
DICTIONARY
5
C
100
AcDbDictionary
3
ACAD_GROUP
350
D
3
ACAD_MLINESTYLE
350
17
0
DICTIONARY
5
D
100
AcDbDictionary
0
DICTIONARY
5
1A
330
C
100
AcDbDictionary
0
DICTIONARY
5
17
100
AcDbDictionary
0
ENDSEC
0
EOF
