0
SECTION
2
HEADER
9
$INSUNITS
70
4
9
$ACADVER
1
AC1014
9
$HANDSEED
5
FFFF
0
ENDSEC
0
SECTION
2
TABLES
0
TABLE
2
VPORT
5
8
100
AcDbSymbolTable
0
ENDTAB
0
TABLE
2
LTYPE
5
5
100
AcDbSymbolTable
0
LTYPE
5
14
100
AcDbSymbolTableRecord
100
AcDbLinetypeTableRecord
2
BYBLOCK
70
0
0
LTYPE
5
15
100
AcDbSymbolTableRecord
100
AcDbLinetypeTableRecord
2
BYLAYER
70
0
0
ENDTAB
0
TABLE
2
LAYER
5
2
100
AcDbSymbolTable
70
2
0
LAYER
5
50
100
AcDbSymbolTableRecord
100
AcDbLayerTableRecord
2
0
70
0
6
CONTINUOUS
0
ENDTAB
0
TABLE
2
STYLE
5
3
100
AcDbSymbolTable
70
1
0
STYLE
5
11
100
AcDbSymbolTableRecord
100
AcDbTextStyleTableRecord
2
STANDARD
70
0
0
ENDTAB
0
TABLE
2
VIEW
5
6
100
AcDbSymbolTable
70
0
0
ENDTAB
0
TABLE
2
UCS
5
7
100
AcDbSymbolTable
70
0
0
ENDTAB
0
TABLE
2
APPID
5
9
100
AcDbSymbolTable
70
2
0
APPID
5
12
100
AcDbSymbolTableRecord
100
AcDbRegAppTableRecord
2
ACAD
70
0
0
ENDTAB
0
TABLE
2
DIMSTYLE
5
A
100
AcDbSymbolTable
70
1
0
ENDTAB
0
TABLE
2
BLOCK_RECORD
5
1
100
AcDbSymbolTable
70
1
0
BLOCK_RECORD
5
1F
100
AcDbSymbolTableRecord
100
AcDbBlockTableRecord
2
*MODEL_SPACE
0
BLOCK_RECORD
5
1B
100
AcDbSymbolTableRecord
100
AcDbBlockTableRecord
2
*PAPER_SPACE
0
ENDTAB
0
ENDSEC
0
SECTION
2
BLOCKS
0
BLOCK
5
20
100
AcDbEntity
100
AcDbBlockBegin
2
*MODEL_SPACE
0
ENDBLK
5
21
100
AcDbEntity
100
AcDbBlockEnd
0
BLOCK
5
1C
100
AcDbEntity
100
AcDbBlockBegin
2
*PAPER_SPACE
0
ENDBLK
5
1D
100
AcDbEntity
100
AcDbBlockEnd
0
ENDSEC
0
SECTION
2
ENTITIES
0
LWPOLYLINE
5
100
100
AcDbEntity
8
0
100
AcDbPolyline
90
8
70
1
43
0.0
10
916.32450000000006
20
3524.5356518507697
42
0.99999999999999989
10
913.46015185076965
20
3527.4000000000001
10
900.78884814923049
20
3527.4000000000001
42
0.99999999999999989
10
897.92450000000008
20
3524.5356518507697
10
897.92450000000008
20
3511.8643481492309
42
0.99999998946328772
10
900.7888481492306
20
3509
10
913.46015185076965
20
3509.0000000000005
42
0.99999999999999989
10
916.32450000000006
20
3511.8643481492309
0
LWPOLYLINE
5
101
100
AcDbEntity
8
0
100
AcDbPolyline
90
26
70
1
43
0.0
10
877.66015185076969
20
3491.1999999999998
42
0.99999999999999989
10
880.5245000000001
20
3494.0643481492307
10
880.5245000000001
20
3536.0343145750512
10
889.2901854249493
20
3544.8000000000002
10
924.95881457505095
20
3544.7999999999997
10
933.72450000000015
20
3536.0343145750503
10
933.72450000000015
20
3494.0643481492307
42
0.99999999999999989
10
936.58884814923044
20
3491.1999999999998
10
970.12450000000001
20
3491.1999999999998
10
970.12450000000001
20
3455.1999999999998
10
229.87550000000005
20
3455.1999999999998
10
229.87550000000005
20
3491.1999999999998
10
263.41115185076961
20
3491.1999999999998
42
0.99999999999999989
10
266.27550000000008
20
3494.0643481492307
10
266.27550000000008
20
3536.0343145750512
10
275.04118542494928
20
3544.8000000000002
10
310.70981457505081
20
3544.7999999999997
10
319.47550000000007
20
3536.0343145750503
10
319.47550000000001
20
3494.0643481492307
42
0.99999999999999989
10
322.33984814923053
20
3491.1999999999998
10
353.41115185076956
20
3491.1999999999998
42
0.99999999999999989
10
356.27550000000008
20
3494.0643481492307
10
356.27550000000014
20
3509.2000000000003
10
843.72450000000015
20
3509.2000000000003
10
843.72450000000015
20
3494.0643481492307
42
0.99999999999999989
10
846.58884814923056
20
3491.1999999999998
0
LWPOLYLINE
5
102
100
AcDbEntity
8
0
100
AcDbPolyline
90
8
70
1
43
0.0
10
302.07550000000009
20
3524.5356518507697
42
0.99999999999999989
10
299.21115185076962
20
3527.4000000000001
10
286.53984814923052
20
3527.4000000000001
42
0.99999999999999989
10
283.67550000000006
20
3524.5356518507697
10
283.67550000000006
20
3511.8643481492309
42
0.99999998946328772
10
286.53984814923052
20
3509
10
299.21115185076962
20
3509.0000000000005
42
0.99999999999999989
10
302.07550000000009
20
3511.8643481492309
0
LWPOLYLINE
5
103
100
AcDbEntity
8
0
100
AcDbPolyline
90
8
70
1
43
0.0
10
242.80159858975878
20
3367.3493258045114
42
0.99999999999999989
10
242.80159858975878
20
3371.4001258045114
10
233.84163381592634
20
3380.3600905783442
42
0.99999999999999989
10
229.79083381592636
20
3380.3600905783433
10
220.83086904209395
20
3371.4001258045114
42
0.99999999999999989
10
220.83086904209395
20
3367.3493258045114
10
229.79083381592636
20
3358.3893610306791
42
0.99999999999999989
10
233.84163381592634
20
3358.3893610306791
0
LWPOLYLINE
5
104
100
AcDbEntity
8
0
100
AcDbPolyline
90
24
70
1
43
0.0
10
928.25744271247459
20
3371.1172830920368
42
0.99999999999999989
10
932.30824271247457
20
3371.1172830920368
10
968.18376618407353
20
3406.9928065636354
10
1005.8018469431977
20
3369.3747258045114
10
969.92632347159883
20
3333.4992023329123
42
0.99999999999999989
10
969.92632347159883
20
3329.4484023329123
10
980.91168824543149
20
3318.4630375590805
10
955.4558441227158
20
3293.0071934363646
10
930
20
3293.0071934363641
10
896.00068415173052
20
3327.0065092846335
42
0.41421356237286716
10
893.35437152267059
20
3328.1026478658691
10
306.64562847732992
20
3328.1026478658691
42
0.41421356237324364
10
303.99931584826925
20
3327.0065092846335
10
269.99999999999994
20
3293.0071934363646
10
244.5441558772842
20
3293.0071934363646
10
219.08831175456854
20
3318.4630375590805
10
230.07367652840102
20
3329.4484023329123
42
0.99999999999999989
10
230.07367652840111
20
3333.4992023329123
10
194.19815305680217
20
3369.3747258045119
10
231.81623381592644
20
3406.9928065636354
10
267.69175728752538
20
3371.1172830920368
42
0.99999999999999989
10
271.74255728752536
20
3371.1172830920368
10
282.72792206135773
20
3382.1026478658696
10
917.27207793864204
20
3382.1026478658696
0
LWPOLYLINE
5
105
100
AcDbEntity
8
0
100
AcDbPolyline
90
8
70
1
43
0.0
10
970.20916618407364
20
3380.3600905783442
42
0.99999999999999989
10
966.15836618407366
20
3380.3600905783442
10
957.19840141024122
20
3371.4001258045114
42
0.99999999999999989
10
957.19840141024122
20
3367.3493258045114
10
966.15836618407366
20
3358.3893610306791
42
0.99999999999999989
10
970.20916618407364
20
3358.3893610306791
10
979.16913095790608
20
3367.3493258045114
42
0.99999999999999989
10
979.16913095790619
20
3371.4001258045114
0
LWPOLYLINE
5
106
100
AcDbEntity
8
0
100
AcDbPolyline
90
8
70
1
43
0.0
10
242.80159858975878
20
3217.3493258045114
42
0.99999999999999989
10
242.80159858975878
20
3221.4001258045114
10
233.84163381592634
20
3230.3600905783442
42
0.99999999999999989
10
229.79083381592636
20
3230.3600905783433
10
220.83086904209395
20
3221.4001258045114
42
0.99999999999999989
10
220.83086904209395
20
3217.3493258045114
10
229.79083381592636
20
3208.3893610306791
42
0.99999999999999989
10
233.84163381592634
20
3208.3893610306791
0
LWPOLYLINE
5
107
100
AcDbEntity
8
0
100
AcDbPolyline
90
24
70
1
43
0.0
10
928.25744271247459
20
3221.1172830920368
42
0.99999999999999989
10
932.30824271247457
20
3221.1172830920368
10
968.18376618407353
20
3256.9928065636354
10
1005.8018469431977
20
3219.3747258045114
10
969.92632347159883
20
3183.4992023329123
42
0.99999999999999989
10
969.92632347159883
20
3179.4484023329123
10
980.91168824543149
20
3168.4630375590805
10
955.4558441227158
20
3143.0071934363646
10
930
20
3143.0071934363641
10
896.00068415173052
20
3177.0065092846335
42
0.41421356237286716
10
893.35437152267059
20
3178.1026478658691
10
306.64562847732992
20
3178.1026478658691
42
0.41421356237324364
10
303.99931584826925
20
3177.0065092846335
10
269.99999999999994
20
3143.0071934363646
10
244.5441558772842
20
3143.0071934363646
10
219.08831175456854
20
3168.4630375590805
10
230.07367652840102
20
3179.4484023329123
42
0.99999999999999989
10
230.07367652840111
20
3183.4992023329123
10
194.19815305680217
20
3219.3747258045119
10
231.81623381592644
20
3256.9928065636354
10
267.69175728752538
20
3221.1172830920368
42
0.99999999999999989
10
271.74255728752536
20
3221.1172830920368
10
282.72792206135773
20
3232.1026478658696
10
917.27207793864204
20
3232.1026478658696
0
LWPOLYLINE
5
108
100
AcDbEntity
8
0
100
AcDbPolyline
90
8
70
1
43
0.0
10
970.20916618407364
20
3230.3600905783442
42
0.99999999999999989
10
966.15836618407366
20
3230.3600905783442
10
957.19840141024122
20
3221.4001258045114
42
0.99999999999999989
10
957.19840141024122
20
3217.3493258045114
10
966.15836618407366
20
3208.3893610306791
42
0.99999999999999989
10
970.20916618407364
20
3208.3893610306791
10
979.16913095790608
20
3217.3493258045114
42
0.99999999999999989
10
979.16913095790619
20
3221.4001258045114
0
LWPOLYLINE
5
109
100
AcDbEntity
8
0
100
AcDbPolyline
90
31
70
1
43
0.0
10
841.13565185076948
20
3029
42
0.99999999999999989
10
843.99999999999989
20
3031.86434814923
10
843.99999999999989
20
3094.8000000000002
10
859.79999999999995
20
3094.7999999999997
10
859.79999999999995
20
3079.8643481492304
42
0.99999999999999989
10
862.66434814923036
20
3077
10
913.99999999999989
20
3077
10
914
20
3013
10
862.66434814923036
20
3013
42
0.99999999999999989
10
859.79999999999995
20
3010.1356518507691
10
859.79999999999995
20
2995.1999999999998
10
824.19999999999982
20
2995.2000000000003
10
824.19999999999982
20
3010.1356518507696
42
0.99999999999999989
10
821.33565185076941
20
3013
10
378.66434814923059
20
3013
42
0.99999999999999989
10
375.80000000000013
20
3010.1356518507691
10
375.80000000000013
20
2995.1999999999998
10
340.2000000000001
20
2995.2000000000003
10
340.20000000000005
20
3010.1356518507696
42
0.99999999999999989
10
337.33565185076952
20
3013
10
286.00000000000006
20
3013
10
286
20
3077
10
337.33565185076952
20
3077
42
1.0000000105367119
10
340.2000000000001
20
3079.8643481492309
10
340.2000000000001
20
3094.8000000000002
10
375.80000000000013
20
3094.7999999999997
10
375.80000000000013
20
3079.8643481492304
42
0.99999999999999989
10
378.66434814923053
20
3077
10
493.99999999999989
20
3077
10
494
20
3031.86434814923
42
0.99999999999999989
10
496.86434814923047
20
3029
0
LWPOLYLINE
5
110
100
AcDbEntity
8
0
100
AcDbPolyline
90
31
70
1
43
0.0
10
841.13565185076948
20
2904
42
0.99999999999999989
10
843.99999999999989
20
2906.86434814923
10
843.99999999999989
20
2969.8000000000002
10
859.79999999999995
20
2969.7999999999997
10
859.79999999999995
20
2954.8643481492304
42
0.99999999999999989
10
862.66434814923036
20
2952
10
913.99999999999989
20
2952
10
914
20
2888
10
862.66434814923036
20
2888
42
0.99999999999999989
10
859.79999999999995
20
2885.1356518507691
10
859.79999999999995
20
2870.1999999999998
10
824.19999999999982
20
2870.2000000000003
10
824.19999999999982
20
2885.1356518507696
42
0.99999999999999989
10
821.33565185076941
20
2888
10
378.66434814923059
20
2888
42
0.99999999999999989
10
375.80000000000013
20
2885.1356518507691
10
375.80000000000013
20
2870.1999999999998
10
340.2000000000001
20
2870.2000000000003
10
340.20000000000005
20
2885.1356518507696
42
0.99999999999999989
10
337.33565185076952
20
2888
10
286.00000000000006
20
2888
10
286
20
2952
10
337.33565185076952
20
2952
42
1.0000000105367119
10
340.2000000000001
20
2954.8643481492309
10
340.2000000000001
20
2969.8000000000002
10
375.80000000000013
20
2969.7999999999997
10
375.80000000000013
20
2954.8643481492304
42
0.99999999999999989
10
378.66434814923053
20
2952
10
493.99999999999989
20
2952
10
494
20
2906.86434814923
42
0.99999999999999989
10
496.86434814923047
20
2904
0
LWPOLYLINE
5
111
100
AcDbEntity
8
0
100
AcDbPolyline
90
56
70
1
43
0.0
10
881.72037239716269
20
2771.9038614187639
42
0.41421356237312512
10
879.07405976810207
20
2772.9999999999995
10
320.92594023189804
20
2772.9999999999995
42
0.41421356237325907
10
318.27962760283719
20
2771.9038614187639
10
266.4719047653092
20
2720.0961385812361
42
0.41421356237303197
10
265.37576618407337
20
2717.4498259521756
10
265.37576618407337
20
2526.2802338159272
10
173.19199999999995
20
2434.0964676318531
10
135.22778010618103
20
2472.0606875256717
42
0.48968836880199978
10
133.26567652840112
20
2474.5884765284013
10
97.390153056802191
20
2510.4639999999999
10
135.00823381592625
20
2548.0820807591244
10
170.88375728752533
20
2512.2065572875254
42
0.99999999999999989
10
174.93455728752531
20
2512.2065572875254
10
210.27962760283719
20
2547.5516276028375
42
0.41421356237311241
10
211.37576618407337
20
2550.197940231898
10
211.37576618407331
20
3049.8020597681016
42
0.41421356237324319
10
210.27962760283728
20
3052.4483723971621
10
174.93455728752531
20
3087.7934427124746
42
0.99999999999999989
10
170.88375728752524
20
3087.7934427124746
10
135.00823381592625
20
3051.9179192408756
10
97.390153056802191
20
3089.5360000000001
10
133.26567652840109
20
3125.4115234715987
42
0.48968836880207939
10
135.22778010618111
20
3127.9393124743283
10
173.19199999999995
20
3165.9035323681469
10
265.37576618407337
20
3073.7197661840728
10
265.37576618407337
20
2882.5501740478244
42
0.41421356237320489
10
266.47190476530938
20
2879.9038614187639
10
318.27962760283731
20
2828.0961385812361
42
0.41421356237320278
10
320.92594023189793
20
2827
10
879.07405976810196
20
2827.0000000000005
42
0.41421356237314411
10
881.72037239716269
20
2828.0961385812361
10
933.5280952346908
20
2879.9038614187639
42
0.41421356237296214
10
934.62423381592657
20
2882.5501740478244
10
934.62423381592657
20
3073.7197661840737
10
1026.808
20
3165.9035323681474
10
1064.7722198938191
20
3127.9393124743278
42
0.48968836880203231
10
1066.7343234715988
20
3125.4115234715987
10
1102.6098469431977
20
3089.5360000000001
10
1064.9917661840736
20
3051.9179192408756
10
1029.1162427124746
20
3087.7934427124746
42
0.99999999999999989
10
1025.0654427124746
20
3087.7934427124746
10
989.72037239716258
20
3052.4483723971621
42
0.41421356237308393
10
988.62423381592657
20
3049.8020597681025
10
988.62423381592657
20
2550.197940231898
42
0.4142135623729955
10
989.72037239716246
20
2547.5516276028379
10
1025.0654427124746
20
2512.2065572875254
42
0.99999999999999989
10
1029.1162427124746
20
2512.2065572875254
10
1064.9917661840736
20
2548.0820807591244
10
1102.6098469431977
20
2510.4639999999999
10
1066.7343234715988
20
2474.5884765284009
42
0.48968836880206912
10
1064.7722198938188
20
2472.0606875256717
10
1026.808
20
2434.0964676318531
10
934.62423381592657
20
2526.2802338159272
10
934.62423381592657
20
2717.4498259521756
42
0.41421356237303675
10
933.52809523469034
20
2720.0961385812361
0
LWPOLYLINE
5
112
100
AcDbEntity
8
0
100
AcDbPolyline
90
8
70
1
43
0.0
10
1075.977130957906
20
2508.4386
42
0.99999999999999989
10
1075.977130957906
20
2512.4893999999999
10
1067.0171661840734
20
2521.4493647738323
42
0.99999999999999989
10
1062.9663661840734
20
2521.4493647738323
10
1054.0064014102413
20
2512.4893999999999
42
0.99999999999999989
10
1054.0064014102413
20
2508.4386
10
1062.9663661840736
20
2499.4786352261676
42
0.99999999999999989
10
1067.0171661840736
20
2499.4786352261672
0
LWPOLYLINE
5
113
100
AcDbEntity
8
0
100
AcDbPolyline
90
8
70
1
43
0.0
10
1067.0171661840736
20
3100.5213647738328
42
0.99999999999999989
10
1062.9663661840736
20
3100.5213647738328
10
1054.0064014102413
20
3091.5614000000005
42
0.99999999999999989
10
1054.0064014102413
20
3087.5106000000005
10
1062.9663661840734
20
3078.5506352261677
42
0.99999999999999989
10
1067.0171661840734
20
3078.5506352261677
10
1075.977130957906
20
3087.5106000000001
42
0.99999999999999989
10
1075.977130957906
20
3091.5614000000005
0
LWPOLYLINE
5
114
100
AcDbEntity
8
0
100
AcDbPolyline
90
8
70
1
43
0.0
10
124.02286904209404
20
2512.4893999999999
42
0.99999999999999989
10
124.02286904209404
20
2508.4386
10
132.98283381592637
20
2499.4786352261676
42
0.99999999999999989
10
137.03363381592638
20
2499.4786352261676
10
145.99359858975873
20
2508.4386
42
0.99999999999999989
10
145.99359858975873
20
2512.4893999999995
10
137.03363381592646
20
2521.4493647738323
42
0.99999999999999989
10
132.98283381592648
20
2521.4493647738323
0
LWPOLYLINE
5
115
100
AcDbEntity
8
0
100
AcDbPolyline
90
8
70
1
43
0.0
10
137.03363381592641
20
3100.5213647738328
42
0.99999999999999989
10
132.98283381592637
20
3100.5213647738328
10
124.02286904209404
20
3091.5614
42
0.99999999999999989
10
124.02286904209404
20
3087.5106000000005
10
132.98283381592645
20
3078.5506352261677
42
0.99999999999999989
10
137.03363381592646
20
3078.5506352261677
10
145.99359858975873
20
3087.5106000000005
42
0.99999999999999989
10
145.99359858975873
20
3091.5614000000005
0
LWPOLYLINE
5
116
100
AcDbEntity
8
0
100
AcDbPolyline
90
20
70
1
43
0.0
10
875.5
20
2665.3754836899498
42
0.99999998946328772
10
878.36434812788968
20
2662.5111355193781
10
891.30000000000007
20
2662.5111355407189
42
-0.41421356237286605
10
893.30000000000018
20
2660.5111355407194
10
893.30000000000041
20
2646.9111355407194
42
-0.41421356237299095
10
891.30000000000007
20
2644.9111355407194
10
878.36434814923052
20
2644.911135540719
42
0.99999999999999989
10
875.50000000000011
20
2642.0467873914886
10
875.50000000000011
20
2626.7111355407187
10
824.5
20
2626.7111355407187
10
824.5
20
2642.0467873914886
42
0.99999999999999989
10
821.63565185076959
20
2644.9111355407194
10
808.70000000000005
20
2644.9111355407194
42
-0.41421356237297013
10
806.70000000000005
20
2646.9111355407194
10
806.69999999999982
20
2660.5111355407198
42
-0.41421356237288687
10
808.70000000000005
20
2662.5111355407194
10
821.63565185076959
20
2662.5111355407194
42
0.99999999999999989
10
824.5
20
2665.3754836899498
10
824.50000000000023
20
2753.2888644592813
10
875.50000000000011
20
2753.2888644592813
0
LWPOLYLINE
5
117
100
AcDbEntity
8
0
100
AcDbPolyline
90
20
70
1
43
0.0
10
775.5
20
2665.3754836899498
42
0.99999998946328772
10
778.36434812788968
20
2662.5111355193781
10
791.30000000000007
20
2662.5111355407189
42
-0.41421356237286605
10
793.30000000000018
20
2660.5111355407194
10
793.30000000000041
20
2646.9111355407194
42
-0.41421356237299095
10
791.30000000000007
20
2644.9111355407194
10
778.36434814923052
20
2644.911135540719
42
0.99999999999999989
10
775.50000000000011
20
2642.0467873914886
10
775.50000000000011
20
2626.7111355407187
10
724.5
20
2626.7111355407187
10
724.5
20
2642.0467873914886
42
0.99999999999999989
10
721.63565185076959
20
2644.9111355407194
10
708.70000000000005
20
2644.9111355407194
42
-0.41421356237297013
10
706.70000000000005
20
2646.9111355407194
10
706.69999999999982
20
2660.5111355407198
42
-0.41421356237288687
10
708.70000000000005
20
2662.5111355407194
10
721.63565185076959
20
2662.5111355407194
42
0.99999999999999989
10
724.5
20
2665.3754836899498
10
724.50000000000023
20
2753.2888644592813
10
775.50000000000011
20
2753.2888644592813
0
LWPOLYLINE
5
118
100
AcDbEntity
8
0
100
AcDbPolyline
90
20
70
1
43
0.0
10
675.5
20
2665.3754836899498
42
0.99999998946328772
10
678.36434812788968
20
2662.5111355193781
10
691.30000000000007
20
2662.5111355407189
42
-0.41421356237286605
10
693.30000000000018
20
2660.5111355407194
10
693.30000000000041
20
2646.9111355407194
42
-0.41421356237299095
10
691.30000000000007
20
2644.9111355407194
10
678.36434814923052
20
2644.911135540719
42
0.99999999999999989
10
675.50000000000011
20
2642.0467873914886
10
675.50000000000011
20
2626.7111355407187
10
624.5
20
2626.7111355407187
10
624.5
20
2642.0467873914886
42
0.99999999999999989
10
621.63565185076959
20
2644.9111355407194
10
608.69999999999993
20
2644.9111355407194
42
-0.41421356237298057
10
606.70000000000005
20
2646.9111355407194
10
606.69999999999959
20
2660.5111355407194
42
-0.41421356237300133
10
608.69999999999993
20
2662.5111355407194
10
621.63565185076948
20
2662.5111355407194
42
0.99999999999999989
10
624.5
20
2665.3754836899498
10
624.50000000000011
20
2753.2888644592813
10
675.50000000000011
20
2753.2888644592813
0
LWPOLYLINE
5
119
100
AcDbEntity
8
0
100
AcDbPolyline
90
20
70
1
43
0.0
10
575.50000000000011
20
2665.3754836899498
42
0.99999999999999989
10
578.36434814923052
20
2662.5111355407194
10
591.30000000000007
20
2662.5111355407189
42
-0.41421356237285573
10
593.30000000000007
20
2660.5111355407194
10
593.3000000000003
20
2646.9111355407194
42
-0.41421356237298057
10
591.30000000000007
20
2644.9111355407194
10
578.36434814923064
20
2644.911135540719
42
0.99999999999999989
10
575.5
20
2642.0467873914886
10
575.5
20
2626.7111355407187
10
524.5
20
2626.7111355407187
10
524.5
20
2642.0467873914886
42
0.99999999999999989
10
521.63565185076959
20
2644.9111355407194
10
508.69999999999999
20
2644.9111355407194
42
-0.41421356237298057
10
506.70000000000005
20
2646.9111355407194
10
506.69999999999959
20
2660.5111355407194
42
-0.41421356237300133
10
508.69999999999999
20
2662.5111355407194
10
521.63565185076948
20
2662.5111355407194
42
0.99999999999999989
10
524.5
20
2665.3754836899498
10
524.5
20
2753.2888644592813
10
575.5
20
2753.2888644592813
0
LWPOLYLINE
5
120
100
AcDbEntity
8
0
100
AcDbPolyline
90
20
70
1
43
0.0
10
475.50000000000011
20
2665.3754836899498
42
0.99999999999999989
10
478.36434814923052
20
2662.5111355407194
10
491.30000000000007
20
2662.5111355407189
42
-0.41421356237285573
10
493.30000000000007
20
2660.5111355407194
10
493.30000000000035
20
2646.9111355407194
42
-0.41421356237298057
10
491.30000000000007
20
2644.9111355407194
10
478.36434814923058
20
2644.911135540719
42
0.99999999999999989
10
475.50000000000006
20
2642.0467873914886
10
475.50000000000006
20
2626.7111355407187
10
424.5
20
2626.7111355407187
10
424.5
20
2642.0467873914886
42
0.99999999999999989
10
421.63565185076953
20
2644.9111355407194
10
408.69999999999999
20
2644.9111355407194
42
-0.41421356237298057
10
406.70000000000005
20
2646.9111355407194
10
406.69999999999959
20
2660.5111355407194
42
-0.41421356237300133
10
408.69999999999999
20
2662.5111355407194
10
421.63565185076948
20
2662.5111355407194
42
0.99999999999999989
10
424.5
20
2665.3754836899498
10
424.5
20
2753.2888644592813
10
475.50000000000006
20
2753.2888644592813
0
LWPOLYLINE
5
121
100
AcDbEntity
8
0
100
AcDbPolyline
90
20
70
1
43
0.0
10
375.50000000000011
20
2665.3754836899498
42
0.99999999999999989
10
378.36434814923052
20
2662.5111355407194
10
391.30000000000007
20
2662.5111355407189
42
-0.41421356237285573
10
393.30000000000007
20
2660.5111355407194
10
393.30000000000035
20
2646.9111355407194
42
-0.41421356237298057
10
391.30000000000007
20
2644.9111355407194
10
378.36434814923058
20
2644.911135540719
42
0.99999999999999989
10
375.50000000000006
20
2642.0467873914886
10
375.50000000000006
20
2626.7111355407187
10
324.5
20
2626.7111355407187
10
324.5
20
2642.0467873914886
42
0.99999999999999989
10
321.63565185076953
20
2644.9111355407194
10
308.69999999999999
20
2644.9111355407199
42
-0.41421356237299617
10
306.70000000000005
20
2646.9111355407194
10
306.69999999999965
20
2660.5111355407194
42
-0.41421356237299617
10
308.69999999999999
20
2662.5111355407194
10
321.63565185076948
20
2662.5111355407194
42
0.99999999999999989
10
324.5
20
2665.3754836899498
10
324.5
20
2753.2888644592813
10
375.50000000000006
20
2753.2888644592813
0
LWPOLYLINE
5
122
100
AcDbEntity
8
0
100
AcDbPolyline
90
20
70
1
43
0.0
10
375.50000000000011
20
2515.3754836899493
42
0.99999999999999989
10
378.36434814923052
20
2512.5111355407189
10
391.30000000000007
20
2512.5111355407189
42
-0.41421356237321988
10
393.30000000000007
20
2510.5111355407189
10
393.29999999999995
20
2496.911135540719
42
-0.4142135623731783
10
391.30000000000007
20
2494.911135540719
10
378.36434814923058
20
2494.911135540719
42
0.99999999999999989
10
375.50000000000006
20
2492.0467873914886
10
375.50000000000006
20
2476.7111355407192
10
324.5
20
2476.7111355407192
10
324.5
20
2492.0467873914886
42
0.99999999999999989
10
321.63565185076953
20
2494.911135540719
10
308.69999999999999
20
2494.911135540719
42
-0.41421356237318868
10
306.70000000000005
20
2496.911135540719
10
306.6999999999997
20
2510.5111355407194
42
-0.41421356237318868
10
308.69999999999999
20
2512.5111355407194
10
321.63565185076948
20
2512.5111355407189
42
0.99999999999999989
10
324.5
20
2515.3754836899498
10
324.5
20
2603.2888644592813
10
375.50000000000006
20
2603.2888644592813
0
LWPOLYLINE
5
123
100
AcDbEntity
8
0
100
AcDbPolyline
90
20
70
1
43
0.0
10
475.50000000000011
20
2515.3754836899493
42
0.99999999999999989
10
478.36434814923052
20
2512.5111355407189
10
491.30000000000007
20
2512.5111355407189
42
-0.41421356237321988
10
493.30000000000007
20
2510.5111355407189
10
493.29999999999995
20
2496.911135540719
42
-0.4142135623731783
10
491.30000000000007
20
2494.911135540719
10
478.36434814923058
20
2494.911135540719
42
0.99999999999999989
10
475.50000000000006
20
2492.0467873914886
10
475.50000000000006
20
2476.7111355407192
10
424.5
20
2476.7111355407192
10
424.5
20
2492.0467873914886
42
0.99999999999999989
10
421.63565185076953
20
2494.911135540719
10
408.69999999999999
20
2494.911135540719
42
-0.4142135623731783
10
406.70000000000005
20
2496.911135540719
10
406.69999999999965
20
2510.5111355407189
42
-0.41421356237319912
10
408.69999999999999
20
2512.5111355407194
10
421.63565185076948
20
2512.5111355407189
42
0.99999999999999989
10
424.5
20
2515.3754836899498
10
424.5
20
2603.2888644592813
10
475.50000000000006
20
2603.2888644592813
0
LWPOLYLINE
5
124
100
AcDbEntity
8
0
100
AcDbPolyline
90
20
70
1
43
0.0
10
575.50000000000011
20
2515.3754836899493
42
0.99999999999999989
10
578.36434814923052
20
2512.5111355407189
10
591.30000000000007
20
2512.5111355407189
42
-0.41421356237321988
10
593.30000000000007
20
2510.5111355407189
10
593.29999999999995
20
2496.911135540719
42
-0.4142135623731783
10
591.30000000000007
20
2494.911135540719
10
578.36434814923064
20
2494.911135540719
42
0.99999999999999989
10
575.5
20
2492.0467873914886
10
575.5
20
2476.7111355407192
10
524.5
20
2476.7111355407192
10
524.5
20
2492.0467873914886
42
0.99999999999999989
10
521.63565185076959
20
2494.911135540719
10
508.69999999999999
20
2494.911135540719
42
-0.4142135623731783
10
506.70000000000005
20
2496.911135540719
10
506.69999999999965
20
2510.5111355407189
42
-0.41421356237319912
10
508.69999999999999
20
2512.5111355407194
10
521.63565185076948
20
2512.5111355407189
42
0.99999999999999989
10
524.5
20
2515.3754836899498
10
524.5
20
2603.2888644592813
10
575.5
20
2603.2888644592813
0
LWPOLYLINE
5
125
100
AcDbEntity
8
0
100
AcDbPolyline
90
20
70
1
43
0.0
10
675.5
20
2515.3754836899493
42
0.99999998946328772
10
678.36434812788968
20
2512.5111355193781
10
691.30000000000007
20
2512.5111355407189
42
-0.4142135623732407
10
693.30000000000018
20
2510.5111355407189
10
693.30000000000018
20
2496.9111355407185
42
-0.41421356237315743
10
691.30000000000007
20
2494.911135540719
10
678.36434814923052
20
2494.911135540719
42
0.99999999999999989
10
675.50000000000011
20
2492.0467873914886
10
675.50000000000011
20
2476.7111355407192
10
624.5
20
2476.7111355407192
10
624.5
20
2492.0467873914886
42
0.99999999999999989
10
621.63565185076959
20
2494.911135540719
10
608.69999999999993
20
2494.911135540719
42
-0.4142135623731783
10
606.70000000000005
20
2496.911135540719
10
606.6999999999997
20
2510.5111355407189
42
-0.41421356237319912
10
608.69999999999993
20
2512.5111355407194
10
621.63565185076948
20
2512.5111355407189
42
0.99999999999999989
10
624.5
20
2515.3754836899498
10
624.50000000000011
20
2603.2888644592813
10
675.50000000000011
20
2603.2888644592813
0
LWPOLYLINE
5
126
100
AcDbEntity
8
0
100
AcDbPolyline
90
20
70
1
43
0.0
10
775.5
20
2515.3754836899493
42
0.99999998946328772
10
778.36434812788968
20
2512.5111355193781
10
791.30000000000007
20
2512.5111355407189
42
-0.4142135623732407
10
793.30000000000018
20
2510.5111355407189
10
793.30000000000018
20
2496.9111355407185
42
-0.41421356237315743
10
791.30000000000007
20
2494.911135540719
10
778.36434814923052
20
2494.911135540719
42
0.99999999999999989
10
775.50000000000011
20
2492.0467873914886
10
775.50000000000011
20
2476.7111355407192
10
724.5
20
2476.7111355407192
10
724.5
20
2492.0467873914886
42
0.99999999999999989
10
721.63565185076959
20
2494.911135540719
10
708.70000000000005
20
2494.911135540719
42
-0.4142135623731783
10
706.70000000000005
20
2496.911135540719
10
706.69999999999982
20
2510.5111355407194
42
-0.4142135623731783
10
708.70000000000005
20
2512.5111355407194
10
721.63565185076959
20
2512.5111355407189
42
0.99999999999999989
10
724.5
20
2515.3754836899498
10
724.50000000000023
20
2603.2888644592813
10
775.50000000000011
20
2603.2888644592813
0
LWPOLYLINE
5
127
100
AcDbEntity
8
0
100
AcDbPolyline
90
20
70
1
43
0.0
10
875.5
20
2515.3754836899493
42
0.99999998946328772
10
878.36434812788968
20
2512.5111355193781
10
891.30000000000007
20
2512.5111355407189
42
-0.4142135623732407
10
893.30000000000018
20
2510.5111355407189
10
893.30000000000018
20
2496.9111355407185
42
-0.41421356237315743
10
891.30000000000007
20
2494.911135540719
10
878.36434814923052
20
2494.911135540719
42
0.99999999999999989
10
875.50000000000011
20
2492.0467873914886
10
875.50000000000011
20
2476.7111355407192
10
824.5
20
2476.7111355407192
10
824.5
20
2492.0467873914886
42
0.99999999999999989
10
821.63565185076959
20
2494.911135540719
10
808.70000000000005
20
2494.911135540719
42
-0.4142135623731783
10
806.70000000000005
20
2496.911135540719
10
806.69999999999982
20
2510.5111355407194
42
-0.4142135623731783
10
808.70000000000005
20
2512.5111355407194
10
821.63565185076959
20
2512.5111355407189
42
0.99999999999999989
10
824.5
20
2515.3754836899498
10
824.50000000000023
20
2603.2888644592813
10
875.50000000000011
20
2603.2888644592813
0
LWPOLYLINE
5
128
100
AcDbEntity
8
0
100
AcDbPolyline
90
8
70
1
43
0.0
10
1274.3421323681471
20
2499.4782131648099
42
0.99999999999999989
10
1278.3929323681471
20
2499.4782131648099
10
1287.3528971419796
20
2508.4381779386422
42
0.99999999999999989
10
1287.3528971419796
20
2512.4889779386422
10
1278.3929323681471
20
2521.4489427124745
42
0.99999999999999989
10
1274.3421323681471
20
2521.4489427124745
10
1265.3821675943145
20
2512.4889779386422
42
0.99999999999999989
10
1265.3821675943145
20
2508.4381779386422
0
LWPOLYLINE
5
129
100
AcDbEntity
8
0
100
AcDbPolyline
90
8
70
1
43
0.0
10
1094.6643481492306
20
2809.2000000000003
42
0.99999999999999989
10
1091.8000000000002
20
2806.3356518507699
10
1091.8000000000002
20
2793.6643481492301
42
0.99999999999999989
10
1094.6643481492306
20
2790.7999999999997
10
1143.3356518507696
20
2790.7999999999997
42
0.99999999999999989
10
1146.2
20
2793.664348149231
10
1146.2
20
2806.3356518507699
42
0.99999999999999989
10
1143.3356518507696
20
2809.2000000000003
0
LWPOLYLINE
5
130
100
AcDbEntity
8
0
100
AcDbPolyline
90
8
70
1
43
0.0
10
1287.3528971419796
20
3087.5110220613578
42
0.99999999999999989
10
1287.3528971419796
20
3091.5618220613578
10
1278.3929323681471
20
3100.5217868351906
42
0.99999999999999989
10
1274.3421323681471
20
3100.5217868351901
10
1265.3821675943145
20
3091.5618220613578
42
0.99999999999999989
10
1265.3821675943145
20
3087.5110220613583
10
1274.3421323681471
20
3078.5510572875251
42
0.99999999999999989
10
1278.3929323681471
20
3078.5510572875251
0
LWPOLYLINE
5
131
100
AcDbEntity
8
0
100
AcDbPolyline
90
36
70
1
43
0.0
10
1144.9038614187639
20
2861.9038614187639
42
0.41421356237280887
10
1146
20
2864.5501740478248
10
1146
20
3073.7201882454315
10
1238.1837661840736
20
3165.9039544295047
10
1263.6396103067891
20
3165.9039544295051
10
1289.095454429505
20
3140.4481103067892
10
1278.1100896556725
20
3129.4627455329564
42
0.99999999999999989
10
1278.1100896556725
20
3125.4119455329565
10
1313.9856131272713
20
3089.5364220613578
10
1276.3675323681471
20
3051.9183413022338
10
1240.4920088965482
20
3087.7938647738324
42
0.99999999999999989
10
1236.4412088965482
20
3087.7938647738324
10
1201.0961385812359
20
3052.4487944585208
42
0.41421356237310153
10
1200
20
3049.8024818294598
10
1200
20
2550.1975181705402
42
0.41421356237188106
10
1201.0961385812284
20
2547.5512055414829
10
1236.4412088965482
20
2512.2061352261671
42
0.99999999999999989
10
1240.4920088965482
20
2512.2061352261676
10
1276.3675323681471
20
2548.0816586977662
10
1313.9856131272713
20
2510.4635779386422
10
1278.1100896556725
20
2474.5880544670435
42
0.99999999999999989
10
1278.1100896556725
20
2470.5372544670436
10
1289.095454429505
20
2459.5518896932108
10
1263.6396103067891
20
2434.0960455704949
10
1238.1837661840736
20
2434.0960455704949
10
1146
20
2526.279811754569
10
1146
20
2735.4498259521756
42
0.41421356237314411
10
1144.9038614187637
20
2738.0961385812361
10
1129.0961385812361
20
2753.9038614187643
42
0.41421356237310619
10
1126.4498259521756
20
2755
10
1074.0000000000002
20
2755
10
1056.0000000000002
20
2773
10
1056.0000000000002
20
2827
10
1074.0000000000005
20
2845
10
1126.4498259521756
20
2845
42
0.41421356237288942
10
1129.0961385812361
20
2846.0961385812361
0
LWPOLYLINE
5
132
100
AcDbEntity
8
0
100
AcDbPolyline
90
8
70
1
43
0.0
10
1474.3421323681471
20
2499.4782131648099
42
0.99999999999999989
10
1478.3929323681471
20
2499.4782131648099
10
1487.3528971419796
20
2508.4381779386422
42
0.99999999999999989
10
1487.3528971419796
20
2512.4889779386422
10
1478.3929323681471
20
2521.4489427124745
42
0.99999999999999989
10
1474.3421323681471
20
2521.4489427124745
10
1465.3821675943145
20
2512.4889779386422
42
0.99999999999999989
10
1465.3821675943145
20
2508.4381779386422
0
LWPOLYLINE
5
133
100
AcDbEntity
8
0
100
AcDbPolyline
90
8
70
1
43
0.0
10
1294.6643481492306
20
2809.2000000000003
42
0.99999999999999989
10
1291.8000000000002
20
2806.3356518507699
10
1291.8000000000002
20
2793.6643481492301
42
0.99999999999999989
10
1294.6643481492306
20
2790.7999999999997
10
1343.3356518507696
20
2790.7999999999997
42
0.99999999999999989
10
1346.2
20
2793.664348149231
10
1346.2
20
2806.3356518507699
42
0.99999999999999989
10
1343.3356518507696
20
2809.2000000000003
0
LWPOLYLINE
5
134
100
AcDbEntity
8
0
100
AcDbPolyline
90
8
70
1
43
0.0
10
1487.3528971419796
20
3087.5110220613578
42
0.99999999999999989
10
1487.3528971419796
20
3091.5618220613578
10
1478.3929323681471
20
3100.5217868351906
42
0.99999999999999989
10
1474.3421323681471
20
3100.5217868351901
10
1465.3821675943145
20
3091.5618220613578
42
0.99999999999999989
10
1465.3821675943145
20
3087.5110220613583
10
1474.3421323681471
20
3078.5510572875251
42
0.99999999999999989
10
1478.3929323681471
20
3078.5510572875251
0
LWPOLYLINE
5
135
100
AcDbEntity
8
0
100
AcDbPolyline
90
36
70
1
43
0.0
10
1344.9038614187637
20
2861.9038614187639
42
0.41421356237296536
10
1346
20
2864.5501740478244
10
1346
20
3073.7201882454315
10
1438.1837661840736
20
3165.9039544295047
10
1463.6396103067891
20
3165.9039544295051
10
1489.095454429505
20
3140.4481103067892
10
1478.1100896556725
20
3129.4627455329564
42
0.99999999999999989
10
1478.1100896556725
20
3125.4119455329565
10
1513.9856131272713
20
3089.5364220613578
10
1476.3675323681471
20
3051.9183413022338
10
1440.4920088965482
20
3087.7938647738324
42
0.99999999999999989
10
1436.4412088965482
20
3087.7938647738324
10
1401.0961385812359
20
3052.4487944585208
42
0.41421356237294971
10
1400
20
3049.8024818294598
10
1399.9999999999998
20
2550.1975181705402
42
0.41421356237171342
10
1401.0961385812284
20
2547.5512055414829
10
1436.4412088965482
20
2512.2061352261671
42
0.99999999999999989
10
1440.4920088965482
20
2512.2061352261676
10
1476.3675323681471
20
2548.0816586977662
10
1513.9856131272713
20
2510.4635779386422
10
1478.1100896556725
20
2474.5880544670435
42
0.99999999999999989
10
1478.1100896556725
20
2470.5372544670436
10
1489.095454429505
20
2459.5518896932108
10
1463.6396103067891
20
2434.0960455704949
10
1438.1837661840736
20
2434.0960455704949
10
1346
20
2526.279811754569
10
1346
20
2735.4498259521756
42
0.41421356237311729
10
1344.9038614187637
20
2738.0961385812361
10
1329.0961385812361
20
2753.9038614187643
42
0.41421356237322471
10
1326.4498259521756
20
2755
10
1274.0000000000002
20
2755
10
1256.0000000000002
20
2773
10
1256.0000000000002
20
2827
10
1274.0000000000005
20
2845
10
1326.4498259521756
20
2845
42
0.41421356237291168
10
1329.0961385812361
20
2846.0961385812361
0
LWPOLYLINE
5
136
100
AcDbEntity
8
0
100
AcDbPolyline
90
22
70
1
43
0.0
10
1453.9999999999998
20
3530.5
42
0.41421356237309509
10
1452
20
3532.5
10
1437
20
3532.5
10
1437
20
3551.5
10
1382.9999999999998
20
3551.5000000000005
10
1383
20
3532.5000000000005
10
1368
20
3532.5
42
0.41421356237309509
10
1366.0000000000002
20
3530.5
10
1366
20
3518.5
42
0.4142135623730534
10
1368
20
3516.5000000000005
10
1383
20
3516.5000000000005
10
1383
20
3515.5
10
1402.0000000000002
20
3515.5
10
1402
20
3500.5
42
0.41421356237313667
10
1404
20
3498.5000000000009
10
1416
20
3498.5
42
0.4142135623730534
10
1418
20
3500.4999999999995
10
1418
20
3515.5
10
1437.0000000000002
20
3515.5
10
1437
20
3516.5000000000005
10
1452
20
3516.5000000000005
42
0.4142135623730534
10
1453.9999999999995
20
3518.5
0
LWPOLYLINE
5
137
100
AcDbEntity
8
0
100
AcDbPolyline
90
16
70
1
43
0.0
10
1065.3356518507694
20
3515.7999999999997
42
0.99999999999999989
10
1068.1999999999998
20
3518.6643481492301
10
1068.1999999999998
20
3531.3356518507699
42
0.99999999999999989
10
1065.3356518507694
20
3534.2000000000003
10
1050
20
3534.2000000000003
10
1050
20
3552
10
1350
20
3552.0000000000005
10
1350
20
3534.2000000000003
10
1334.6643481492306
20
3534.2000000000003
42
0.99999999999999989
10
1331.8000000000002
20
3531.335651850769
10
1331.8000000000002
20
3518.6643481492301
42
0.99999999999999989
10
1334.6643481492306
20
3515.7999999999997
10
1350
20
3515.7999999999997
10
1350
20
3498
10
1050
20
3498
10
1050
20
3515.7999999999997
0
LWPOLYLINE
5
138
100
AcDbEntity
8
0
100
AcDbPolyline
90
16
70
1
43
0.0
10
1065.3356518507694
20
3440.7999999999997
42
0.99999999999999989
10
1068.1999999999998
20
3443.6643481492301
10
1068.1999999999998
20
3456.3356518507699
42
0.99999999999999989
10
1065.3356518507694
20
3459.2000000000003
10
1050
20
3459.2000000000003
10
1050
20
3477
10
1350
20
3477.0000000000005
10
1350
20
3459.2000000000003
10
1334.6643481492306
20
3459.2000000000003
42
0.99999999999999989
10
1331.8000000000002
20
3456.335651850769
10
1331.8000000000002
20
3443.6643481492301
42
0.99999999999999989
10
1334.6643481492306
20
3440.7999999999997
10
1350
20
3440.7999999999997
10
1350
20
3423
10
1050
20
3423
10
1050
20
3440.7999999999997
0
LWPOLYLINE
5
139
100
AcDbEntity
8
0
100
AcDbPolyline
90
16
70
1
43
0.0
10
1065.3356518507694
20
3365.7999999999997
42
0.99999999999999989
10
1068.1999999999998
20
3368.6643481492301
10
1068.1999999999998
20
3381.3356518507699
42
0.99999999999999989
10
1065.3356518507694
20
3384.2000000000003
10
1050
20
3384.2000000000003
10
1050
20
3402
10
1350
20
3402.0000000000005
10
1350
20
3384.2000000000003
10
1334.6643481492306
20
3384.2000000000003
42
0.99999999999999989
10
1331.8000000000002
20
3381.335651850769
10
1331.8000000000002
20
3368.6643481492301
42
0.99999999999999989
10
1334.6643481492306
20
3365.7999999999997
10
1350
20
3365.7999999999997
10
1350
20
3348
10
1050
20
3348
10
1050
20
3365.7999999999997
0
LWPOLYLINE
5
140
100
AcDbEntity
8
0
100
AcDbPolyline
90
16
70
1
43
0.0
10
1065.3356518507694
20
3290.7999999999997
42
0.99999999999999989
10
1068.1999999999998
20
3293.6643481492301
10
1068.1999999999998
20
3306.3356518507699
42
0.99999999999999989
10
1065.3356518507694
20
3309.2000000000003
10
1050
20
3309.2000000000003
10
1050
20
3327
10
1350
20
3327.0000000000005
10
1350
20
3309.2000000000003
10
1334.6643481492306
20
3309.2000000000003
42
0.99999999999999989
10
1331.8000000000002
20
3306.335651850769
10
1331.8000000000002
20
3293.6643481492301
42
0.99999999999999989
10
1334.6643481492306
20
3290.7999999999997
10
1350
20
3290.7999999999997
10
1350
20
3273
10
1050
20
3273
10
1050
20
3290.7999999999997
0
LWPOLYLINE
5
141
100
AcDbEntity
8
0
100
AcDbPolyline
90
16
70
1
43
0.0
10
1065.3356518507694
20
3215.7999999999997
42
0.99999999999999989
10
1068.1999999999998
20
3218.6643481492301
10
1068.1999999999998
20
3231.3356518507699
42
0.99999999999999989
10
1065.3356518507694
20
3234.2000000000003
10
1050
20
3234.2000000000003
10
1050
20
3252
10
1350
20
3252.0000000000005
10
1350
20
3234.2000000000003
10
1334.6643481492306
20
3234.2000000000003
42
0.99999999999999989
10
1331.8000000000002
20
3231.335651850769
10
1331.8000000000002
20
3218.6643481492301
42
0.99999999999999989
10
1334.6643481492306
20
3215.7999999999997
10
1350
20
3215.7999999999997
10
1350
20
3198
10
1050
20
3198
10
1050
20
3215.7999999999997
0
LWPOLYLINE
5
142
100
AcDbEntity
8
0
100
AcDbPolyline
90
22
70
1
43
0.0
10
1453.9999999999998
20
3230.5
42
0.41421356237309509
10
1452
20
3232.5
10
1437
20
3232.5
10
1437
20
3251.5
10
1382.9999999999998
20
3251.5000000000005
10
1383
20
3232.5000000000005
10
1368
20
3232.5
42
0.41421356237309509
10
1366.0000000000002
20
3230.5
10
1366
20
3218.5
42
0.4142135623730534
10
1368
20
3216.5000000000005
10
1383
20
3216.5000000000005
10
1383
20
3215.5
10
1402.0000000000002
20
3215.5
10
1402
20
3200.5
42
0.41421356237313667
10
1404
20
3198.5000000000009
10
1416
20
3198.5
42
0.4142135623730534
10
1418
20
3200.4999999999995
10
1418
20
3215.5
10
1437.0000000000002
20
3215.5
10
1437
20
3216.5000000000005
10
1452
20
3216.5000000000005
42
0.4142135623730534
10
1453.9999999999995
20
3218.5
0
LWPOLYLINE
5
143
100
AcDbEntity
8
0
100
AcDbPolyline
90
22
70
1
43
0.0
10
1453.9999999999998
20
3305.5
42
0.41421356237309509
10
1452
20
3307.5
10
1437
20
3307.5
10
1437
20
3326.5
10
1382.9999999999998
20
3326.5000000000005
10
1383
20
3307.5000000000005
10
1368
20
3307.5
42
0.41421356237309509
10
1366.0000000000002
20
3305.5
10
1366
20
3293.5
42
0.4142135623730534
10
1368
20
3291.5000000000005
10
1383
20
3291.5000000000005
10
1383
20
3290.5
10
1402.0000000000002
20
3290.5
10
1402
20
3275.5
42
0.41421356237313667
10
1404
20
3273.5000000000009
10
1416
20
3273.5
42
0.4142135623730534
10
1418
20
3275.4999999999995
10
1418
20
3290.5
10
1437.0000000000002
20
3290.5
10
1437
20
3291.5000000000005
10
1452
20
3291.5000000000005
42
0.4142135623730534
10
1453.9999999999995
20
3293.5
0
LWPOLYLINE
5
144
100
AcDbEntity
8
0
100
AcDbPolyline
90
22
70
1
43
0.0
10
1453.9999999999998
20
3380.5
42
0.41421356237309509
10
1452
20
3382.5
10
1437
20
3382.5
10
1437
20
3401.5
10
1382.9999999999998
20
3401.5000000000005
10
1383
20
3382.5000000000005
10
1368
20
3382.5
42
0.41421356237309509
10
1366.0000000000002
20
3380.5
10
1366
20
3368.5
42
0.4142135623730534
10
1368
20
3366.5000000000005
10
1383
20
3366.5000000000005
10
1383
20
3365.5
10
1402.0000000000002
20
3365.5
10
1402
20
3350.5
42
0.41421356237313667
10
1404
20
3348.5000000000009
10
1416
20
3348.5
42
0.4142135623730534
10
1418
20
3350.4999999999995
10
1418
20
3365.5
10
1437.0000000000002
20
3365.5
10
1437
20
3366.5000000000005
10
1452
20
3366.5000000000005
42
0.4142135623730534
10
1453.9999999999995
20
3368.5
0
LWPOLYLINE
5
145
100
AcDbEntity
8
0
100
AcDbPolyline
90
22
70
1
43
0.0
10
1453.9999999999998
20
3455.5
42
0.41421356237309509
10
1452
20
3457.5
10
1437
20
3457.5
10
1437
20
3476.5
10
1382.9999999999998
20
3476.5000000000005
10
1383
20
3457.5000000000005
10
1368
20
3457.5
42
0.41421356237309509
10
1366.0000000000002
20
3455.5
10
1366
20
3443.5
42
0.4142135623730534
10
1368
20
3441.5000000000005
10
1383
20
3441.5000000000005
10
1383
20
3440.5
10
1402.0000000000002
20
3440.5
10
1402
20
3425.5
42
0.41421356237313667
10
1404
20
3423.5000000000009
10
1416
20
3423.5
42
0.4142135623730534
10
1418
20
3425.4999999999995
10
1418
20
3440.5
10
1437.0000000000002
20
3440.5
10
1437
20
3441.5000000000005
10
1452
20
3441.5000000000005
42
0.4142135623730534
10
1453.9999999999995
20
3443.5
0
ENDSEC
0
SECTION
2
OBJECTS
0
DICTIONARY
5
C
100
AcDbDictionary
3
ACAD_GROUP
350
D
3
ACAD_MLINESTYLE
350
17
0
DICTIONARY
5
D
100
AcDbDictionary
0
DICTIONARY
5
1A
330
C
100
AcDbDictionary
0
DICTIONARY
5
17
100
AcDbDictionary
0
ENDSEC
0
EOF
