0
SECTION
2
HEADER
9
$INSUNITS
70
4
9
$ACADVER
1
AC1014
9
$HANDSEED
5
FFFF
0
ENDSEC
0
SECTION
2
TABLES
0
TABLE
2
VPORT
5
8
100
AcDbSymbolTable
0
ENDTAB
0
TABLE
2
LTYPE
5
5
100
AcDbSymbolTable
0
LTYPE
5
14
100
AcDbSymbolTableRecord
100
AcDbLinetypeTableRecord
2
BYBLOCK
70
0
0
LTYPE
5
15
100
AcDbSymbolTableRecord
100
AcDbLinetypeTableRecord
2
BYLAYER
70
0
0
ENDTAB
0
TABLE
2
LAYER
5
2
100
AcDbSymbolTable
70
2
0
LAYER
5
50
100
AcDbSymbolTableRecord
100
AcDbLayerTableRecord
2
0
70
0
6
CONTINUOUS
0
ENDTAB
0
TABLE
2
STYLE
5
3
100
AcDbSymbolTable
70
1
0
STYLE
5
11
100
AcDbSymbolTableRecord
100
AcDbTextStyleTableRecord
2
STANDARD
70
0
0
ENDTAB
0
TABLE
2
VIEW
5
6
100
AcDbSymbolTable
70
0
0
ENDTAB
0
TABLE
2
UCS
5
7
100
AcDbSymbolTable
70
0
0
ENDTAB
0
TABLE
2
APPID
5
9
100
AcDbSymbolTable
70
2
0
APPID
5
12
100
AcDbSymbolTableRecord
100
AcDbRegAppTableRecord
2
ACAD
70
0
0
ENDTAB
0
TABLE
2
DIMSTYLE
5
A
100
AcDbSymbolTable
70
1
0
ENDTAB
0
TABLE
2
BLOCK_RECORD
5
1
100
AcDbSymbolTable
70
1
0
BLOCK_RECORD
5
1F
100
AcDbSymbolTableRecord
100
AcDbBlockTableRecord
2
*MODEL_SPACE
0
BLOCK_RECORD
5
1B
100
AcDbSymbolTableRecord
100
AcDbBlockTableRecord
2
*PAPER_SPACE
0
ENDTAB
0
ENDSEC
0
SECTION
2
BLOCKS
0
BLOCK
5
20
100
AcDbEntity
100
AcDbBlockBegin
2
*MODEL_SPACE
0
ENDBLK
5
21
100
AcDbEntity
100
AcDbBlockEnd
0
BLOCK
5
1C
100
AcDbEntity
100
AcDbBlockBegin
2
*PAPER_SPACE
0
ENDBLK
5
1D
100
AcDbEntity
100
AcDbBlockEnd
0
ENDSEC
0
SECTION
2
ENTITIES
0
LWPOLYLINE
5
100
100
AcDbEntity
8
0
100
AcDbPolyline
90
8
70
1
43
0.0
10
406.86434814923047
20
575
42
0.99999999999999989
10
404.00000000000006
20
572.13565185076959
10
404.00000000000006
20
227.86434814923044
42
1.0000000105367119
10
406.86434814923052
20
225
10
793.13565185076959
20
224.99999999999997
42
0.99999999999999989
10
796
20
227.86434814923047
10
796
20
572.13565185076959
42
0.99999999999999989
10
793.13565185076959
20
575
0
LWPOLYLINE
5
101
100
AcDbEntity
8
0
100
AcDbPolyline
90
8
70
1
43
0.0
10
117.80000000000001
20
626.66434814923059
42
0.99999999999999989
10
120.66434814923045
20
623.80000000000007
10
133.33565185076961
20
623.80000000000007
42
0.99999999999999989
10
136.20000000000005
20
626.66434814923059
10
136.20000000000007
20
657.33565185076952
42
0.99999999999999989
10
133.33565185076964
20
660.20000000000005
10
120.66434814923048
20
660.19999999999993
42
0.99999999999999989
10
117.80000000000001
20
657.33565185076941
0
LWPOLYLINE
5
102
100
AcDbEntity
8
0
100
AcDbPolyline
90
8
70
1
43
0.0
10
1007.3356518507694
20
713.80000000000007
42
0.99999999999999989
10
1010.1999999999998
20
716.66434814923048
10
1010.1999999999997
20
729.33565185076941
42
0.99999999999999989
10
1007.3356518507694
20
732.20000000000005
10
976.66434814923048
20
732.19999999999982
42
0.99999999999999989
10
973.79999999999995
20
729.33565185076964
10
973.79999999999995
20
716.66434814923048
42
0.99999999999999989
10
976.66434814923025
20
713.79999999999995
0
LWPOLYLINE
5
103
100
AcDbEntity
8
0
100
AcDbPolyline
90
8
70
1
43
0.0
10
915.51276618262341
20
221.47646904354434
42
0.99999999999999989
10
919.56356618262339
20
221.47646904354434
10
928.52353095645583
20
230.43643381737681
42
0.99999999999999989
10
928.52353095645594
20
234.48723381737679
10
906.83564412126566
20
256.17512065256705
42
0.99999999999999989
10
902.78484412126568
20
256.17512065256705
10
893.82487934743313
20
247.21515587873449
42
0.99999999999999989
10
893.82487934743313
20
243.16435587873451
0
LWPOLYLINE
5
104
100
AcDbEntity
8
0
100
AcDbPolyline
90
8
70
1
43
0.0
10
271.47646904354411
20
234.48723381737679
42
0.99999999999999989
10
271.47646904354411
20
230.43643381737681
10
280.43643381737672
20
221.47646904354431
42
0.99999999999999989
10
284.4872338173767
20
221.47646904354431
10
306.17512065256693
20
243.16435587873454
42
0.99999999999999989
10
306.17512065256687
20
247.21515587873455
10
297.21515587873432
20
256.17512065256705
42
0.99999999999999989
10
293.16435587873434
20
256.17512065256705
0
LWPOLYLINE
5
105
100
AcDbEntity
8
0
100
AcDbPolyline
90
8
70
1
43
0.0
10
133.33565185076961
20
139.79999999999995
42
0.99999999999999989
10
136.20000000000007
20
142.66434814923048
10
136.20000000000007
20
173.33565185076949
42
0.99999999999999989
10
133.33565185076964
20
176.19999999999999
10
120.66434814923043
20
176.20000000000002
42
0.99999999999999989
10
117.80000000000001
20
173.33565185076947
10
117.80000000000001
20
142.66434814923048
42
0.99999999999999989
10
120.66434814923042
20
139.79999999999995
0
LWPOLYLINE
5
106
100
AcDbEntity
8
0
100
AcDbPolyline
90
8
70
1
43
0.0
10
1063.8
20
142.66434814923048
42
0.99999999999999989
10
1066.6643481492304
20
139.80000000000001
10
1079.3356518507696
20
139.79999999999995
42
0.99999999999999989
10
1082.2
20
142.66434814923048
10
1082.2
20
173.33565185076949
42
0.99999999999999989
10
1079.3356518507696
20
176.19999999999999
10
1066.6643481492304
20
176.20000000000002
42
0.99999999999999989
10
1063.8
20
173.33565185076947
0
LWPOLYLINE
5
107
100
AcDbEntity
8
0
100
AcDbPolyline
90
8
70
1
43
0.0
10
928.52353095645583
20
565.51276618262318
42
0.99999999999999989
10
928.52353095645583
20
569.56356618262316
10
919.56356618262339
20
578.52353095645572
42
0.99999999999999989
10
915.51276618262341
20
578.52353095645572
10
893.82487934743313
20
556.83564412126543
42
0.99999999999999989
10
893.82487934743324
20
552.78484412126556
10
902.78484412126568
20
543.8248793474329
42
0.99999999999999989
10
906.83564412126555
20
543.8248793474329
0
LWPOLYLINE
5
108
100
AcDbEntity
8
0
100
AcDbPolyline
90
8
70
1
43
0.0
10
293.16435587873434
20
543.8248793474329
42
0.99999999999999989
10
297.21515587873432
20
543.8248793474329
10
306.17512065256687
20
552.78484412126556
42
0.99999999999999989
10
306.17512065256687
20
556.83564412126555
10
284.48723381737665
20
578.52353095645572
42
0.99999999999999989
10
280.43643381737667
20
578.52353095645572
10
271.47646904354411
20
569.56356618262316
42
0.99999999999999989
10
271.47646904354411
20
565.51276618262318
0
LWPOLYLINE
5
109
100
AcDbEntity
8
0
100
AcDbPolyline
90
8
70
1
43
0.0
10
165.8851352651559
20
671.10409996101134
42
0.99999999999999989
10
169.93593526515588
20
671.10409996101134
10
178.89590003898846
20
680.06406473484401
42
0.99999999999999989
10
178.89590003898846
20
684.11486473484399
10
157.20801320379815
20
705.80275157003427
42
0.99999999999999989
10
153.15721320379816
20
705.80275157003427
10
144.19724842996573
20
696.84278679620184
42
0.99999999999999989
10
144.19724842996573
20
692.79198679620185
0
LWPOLYLINE
5
110
100
AcDbEntity
8
0
100
AcDbPolyline
90
8
70
1
43
0.0
10
1055.8027515700342
20
692.79198679620185
42
0.99999999999999989
10
1055.8027515700342
20
696.84278679620184
10
1046.8427867962018
20
705.80275157003427
42
0.99999999999999989
10
1042.7919867962019
20
705.80275157003427
10
1021.1040999610113
20
684.11486473484399
42
0.99999999999999989
10
1021.1040999610116
20
680.0640647348439
10
1030.0640647348441
20
671.10409996101134
42
0.99999999999999989
10
1034.1148647348441
20
671.10409996101134
0
LWPOLYLINE
5
111
100
AcDbEntity
8
0
100
AcDbPolyline
90
8
70
1
43
0.0
10
1007.3356518507693
20
67.799999999999955
42
0.99999999999999989
10
1010.199999978659
20
70.664348170571387
10
1010.1999999999998
20
83.335651850769466
42
0.99999999999999989
10
1007.3356518507695
20
86.199999999999974
10
976.66434814923036
20
86.199999999999989
42
0.99999999999999989
10
973.79999999999995
20
83.335651850769466
10
973.80000000000007
20
70.664348149230435
42
1.0000000105367119
10
976.66434814923036
20
67.79999999999994
0
LWPOLYLINE
5
112
100
AcDbEntity
8
0
100
AcDbPolyline
90
8
70
1
43
0.0
10
223.33565185076964
20
67.799999999999955
42
0.99999999999999989
10
226.19999997865921
20
70.664348170571373
10
226.20000000000007
20
83.335651850769466
42
0.99999999999999989
10
223.33565185076969
20
86.199999999999974
10
192.66434814923045
20
86.199999999999989
42
0.99999999999999989
10
189.80000000000004
20
83.335651850769466
10
189.80000000000004
20
70.664348149230406
42
0.99999999999999989
10
192.66434814923053
20
67.79999999999994
0
LWPOLYLINE
5
113
100
AcDbEntity
8
0
100
AcDbPolyline
90
8
70
1
43
0.0
10
178.89590003898846
20
115.88513526515597
42
0.99999999999999989
10
178.89590003898846
20
119.93593526515598
10
169.93593526515588
20
128.89590003898854
42
0.99999999999999989
10
165.8851352651559
20
128.89590003898854
10
144.19724842996558
20
107.20801320379819
42
0.99999999999999989
10
144.19724842996558
20
103.15721320379819
10
153.15721320379819
20
94.197248429965754
42
0.99999999999999989
10
157.2080132037982
20
94.197248429965754
0
LWPOLYLINE
5
114
100
AcDbEntity
8
0
100
AcDbPolyline
90
8
70
1
43
0.0
10
1055.8027515700342
20
103.15721320379821
42
0.99999999999999989
10
1055.8027515700342
20
107.20801320379822
10
1034.1148647348441
20
128.89590003898854
42
0.99999999999999989
10
1030.0640647348441
20
128.89590003898854
10
1021.1040999610113
20
119.93593526515598
42
0.99999999999999989
10
1021.1040999610113
20
115.88513526515598
10
1042.7919867962019
20
94.197248429965697
42
0.99999999999999989
10
1046.8427867962018
20
94.197248429965697
0
LWPOLYLINE
5
115
100
AcDbEntity
8
0
100
AcDbPolyline
90
8
70
1
43
0.0
10
1079.3356518507696
20
623.80000000000007
42
0.99999999999999989
10
1082.2
20
626.66434814923059
10
1082.2
20
657.33565185076952
42
0.99999999999999989
10
1079.3356518507696
20
660.20000000000005
10
1066.6643481492304
20
660.19999999999993
42
0.99999999999999989
10
1063.8
20
657.33565185076941
10
1063.8
20
626.66434814923059
42
0.99999998946328772
10
1066.6643481492301
20
623.80000000000007
0
LWPOLYLINE
5
116
100
AcDbEntity
8
0
100
AcDbPolyline
90
8
70
1
43
0.0
10
223.33565185076964
20
713.80000000000007
42
0.99999999999999989
10
226.2000000000001
20
716.66434814923048
10
226.2000000000001
20
729.33565185076941
42
1.0000000105367119
10
223.33565185076964
20
732.20000000000005
10
192.66434814923056
20
732.19999999999982
42
0.99999999999999989
10
189.80000000000004
20
729.33565185076964
10
189.80000000000004
20
716.66434814923048
42
0.99999999999999989
10
192.66434814923045
20
713.79999999999995
0
LWPOLYLINE
5
117
100
AcDbEntity
8
0
100
AcDbPolyline
90
4
70
1
43
0.0
10
1099.9999999999998
20
750
10
100.00000000000014
20
750
10
100.00000000000007
20
50
10
1099.9999999999998
20
50
0
LWPOLYLINE
5
118
100
AcDbEntity
8
0
100
AcDbPolyline
90
24
70
1
43
0.0
10
139.49597831595528
20
870.74580687829257
42
0.99999999999999989
10
143.08908179899367
20
872.61625816078504
10
196.21516742802712
20
1041.1106752117307
42
1.0000000105367119
10
194.34471614553468
20
1044.703778694769
10
180.10033180498164
20
1049.1950158256723
10
190.80545826733373
20
1083.1473392723092
10
205.04984260788677
20
1078.6561021414061
42
0.99999999999999989
10
208.64294609092511
20
1080.5265534238986
10
218.66716993270688
20
1112.3193296582187
10
235.83407504617497
20
1106.9066252671419
10
560.25438648849206
20
878.79379896473949
10
550.09053046524764
20
846.55816602944935
10
535.46465934439527
20
851.16968548015439
42
0.99999999999999989
10
531.87155586135691
20
849.29923419766169
10
528.0612213510243
20
837.21439706942522
42
0.99999999999999989
10
529.93167263351654
20
833.62129358638686
10
544.55754375436891
20
829.00977413568216
10
534.3936877311246
20
796.77414120039202
10
137.80398440778194
20
795.99489932322001
10
120.63707929431385
20
801.4076037142969
10
130.66130313609557
20
833.20037994861741
42
1.0000000105367119
10
128.7908518536031
20
836.79348343165555
10
114.54646751305006
20
841.28472056255873
10
125.2515939754022
20
875.23704400919564
0
LWPOLYLINE
5
119
100
AcDbEntity
8
0
100
AcDbPolyline
90
8
70
1
43
0.0
10
439.40613659390954
20
845.80683111009921
42
0.99999999999999989
10
435.81303311087106
20
843.93637982760663
10
432.00269860053834
20
831.85154269937016
42
0.99999998946328772
10
433.87314988303092
20
828.25843921633179
10
463.12489212473565
20
819.03540031492196
42
1.0000000105367119
10
466.71799560777396
20
820.90585159741454
10
470.52833011810662
20
832.99068872565101
42
0.99999999999999989
10
468.65787883561433
20
836.58379220868937
0
LWPOLYLINE
5
120
100
AcDbEntity
8
0
100
AcDbPolyline
90
8
70
1
43
0.0
10
459.85413096020011
20
910.65958376097853
42
0.99999999999999989
10
456.26102747716186
20
908.78913247848595
10
452.45069296682902
20
896.70429535024948
42
0.99999998946328772
10
454.32114424932143
20
893.11119186721112
10
483.57288649102611
20
883.88815296580151
42
0.99999999999999989
10
487.16598997406447
20
885.75860424829398
10
490.9763244843972
20
897.84344137653056
42
0.99999999999999989
10
489.10587320190484
20
901.43654485956881
0
LWPOLYLINE
5
121
100
AcDbEntity
8
0
100
AcDbPolyline
90
8
70
1
43
0.0
10
233.40327523229249
20
910.75928380302219
42
0.99999999999999989
10
229.81017174925404
20
908.8888325205296
10
225.99983723892143
20
896.80399539229313
42
0.99999999999999989
10
227.87028852141387
20
893.21089190925477
10
257.12203076311846
20
883.98785300784516
42
0.99999999999999989
10
260.71513424615688
20
885.85830429033763
10
264.5254687564896
20
897.9431414185741
42
1.0000000105367119
10
262.65501747399708
20
901.53624490161246
0
LWPOLYLINE
5
122
100
AcDbEntity
8
0
100
AcDbPolyline
90
8
70
1
43
0.0
10
253.85126959858309
20
975.61203645390151
42
0.99999999999999989
10
250.25816611554478
20
973.74158517140904
10
246.447831605212
20
961.65674804317246
42
0.99999999999999989
10
248.31828288770447
20
958.06364456013409
10
277.57002512940903
20
948.84060565872448
42
0.99999999999999989
10
281.16312861244745
20
950.71105694121695
10
284.97346312278012
20
962.79589406945342
42
1.0000000105367119
10
283.10301184028765
20
966.3889975524919
0
LWPOLYLINE
5
123
100
AcDbEntity
8
0
100
AcDbPolyline
90
30
70
1
43
0.0
10
717.42225640501033
20
949.76702909855385
42
0.99999998946328772
10
719.2927076875028
20
946.1739256155156
10
772.83023039888292
20
929.29360954503636
10
753.78483257197286
20
868.88932478826916
42
1.0000000105367119
10
755.65528385446544
20
865.2962213052308
10
769.89966819501842
20
860.80498417432761
10
759.19454173266627
20
826.8526607276907
10
744.95015739211328
20
831.34389785859389
42
0.99999999999999989
10
741.35705390907492
20
829.47344657610142
10
731.33283006729312
20
797.68067034178102
10
714.16592495382497
20
803.09337473285791
10
389.74561351150817
20
1031.2062010352604
10
399.90946953475259
20
1063.4418339705505
10
414.5353406556049
20
1058.8303145198456
42
1.0000000105367119
10
418.1284441386432
20
1060.7007658023381
10
421.93877864897587
20
1072.7856029305747
42
0.99999999999999989
10
420.06832736648357
20
1076.3787064136131
10
405.44245624563126
20
1080.9902258643178
10
415.60631226887563
20
1113.225858799608
10
812.19601559221815
20
1114.0051006767799
10
829.36292070568629
20
1108.592396285703
10
819.33869686390449
20
1076.7996200513826
42
1.0000000105367119
10
821.20914814639707
20
1073.2065165683443
10
835.45353248695005
20
1068.715279437441
10
824.7484060245979
20
1034.7629559908041
10
810.50402168404491
20
1039.2541931217074
42
0.99999999999999989
10
806.91091820100633
20
1037.3837418392147
10
787.8655203740966
20
976.97945708244765
10
734.3279976627166
20
993.85977315292689
42
0.99999998946328772
10
730.73489417967824
20
991.98932187043442
0
CIRCLE
5
124
100
AcDbEntity
8
0
100
AcDbCircle
10
734.30257262783903
20
1003.3045522931245
30
0
40
1.9999999999999973
210
-0
220
0
230
1
0
CIRCLE
5
125
100
AcDbEntity
8
0
100
AcDbCircle
10
713.85457795684954
20
938.45179867586364
30
0
40
1.9999999999999973
210
-0
220
0
230
1
0
CIRCLE
5
126
100
AcDbEntity
8
0
100
AcDbCircle
10
781.98842016525032
20
988.26926231791072
30
0
40
2.0000000000000018
210
-0
220
0
230
1
0
CIRCLE
5
127
100
AcDbEntity
8
0
100
AcDbCircle
10
761.54042549426094
20
923.41650870065007
30
0
40
2.0000000000000018
210
-0
220
0
230
1
0
LWPOLYLINE
5
128
100
AcDbEntity
8
0
100
AcDbPolyline
90
8
70
1
43
0.0
10
510.59386340609058
20
1064.1931688899008
42
0.99999999999999989
10
514.18696688912905
20
1066.0636201723933
10
517.99730139946178
20
1078.1484573006298
42
0.99999999999999989
10
516.12685011696919
20
1081.7415607836683
10
486.87510787526458
20
1090.9645996850779
42
0.99999999999999989
10
483.28200439222627
20
1089.0941484025852
10
479.47166988189349
20
1077.0093112743489
42
0.99999999999999989
10
481.34212116438596
20
1073.4162077913104
0
LWPOLYLINE
5
129
100
AcDbEntity
8
0
100
AcDbPolyline
90
8
70
1
43
0.0
10
490.1458690398
20
999.34041623902135
42
0.99999999999999989
10
493.73897252283854
20
1001.2108675215138
10
497.54930703317115
20
1013.2957046497504
42
0.99999999999999989
10
495.67885575067862
20
1016.8888081327889
10
466.427113508974
20
1026.1118470341985
42
0.99999999999999989
10
462.83401002593564
20
1024.241395751706
10
459.02367551560297
20
1012.1565586234694
42
0.99999999999999989
10
460.89412679809533
20
1008.5634551404312
0
LWPOLYLINE
5
130
100
AcDbEntity
8
0
100
AcDbPolyline
90
8
70
1
43
0.0
10
716.59672476770766
20
999.2407161969777
42
0.99999998946328772
10
720.18982825074602
20
1001.1111674794702
10
724.00016276107874
20
1013.1960046077069
42
1.0000000105367119
10
722.12971147858627
20
1016.7891080907452
10
692.87796923688165
20
1026.0121469921548
42
0.99999999999999989
10
689.28486575384329
20
1024.1416957096621
10
685.47453124351046
20
1012.0568585814259
42
0.99999998946328772
10
687.34498252600304
20
1008.4637550983875
0
LWPOLYLINE
5
131
100
AcDbEntity
8
0
100
AcDbPolyline
90
8
70
1
43
0.0
10
696.14873040141697
20
934.38796354609838
42
0.99999999999999989
10
699.74183388445567
20
936.25841482859084
10
703.55216839478817
20
948.34325195682732
42
1.0000000105367119
10
701.68171711229559
20
951.93635543986579
10
672.42997487059097
20
961.1593943412754
42
0.99999998946328772
10
668.83687138755261
20
959.28894305878293
10
665.02653687721988
20
947.20410593054635
42
0.99999998946328772
10
666.89698815971246
20
943.61100244750799
0
CIRCLE
5
132
100
AcDbEntity
8
0
100
AcDbCircle
10
1051
20
1119
30
0
40
25
210
0
220
0
230
1
0
CIRCLE
5
133
100
AcDbEntity
8
0
100
AcDbCircle
10
1663
20
995
30
0
40
1.4999999999999858
210
0
220
0
230
1
0
CIRCLE
5
134
100
AcDbEntity
8
0
100
AcDbCircle
10
1743
20
835
30
0
40
1.4999999999999858
210
0
220
0
230
1
0
CIRCLE
5
135
100
AcDbEntity
8
0
100
AcDbCircle
10
1663
20
835
30
0
40
1.4999999999999858
210
0
220
0
230
1
0
LWPOLYLINE
5
136
100
AcDbEntity
8
0
100
AcDbPolyline
90
8
70
1
43
0.0
10
1606.6920624883076
20
930.39072055818497
42
0.99999999999999989
10
1603.2643032109579
20
932.54929577729217
10
1590.9078895881926
20
929.74198747933599
42
0.99999999999999989
10
1588.7493143690854
20
926.31422820198645
10
1591.556622667041
20
913.95781457922089
42
0.99999999999999989
10
1594.9843819443909
20
911.79923936011369
10
1607.3407955671564
20
914.60654765806976
42
0.99999999999999989
10
1609.4993707862636
20
918.03430693541929
0
LWPOLYLINE
5
137
100
AcDbEntity
8
0
100
AcDbPolyline
90
8
70
1
43
0.0
10
1145.8210198083634
20
1080.6300509303392
42
0.99999998946328772
10
1142.5859070842639
20
1078.1922186345546
10
1140.8224024549138
20
1065.6442311895935
42
0.99999998946328772
10
1143.2602347506981
20
1062.409118465494
10
1155.808222195659
20
1060.6456138361439
42
0.99999998946328772
10
1159.0433349197588
20
1063.0834461319282
10
1160.8068395491089
20
1075.6314335768893
42
0.99999998946328772
10
1158.3690072533245
20
1078.8665463009893
0
LWPOLYLINE
5
138
100
AcDbEntity
8
0
100
AcDbPolyline
90
8
70
1
43
0.0
10
1544.016603041689
20
1024.6673112879218
42
0.99999999999999989
10
1540.7814903175893
20
1022.229478992137
10
1539.0179856882392
20
1009.6814915471762
42
0.99999999999999989
10
1541.455817984024
20
1006.4463788230768
10
1554.0038054289848
20
1004.6828741937269
42
0.99999999999999989
10
1557.2389181530843
20
1007.1207064895113
10
1559.0024227824345
20
1019.6686939344721
42
0.99999999999999989
10
1556.5645904866501
20
1022.9038066585717
0
LWPOLYLINE
5
139
100
AcDbEntity
8
0
100
AcDbPolyline
90
8
70
1
43
0.0
10
1371.5267814773847
20
876.96247957110813
42
0.99999999999999989
10
1368.0990222000351
20
879.12105479021534
10
1355.7426085772695
20
876.31374649225927
42
0.99999999999999989
10
1353.5840333581623
20
872.88598721490996
10
1356.3913416561184
20
860.52957359214406
42
0.99999999999999989
10
1359.8191009334682
20
858.37099837303697
10
1372.1755145562336
20
861.17830667099292
42
0.99999999999999989
10
1374.3340897753408
20
864.60606594834246
0
LWPOLYLINE
5
140
100
AcDbEntity
8
0
100
AcDbPolyline
90
28
70
1
43
0.0
10
1839
20
1103.6643481492306
42
0.99999998946328772
10
1841.8643481278896
20
1100.7999999786591
10
1874.8000000000002
20
1100.8
10
1874.8
20
1065.2
10
1841.8643481492304
20
1065.2
42
0.99999999999999989
10
1839
20
1062.3356518507696
10
1839
20
887.66434814923048
42
0.99999999999999989
10
1841.8643481492309
20
884.80000000000007
10
1874.8000000000002
20
884.80000000000007
10
1874.8
20
849.20000000000005
10
1841.8643481492304
20
849.20000000000016
42
0.99999999999999989
10
1839
20
846.33565185076964
10
1839
20
777
10
911
20
777
10
911
20
846.33565185076964
42
0.99999999999999989
10
908.13565185076959
20
849.20000000000005
10
875.20000000000005
20
849.20000000000005
10
875.20000000000005
20
884.80000000000007
10
908.13565185076959
20
884.80000000000007
42
0.99999999999999989
10
911
20
887.66434814923048
10
911
20
1062.3356518507696
42
0.99999999999999989
10
908.13565185076959
20
1065.2
10
875.20000000000005
20
1065.2
10
875.20000000000005
20
1100.8
10
908.13565185076936
20
1100.8000000000002
42
0.99999999999999989
10
911
20
1103.6643481492306
10
911
20
1173
10
1839
20
1173
0
LWPOLYLINE
5
141
100
AcDbEntity
8
0
100
AcDbPolyline
90
8
70
1
43
0.0
10
1539.8643481492304
20
904
42
0.99999999999999989
10
1537
20
901.13565185076959
10
1537
20
852.86434814923041
42
0.99999999999999989
10
1539.8643481492304
20
850
10
1624.1356518507696
20
849.99999999999989
42
0.99999999999999989
10
1627
20
852.86434814923041
10
1627
20
901.13565185076959
42
0.99999999999999989
10
1624.1356518507696
20
904
0
LWPOLYLINE
5
142
100
AcDbEntity
8
0
100
AcDbPolyline
90
14
70
1
43
0.0
10
1535.1356518507705
20
375.00000000000011
42
0.99999999999999989
10
1538.0000000000009
20
377.86434814923052
10
1538.0000000000009
20
422.13565185076965
42
0.99999999999999989
10
1535.1356518507705
20
425.00000000000006
10
1358.0000000000007
20
425.00000000000006
10
1322.4801622946588
20
433.87995942633557
42
0.1231056256176605
10
1321.5050600354223
20
434.00000000000011
10
1234.8643481492313
20
434.00000000000023
42
0.99999999999999989
10
1232.0000000000009
20
431.13565185076965
10
1232.0000000000009
20
368.86434814923064
42
0.99999999999999989
10
1234.8643481492313
20
366.00000000000017
10
1321.505060035422
20
366.00000000000017
42
0.12310562561755771
10
1322.4801622946588
20
366.1200405736646
10
1358.0000000000007
20
375.00000000000006
0
LWPOLYLINE
5
143
100
AcDbEntity
8
0
100
AcDbPolyline
90
8
70
1
43
0.0
10
1215.3356518507705
20
713.80000000000018
42
0.99999999999999989
10
1218.200000000001
20
716.66434814923059
10
1218.2000000000007
20
729.33565185076975
42
0.99999999999999989
10
1215.3356518507703
20
732.20000000000027
10
1184.6643481492315
20
732.20000000000016
42
0.99999999999999989
10
1181.8000000000009
20
729.33565185076975
10
1181.8000000000009
20
716.66434814923059
42
0.99999999999999989
10
1184.6643481492313
20
713.80000000000007
0
LWPOLYLINE
5
144
100
AcDbEntity
8
0
100
AcDbPolyline
90
8
70
1
43
0.0
10
1146.200000000001
20
306.33565185076964
42
0.99999999999999989
10
1143.3356518507705
20
309.2000000000001
10
1130.6643481492313
20
309.20000000000016
42
0.99999999999999989
10
1127.8000000000009
20
306.33565185076964
10
1127.8000000000009
20
275.66434814923059
42
0.99999999999999989
10
1130.6643481492313
20
272.80000000000018
10
1143.3356518507705
20
272.80000000000007
42
0.99999999999999989
10
1146.200000000001
20
275.66434814923065
0
LWPOLYLINE
5
145
100
AcDbEntity
8
0
100
AcDbPolyline
90
8
70
1
43
0.0
10
2092.2000000000007
20
524.33565185076952
42
0.99999999999999989
10
2089.3356518507703
20
527.20000000000005
10
2076.664348149231
20
527.20000000000005
42
0.99999999999999989
10
2073.8000000000006
20
524.33565185076952
10
2073.8000000000006
20
493.66434814923053
42
0.99999999999999989
10
2076.664348149231
20
490.79999999999995
10
2089.3356518507703
20
490.79999999999995
42
0.99999999999999989
10
2092.2000000000007
20
493.66434814923053
0
LWPOLYLINE
5
146
100
AcDbEntity
8
0
100
AcDbPolyline
90
8
70
1
43
0.0
10
2089.3356518507703
20
623.80000000000007
42
0.99999999999999989
10
2092.2000000000007
20
626.66434814923059
10
2092.2000000000007
20
657.33565185076952
42
0.99999999999999989
10
2089.3356518507703
20
660.20000000000005
10
2076.664348149231
20
660.19999999999993
42
0.99999999999999989
10
2073.8000000000006
20
657.33565185076941
10
2073.8000000000006
20
626.66434814923059
42
0.99999998946328772
10
2076.664348149231
20
623.80000000000007
0
LWPOLYLINE
5
147
100
AcDbEntity
8
0
100
AcDbPolyline
90
8
70
1
43
0.0
10
2035.3356518507703
20
67.799999999999955
42
0.99999999999999989
10
2038.2000000000007
20
70.664348149230364
10
2038.2000000000007
20
83.335651850769494
42
0.99999999999999989
10
2035.3356518507703
20
86.200000000000017
10
2004.664348149231
20
86.200000000000031
42
0.99999998946328772
10
2001.8000000000006
20
83.335651850769466
10
2001.8000000000006
20
70.664348149230435
42
0.99999999999999989
10
2004.6643481492313
20
67.79999999999994
0
LWPOLYLINE
5
148
100
AcDbEntity
8
0
100
AcDbPolyline
90
8
70
1
43
0.0
10
1143.3356518507705
20
139.8000000000001
42
0.99999999999999989
10
1146.200000000001
20
142.66434814923068
10
1146.200000000001
20
173.33565185076964
42
0.99999999999999989
10
1143.3356518507705
20
176.2000000000001
10
1130.6643481492313
20
176.20000000000016
42
0.99999999999999989
10
1127.8000000000009
20
173.33565185076961
10
1127.8000000000009
20
142.66434814923062
42
0.99999999999999989
10
1130.6643481492313
20
139.80000000000013
0
LWPOLYLINE
5
149
100
AcDbEntity
8
0
100
AcDbPolyline
90
8
70
1
43
0.0
10
1143.3356518507705
20
623.80000000000018
42
0.99999999999999989
10
1146.200000000001
20
626.6643481492307
10
1146.200000000001
20
657.33565185076964
42
0.99999999999999989
10
1143.3356518507705
20
660.20000000000005
10
1130.6643481492313
20
660.20000000000005
42
0.99999999999999989
10
1127.8000000000009
20
657.33565185076964
10
1127.8000000000009
20
626.66434814923082
42
1.0000000105367119
10
1130.6643481492313
20
623.80000000000018
0
LWPOLYLINE
5
150
100
AcDbEntity
8
0
100
AcDbPolyline
90
8
70
1
43
0.0
10
1127.8000000000009
20
493.66434814923059
42
0.99999999999999989
10
1130.6643481492313
20
490.80000000000007
10
1143.3356518507705
20
490.80000000000007
42
0.99999999999999989
10
1146.200000000001
20
493.66434814923059
10
1146.200000000001
20
524.33565185076964
42
0.99999999999999989
10
1143.3356518507705
20
527.20000000000016
10
1130.6643481492313
20
527.20000000000016
42
0.99999999999999989
10
1127.8000000000009
20
524.33565185076964
0
LWPOLYLINE
5
151
100
AcDbEntity
8
0
100
AcDbPolyline
90
8
70
1
43
0.0
10
1229.3356518507703
20
204.3000000000001
42
0.99999999999999989
10
1232.2000000000007
20
207.16434814923073
10
1232.2000000000007
20
236.83565185076964
42
0.99999999999999989
10
1229.3356518507703
20
239.70000000000016
10
1171.6643481492313
20
239.70000000000022
42
0.99999999999999989
10
1168.8000000000009
20
236.83565185076964
10
1168.8000000000009
20
207.16434814923065
42
0.99999999999999989
10
1171.6643481492313
20
204.30000000000013
0
LWPOLYLINE
5
152
100
AcDbEntity
8
0
100
AcDbPolyline
90
8
70
1
43
0.0
10
2089.3356518507703
20
272.80000000000001
42
0.99999999999999989
10
2092.2000000000007
20
275.66434814923065
10
2092.2000000000007
20
306.33565185076952
42
0.99999999999999989
10
2089.3356518507703
20
309.20000000000005
10
2076.664348149231
20
309.20000000000005
42
0.99999999999999989
10
2073.8000000000006
20
306.33565185076952
10
2073.8000000000006
20
275.66434814923053
42
0.99999999999999989
10
2076.664348149231
20
272.80000000000001
0
LWPOLYLINE
5
153
100
AcDbEntity
8
0
100
AcDbPolyline
90
8
70
1
43
0.0
10
2035.3356518507708
20
713.80000000000007
42
0.99999999999999989
10
2038.2000000000012
20
716.66434814923048
10
2038.2000000000012
20
729.33565185076941
42
1.0000000105367119
10
2035.3356518507703
20
732.20000000000005
10
2004.6643481492313
20
732.19999999999982
42
0.99999999999999989
10
2001.8000000000009
20
729.33565185076975
10
2001.8000000000009
20
716.66434814923048
42
0.99999999999999989
10
2004.6643481492313
20
713.80000000000007
0
LWPOLYLINE
5
154
100
AcDbEntity
8
0
100
AcDbPolyline
90
8
70
1
43
0.0
10
2092.2000000000007
20
173.33565185076949
42
0.99999999999999989
10
2089.3356518507703
20
176.1999999999999
10
2076.664348149231
20
176.20000000000002
42
0.99999999999999989
10
2073.8000000000006
20
173.33565185076947
10
2073.8000000000006
20
142.66434814923048
42
0.99999999999999989
10
2076.664348149231
20
139.79999999999995
10
2089.3356518507703
20
139.79999999999995
42
0.99999999999999989
10
2092.2000000000007
20
142.66434814923048
0
LWPOLYLINE
5
155
100
AcDbEntity
8
0
100
AcDbPolyline
90
8
70
1
43
0.0
10
1215.3356518507703
20
67.800000000000097
42
0.99999999999999989
10
1218.1999999786599
20
70.664348170571529
10
1218.2000000000007
20
83.335651850769565
42
0.99999999999999989
10
1215.3356518507703
20
86.200000000000074
10
1184.6643481492313
20
86.200000000000102
42
0.99999999999999989
10
1181.8000000000009
20
83.335651850769608
10
1181.8000000000009
20
70.664348149230577
42
0.99999999999999989
10
1184.6643481492313
20
67.800000000000082
0
CIRCLE
5
156
100
AcDbEntity
8
0
100
AcDbCircle
10
1286.0000000000009
20
577
30
0
40
32.800000000000011
210
0
220
-0
230
1
0
CIRCLE
5
157
100
AcDbEntity
8
0
100
AcDbCircle
10
1286.0000000000009
20
223.00000000000014
30
0
40
32.800000000000011
210
0
220
-0
230
1
0
CIRCLE
5
158
100
AcDbEntity
8
0
100
AcDbCircle
10
1242.0000000000009
20
215.25000000000011
30
0
40
1.4999999999999858
210
0
220
-0
230
1
0
CIRCLE
5
159
100
AcDbEntity
8
0
100
AcDbCircle
10
1242.0000000000007
20
230.75000000000011
30
0
40
1.4999999999999858
210
0
220
-0
230
1
0
LWPOLYLINE
5
160
100
AcDbEntity
8
0
100
AcDbPolyline
90
4
70
1
43
0.0
10
1110.0000000000009
20
750.00000000000011
10
1110.0000000000007
20
50.000000000000142
10
2110.0000000000009
20
49.999999999999943
10
2110.0000000000009
20
750
0
CIRCLE
5
161
100
AcDbEntity
8
0
100
AcDbCircle
10
2313
20
946.00000000000011
30
0
40
1.9999999999999929
210
0
220
0
230
1
0
CIRCLE
5
162
100
AcDbEntity
8
0
100
AcDbCircle
10
2233
20
1106
30
0
40
2.0000000000000107
210
0
220
0
230
1
0
CIRCLE
5
163
100
AcDbEntity
8
0
100
AcDbCircle
10
2313
20
1106
30
0
40
1.9999999999999929
210
0
220
0
230
1
0
ARC
5
164
100
AcDbEntity
8
0
100
AcDbCircle
10
2242.432174074615
20
1147.4321740746152
30
0
40
2.025399999999959
210
0
220
0
230
1
100
AcDbArc
50
134.99999999999548
51
315.00000000000455
0
LINE
5
165
100
AcDbEntity
8
0
100
AcDbLine
10
2241
20
1148.8643481492304
30
0
11
2241
21
1164
31
0
0
LINE
5
166
100
AcDbEntity
8
0
100
AcDbLine
10
2241
20
1164
30
0
11
2119
21
1164
31
0
0
LINE
5
167
100
AcDbEntity
8
0
100
AcDbLine
10
2119
20
1164
30
0
11
2119
21
1155
31
0
0
SPLINE
5
168
100
AcDbEntity
8
0
100
AcDbSpline
70
4
71
5
72
16
73
10
74
0
42
0.000000001
43
0.0000000001
44
0.0000000001
40
-1
40
-1
40
-1
40
-1
40
-1
40
-1
40
-0.80000000000000004
40
-0.60000000000000009
40
-0.40000000000000002
40
-0.20000000000000001
40
0
40
0
40
0
40
0
40
0
40
0
41
1
41
1
41
1
41
1
41
1
41
1
41
1
41
1
41
1
41
1
10
2119
20
1155
30
0
10
2127.9458202168867
20
1155
30
0
10
2146.4902966139193
20
1149.5645699955073
30
0
10
2176.2628066297693
20
1125.120876982447
30
0
10
2218.5087154401017
20
1065.371449139679
30
0
10
2268.3217141935115
20
967.12795181747367
30
0
10
2298.1393963716537
20
886.63866657428753
30
0
10
2310.2966697128936
20
832.7991870569939
30
0
10
2313
20
800.92852046546727
30
0
10
2313
20
786
30
0
0
LINE
5
169
100
AcDbEntity
8
0
100
AcDbLine
10
2313
20
786
30
0
11
2331
21
786
31
0
0
LINE
5
170
100
AcDbEntity
8
0
100
AcDbLine
10
2331
20
786
30
0
11
2331
21
1164
31
0
0
LINE
5
171
100
AcDbEntity
8
0
100
AcDbLine
10
2331
20
1164
30
0
11
2313
21
1164
31
0
0
LINE
5
172
100
AcDbEntity
8
0
100
AcDbLine
10
2313
20
1164
30
0
11
2313
21
1148.8643481492304
31
0
0
ARC
5
173
100
AcDbEntity
8
0
100
AcDbCircle
10
2311.5678259253846
20
1147.4321740746152
30
0
40
2.025399999999959
210
0
220
0
230
1
100
AcDbArc
50
-134.99999999999548
51
44.999999999995438
0
LINE
5
174
100
AcDbEntity
8
0
100
AcDbLine
10
2310.1356518507696
20
1146
30
0
11
2243.8643481492304
21
1146
31
0
0
CIRCLE
5
175
100
AcDbEntity
8
0
100
AcDbCircle
10
2087
20
1003.9999999999999
30
0
40
1.9999999999999929
210
0
220
-0
230
1
0
CIRCLE
5
176
100
AcDbEntity
8
0
100
AcDbCircle
10
2167
20
843.99999999999989
30
0
40
2.0000000000000107
210
0
220
-0
230
1
0
CIRCLE
5
177
100
AcDbEntity
8
0
100
AcDbCircle
10
2087
20
843.99999999999989
30
0
40
1.9999999999999929
210
0
220
-0
230
1
0
ARC
5
178
100
AcDbEntity
8
0
100
AcDbCircle
10
2157.567825925385
20
802.56782592538468
30
0
40
2.025399999999959
210
-0
220
0
230
1
100
AcDbArc
50
-45.000000000004533
51
135.00000000000455
0
LINE
5
179
100
AcDbEntity
8
0
100
AcDbLine
10
2159
20
801.13565185076948
30
0
11
2159
21
786
31
0
0
LINE
5
180
100
AcDbEntity
8
0
100
AcDbLine
10
2159
20
786
30
0
11
2281
21
786
31
0
0
LINE
5
181
100
AcDbEntity
8
0
100
AcDbLine
10
2281
20
786
30
0
11
2281
21
795
31
0
0
SPLINE
5
182
100
AcDbEntity
8
0
100
AcDbSpline
70
4
71
5
72
16
73
10
74
0
42
0.000000001
43
0.0000000001
44
0.0000000001
40
-1
40
-1
40
-1
40
-1
40
-1
40
-1
40
-0.80000000000000004
40
-0.60000000000000009
40
-0.40000000000000002
40
-0.20000000000000001
40
0
40
0
40
0
40
0
40
0
40
0
41
1
41
1
41
1
41
1
41
1
41
1
41
1
41
1
41
1
41
1
10
2281
20
795
30
0
10
2272.0541797831133
20
795
30
0
10
2253.5097033860807
20
800.43543000449267
30
0
10
2223.7371933702307
20
824.87912301755296
30
0
10
2181.4912845598983
20
884.62855086032107
30
0
10
2131.6782858064885
20
982.87204818252633
30
0
10
2101.8606036283463
20
1063.3613334257125
30
0
10
2089.7033302871064
20
1117.2008129430062
30
0
10
2087
20
1149.0714795345327
30
0
10
2087
20
1164
30
0
0
LINE
5
183
100
AcDbEntity
8
0
100
AcDbLine
10
2087
20
1164
30
0
11
2069
21
1164
31
0
0
LINE
5
184
100
AcDbEntity
8
0
100
AcDbLine
10
2069
20
1164
30
0
11
2069
21
786
31
0
0
LINE
5
185
100
AcDbEntity
8
0
100
AcDbLine
10
2069
20
786
30
0
11
2087
21
786
31
0
0
LINE
5
186
100
AcDbEntity
8
0
100
AcDbLine
10
2087
20
786
30
0
11
2087
21
801.13565185076948
31
0
0
ARC
5
187
100
AcDbEntity
8
0
100
AcDbCircle
10
2088.4321740746154
20
802.56782592538468
30
0
40
2.025399999999959
210
0
220
-0
230
1
100
AcDbArc
50
45.00000000000454
51
224.99999999999542
0
LINE
5
188
100
AcDbEntity
8
0
100
AcDbLine
10
2089.8643481492304
20
803.99999999999989
30
0
11
2156.1356518507696
21
803.99999999999989
31
0
0
LWPOLYLINE
5
189
100
AcDbEntity
8
0
100
AcDbPolyline
90
28
70
1
43
0.0
10
2334.8643481492304
20
140.20000000000007
42
0.99999999999999989
10
2332
20
137.33565185076949
10
2332
20
86.000000000000057
10
2268
20
86.000000000000057
10
2268
20
137.33565185076958
42
0.99999999999999989
10
2265.1356518507696
20
140.20000000000007
10
2250.2000000000003
20
140.20000000000007
10
2250.1999999999998
20
175.8000000000001
10
2265.1356518507696
20
175.8000000000001
42
0.99999999999999989
10
2268
20
178.66434814923059
10
2268
20
621.33565185076941
42
0.99999999999999989
10
2265.1356518507696
20
624.19999999999982
10
2250.2000000000003
20
624.19999999999982
10
2250.1999999999998
20
659.79999999999995
10
2265.1356518507696
20
659.79999999999995
42
0.99999999999999989
10
2268
20
662.66434814923036
10
2268
20
713.99999999999989
10
2332
20
714
10
2332
20
662.66434814923036
42
0.99999999999999989
10
2334.8643481492304
20
659.79999999999995
10
2349.7999999999997
20
659.79999999999995
10
2349.8000000000002
20
624.19999999999982
10
2334.8643481492304
20
624.19999999999982
42
0.99999999999999989
10
2332
20
621.33565185076941
10
2332
20
178.66434814923056
42
0.99999998946328772
10
2334.8643481492304
20
175.8000000000001
10
2349.7999999999997
20
175.8000000000001
10
2349.8000000000002
20
140.20000000000007
0
LWPOLYLINE
5
190
100
AcDbEntity
8
0
100
AcDbPolyline
90
31
70
1
43
0.0
10
2166.8643481492304
20
643.99999999999989
42
0.99999999999999989
10
2164
20
641.13565185076948
10
2164
20
296.86434814923041
42
0.99999999999999989
10
2166.8643481492304
20
293.99999999999994
10
2212
20
293.99999999999994
10
2212
20
178.66434814923056
42
0.99999999999999989
10
2214.8643481492304
20
175.8000000000001
10
2229.7999999999997
20
175.8000000000001
10
2229.7999999999997
20
140.20000000000007
10
2214.8643481492304
20
140.20000000000007
42
0.99999999999999989
10
2212
20
137.33565185076958
10
2212
20
86.000000000000057
10
2148
20
86.000000000000057
10
2148
20
137.33565185076958
42
0.99999999999999989
10
2145.1356518507696
20
140.20000000000007
10
2130.2000000000003
20
140.20000000000007
10
2130.1999999999998
20
175.8000000000001
10
2145.1356518507696
20
175.8000000000001
42
0.99999999999999989
10
2148
20
178.66434814923059
10
2148
20
621.33565185076941
42
0.99999999999999989
10
2145.1356518507696
20
624.19999999999982
10
2130.2000000000003
20
624.19999999999982
10
2130.2000000000003
20
659.79999999999995
10
2145.1356518507696
20
659.79999999999995
42
0.99999999999999989
10
2148
20
662.66434814923036
10
2148
20
713.99999999999989
10
2212
20
714
10
2212
20
662.66434814923036
42
0.99999999999999989
10
2214.8643481492304
20
659.79999999999995
10
2229.7999999999997
20
659.79999999999995
10
2229.7999999999997
20
643.99999999999989
0
ENDSEC
0
SECTION
2
OBJECTS
0
DICTIONARY
5
C
100
AcDbDictionary
3
ACAD_GROUP
350
D
3
ACAD_MLINESTYLE
350
17
0
DICTIONARY
5
D
100
AcDbDictionary
0
DICTIONARY
5
1A
330
C
100
AcDbDictionary
0
DICTIONARY
5
17
100
AcDbDictionary
0
ENDSEC
0
EOF
