0
SECTION
2
HEADER
9
$INSUNITS
70
4
9
$ACADVER
1
AC1014
9
$HANDSEED
5
FFFF
0
ENDSEC
0
SECTION
2
TABLES
0
TABLE
2
VPORT
5
8
100
AcDbSymbolTable
0
ENDTAB
0
TABLE
2
LTYPE
5
5
100
AcDbSymbolTable
0
LTYPE
5
14
100
AcDbSymbolTableRecord
100
AcDbLinetypeTableRecord
2
BYBLOCK
70
0
0
LTYPE
5
15
100
AcDbSymbolTableRecord
100
AcDbLinetypeTableRecord
2
BYLAYER
70
0
0
ENDTAB
0
TABLE
2
LAYER
5
2
100
AcDbSymbolTable
70
2
0
LAYER
5
50
100
AcDbSymbolTableRecord
100
AcDbLayerTableRecord
2
0
70
0
6
CONTINUOUS
0
ENDTAB
0
TABLE
2
STYLE
5
3
100
AcDbSymbolTable
70
1
0
STYLE
5
11
100
AcDbSymbolTableRecord
100
AcDbTextStyleTableRecord
2
STANDARD
70
0
0
ENDTAB
0
TABLE
2
VIEW
5
6
100
AcDbSymbolTable
70
0
0
ENDTAB
0
TABLE
2
UCS
5
7
100
AcDbSymbolTable
70
0
0
ENDTAB
0
TABLE
2
APPID
5
9
100
AcDbSymbolTable
70
2
0
APPID
5
12
100
AcDbSymbolTableRecord
100
AcDbRegAppTableRecord
2
ACAD
70
0
0
ENDTAB
0
TABLE
2
DIMSTYLE
5
A
100
AcDbSymbolTable
70
1
0
ENDTAB
0
TABLE
2
BLOCK_RECORD
5
1
100
AcDbSymbolTable
70
1
0
BLOCK_RECORD
5
1F
100
AcDbSymbolTableRecord
100
AcDbBlockTableRecord
2
*MODEL_SPACE
0
BLOCK_RECORD
5
1B
100
AcDbSymbolTableRecord
100
AcDbBlockTableRecord
2
*PAPER_SPACE
0
ENDTAB
0
ENDSEC
0
SECTION
2
BLOCKS
0
BLOCK
5
20
100
AcDbEntity
100
AcDbBlockBegin
2
*MODEL_SPACE
0
ENDBLK
5
21
100
AcDbEntity
100
AcDbBlockEnd
0
BLOCK
5
1C
100
AcDbEntity
100
AcDbBlockBegin
2
*PAPER_SPACE
0
ENDBLK
5
1D
100
AcDbEntity
100
AcDbBlockEnd
0
ENDSEC
0
SECTION
2
ENTITIES
0
LWPOLYLINE
5
100
100
AcDbEntity
8
0
100
AcDbPolyline
90
8
70
1
43
0.0
10
215.79999999999998
20
-33.335651850769693
42
0.99999998946328772
10
218.66434814923059
20
-36.199999999999989
10
249.33565185076955
20
-36.200000000000031
42
0.99999999999999989
10
252.20000000000005
20
-33.335651850769793
10
252.20000000000002
20
-20.664348149230719
42
0.99999998946328772
10
249.33565185076955
20
-17.800000000000153
10
218.66434814923053
20
-17.800000000000281
42
0.99999999999999989
10
215.80000000000001
20
-20.664348149230648
0
LWPOLYLINE
5
101
100
AcDbEntity
8
0
100
AcDbPolyline
90
8
70
1
43
0.0
10
-215.80000000000001
20
-20.664348149230442
42
0.99999998946328772
10
-218.66434812788938
20
-17.799999978658917
10
-249.33565185076961
20
-17.799999999999926
42
0.99999998946328772
10
-252.20000000000002
20
-20.664348149230406
10
-252.20000000000002
20
-33.335651850769651
42
0.99999999999999989
10
-249.33565185076944
20
-36.200000000000074
10
-218.66434814923042
20
-36.199999999999939
42
0.99999999999999989
10
-215.79999999999998
20
-33.335651850769551
0
CIRCLE
5
102
100
AcDbEntity
8
0
100
AcDbCircle
10
-151.59999999999999
20
28.041999999999803
30
0
40
1.5000000000000391
210
0
220
-0
230
1
0
CIRCLE
5
103
100
AcDbEntity
8
0
100
AcDbCircle
10
54.000000000000043
20
43.154999999999859
30
0
40
1.4999999999999858
210
0
220
-0
230
1
0
CIRCLE
5
104
100
AcDbEntity
8
0
100
AcDbCircle
10
151.60000000000008
20
28.041999999999945
30
0
40
1.5000000000000036
210
0
220
-0
230
1
0
CIRCLE
5
105
100
AcDbEntity
8
0
100
AcDbCircle
10
162.00000000000006
20
43.154999999999859
30
0
40
1.4999999999999858
210
0
220
-0
230
1
0
CIRCLE
5
106
100
AcDbEntity
8
0
100
AcDbCircle
10
-64.399999999999991
20
28.041999999999803
30
0
40
1.5000000000000036
210
0
220
-0
230
1
0
CIRCLE
5
107
100
AcDbEntity
8
0
100
AcDbCircle
10
-172.39999999999998
20
28.041999999999803
30
0
40
1.4999999999999858
210
0
220
-0
230
1
0
CIRCLE
5
108
100
AcDbEntity
8
0
100
AcDbCircle
10
-53.999999999999986
20
43.154999999999859
30
0
40
1.4999999999999858
210
0
220
-0
230
1
0
CIRCLE
5
109
100
AcDbEntity
8
0
100
AcDbCircle
10
43.600000000000037
20
28.041999999999803
30
0
40
1.5000000000000036
210
0
220
-0
230
1
0
CIRCLE
5
110
100
AcDbEntity
8
0
100
AcDbCircle
10
172.40000000000006
20
28.041999999999945
30
0
40
1.5000000000000213
210
0
220
-0
230
1
0
CIRCLE
5
111
100
AcDbEntity
8
0
100
AcDbCircle
10
64.40000000000002
20
28.041999999999803
30
0
40
1.5000000000000302
210
0
220
-0
230
1
0
CIRCLE
5
112
100
AcDbEntity
8
0
100
AcDbCircle
10
-43.600000000000001
20
28.041999999999803
30
0
40
1.5000000000000302
210
0
220
-0
230
1
0
CIRCLE
5
113
100
AcDbEntity
8
0
100
AcDbCircle
10
-162
20
43.154999999999717
30
0
40
1.4999999999999858
210
0
220
-0
230
1
0
CIRCLE
5
114
100
AcDbEntity
8
0
100
AcDbCircle
10
-162.00000000000003
20
1.4210854715202004e-13
30
0
40
24.000000000000004
210
0
220
-0
230
1
0
CIRCLE
5
115
100
AcDbEntity
8
0
100
AcDbCircle
10
-54
20
1.4210854715202004e-13
30
0
40
24.000000000000004
210
0
220
-0
230
1
0
LWPOLYLINE
5
116
100
AcDbEntity
8
0
100
AcDbPolyline
90
4
70
1
43
0.0
10
270
20
53.999999999999915
10
-270
20
53.999999999999915
10
-270
20
-54.000000000000021
10
270
20
-53.999999999999915
0
LWPOLYLINE
5
117
100
AcDbEntity
8
0
100
AcDbPolyline
90
8
70
1
43
0.0
10
215.79999999999998
20
116.66434814923031
42
0.99999999999999989
10
218.66434814923053
20
113.80000000000001
10
249.33565185076955
20
113.79999999999995
42
0.99999999999999989
10
252.20000000000005
20
116.66434814923021
10
252.20000000000002
20
129.3356518507693
42
0.99999998946328772
10
249.33565185076955
20
132.19999999999985
10
218.66434814923053
20
132.19999999999973
42
0.99999999999999989
10
215.80000000000001
20
129.33565185076935
0
LWPOLYLINE
5
118
100
AcDbEntity
8
0
100
AcDbPolyline
90
8
70
1
43
0.0
10
-215.80000000000001
20
129.33565185076955
42
0.99999999999999989
10
-218.66434814923042
20
132.20000000000005
10
-249.33565185076961
20
132.2000000000001
42
0.99999999999999989
10
-252.20000000000002
20
129.33565185076961
10
-252.20000000000002
20
116.66434814923036
42
0.99999999999999989
10
-249.33565185076944
20
113.79999999999993
10
-218.66434814923042
20
113.80000000000007
42
0.99999998946328772
10
-215.79999999999998
20
116.66434814923045
0
CIRCLE
5
119
100
AcDbEntity
8
0
100
AcDbCircle
10
-151.59999999999999
20
178.0419999999998
30
0
40
1.5000000000000391
210
0
220
-0
230
1
0
CIRCLE
5
120
100
AcDbEntity
8
0
100
AcDbCircle
10
54.000000000000043
20
193.15499999999986
30
0
40
1.4999999999999858
210
0
220
-0
230
1
0
CIRCLE
5
121
100
AcDbEntity
8
0
100
AcDbCircle
10
151.60000000000008
20
178.04199999999994
30
0
40
1.5000000000000036
210
0
220
-0
230
1
0
CIRCLE
5
122
100
AcDbEntity
8
0
100
AcDbCircle
10
162.00000000000006
20
193.15499999999986
30
0
40
1.4999999999999858
210
0
220
-0
230
1
0
CIRCLE
5
123
100
AcDbEntity
8
0
100
AcDbCircle
10
-64.399999999999991
20
178.0419999999998
30
0
40
1.5000000000000036
210
0
220
-0
230
1
0
CIRCLE
5
124
100
AcDbEntity
8
0
100
AcDbCircle
10
-172.39999999999998
20
178.0419999999998
30
0
40
1.4999999999999858
210
0
220
-0
230
1
0
CIRCLE
5
125
100
AcDbEntity
8
0
100
AcDbCircle
10
-53.999999999999986
20
193.15499999999986
30
0
40
1.4999999999999858
210
0
220
-0
230
1
0
CIRCLE
5
126
100
AcDbEntity
8
0
100
AcDbCircle
10
43.600000000000037
20
178.0419999999998
30
0
40
1.5000000000000036
210
0
220
-0
230
1
0
CIRCLE
5
127
100
AcDbEntity
8
0
100
AcDbCircle
10
172.40000000000006
20
178.04199999999994
30
0
40
1.5000000000000213
210
0
220
-0
230
1
0
CIRCLE
5
128
100
AcDbEntity
8
0
100
AcDbCircle
10
64.40000000000002
20
178.0419999999998
30
0
40
1.5000000000000302
210
0
220
-0
230
1
0
CIRCLE
5
129
100
AcDbEntity
8
0
100
AcDbCircle
10
-43.600000000000001
20
178.0419999999998
30
0
40
1.5000000000000302
210
0
220
-0
230
1
0
CIRCLE
5
130
100
AcDbEntity
8
0
100
AcDbCircle
10
-162
20
193.15499999999972
30
0
40
1.4999999999999858
210
0
220
-0
230
1
0
CIRCLE
5
131
100
AcDbEntity
8
0
100
AcDbCircle
10
-162.00000000000003
20
150.00000000000014
30
0
40
24.000000000000004
210
0
220
-0
230
1
0
CIRCLE
5
132
100
AcDbEntity
8
0
100
AcDbCircle
10
-54
20
150.00000000000014
30
0
40
24.000000000000004
210
0
220
-0
230
1
0
LWPOLYLINE
5
133
100
AcDbEntity
8
0
100
AcDbPolyline
90
4
70
1
43
0.0
10
270
20
203.99999999999991
10
-270
20
203.99999999999991
10
-270
20
95.999999999999972
10
270
20
96.000000000000085
0
LWPOLYLINE
5
134
100
AcDbEntity
8
0
100
AcDbPolyline
90
8
70
1
43
0.0
10
215.79999999999998
20
266.66434814923031
42
0.99999999999999989
10
218.66434814923059
20
263.80000000000001
10
249.33565185076955
20
263.79999999999995
42
0.99999999999999989
10
252.20000000000005
20
266.66434814923025
10
252.20000000000002
20
279.33565185076924
42
0.99999999999999989
10
249.33565185076955
20
282.19999999999982
10
218.66434814923053
20
282.1999999999997
42
0.99999999999999989
10
215.80000000000001
20
279.33565185076935
0
LWPOLYLINE
5
135
100
AcDbEntity
8
0
100
AcDbPolyline
90
8
70
1
43
0.0
10
-215.80000000000001
20
279.33565185076952
42
0.99999999999999989
10
-218.66434814923051
20
282.20000000000005
10
-249.33565185076961
20
282.2000000000001
42
0.99999999999999989
10
-252.20000000000002
20
279.33565185076958
10
-252.20000000000002
20
266.66434814923036
42
0.99999999999999989
10
-249.33565185076944
20
263.7999999999999
10
-218.66434814923048
20
263.80000000000007
42
0.99999999999999989
10
-215.79999999999998
20
266.66434814923042
0
CIRCLE
5
136
100
AcDbEntity
8
0
100
AcDbCircle
10
-151.59999999999999
20
328.0419999999998
30
0
40
1.5000000000000391
210
0
220
-0
230
1
0
CIRCLE
5
137
100
AcDbEntity
8
0
100
AcDbCircle
10
54.000000000000043
20
343.15499999999986
30
0
40
1.4999999999999858
210
0
220
-0
230
1
0
CIRCLE
5
138
100
AcDbEntity
8
0
100
AcDbCircle
10
151.60000000000008
20
328.04199999999992
30
0
40
1.5000000000000036
210
0
220
-0
230
1
0
CIRCLE
5
139
100
AcDbEntity
8
0
100
AcDbCircle
10
162.00000000000006
20
343.15499999999986
30
0
40
1.4999999999999858
210
0
220
-0
230
1
0
CIRCLE
5
140
100
AcDbEntity
8
0
100
AcDbCircle
10
-64.399999999999991
20
328.0419999999998
30
0
40
1.5000000000000036
210
0
220
-0
230
1
0
CIRCLE
5
141
100
AcDbEntity
8
0
100
AcDbCircle
10
-172.39999999999998
20
328.0419999999998
30
0
40
1.4999999999999858
210
0
220
-0
230
1
0
CIRCLE
5
142
100
AcDbEntity
8
0
100
AcDbCircle
10
-53.999999999999986
20
343.15499999999986
30
0
40
1.4999999999999858
210
0
220
-0
230
1
0
CIRCLE
5
143
100
AcDbEntity
8
0
100
AcDbCircle
10
43.600000000000037
20
328.0419999999998
30
0
40
1.5000000000000036
210
0
220
-0
230
1
0
CIRCLE
5
144
100
AcDbEntity
8
0
100
AcDbCircle
10
172.40000000000006
20
328.04199999999992
30
0
40
1.5000000000000213
210
0
220
-0
230
1
0
CIRCLE
5
145
100
AcDbEntity
8
0
100
AcDbCircle
10
64.40000000000002
20
328.0419999999998
30
0
40
1.5000000000000302
210
0
220
-0
230
1
0
CIRCLE
5
146
100
AcDbEntity
8
0
100
AcDbCircle
10
-43.600000000000001
20
328.0419999999998
30
0
40
1.5000000000000302
210
0
220
-0
230
1
0
CIRCLE
5
147
100
AcDbEntity
8
0
100
AcDbCircle
10
-162
20
343.15499999999975
30
0
40
1.4999999999999858
210
0
220
-0
230
1
0
CIRCLE
5
148
100
AcDbEntity
8
0
100
AcDbCircle
10
-162.00000000000003
20
300.00000000000011
30
0
40
24.000000000000004
210
0
220
-0
230
1
0
CIRCLE
5
149
100
AcDbEntity
8
0
100
AcDbCircle
10
-54
20
300.00000000000011
30
0
40
24.000000000000004
210
0
220
-0
230
1
0
LWPOLYLINE
5
150
100
AcDbEntity
8
0
100
AcDbPolyline
90
4
70
1
43
0.0
10
270
20
353.99999999999989
10
-270
20
353.99999999999989
10
-270
20
245.99999999999997
10
270
20
246.00000000000009
0
ENDSEC
0
SECTION
2
OBJECTS
0
DICTIONARY
5
C
100
AcDbDictionary
3
ACAD_GROUP
350
D
3
ACAD_MLINESTYLE
350
17
0
DICTIONARY
5
D
100
AcDbDictionary
0
DICTIONARY
5
1A
330
C
100
AcDbDictionary
0
DICTIONARY
5
17
100
AcDbDictionary
0
ENDSEC
0
EOF
